<?xml version="1.0" encoding="UTF-8" standalone="no"?>
<svg
   version="1.1"
   width="500"
   height="500"
   id="svg344"
   sodipodi:docname="DoublePair.svg"
   inkscape:export-filename="/home/karoli/Documents/Bakalarka/Bakalarka/Bakalarka/DoublePair.png"
   inkscape:export-xdpi="96"
   inkscape:export-ydpi="96"
   inkscape:version="1.1.2 (1:1.1+202202050950+0a00cf5339)"
   xmlns:inkscape="http://www.inkscape.org/namespaces/inkscape"
   xmlns:sodipodi="http://sodipodi.sourceforge.net/DTD/sodipodi-0.dtd"
   xmlns="http://www.w3.org/2000/svg"
   xmlns:svg="http://www.w3.org/2000/svg">
  <defs
     id="defs348" />
  <sodipodi:namedview
     id="namedview346"
     pagecolor="#ffffff"
     bordercolor="#666666"
     borderopacity="1.0"
     inkscape:pageshadow="2"
     inkscape:pageopacity="0.0"
     inkscape:pagecheckerboard="0"
     showgrid="false"
     inkscape:zoom="2.0806636"
     inkscape:cx="210.26946"
     inkscape:cy="223.96701"
     inkscape:window-width="2488"
     inkscape:window-height="1403"
     inkscape:window-x="1992"
     inkscape:window-y="0"
     inkscape:window-maximized="1"
     inkscape:current-layer="svg344" />
  <polyline
     points="0,0 450,0 450,450 0,450 0,0"
     style="fill:#ffffff;stroke:#000000;stroke-width:5"
     id="polyline2"
     transform="translate(-4)" />
  <polyline
     points="0,50 450,50"
     style="fill:none;stroke:black;stroke-width:1"
     id="polyline4" />
  <polyline
     points="0,100 450,100"
     style="fill:none;stroke:black;stroke-width:1"
     id="polyline6" />
  <polyline
     points="0,150 450,150"
     style="fill:none;stroke:black;stroke-width:5"
     id="polyline8" />
  <polyline
     points="0,200 450,200"
     style="fill:none;stroke:black;stroke-width:1"
     id="polyline10" />
  <polyline
     points="0,250 450,250"
     style="fill:none;stroke:black;stroke-width:1"
     id="polyline12" />
  <polyline
     points="0,300 450,300"
     style="fill:none;stroke:black;stroke-width:5"
     id="polyline14" />
  <polyline
     points="0,350 450,350"
     style="fill:none;stroke:black;stroke-width:1"
     id="polyline16" />
  <polyline
     points="0,400 450,400"
     style="fill:none;stroke:black;stroke-width:1"
     id="polyline18" />
  <polyline
     points="50,0 50,450"
     style="fill:none;stroke:black;stroke-width:1"
     id="polyline20" />
  <polyline
     points="100,0 100,450"
     style="fill:none;stroke:black;stroke-width:1"
     id="polyline22" />
  <polyline
     points="150,0 150,450"
     style="fill:none;stroke:black;stroke-width:5"
     id="polyline24" />
  <polyline
     points="200,0 200,450"
     style="fill:none;stroke:black;stroke-width:1"
     id="polyline26" />
  <polyline
     points="250,0 250,450"
     style="fill:none;stroke:black;stroke-width:1"
     id="polyline28" />
  <polyline
     points="300,0 300,450"
     style="fill:none;stroke:black;stroke-width:5"
     id="polyline30" />
  <polyline
     points="350,0 350,450"
     style="fill:none;stroke:black;stroke-width:1"
     id="polyline32" />
  <polyline
     points="400,0 400,450"
     style="fill:none;stroke:black;stroke-width:1"
     id="polyline34" />
  <text
     x="16"
     y="35"
     style="font-wight:bold"
     font-size="30px"
     id="text36">9</text>
  <text
     x="66"
     y="35"
     style="font-wight:bold"
     font-size="30px"
     id="text38">3</text>
  <text
     x="116"
     y="35"
     style="font-wight:bold"
     font-size="30px"
     id="text40">4</text>
  <text
     x="158"
     y="20"
     style="font-wight:bold; fill:black"
     font-size="15px"
     id="text42">1</text>
  <text
     x="170"
     y="20"
     style="font-wight:bold; fill:black"
     font-size="15px"
     id="text44">2</text>
  <text
     x="182"
     y="20"
     style="font-wight:bold; fill:black"
     font-size="15px"
     id="text46">7</text>
  <text
     x="158"
     y="33"
     style="font-wight:bold; fill:black"
     font-size="15px"
     id="text48">8</text>
  <text
     x="216"
     y="35"
     style="font-wight:bold"
     font-size="30px"
     id="text50">6</text>
  <text
     x="258"
     y="20"
     style="font-wight:bold; fill:black"
     font-size="15px"
     id="text52">2</text>
  <text
     x="270"
     y="20"
     style="font-wight:bold; fill:black"
     font-size="15px"
     id="text54">7</text>
  <text
     x="282"
     y="20"
     style="font-wight:bold; fill:black"
     font-size="15px"
     id="text56">8</text>
  <text
     x="308"
     y="20"
     style="font-wight:bold; fill:black"
     font-size="15px"
     id="text58">1</text>
  <text
     x="320"
     y="20"
     style="font-wight:bold; fill:black"
     font-size="15px"
     id="text60">7</text>
  <text
     x="332"
     y="20"
     style="font-wight:bold; fill:black"
     font-size="15px"
     id="text62">8</text>
  <text
     x="366"
     y="35"
     style="font-wight:bold"
     font-size="30px"
     id="text64">5</text>
  <text
     x="408"
     y="20"
     style="font-wight:bold; fill:black"
     font-size="15px"
     id="text66">1</text>
  <text
     x="420"
     y="20"
     style="font-wight:bold; fill:black"
     font-size="15px"
     id="text68">8</text>
  <text
     x="8"
     y="70"
     style="font-wight:bold; fill:black"
     font-size="15px"
     id="text70">1</text>
  <text
     x="20"
     y="70"
     style="font-wight:bold; fill:black"
     font-size="15px"
     id="text72">7</text>
  <text
     x="58"
     y="70"
     style="font-wight:bold; fill:black"
     font-size="15px"
     id="text74">1</text>
  <text
     x="70"
     y="70"
     style="font-wight:bold; fill:black"
     font-size="15px"
     id="text76">5</text>
  <text
     x="116"
     y="85"
     style="font-wight:bold"
     font-size="30px"
     id="text78">6</text>
  <text
     x="158"
     y="70"
     style="font-wight:bold; fill:black"
     font-size="15px"
     id="text80">1</text>
  <text
     x="170"
     y="70"
     style="font-wight:bold; fill:black"
     font-size="15px"
     id="text82">7</text>
  <text
     x="182"
     y="70"
     style="font-wight:bold; fill:black"
     font-size="15px"
     id="text84">8</text>
  <text
     x="208"
     y="70"
     style="font-wight:bold; fill:black"
     font-size="15px"
     id="text86">5</text>
  <text
     x="220"
     y="70"
     style="font-wight:bold; fill:black"
     font-size="15px"
     id="text88">7</text>
  <text
     x="232"
     y="70"
     style="font-wight:bold; fill:black"
     font-size="15px"
     id="text90">8</text>
  <text
     x="266"
     y="85"
     style="font-wight:bold"
     font-size="30px"
     id="text92">4</text>
  <text
     x="316"
     y="85"
     style="font-wight:bold"
     font-size="30px"
     id="text94">9</text>
  <text
     x="366"
     y="85"
     style="font-wight:bold"
     font-size="30px"
     id="text96">2</text>
  <text
     x="416"
     y="85"
     style="font-wight:bold"
     font-size="30px"
     id="text98">3</text>
  <text
     x="8"
     y="120"
     style="font-wight:bold; fill:black"
     font-size="15px"
     id="text100">1</text>
  <text
     x="20"
     y="120"
     style="font-wight:bold; fill:black"
     font-size="15px"
     id="text102">2</text>
  <text
     x="32"
     y="120"
     style="font-wight:bold; fill:black"
     font-size="15px"
     id="text104">7</text>
  <text
     x="58"
     y="120"
     style="font-wight:bold; fill:black"
     font-size="15px"
     id="text106">1</text>
  <text
     x="70"
     y="120"
     style="font-wight:bold; fill:black"
     font-size="15px"
     id="text108">2</text>
  <text
     x="82"
     y="120"
     style="font-wight:bold; fill:black"
     font-size="15px"
     id="text110">5</text>
  <text
     x="116"
     y="135"
     style="font-wight:bold"
     font-size="30px"
     id="text112">8</text>
  <text
     x="166"
     y="135"
     style="font-wight:bold"
     font-size="30px"
     id="text114">9</text>
  <text
     x="208.20792"
     y="119.08948"
     style="fill:#000000"
     font-size="15px"
     id="text118">3</text>
  <text
     x="219.0407"
     y="118.89271"
     style="fill:#000000"
     font-size="15px"
     id="text120">5</text>
  <text
     x="208"
     y="133"
     style="font-wight:bold; fill:black"
     font-size="15px"
     id="text122">7</text>
  <text
     x="258.26208"
     y="118.47841"
     style="fill:#000000"
     font-size="15px"
     id="text126">3</text>
  <text
     x="270.10855"
     y="118.06207"
     style="fill:#000000"
     font-size="15px"
     id="text128">5</text>
  <text
     x="258"
     y="133"
     style="font-wight:bold; fill:black"
     font-size="15px"
     id="text130">7</text>
  <text
     x="308"
     y="120"
     style="font-wight:bold; fill:black"
     font-size="15px"
     id="text132">1</text>
  <text
     x="320"
     y="120"
     style="font-wight:bold; fill:black"
     font-size="15px"
     id="text134">7</text>
  <text
     x="366"
     y="135"
     style="font-wight:bold"
     font-size="30px"
     id="text136">4</text>
  <text
     x="416"
     y="135"
     style="font-wight:bold"
     font-size="30px"
     id="text138">6</text>
  <text
     x="16"
     y="185"
     style="font-wight:bold"
     font-size="30px"
     id="text140">8</text>
  <text
     x="58"
     y="170"
     style="font-wight:bold; fill:black"
     font-size="15px"
     id="text142">1</text>
  <text
     x="70"
     y="170"
     style="font-wight:bold; fill:black"
     font-size="15px"
     id="text144">2</text>
  <text
     x="82"
     y="170"
     style="font-wight:bold; fill:black"
     font-size="15px"
     id="text146">9</text>
  <text
     x="108"
     y="170"
     style="font-wight:bold; fill:black"
     font-size="15px"
     id="text148">1</text>
  <text
     x="120"
     y="170"
     style="font-wight:bold; fill:black"
     font-size="15px"
     id="text150">2</text>
  <text
     x="132"
     y="170"
     style="font-wight:bold; fill:black"
     font-size="15px"
     id="text152">3</text>
  <text
     x="108"
     y="183"
     style="font-wight:bold; fill:black"
     font-size="15px"
     id="text154">9</text>
  <text
     x="166"
     y="185"
     style="font-wight:bold"
     font-size="30px"
     id="text156">5</text>
  <text
     x="216"
     y="185"
     style="font-wight:bold"
     font-size="30px"
     id="text158">4</text>
  <text
     x="266"
     y="185"
     style="font-wight:bold"
     font-size="30px"
     id="text160">6</text>
  <text
     x="308"
     y="170"
     style="font-wight:bold; fill:black"
     font-size="15px"
     id="text162">1</text>
  <text
     x="320"
     y="170"
     style="font-wight:bold; fill:black"
     font-size="15px"
     id="text164">3</text>
  <text
     x="358"
     y="170"
     style="font-wight:bold; fill:black"
     font-size="15px"
     id="text166">1</text>
  <text
     x="370"
     y="170"
     style="font-wight:bold; fill:black"
     font-size="15px"
     id="text168">9</text>
  <text
     x="416"
     y="185"
     style="font-wight:bold"
     font-size="30px"
     id="text170">7</text>
  <text
     x="16"
     y="235"
     style="font-wight:bold"
     font-size="30px"
     id="text172">6</text>
  <text
     x="58"
     y="220"
     style="font-wight:bold; fill:black"
     font-size="15px"
     id="text174">2</text>
  <text
     x="70"
     y="220"
     style="font-wight:bold; fill:black"
     font-size="15px"
     id="text176">4</text>
  <text
     x="82"
     y="220"
     style="font-wight:bold; fill:black"
     font-size="15px"
     id="text178">9</text>
  <text
     x="108"
     y="220"
     style="font-wight:bold; fill:black"
     font-size="15px"
     id="text180">2</text>
  <text
     x="120"
     y="220"
     style="font-wight:bold; fill:black"
     font-size="15px"
     id="text182">3</text>
  <text
     x="132"
     y="220"
     style="font-wight:bold; fill:black"
     font-size="15px"
     id="text184">7</text>
  <text
     x="108"
     y="233"
     style="font-wight:bold; fill:black"
     font-size="15px"
     id="text186">9</text>
  <text
     x="158"
     y="220"
     style="font-wight:bold; fill:black"
     font-size="15px"
     id="text188">2</text>
  <text
     x="170"
     y="220"
     style="font-wight:bold; fill:black"
     font-size="15px"
     id="text190">7</text>
  <text
     x="182"
     y="220"
     style="font-wight:bold; fill:black"
     font-size="15px"
     id="text192">8</text>
  <text
     x="216"
     y="235"
     style="font-wight:bold"
     font-size="30px"
     id="text194">1</text>
  <text
     x="258"
     y="220"
     style="font-wight:bold; fill:black"
     font-size="15px"
     id="text196">2</text>
  <text
     x="270"
     y="220"
     style="font-wight:bold; fill:black"
     font-size="15px"
     id="text198">7</text>
  <text
     x="282"
     y="220"
     style="font-wight:bold; fill:black"
     font-size="15px"
     id="text200">8</text>
  <text
     x="308"
     y="220"
     style="font-wight:bold; fill:black"
     font-size="15px"
     id="text202">3</text>
  <text
     x="320"
     y="220"
     style="font-wight:bold; fill:black"
     font-size="15px"
     id="text204">4</text>
  <text
     x="332"
     y="220"
     style="font-wight:bold; fill:black"
     font-size="15px"
     id="text206">8</text>
  <text
     x="358"
     y="220"
     style="font-wight:bold; fill:black"
     font-size="15px"
     id="text208">8</text>
  <text
     x="370"
     y="220"
     style="font-wight:bold; fill:black"
     font-size="15px"
     id="text210">9</text>
  <text
     x="416"
     y="235"
     style="font-wight:bold"
     font-size="30px"
     id="text212">5</text>
  <text
     x="16"
     y="285"
     style="font-wight:bold"
     font-size="30px"
     id="text214">5</text>
  <text
     x="58"
     y="270"
     style="font-wight:bold; fill:black"
     font-size="15px"
     id="text216">1</text>
  <text
     x="70"
     y="270"
     style="font-wight:bold; fill:black"
     font-size="15px"
     id="text218">4</text>
  <text
     x="108"
     y="270"
     style="font-wight:bold; fill:black"
     font-size="15px"
     id="text220">1</text>
  <text
     x="120"
     y="270"
     style="font-wight:bold; fill:black"
     font-size="15px"
     id="text222">7</text>
  <text
     x="166"
     y="285"
     style="font-wight:bold"
     font-size="30px"
     id="text224">3</text>
  <text
     x="216"
     y="285"
     style="font-wight:bold"
     font-size="30px"
     id="text226">9</text>
  <text
     x="258"
     y="270"
     style="font-wight:bold; fill:black"
     font-size="15px"
     id="text228">7</text>
  <text
     x="270"
     y="270"
     style="font-wight:bold; fill:black"
     font-size="15px"
     id="text230">8</text>
  <text
     x="308"
     y="270"
     style="font-wight:bold; fill:black"
     font-size="15px"
     id="text232">1</text>
  <text
     x="320"
     y="270"
     style="font-wight:bold; fill:black"
     font-size="15px"
     id="text234">4</text>
  <text
     x="332"
     y="270"
     style="font-wight:bold; fill:black"
     font-size="15px"
     id="text236">8</text>
  <text
     x="366"
     y="285"
     style="font-wight:bold"
     font-size="30px"
     id="text238">6</text>
  <text
     x="416"
     y="285"
     style="font-wight:bold"
     font-size="30px"
     id="text240">2</text>
  <text
     x="16"
     y="335"
     style="font-wight:bold"
     font-size="30px"
     id="text242">3</text>
  <text
     x="66"
     y="335"
     style="font-wight:bold"
     font-size="30px"
     id="text244">6</text>
  <text
     x="108"
     y="320"
     style="font-wight:bold; fill:black"
     font-size="15px"
     id="text246">5</text>
  <text
     x="120"
     y="320"
     style="font-wight:bold; fill:black"
     font-size="15px"
     id="text248">9</text>
  <text
     x="166"
     y="335"
     style="font-wight:bold"
     font-size="30px"
     id="text250">4</text>
  <text
     x="208"
     y="320"
     style="font-wight:bold; fill:black"
     font-size="15px"
     id="text252">5</text>
  <text
     x="220"
     y="320"
     style="font-wight:bold; fill:black"
     font-size="15px"
     id="text254">8</text>
  <text
     x="266"
     y="335"
     style="font-wight:bold"
     font-size="30px"
     id="text256">1</text>
  <text
     x="316"
     y="335"
     style="font-wight:bold"
     font-size="30px"
     id="text258">2</text>
  <text
     x="366"
     y="335"
     style="font-wight:bold"
     font-size="30px"
     id="text260">7</text>
  <text
     x="408"
     y="320"
     style="font-wight:bold; fill:black"
     font-size="15px"
     id="text262">8</text>
  <text
     x="420"
     y="320"
     style="font-wight:bold; fill:black"
     font-size="15px"
     id="text264">9</text>
  <text
     x="16"
     y="385"
     style="font-wight:bold"
     font-size="30px"
     id="text266">4</text>
  <text
     x="66"
     y="385"
     style="font-wight:bold"
     font-size="30px"
     id="text268">7</text>
  <text
     x="108"
     y="370"
     style="font-wight:bold; fill:black"
     font-size="15px"
     id="text270">1</text>
  <text
     x="120"
     y="370"
     style="font-wight:bold; fill:black"
     font-size="15px"
     id="text272">2</text>
  <text
     x="132"
     y="370"
     style="font-wight:bold; fill:black"
     font-size="15px"
     id="text274">9</text>
  <text
     x="166"
     y="385"
     style="font-wight:bold"
     font-size="30px"
     id="text276">6</text>
  <text
     x="208"
     y="370"
     style="font-wight:bold; fill:black"
     font-size="15px"
     id="text278">2</text>
  <text
     x="220"
     y="370"
     style="font-wight:bold; fill:black"
     font-size="15px"
     id="text280">3</text>
  <text
     x="232"
     y="370"
     style="font-wight:bold; fill:black"
     font-size="15px"
     id="text282">8</text>
  <text
     x="270"
     y="370"
     style="font-wight:bold; fill:black"
     font-size="15px"
     id="text286">3</text>
  <text
     x="282"
     y="370"
     style="font-wight:bold; fill:black"
     font-size="15px"
     id="text288">8</text>
  <text
     x="258"
     y="383"
     style="font-wight:bold; fill:black"
     font-size="15px"
     id="text290">9</text>
  <text
     x="316"
     y="385"
     style="font-wight:bold"
     font-size="30px"
     id="text292">5</text>
  <text
     x="358"
     y="370"
     style="font-wight:bold; fill:black"
     font-size="15px"
     id="text294">1</text>
  <text
     x="370"
     y="370"
     style="font-wight:bold; fill:black"
     font-size="15px"
     id="text296">8</text>
  <text
     x="382"
     y="370"
     style="font-wight:bold; fill:black"
     font-size="15px"
     id="text298">9</text>
  <text
     x="408"
     y="370"
     style="font-wight:bold; fill:black"
     font-size="15px"
     id="text300">1</text>
  <text
     x="420"
     y="370"
     style="font-wight:bold; fill:black"
     font-size="15px"
     id="text302">8</text>
  <text
     x="432"
     y="370"
     style="font-wight:bold; fill:black"
     font-size="15px"
     id="text304">9</text>
  <text
     x="8"
     y="420"
     style="font-wight:bold; fill:black"
     font-size="15px"
     id="text306">1</text>
  <text
     x="20"
     y="420"
     style="font-wight:bold; fill:black"
     font-size="15px"
     id="text308">2</text>
  <text
     x="66"
     y="435"
     style="font-wight:bold"
     font-size="30px"
     id="text310">8</text>
  <text
     x="108"
     y="420"
     style="font-wight:bold; fill:black"
     font-size="15px"
     id="text312">1</text>
  <text
     x="120"
     y="420"
     style="font-wight:bold; fill:black"
     font-size="15px"
     id="text314">2</text>
  <text
     x="132"
     y="420"
     style="font-wight:bold; fill:black"
     font-size="15px"
     id="text316">5</text>
  <text
     x="108"
     y="433"
     style="font-wight:bold; fill:black"
     font-size="15px"
     id="text318">9</text>
  <text
     x="170"
     y="420"
     style="font-wight:bold; fill:black"
     font-size="15px"
     id="text322">7</text>
  <text
     x="208"
     y="420"
     style="font-wight:bold; fill:black"
     font-size="15px"
     id="text324">2</text>
  <text
     x="220"
     y="420"
     style="font-wight:bold; fill:black"
     font-size="15px"
     id="text326">5</text>
  <text
     x="232"
     y="420"
     style="font-wight:bold; fill:black"
     font-size="15px"
     id="text328">7</text>
  <text
     x="270"
     y="420"
     style="font-wight:bold; fill:black"
     font-size="15px"
     id="text332">5</text>
  <text
     x="282"
     y="420"
     style="font-wight:bold; fill:black"
     font-size="15px"
     id="text334">7</text>
  <text
     x="258"
     y="433"
     style="font-wight:bold; fill:black"
     font-size="15px"
     id="text336">9</text>
  <text
     x="316"
     y="435"
     style="font-wight:bold"
     font-size="30px"
     id="text338">6</text>
  <text
     x="366"
     y="435"
     style="font-wight:bold"
     font-size="30px"
     id="text340">3</text>
  <text
     x="416"
     y="435"
     style="font-wight:bold"
     font-size="30px"
     id="text342">4</text>
  <path
     style="fill:#d5e5ff;stroke-width:0.257744"
     d="M 152.5844,75.003481 V 50.64668 h 23.4547 23.45469 v 24.356801 24.3568 H 176.0391 152.5844 Z m 13.66043,-5.541494 c 0,-0.744594 -0.043,-0.773232 -1.15985,-0.773232 h -1.15985 V 63.79162 58.894486 h -0.73024 c -0.40164,0 -1.38751,0.131997 -2.19082,0.293326 -1.38003,0.277148 -1.46058,0.335344 -1.46058,1.055162 v 0.761836 l 1.28872,-0.177245 1.28872,-0.177244 v 4.019217 4.019217 h -1.15985 c -1.11689,0 -1.15985,0.02864 -1.15985,0.773232 v 0.773231 h 3.2218 3.2218 z m 8.1392,0.482695 c 0.40313,-0.652284 3.97476,-10.171777 3.97476,-10.593969 0,-0.414749 -0.32806,-0.456227 -3.60841,-0.456227 h -3.60842 v 0.764215 0.764215 l 2.55881,0.07345 2.5588,0.07345 -1.78557,4.596713 c -0.98207,2.528192 -1.78557,4.702907 -1.78557,4.832699 0,0.339342 1.48162,0.291676 1.6956,-0.05455 z m 15.17321,-0.470094 c 1.43501,-1.348122 1.37597,-4.006035 -0.1079,-4.857661 l -0.7066,-0.405529 0.71719,-0.603472 c 1.41168,-1.187852 1.11063,-3.476541 -0.57174,-4.346526 -1.68485,-0.871272 -4.68654,-0.363692 -5.36688,0.907529 -0.14596,0.272731 -0.26538,0.976361 -0.26538,1.563622 0,0.833734 0.16328,1.231024 0.745,1.812744 0.68581,0.685812 0.70606,0.757355 0.25491,0.900544 -0.68578,0.217659 -1.25766,1.445657 -1.25766,2.700597 0,2.222439 1.24621,3.157467 4.04316,3.033584 1.53792,-0.06812 1.96497,-0.187856 2.5159,-0.705432 z"
     id="path660" />
  <path
     style="fill:#d5e5ff;stroke-width:0.257744"
     d="m 185.58433,68.617249 c -0.90115,-0.455996 -1.23888,-1.776909 -0.67455,-2.638197 0.60374,-0.921417 1.55861,-1.242047 2.63803,-0.885806 1.48589,0.490389 1.86012,2.106329 0.74584,3.220609 -0.69874,0.69874 -1.70528,0.811454 -2.70932,0.303394 z"
     id="path699" />
  <path
     style="fill:#d5e5ff;stroke-width:0.257744"
     d="m 185.32202,62.836236 c -0.98037,-1.246336 -0.20481,-2.653031 1.46271,-2.653031 1.02364,0 1.88382,0.764981 1.88382,1.675336 0,1.622162 -2.30898,2.296733 -3.34653,0.977695 z"
     id="path738" />
  <path
     style="fill:#d5e5ff;stroke-width:0.257744"
     d="M 152.5844,123.97483 V 100.649 h 23.4547 23.45469 v 23.32583 23.32582 H 176.0391 152.5844 Z m 25.48026,10.56624 c 2.40062,-1.31321 4.05124,-3.78866 4.68597,-7.02764 0.50232,-2.56327 0.20308,-7.51302 -0.58253,-9.63594 -1.28368,-3.46881 -3.51104,-5.15635 -6.82617,-5.17179 -2.54075,-0.0118 -3.83999,0.46574 -5.39998,1.98493 -1.00983,0.98342 -1.42754,1.63025 -1.73977,2.69407 -1.30398,4.4428 0.56467,8.84304 4.21085,9.9156 2.54359,0.74823 4.74673,0.41772 6.59065,-0.9887 0.49586,-0.37822 0.90158,-0.61768 0.90158,-0.53213 0,0.0855 -0.18176,0.95468 -0.40391,1.9314 -0.6907,3.03678 -2.32239,4.71887 -4.88846,5.03948 -1.22191,0.15266 -2.1015,0.009 -4.95295,-0.80822 -0.55196,-0.15822 -0.57993,-0.0969 -0.57993,1.27148 v 1.43772 l 1.09541,0.28156 c 0.60248,0.15486 1.2114,0.33063 1.35316,0.39059 0.14176,0.06 1.3596,0.0785 2.70631,0.0411 2.14996,-0.0597 2.61701,-0.16009 3.82977,-0.8235 z"
     id="path777" />
  <path
     style="fill:#d5e5ff;stroke-width:0.257744"
     d="m 173.20391,124.67385 c -1.85489,-1.01276 -2.70765,-4.18446 -1.83152,-6.81201 0.86786,-2.60273 4.51019,-3.49782 6.49511,-1.59615 2.14129,2.05148 1.96009,6.46442 -0.33569,8.17559 -1.00641,0.75014 -3.16728,0.86625 -4.3279,0.23257 z"
     id="path816" />
  <path
     style="fill:#d5e5ff;stroke-width:0.257744"
     d="m 152.5844,176.0391 v -23.32583 h 23.4547 23.45469 v 23.32583 23.32582 H 176.0391 152.5844 Z m 24.94301,9.01443 c 1.72008,-0.51081 3.37807,-1.79079 4.16665,-3.21667 0.47964,-0.86727 0.65521,-1.63741 0.73953,-3.24402 0.1907,-3.63317 -0.97169,-5.873 -3.75788,-7.24119 -1.31246,-0.64449 -1.75632,-0.72517 -3.98947,-0.72517 h -2.5127 l -3.1e-4,-2.38414 -2.9e-4,-2.38413 h 4.38165 4.38164 v -1.41759 -1.41759 h -5.92811 -5.92811 v 5.54149 c 0,3.04783 0.1014,5.5415 0.22534,5.5415 0.12394,0 0.73286,-0.18823 1.35316,-0.41829 0.66274,-0.2458 1.97808,-0.42772 3.18976,-0.44117 2.25873,-0.0251 3.10158,0.27775 4.30082,1.54524 2.03692,2.15286 1.52258,5.73744 -1.03934,7.24349 -1.06344,0.62515 -1.44806,0.70298 -3.39035,0.68606 -1.72876,-0.0151 -2.53057,-0.15824 -3.80172,-0.67884 l -1.6109,-0.65974 v 1.62756 1.62756 l 1.6109,0.38168 c 2.16322,0.51255 5.94137,0.52941 7.60973,0.034 z"
     id="path855" />
  <path
     style="fill:#d5e5ff;stroke-width:0.257744"
     d="m 152.5844,273.98179 v -23.32583 h 23.4547 23.45469 v 23.32583 23.32582 H 176.0391 152.5844 Z m 25.27542,11.0542 c 3.50613,-1.0412 5.18091,-3.58552 4.82161,-7.32492 -0.16989,-1.76805 -1.12854,-3.1177 -2.80947,-3.95535 -0.74615,-0.37182 -1.17729,-0.67604 -0.95808,-0.67604 0.2192,0 0.86701,-0.33935 1.43958,-0.75411 2.88927,-2.09298 2.34234,-7.00299 -0.96994,-8.70755 -2.20354,-1.13398 -6.02379,-1.2579 -9.59471,-0.31123 l -0.96654,0.25624 v 1.43772 c 0,1.36925 0.0276,1.42966 0.57992,1.26857 5.26918,-1.53688 8.78262,-1.00515 9.51522,1.44005 0.25303,0.84456 0.24198,1.23242 -0.0595,2.08661 -0.52706,1.49349 -1.74184,2.06712 -4.67447,2.20733 l -2.26828,0.10845 v 1.22645 1.22645 l 2.39527,0.10476 c 3.40752,0.14903 4.9452,1.16864 5.2559,3.48507 0.2254,1.68047 -0.60178,3.21396 -2.14272,3.97238 -1.81645,0.89402 -5.22065,0.86027 -7.4967,-0.0743 -0.88091,-0.36171 -1.6638,-0.5955 -1.73977,-0.51953 -0.076,0.076 -0.13813,0.75347 -0.13813,1.50556 v 1.36744 l 1.35315,0.37759 c 2.10754,0.58811 2.24113,0.60616 4.72148,0.63788 1.48196,0.019 2.84927,-0.12212 3.73615,-0.3855 z"
     id="path1011" />
  <path
     style="fill:#d5e5ff;stroke-width:0.257744"
     d="m 152.5844,326.04606 v -23.32583 h 23.4547 23.45469 v 23.32583 23.32582 H 176.0391 152.5844 Z m 27.83634,6.57247 v -2.57744 h 1.54647 1.54646 v -1.41759 -1.41759 h -1.54646 -1.54647 v -7.08796 -7.08796 l -1.99751,0.005 -1.99752,0.005 -4.57495,7.00162 -4.57496,7.00162 v 1.49915 1.49914 h 5.02601 5.02601 v 2.57744 2.57744 h 1.54646 1.54646 z"
     id="path1050" />
  <path
     style="fill:#d5e5ff;stroke-width:0.257744"
     d="m 173.63083,321.72885 c 1.92616,-3.01238 3.54596,-5.52539 3.59955,-5.58445 0.0536,-0.0591 0.0974,2.40561 0.0974,5.47706 v 5.58445 h -3.59955 -3.59955 z"
     id="path1089" />
  <path
     style="fill:#d5e5ff;stroke-width:0.257744"
     d="m 152.5844,375.0174 v -24.3568 h 23.4547 23.45469 v 24.3568 24.3568 H 176.0391 152.5844 Z m 26.97098,9.72046 c 2.53876,-1.31433 3.85071,-4.01785 3.64811,-7.51761 -0.2451,-4.23397 -2.84349,-6.72262 -7.00349,-6.7077 -1.69405,0.006 -3.44707,0.6338 -4.48124,1.60467 l -0.58306,0.54736 0.15525,-0.88554 c 0.58036,-3.31048 1.63561,-5.06026 3.58609,-5.94635 1.60245,-0.72797 3.16436,-0.62532 6.51024,0.42787 0.554,0.17438 0.57993,0.11815 0.57993,-1.25791 v -1.44045 l -1.48203,-0.43121 c -1.78796,-0.52023 -4.4114,-0.57945 -5.99255,-0.13528 -2.46489,0.69244 -4.67127,2.97029 -5.73565,5.92145 -0.66457,1.84261 -0.89882,6.40455 -0.46189,8.995 0.58452,3.46541 2.62972,6.44599 4.96426,7.23469 1.39986,0.47292 5.05061,0.23577 6.29603,-0.40899 z"
     id="path1128" />
  <path
     style="fill:#d5e5ff;stroke-width:0.257744"
     d="m 173.70702,382.29779 c -1.4159,-0.95417 -1.9207,-2.08858 -1.9207,-4.31633 0,-1.48571 0.12253,-2.14165 0.52943,-2.83431 0.80759,-1.37474 2.00657,-2.06283 3.59448,-2.06283 2.59964,0 4.11693,1.80483 4.11693,4.89714 0,3.09231 -1.51729,4.89713 -4.11693,4.89713 -0.96484,0 -1.58329,-0.16303 -2.20321,-0.5808 z"
     id="path1167" />
  <path
     style="fill:#d5e5ff;stroke-width:0.257744"
     d="m 250.52709,326.04606 v -23.32583 h 23.4547 23.45469 v 23.32583 23.32582 h -23.45469 -23.4547 z m 31.96025,7.73232 v -1.41759 h -2.44857 -2.44857 v -9.6654 -9.6654 h -1.64696 c -0.90583,0 -2.77435,0.23197 -4.15228,0.51549 -1.37792,0.28352 -2.55053,0.51549 -2.60581,0.51549 -0.0553,0 -0.1005,0.63791 -0.1005,1.41759 0,1.65836 -0.14439,1.61602 3.15737,0.92585 l 2.25526,-0.47142 v 8.2139 8.2139 h -2.44857 -2.44857 v 1.41759 1.41759 h 6.4436 6.4436 z"
     id="path1362" />
  <path
     style="fill:#d5e5ff;stroke-width:0.257744"
     d="m 250.52709,273.98179 v -23.32583 h 23.4547 23.45469 v 23.32583 23.32582 h -23.45469 -23.4547 z m 12.33065,-5.09045 c 0.2813,-0.74423 1.21808,-3.19006 2.08174,-5.43517 0.86365,-2.24511 1.50487,-4.18786 1.42492,-4.31721 -0.0799,-0.12936 -1.76229,-0.23519 -3.73856,-0.23519 h -3.5932 v 0.77323 0.77323 h 2.57744 c 1.41759,0 2.57282,0.087 2.56717,0.19331 -0.006,0.10632 -0.79994,2.22304 -1.76509,4.70383 -0.96515,2.48078 -1.70758,4.5975 -1.64985,4.70382 0.0577,0.10632 0.43774,0.19331 0.84446,0.19331 0.65532,0 0.79773,-0.15404 1.25097,-1.35316 z m 14.1453,0.92213 c 1.02687,-0.48728 1.61814,-1.6076 1.61814,-3.06601 0,-0.72367 -0.20186,-1.13801 -0.88932,-1.82548 -0.68617,-0.68616 -0.80175,-0.92293 -0.50596,-1.03643 0.53997,-0.20721 1.13753,-1.46139 1.13753,-2.38748 0,-2.46609 -4.32027,-3.69476 -6.3353,-1.80174 -1.23174,1.15716 -1.02497,3.47085 0.37834,4.23354 0.41919,0.22782 0.51997,0.36978 0.26709,0.3762 -0.67995,0.0173 -1.56129,1.18932 -1.70608,2.26879 -0.18014,1.34307 0.47845,2.7251 1.55058,3.25382 1.08077,0.53299 3.34591,0.52531 4.48498,-0.0152 z"
     id="path1401" />
  <path
     style="fill:#d5e5ff;stroke-width:0.257744"
     d="m 273.37219,268.42159 c -0.82871,-0.65186 -0.91597,-1.95138 -0.19115,-2.8465 0.36529,-0.45112 0.74892,-0.60262 1.52588,-0.60262 1.38982,0 2.11005,0.66307 2.11005,1.9426 0,1.13871 -0.91139,2.04071 -2.06195,2.04071 -0.38704,0 -1.00932,-0.24039 -1.38283,-0.53419 z"
     id="path1440" />
  <path
     style="fill:#d5e5ff;stroke-width:0.257744"
     d="m 273.52365,263.14193 c -0.72217,-0.50583 -0.77865,-1.91006 -0.10149,-2.52288 0.63699,-0.57647 2.17122,-0.55112 2.7105,0.0448 1.02678,1.13458 0.19198,2.87933 -1.37764,2.87933 -0.36219,0 -0.91631,-0.18056 -1.23137,-0.40123 z"
     id="path1479" />
  <path
     style="fill:#d5e5ff;stroke-width:0.257744"
     d="m 250.52709,176.0391 v -23.32583 h 23.4547 23.45469 v 23.32583 23.32582 h -23.45469 -23.4547 z m 29.03293,8.68948 c 2.53845,-1.31418 3.85331,-4.02241 3.64503,-7.50773 -0.2424,-4.0564 -2.54884,-6.43781 -6.46604,-6.67623 -1.98716,-0.12095 -3.55272,0.34448 -4.86065,1.44502 l -0.79435,0.6684 0.178,-0.88691 c 0.69147,-3.44547 1.67727,-5.06531 3.61967,-5.94772 1.60246,-0.72798 3.16436,-0.62533 6.51025,0.42787 0.55399,0.17438 0.57992,0.11815 0.57992,-1.25791 v -1.44045 l -1.46271,-0.42522 c -0.83239,-0.24199 -2.34312,-0.42138 -3.50575,-0.41631 -1.75744,0.008 -2.27204,0.12167 -3.68134,0.81547 -3.57023,1.75761 -5.27381,5.24807 -5.2639,10.78515 0.0101,5.64972 1.82611,9.56849 4.97036,10.72565 1.58844,0.58458 5.12893,0.41704 6.53151,-0.30908 z"
     id="path1518" />
  <path
     style="fill:#d5e5ff;stroke-width:0.257744"
     d="m 273.71166,182.28851 c -1.4159,-0.95417 -1.9207,-2.08859 -1.9207,-4.31633 0,-2.22775 0.5048,-3.36216 1.9207,-4.31634 1.18775,-0.80042 3.22079,-0.80083 4.39793,-8.7e-4 1.87134,1.27171 2.5618,4.70889 1.41021,7.02012 -1.06046,2.1283 -3.88132,2.9119 -5.80814,1.61342 z"
     id="path1557" />
  <path
     style="fill:#d5e5ff;stroke-width:0.257744"
     d="M 250.52709,123.97483 V 100.649 h 23.4547 23.45469 v 23.32583 23.32582 h -23.45469 -23.4547 z m 13.78478,4.1239 c 1.03396,-2.69343 1.9587,-5.1581 2.055,-5.47706 l 0.17508,-0.57992 h -3.75465 -3.75466 v 0.64436 0.64436 h 2.57744 c 1.41759,0 2.57744,0.0881 2.57744,0.1959 0,0.10775 -0.64988,1.87652 -1.44418,3.9306 -0.79429,2.05408 -1.60346,4.17647 -1.79813,4.71642 l -0.35396,0.98174 0.92036,-0.0796 0.92035,-0.0796 z m 0.64888,-9.85911 c 1.91277,-0.95553 2.33842,-3.63757 0.79604,-5.01581 -0.7347,-0.65651 -0.75382,-0.71919 -0.31457,-1.03098 1.54156,-1.09419 1.28119,-3.54436 -0.47303,-4.45151 -0.77628,-0.40143 -3.16343,-0.52032 -4.61561,-0.22989 -0.67798,0.1356 -0.80545,0.27837 -0.80545,0.90211 0,0.83891 0.0152,0.84285 1.789,0.46245 2.30041,-0.49335 3.76288,0.42588 3.24975,2.04262 -0.18679,0.5885 -1.37119,1.07112 -2.62865,1.07112 -0.74939,0 -0.86364,0.0853 -0.86364,0.64436 0,0.5657 0.11114,0.64436 0.91038,0.64436 2.16417,0 3.35815,1.19971 2.79356,2.80695 -0.43912,1.25007 -2.91723,1.58284 -5.05709,0.67907 -0.37424,-0.15806 -0.45106,-0.0527 -0.45106,0.61862 0,1.02809 0.55525,1.26997 2.96406,1.29125 1.22877,0.0109 2.09192,-0.1278 2.70631,-0.43472 z m 10.86848,-0.0717 c 0.5303,-0.14729 1.29412,-0.65981 1.73977,-1.16738 0.6837,-0.7787 0.79443,-1.10459 0.79443,-2.3381 0,-0.89543 -0.16715,-1.71626 -0.44542,-2.18733 -0.60406,-1.0226 -2.37621,-1.85408 -3.68552,-1.72922 l -1.02393,0.0977 v -1.2311 -1.23109 h 2.19082 c 2.16505,0 2.19082,-0.008 2.19082,-0.64436 v -0.64436 h -2.96405 -2.96406 v 2.8288 2.82881 l 0.66114,-0.25137 c 1.23167,-0.46828 2.85629,-0.3049 3.63584,0.36564 0.57341,0.49322 0.71731,0.83481 0.71731,1.70269 0,0.86788 -0.1439,1.20947 -0.71731,1.70269 -0.8461,0.72779 -2.5119,0.83132 -3.91864,0.24354 l -0.89383,-0.37346 v 0.88404 c 0,0.75468 0.10372,0.90692 0.7088,1.04037 0.38984,0.086 0.82478,0.19502 0.96654,0.24231 0.55004,0.18348 2.10548,0.11171 3.00729,-0.13877 z"
     id="path1596" />
  <path
     style="fill:#d5e5ff;stroke-width:0.257744"
     d="M 250.52709,75.003481 V 50.64668 h 23.4547 23.45469 v 24.356801 24.3568 h -23.45469 -23.4547 z m 29.8983,7.603445 v -2.577439 h 1.54646 1.54646 v -1.417591 -1.417592 h -1.54646 -1.54646 v -7.087958 -7.087957 l -1.99752,0.0057 -1.99752,0.0057 -4.57495,7.011342 -4.57495,7.011344 v 1.488531 1.48853 h 5.026 5.02601 v 2.577439 2.57744 h 1.54646 1.54647 z"
     id="path1635" />
  <path
     style="fill:#87aade;stroke-width:0.257744"
     d="m 200.52477,375.0174 v -24.3568 h 24.48567 24.48567 v 24.3568 24.3568 h -24.48567 -24.48567 z m 15.67414,-5.5964 0.0806,-0.69926 -2.50626,-0.074 -2.50626,-0.074 1.92626,-2.06196 c 2.57356,-2.75483 2.79612,-3.11684 2.79612,-4.54809 0,-2.30191 -2.06898,-3.5925 -4.89714,-3.05476 -1.89492,0.36029 -2.06195,0.47905 -2.06195,1.46605 0,0.49281 0.0875,0.85735 0.19451,0.8101 2.00647,-0.88624 2.7376,-1.05504 3.62134,-0.8361 1.10823,0.27456 1.70936,1.24282 1.43939,2.31847 -0.0954,0.3802 -1.31689,1.87837 -2.71437,3.32929 -2.12335,2.20453 -2.54087,2.77185 -2.54087,3.45245 v 0.81443 l 3.54398,-0.0717 3.54398,-0.0717 z m 10.19413,0.47276 c 1.31932,-0.55125 1.96807,-1.5566 1.96807,-3.04987 0,-1.06577 -0.1237,-1.39749 -0.75746,-2.03125 l -0.75746,-0.75746 0.62859,-0.62859 c 0.74552,-0.74552 0.85789,-2.38216 0.22941,-3.34134 -0.74441,-1.1361 -2.92824,-1.58335 -5.33562,-1.09272 -0.86434,0.17615 -0.96654,0.28069 -0.96654,0.98859 0,0.69816 0.0685,0.77207 0.57992,0.62608 0.31896,-0.091 1.12721,-0.23628 1.79612,-0.32274 1.9951,-0.25791 3.3002,1.01166 2.42036,2.35446 -0.30976,0.47276 -0.72593,0.65292 -1.82558,0.79031 -1.27939,0.15985 -1.42436,0.24053 -1.42436,0.79263 0,0.52542 0.12538,0.61466 0.86364,0.61466 1.7894,0 3.00252,0.87853 3.00252,2.1744 0,1.5453 -2.91083,2.27582 -5.21931,1.30986 -0.37387,-0.15644 -0.45106,-0.0503 -0.45106,0.62037 0,0.59819 0.15118,0.86988 0.57993,1.04222 0.89655,0.36037 3.72165,0.30615 4.66883,-0.0896 z m 12.81964,-0.23396 c 1.74204,-1.17228 1.89228,-4.08009 0.25924,-5.01732 l -0.71176,-0.4085 0.7603,-0.67933 c 0.96951,-0.86625 1.09488,-2.44375 0.28087,-3.53403 -0.97221,-1.30217 -3.46102,-1.62479 -5.31116,-0.68848 -0.90753,0.45928 -1.23192,1.09502 -1.23192,2.41433 0,0.83649 0.16318,1.23093 0.7534,1.82116 0.41438,0.41437 0.64081,0.7534 0.50318,0.7534 -0.13762,0 -0.53464,0.3069 -0.88227,0.682 -0.49285,0.53178 -0.63206,0.96128 -0.63206,1.95002 0,0.69742 0.12339,1.49858 0.2742,1.78036 0.82945,1.54984 4.22443,2.07949 5.93798,0.92639 z"
     id="path2127" />
  <path
     style="fill:#87aade;stroke-width:0.257744"
     d="m 235.5433,368.5836 c -1.42355,-0.80015 -1.13603,-2.97538 0.46305,-3.50313 2.10815,-0.69575 3.81746,1.43881 2.47121,3.08601 -0.57908,0.70852 -2.04507,0.91692 -2.93426,0.41712 z"
     id="path2166" />
  <path
     style="fill:#87aade;stroke-width:0.257744"
     d="m 235.43736,362.91516 c -0.76703,-0.76703 -0.80671,-1.513 -0.11716,-2.20254 1.11277,-1.11277 3.35067,-0.33811 3.35067,1.15984 0,1.56088 -2.05324,2.22297 -3.23351,1.0427 z"
     id="path2205" />
  <path
     style="fill:#87aade;stroke-width:0.257744"
     d="M 152.5844,26.032136 V 2.7063112 h 23.4547 23.45469 V 26.032136 49.357961 H 176.0391 152.5844 Z m 12.57929,6.727281 c 0.73333,-0.379218 1.272,-1.310834 1.35626,-2.345634 0.10072,-1.236725 -0.0637,-1.761288 -0.77484,-2.472449 l -0.75746,-0.757461 0.62859,-0.628589 c 1.00476,-1.004758 0.92834,-2.755351 -0.1691,-3.873819 -0.70785,-0.721416 -0.88676,-0.773232 -2.66989,-0.773232 -1.76327,0 -1.97235,0.05859 -2.70135,0.757018 -0.66941,0.641333 -0.79016,0.948374 -0.79016,2.009231 0,0.983657 0.13481,1.387023 0.62859,1.880802 l 0.62859,0.628589 -0.75746,0.757461 c -1.13478,1.134783 -1.06747,2.977307 0.16887,4.622615 0.0365,0.04852 0.50986,0.253035 1.05201,0.45448 1.14867,0.426819 3.06156,0.307641 4.15735,-0.259012 z m 1.08114,-13.299751 c 0,-0.744594 -0.043,-0.773232 -1.15985,-0.773232 h -1.15985 V 13.7893 8.8921653 h -0.73024 c -0.40164,0 -1.38751,0.1319968 -2.19082,0.2933259 -1.38003,0.2771482 -1.46058,0.3353445 -1.46058,1.0551618 v 0.761836 l 1.28872,-0.177244 1.28872,-0.177245 v 4.019217 4.019217 h -1.15985 c -1.11689,0 -1.15985,0.02864 -1.15985,0.773232 v 0.773232 h 3.2218 3.2218 z m 11.85622,0 v -0.773232 h -2.49429 -2.49428 l 2.07079,-2.126387 c 2.8518,-2.928359 3.41841,-4.225165 2.61578,-5.986749 -0.69538,-1.5261946 -3.39012,-2.2038637 -5.71394,-1.4369333 -0.83429,0.2753401 -0.94315,0.4102186 -0.94315,1.1686183 v 0.857353 l 1.29149,-0.490726 c 1.65289,-0.628051 2.34254,-0.618636 3.18427,0.04347 1.16916,0.91966 0.94931,1.976914 -0.83888,4.034141 -0.8349,0.960515 -2.05274,2.263474 -2.70631,2.895466 -1.09059,1.054578 -1.47188,1.960986 -1.01648,2.416381 0.0945,0.09451 1.71829,0.17183 3.60841,0.17183 h 3.43659 z m 10.32786,-4.639391 c 1.12053,-2.906062 2.0388,-5.4319153 2.04059,-5.6130067 0.003,-0.2552384 -0.82242,-0.3131803 -3.66959,-0.2577439 l -3.67285,0.071513 -0.0816,0.7087958 -0.0816,0.7087958 h 2.59456 c 1.42701,0 2.59456,0.09117 2.59456,0.202601 0,0.111431 -0.7539,2.152702 -1.67533,4.536158 -0.92144,2.383455 -1.67534,4.503344 -1.67534,4.710863 0,0.267121 0.23205,0.353721 0.79459,0.296541 0.78204,-0.07949 0.8268,-0.164282 2.83193,-5.364517 z"
     id="path2244" />
  <path
     style="fill:#87aade;stroke-width:0.257744"
     d="M 250.52709,26.032136 V 2.7063112 h 23.4547 23.45469 V 26.032136 49.357961 h -23.45469 -23.4547 z m 15.67414,-6.627377 0.0806,-0.699267 -2.47348,-0.07397 -2.47348,-0.07396 2.02909,-2.190823 c 1.116,-1.204953 2.16379,-2.444164 2.32841,-2.753803 0.42751,-0.804102 0.36966,-2.701436 -0.10295,-3.376174 -0.9023,-1.2882191 -3.12038,-1.7345772 -5.4724,-1.1012452 -1.01692,0.2738286 -1.08442,0.3492571 -1.08442,1.2117502 0,0.776979 0.07,0.890057 0.45105,0.728486 1.26255,-0.535355 2.30288,-0.873403 2.71911,-0.883555 0.8031,-0.01959 1.9179,0.718368 2.08381,1.379393 0.26849,1.069739 -0.28176,1.955758 -2.81739,4.536601 -2.05861,2.095325 -2.43658,2.60872 -2.43658,3.309641 v 0.829612 l 3.54398,-0.07171 3.54398,-0.07171 z m 8.18744,0.537603 c 0.40313,-0.652284 3.97476,-10.1717779 3.97476,-10.5939691 0,-0.4147492 -0.32806,-0.4562276 -3.60841,-0.4562276 h -3.60842 v 0.7642151 0.7642146 l 2.5482,0.07345 2.5482,0.07345 -1.77497,4.60557 c -0.97623,2.533064 -1.77496,4.707778 -1.77496,4.832699 0,0.333021 1.48491,0.277492 1.6956,-0.06341 z m 15.17321,-0.470094 c 1.40159,-1.316731 1.35188,-4.019862 -0.0891,-4.846895 l -0.71026,-0.407632 0.76373,-0.682396 c 0.60513,-0.540683 0.76374,-0.896205 0.76374,-1.711956 0,-0.566258 -0.13524,-1.282257 -0.30053,-1.591108 -0.97028,-1.8129802 -5.50368,-1.8590424 -6.46347,-0.06567 -0.14596,0.272732 -0.26538,0.976362 -0.26538,1.563622 0,0.836483 0.16318,1.230928 0.7534,1.821152 0.41438,0.414373 0.64081,0.753406 0.50319,0.753406 -0.13763,0 -0.53465,0.306898 -0.88228,0.681996 -0.49285,0.531785 -0.63206,0.961281 -0.63206,1.950024 0,1.534521 0.29111,2.131316 1.36961,2.807817 1.22256,0.766864 4.25252,0.607842 5.18945,-0.272357 z"
     id="path2283" />
  <path
     style="fill:#87aade;stroke-width:0.257744"
     d="m 285.58897,18.614929 c -0.90114,-0.455997 -1.23888,-1.77691 -0.67455,-2.638198 0.60374,-0.921417 1.55861,-1.242046 2.63803,-0.885806 1.48589,0.49039 1.86012,2.10633 0.74584,3.220609 -0.69874,0.69874 -1.70528,0.811455 -2.70932,0.303395 z"
     id="path2322" />
  <path
     style="fill:#87aade;stroke-width:0.257744"
     d="m 285.34123,12.852437 c -0.67172,-0.853951 -0.6773,-1.49747 -0.0187,-2.156064 1.11277,-1.1127691 3.35067,-0.338111 3.35067,1.159847 0,1.607791 -2.30808,2.297878 -3.33196,0.996217 z"
     id="path2361" />
  <path
     style="fill:#87aade;stroke-width:0.257744"
     d="m 161.23344,25.845914 c -0.52828,-0.754224 -0.50638,-1.302156 0.0811,-2.027596 0.93957,-1.160324 3.38388,-0.50466 3.38388,0.907696 0,0.300885 -0.18056,0.80484 -0.40124,1.1199 -0.57296,0.818025 -2.49073,0.818025 -3.06369,0 z"
     id="path2400" />
  <path
     style="fill:#87aade;stroke-width:0.257744"
     d="m 161.10866,31.152255 c -0.70864,-0.900881 -0.67471,-1.781243 0.0985,-2.554395 1.25539,-1.25539 3.749,-0.421331 3.749,1.25396 0,0.341724 -0.24039,0.92692 -0.5342,1.300435 -0.76707,0.975176 -2.54618,0.975176 -3.31325,0 z"
     id="path2439" />
  <path
     style="fill:#87aade;stroke-width:0.257744"
     d="m 152.5844,225.01044 v -24.3568 h 23.4547 23.45469 v 24.3568 24.3568 H 176.0391 152.5844 Z m 13.61219,-5.5964 0.0806,-0.69927 -2.47348,-0.074 -2.47348,-0.074 2.02909,-2.19082 c 2.41644,-2.60904 2.62772,-2.96877 2.62772,-4.4738 0,-1.59235 -0.87088,-2.6107 -2.53848,-2.96834 -0.68074,-0.14599 -1.51892,-0.20077 -1.86262,-0.12174 -2.62388,0.60341 -2.55798,0.56362 -2.55798,1.54441 0,0.77779 0.0696,0.8899 0.45105,0.72636 2.61228,-1.11998 4.04276,-1.05861 4.64745,0.19938 0.54596,1.13581 0.11038,1.93754 -2.55763,4.70755 -2.12335,2.20454 -2.54087,2.77186 -2.54087,3.45246 v 0.81443 l 3.54398,-0.0717 3.54398,-0.0717 z m 8.18744,0.5376 c 0.40313,-0.65228 3.97476,-10.17177 3.97476,-10.59396 0,-0.41475 -0.32806,-0.45623 -3.60841,-0.45623 h -3.60842 v 0.76421 0.76422 l 2.5482,0.0735 2.5482,0.0735 -1.77497,4.60557 c -0.97623,2.53307 -1.77496,4.70778 -1.77496,4.8327 0,0.33302 1.48491,0.27749 1.6956,-0.0634 z m 15.17321,-0.47009 c 1.43501,-1.34812 1.37597,-4.00604 -0.1079,-4.85766 l -0.7066,-0.40553 0.71719,-0.60347 c 1.41168,-1.18785 1.11063,-3.47654 -0.57174,-4.34653 -1.68485,-0.87127 -4.68654,-0.36369 -5.36688,0.90753 -0.14596,0.27273 -0.26538,0.97636 -0.26538,1.56362 0,0.83374 0.16328,1.23103 0.745,1.81275 0.68581,0.68581 0.70606,0.75735 0.25491,0.90054 -0.65285,0.20721 -1.25766,1.42774 -1.25766,2.538 0,2.34773 1.23086,3.32074 4.04316,3.19618 1.53792,-0.0681 1.96497,-0.18785 2.5159,-0.70543 z"
     id="path2478" />
  <path
     style="fill:#87aade;stroke-width:0.257744"
     d="m 185.58433,218.63693 c -0.90094,-0.47392 -1.23662,-1.79309 -0.67455,-2.65092 0.60374,-0.92141 1.55861,-1.24204 2.63803,-0.8858 2.07046,0.68331 1.7583,3.42652 -0.42572,3.74113 -0.49998,0.072 -1.18546,-0.0191 -1.53776,-0.20441 z"
     id="path2517" />
  <path
     style="fill:#87aade;stroke-width:0.257744"
     d="m 185.43504,212.90819 c -0.76703,-0.76702 -0.80671,-1.51299 -0.11716,-2.20254 1.11277,-1.11276 3.35067,-0.33811 3.35067,1.15985 0,1.56088 -2.05324,2.22297 -3.23351,1.04269 z"
     id="path2556" />
  <path
     style="fill:#87aade;stroke-width:0.257744"
     d="m 250.52709,225.01044 v -24.3568 h 23.4547 23.45469 v 24.3568 24.3568 h -23.45469 -23.4547 z m 15.67414,-5.5964 0.0806,-0.69927 -2.47765,-0.074 -2.47765,-0.074 2.05816,-2.24104 c 2.45565,-2.67386 2.607,-2.93067 2.607,-4.42358 0,-1.59235 -0.87089,-2.6107 -2.53849,-2.96834 -0.68074,-0.14599 -1.51892,-0.20077 -1.86262,-0.12174 -2.62388,0.60341 -2.55798,0.56362 -2.55798,1.54441 0,0.77779 0.0696,0.8899 0.45105,0.72636 2.61228,-1.11998 4.04276,-1.05861 4.64745,0.19938 0.54596,1.13581 0.11038,1.93754 -2.55763,4.70755 -2.12335,2.20454 -2.54087,2.77186 -2.54087,3.45246 v 0.81443 l 3.54398,-0.0717 3.54398,-0.0717 z m 10.15971,-4.43993 c 1.10137,-2.82657 2.00249,-5.34923 2.00249,-5.60593 0,-0.42825 -0.29748,-0.46673 -3.60841,-0.46673 h -3.60842 v 0.76421 0.76422 l 2.5482,0.0735 2.5482,0.0735 -1.77497,4.60557 c -0.97623,2.53307 -1.77496,4.71513 -1.77496,4.84903 0,0.1339 0.37471,0.20712 0.83269,0.16269 0.83034,-0.0805 0.83831,-0.0952 2.83518,-5.21996 z m 12.85406,4.67872 c 1.71682,-1.15531 1.86938,-4.09322 0.2605,-5.01659 l -0.71302,-0.40922 0.76373,-0.68239 c 0.60513,-0.54069 0.76374,-0.89621 0.76374,-1.71196 0,-0.56626 -0.13524,-1.28226 -0.30053,-1.59111 -0.97739,-1.82625 -5.49666,-1.87217 -6.46347,-0.0657 -0.14596,0.27273 -0.26538,0.97636 -0.26538,1.56362 0,0.83649 0.16318,1.23093 0.7534,1.82115 0.41438,0.41438 0.64081,0.75341 0.50319,0.75341 -0.13763,0 -0.53465,0.3069 -0.88228,0.682 -0.49285,0.53178 -0.63206,0.96128 -0.63206,1.95002 0,0.69741 0.12339,1.49858 0.2742,1.78036 0.82945,1.54984 4.22443,2.07949 5.93798,0.92638 z"
     id="path2595" />
  <path
     style="fill:#87aade;stroke-width:0.257744"
     d="m 285.60062,218.6402 c -1.43735,-0.76266 -1.21754,-3.0302 0.34368,-3.54545 2.13195,-0.7036 3.88434,1.41451 2.53558,3.06476 -0.55462,0.67861 -2.03915,0.92645 -2.87926,0.48069 z"
     id="path2634" />
  <path
     style="fill:#87aade;stroke-width:0.257744"
     d="m 285.43968,212.90819 c -0.76703,-0.76702 -0.80671,-1.51299 -0.11716,-2.20254 1.11277,-1.11276 3.35067,-0.33811 3.35067,1.15985 0,1.56088 -2.05324,2.22297 -3.23351,1.04269 z"
     id="path2673" />
  <path
     style="fill:#ff0000;stroke-width:0.257744"
     d="m 155.92164,421.27486 c -0.0733,-0.11857 1.49877,-2.23529 3.49345,-4.70382 5.24547,-6.49159 5.01294,-6.16483 4.5813,-6.43798 -0.55973,-0.35422 -1.95204,-0.28636 -2.98568,0.14553 -1.17956,0.49285 -1.17125,0.49434 -1.07358,-0.1931 0.14652,-1.03131 3.18709,-1.56384 4.8805,-0.85477 0.30798,0.12895 0.82764,-0.34066 1.99437,-1.80229 1.14949,-1.44004 1.61975,-1.86753 1.73216,-1.5746 0.0979,0.25521 -0.36707,1.04737 -1.27293,2.16854 l -1.42722,1.76644 0.35652,1.01812 c 0.61674,1.76121 0.18279,2.62904 -2.92562,5.85082 l -1.92722,1.99751 h 2.62213 c 2.45031,0 2.62214,0.0338 2.62214,0.51549 0,0.48905 -0.17183,0.51549 -3.35067,0.51549 -3.26117,0 -3.35067,-0.0149 -3.35067,-0.55651 0,-0.35601 0.91739,-1.49942 2.54641,-3.17378 2.54782,-2.61872 3.18933,-3.72815 2.68099,-4.63652 -0.17092,-0.3054 -1.19606,0.81615 -4.4644,4.88426 -2.3334,2.90438 -4.32269,5.28206 -4.42064,5.28372 -0.098,0.002 -0.23806,-0.094 -0.31134,-0.21255 z"
     id="path3008-5" />
  <text
     x="258.08096"
     y="419.96832"
     style="fill:#000000"
     font-size="15px"
     id="text320-3-2">2</text>
  <path
     style="fill:#ff0000;stroke:#000000;stroke-width:1px;stroke-linecap:butt;stroke-linejoin:miter;stroke-opacity:1"
     d="m 268.1262,405.79021 -12.71069,15.71162"
     id="path2932-9" />
  <path
     style="fill:#ff0000;stroke-width:0.257744"
     d="m 255.37694,421.36803 c -0.0733,-0.11857 1.49877,-2.23529 3.49345,-4.70382 5.24547,-6.49159 5.01294,-6.16483 4.5813,-6.43798 -0.55973,-0.35422 -1.95204,-0.28636 -2.98568,0.14553 -1.17956,0.49285 -1.17125,0.49434 -1.07358,-0.1931 0.14652,-1.03131 3.18709,-1.56384 4.8805,-0.85477 0.30798,0.12895 0.82764,-0.34066 1.99437,-1.80229 1.14949,-1.44004 1.61975,-1.86753 1.73216,-1.5746 0.0979,0.25521 -0.36707,1.04737 -1.27293,2.16854 l -1.42722,1.76644 0.35652,1.01812 c 0.61674,1.76121 0.18279,2.62904 -2.92562,5.85082 l -1.92722,1.99751 h 2.62213 c 2.45031,0 2.62214,0.0338 2.62214,0.51549 0,0.48905 -0.17183,0.51549 -3.35067,0.51549 -3.26117,0 -3.35067,-0.0149 -3.35067,-0.55651 0,-0.35601 0.91739,-1.49942 2.54641,-3.17378 2.54782,-2.61872 3.18933,-3.72815 2.68099,-4.63652 -0.17092,-0.3054 -1.19606,0.81615 -4.4644,4.88426 -2.3334,2.90438 -4.32269,5.28206 -4.42064,5.28372 -0.098,0.002 -0.23806,-0.094 -0.31134,-0.21255 z"
     id="path3008-1" />
  <path
     style="fill:#87aade;stroke-width:0.257744"
     d="m 152.5844,423.98875 v -23.32583 h 23.4547 23.45469 v 23.32583 23.32582 H 176.0391 152.5844 Z m 7.97467,-7.47282 c 2.20573,-2.67448 4.17177,-4.91495 4.36898,-4.97883 0.27521,-0.0891 0.31641,0.0518 0.17726,0.6062 -0.2023,0.80604 -0.45349,1.13745 -3.31715,4.37663 -1.10445,1.24928 -1.97293,2.45496 -1.92994,2.6793 0.0654,0.34109 0.60168,0.41978 3.27565,0.48059 3.23529,0.0736 4.07072,-0.11803 3.40748,-0.78151 -0.18952,-0.18959 -1.21583,-0.35948 -2.49384,-0.41281 l -2.17178,-0.0906 1.86237,-2.04454 c 2.71223,-2.97754 3.16681,-4.02813 2.50082,-5.7798 -0.23653,-0.62213 -0.13048,-0.86596 1.03098,-2.37046 0.71204,-0.92235 1.28926,-1.92267 1.2827,-2.22294 -0.009,-0.43162 -0.35779,-0.16939 -1.66353,1.25225 l -1.6516,1.7982 -1.91604,-0.08 c -2.21157,-0.0923 -3.5202,0.3867 -3.5202,1.28851 0,0.43934 0.10717,0.50632 0.57992,0.36249 2.29386,-0.69789 3.54398,-0.73445 3.54398,-0.10362 0,0.14344 -1.54172,2.19436 -3.42605,4.55758 -3.89073,4.87956 -4.56401,5.79811 -4.56401,6.22669 0,0.69516 0.81235,-0.14166 4.624,-4.76334 z m 15.83362,-1.61265 c 1.08298,-2.79975 1.96838,-5.29342 1.96757,-5.5415 -0.001,-0.40802 -0.34569,-0.45105 -3.60988,-0.45105 h -3.60842 v 0.76421 0.76422 l 2.54858,0.0734 2.54858,0.0735 -1.64504,4.25277 c -0.90477,2.33903 -1.7115,4.45575 -1.79272,4.70383 -0.12135,0.37067 0.01,0.45105 0.73731,0.45105 h 0.88498 z"
     id="path3842" />
  <path
     style="fill:#87aade;stroke-width:0.257744"
     d="m 200.52477,423.98875 v -23.32583 h 24.48567 24.48567 v 23.32583 23.32582 h -24.48567 -24.48567 z m 26.00694,-4.23992 c 2.35282,-1.20032 2.44838,-5.03849 0.16064,-6.45239 -0.55694,-0.34421 -1.28706,-0.51955 -2.16338,-0.51955 h -1.32274 v -1.15985 -1.15985 h 2.19083 2.19082 v -0.77323 -0.77323 h -3.09293 -3.09292 v 2.85566 2.85566 l 0.83767,-0.2124 c 2.55197,-0.64708 4.31721,0.15565 4.31721,1.96323 0,1.20131 -0.57174,1.99451 -1.6528,2.293 -0.81937,0.22624 -2.32058,0.0707 -3.30877,-0.34278 -0.38014,-0.15907 -0.45106,-0.0454 -0.45106,0.72301 0,1.0468 0.15844,1.11347 2.78102,1.17025 1.15348,0.025 1.90539,-0.1099 2.60641,-0.46753 z m -10.28456,-0.39014 c 0,-0.62596 -0.0356,-0.63608 -2.49006,-0.70879 l -2.49006,-0.0738 1.92626,-2.06195 c 2.57356,-2.75484 2.79612,-3.11685 2.79612,-4.5481 0,-2.29999 -2.03498,-3.59946 -4.80918,-3.07096 -1.99311,0.37969 -2.14991,0.4878 -2.14991,1.48226 0,0.4928 0.0875,0.85734 0.19451,0.81009 2.00647,-0.88623 2.7376,-1.05504 3.62134,-0.8361 1.10823,0.27456 1.70936,1.24282 1.43939,2.31848 -0.0954,0.38019 -1.31689,1.87836 -2.71437,3.32928 -1.90403,1.97683 -2.54087,2.80803 -2.54087,3.3163 v 0.67829 h 3.60841 3.60842 z m 22.23041,-4.61439 c 1.09864,-2.88185 1.99752,-5.37335 1.99752,-5.53665 0,-0.21041 -1.08886,-0.29692 -3.73729,-0.29692 h -3.73729 v 0.77323 0.77323 h 2.57744 c 1.41759,0 2.57676,0.087 2.57593,0.19331 -7.8e-4,0.10632 -0.80003,2.25204 -1.77599,4.76826 l -1.77446,4.57496 0.93831,-0.005 0.93832,-0.005 1.99751,-5.23973 z"
     id="path3881" />
  <path
     style="fill:#87aade;stroke-width:0.257744"
     d="m 250.52709,423.98875 v -23.32583 h 23.4547 23.45469 v 23.32583 23.32582 h -23.45469 -23.4547 z m 12.75531,9.1194 c 1.31927,-0.36626 2.54029,-1.66699 2.9549,-3.14781 0.44844,-1.60167 0.25341,-4.92976 -0.36305,-6.19533 -0.71497,-1.46781 -1.74207,-2.01677 -3.55564,-1.9004 -1.20467,0.0773 -1.62594,0.23275 -2.2493,0.82996 -1.00297,0.96091 -1.39272,2.18877 -1.16878,3.6821 0.23203,1.54732 1.48696,2.88268 2.74821,2.92436 1.38152,0.0456 2.12849,-0.0592 2.48057,-0.34802 0.9313,-0.76412 0.59231,1.25873 -0.36103,2.15434 -0.68806,0.6464 -2.43724,0.84006 -3.64023,0.40304 -0.52039,-0.18905 -0.57992,-0.13028 -0.57992,0.57255 0,0.66221 0.12944,0.82061 0.83767,1.0251 1.15051,0.3322 1.70029,0.33222 2.8966,1.1e-4 z m -3.08991,-16.47525 c 2.26814,-2.82758 4.16422,-5.02092 4.2135,-4.87409 0.24875,0.74116 -0.47233,1.82675 -2.80798,4.2274 -1.94445,1.99856 -2.56537,2.80264 -2.56537,3.32213 v 0.68538 h 3.60841 3.60842 v -0.64436 c 0,-0.64242 -0.007,-0.64436 -2.46586,-0.64436 h -2.46586 l 2.01481,-2.19283 c 2.74487,-2.9874 3.33744,-4.34079 2.55619,-5.83816 -0.34322,-0.65782 -0.29665,-0.76002 1.16143,-2.54897 0.83544,-1.02502 1.51898,-1.95939 1.51898,-2.07639 0,-0.11699 -0.21035,-0.32529 -0.46745,-0.46289 -0.39362,-0.21065 -0.70418,0.052 -1.96599,1.66292 -1.36193,1.73872 -1.56013,1.89578 -2.17441,1.72314 -0.97982,-0.27538 -2.84703,-0.19275 -3.96213,0.17533 -0.86647,0.28601 -0.96654,0.41037 -0.96654,1.20116 0,0.48516 0.0453,0.88211 0.10073,0.88211 0.0554,0 0.60632,-0.22942 1.22428,-0.50982 1.15712,-0.52506 2.66722,-0.68497 2.90071,-0.30717 0.0727,0.11768 -1.77241,2.575 -4.10033,5.46071 -3.25742,4.0379 -4.16786,5.32473 -3.95164,5.58526 0.15453,0.18619 0.41173,0.33313 0.57157,0.32654 0.15985,-0.007 2.14638,-2.32546 4.41453,-5.15304 z m 16.34154,3.11593 c 2.35282,-1.20032 2.44838,-5.03849 0.16064,-6.45239 -0.55694,-0.34421 -1.28706,-0.51955 -2.16338,-0.51955 h -1.32273 v -1.15985 -1.15985 h 2.19082 2.19082 v -0.77323 -0.77323 h -3.09292 -3.09293 v 2.85566 2.85566 l 0.83767,-0.2124 c 0.46071,-0.11682 1.34362,-0.20956 1.962,-0.2061 0.90509,0.005 1.24435,0.14582 1.73977,0.72178 1.16325,1.35235 0.62849,3.28059 -1.03736,3.74055 -0.81937,0.22624 -2.32058,0.0707 -3.30877,-0.34278 -0.38014,-0.15907 -0.45106,-0.0454 -0.45106,0.72301 0,1.0468 0.15844,1.11347 2.78102,1.17025 1.15348,0.025 1.90539,-0.1099 2.60641,-0.46753 z m 11.94174,-5.03886 c 1.09966,-2.83519 1.99989,-5.29986 2.00051,-5.47706 8.4e-4,-0.24298 -0.91757,-0.32218 -3.73617,-0.32218 h -3.73729 v 0.77323 0.77323 h 2.57744 c 1.4176,0 2.57676,0.087 2.57593,0.19331 -7.8e-4,0.10632 -0.8025,2.25843 -1.78149,4.78247 l -1.77997,4.58916 0.94082,-0.0786 0.94082,-0.0786 z"
     id="path3959" />
  <path
     style="fill:#87aade;stroke-width:0.257744"
     d="m 261.21175,427.35114 c -1.69706,-1.69706 0.1645,-5.10493 2.17347,-3.97887 2.00902,1.12608 1.43772,4.61151 -0.75588,4.61151 -0.48974,0 -1.02287,-0.23793 -1.41759,-0.63264 z"
     id="path3998" />
  <text
     x="258.72778"
     y="369.14294"
     style="fill:#000000"
     font-size="15px"
     id="text320-3">2</text>
  <path
     style="fill:#ff0000;stroke:#000000;stroke-width:1px;stroke-linecap:butt;stroke-linejoin:miter;stroke-opacity:1"
     d="m 268.77302,354.96484 -12.71069,15.71162"
     id="path2932" />
  <path
     style="fill:#ff0000;stroke-width:0.257744"
     d="m 256.02376,370.54266 c -0.0733,-0.11857 1.49877,-2.23529 3.49345,-4.70382 5.24547,-6.49159 5.01294,-6.16483 4.5813,-6.43798 -0.55973,-0.35422 -1.95204,-0.28636 -2.98568,0.14553 -1.17956,0.49285 -1.17125,0.49434 -1.07358,-0.1931 0.14652,-1.03131 3.18709,-1.56384 4.8805,-0.85477 0.30798,0.12895 0.82764,-0.34066 1.99437,-1.80229 1.14949,-1.44004 1.61975,-1.86753 1.73216,-1.5746 0.0979,0.25521 -0.36707,1.04737 -1.27293,2.16854 l -1.42722,1.76644 0.35652,1.01812 c 0.61674,1.76121 0.18279,2.62904 -2.92562,5.85082 l -1.92722,1.99751 h 2.62213 c 2.45031,0 2.62214,0.0338 2.62214,0.51549 0,0.48905 -0.17183,0.51549 -3.35067,0.51549 -3.26117,0 -3.35067,-0.0149 -3.35067,-0.55651 0,-0.35601 0.91739,-1.49942 2.54641,-3.17378 2.54782,-2.61872 3.18933,-3.72815 2.68099,-4.63652 -0.17092,-0.3054 -1.19606,0.81615 -4.4644,4.88426 -2.3334,2.90438 -4.32269,5.28206 -4.42064,5.28372 -0.098,0.002 -0.23806,-0.094 -0.31134,-0.21255 z"
     id="path3008" />
  <path
     style="fill:#87aade;stroke-width:0.257744"
     d="m 250.52709,375.0174 v -24.3568 h 23.4547 23.45469 v 24.3568 24.3568 h -23.45469 -23.4547 z m 12.75531,8.08843 c 1.31927,-0.36626 2.54029,-1.66699 2.9549,-3.14781 0.44194,-1.57846 0.25333,-4.93016 -0.34668,-6.16084 -0.70219,-1.44022 -1.92318,-2.08991 -3.65743,-1.94609 -2.36583,0.1962 -3.70831,2.01827 -3.33266,4.52326 0.23203,1.54732 1.48696,2.88268 2.74821,2.92436 1.38152,0.0456 2.12849,-0.0592 2.48057,-0.34803 0.47747,-0.39175 0.64724,-0.0866 0.4504,0.80959 -0.0948,0.43158 -0.5355,1.09027 -0.97935,1.46375 -0.68444,0.57592 -0.98495,0.66001 -1.97857,0.55366 -0.64436,-0.069 -1.37453,-0.20984 -1.62261,-0.31305 -0.37253,-0.15498 -0.45105,-0.0495 -0.45105,0.60579 0,0.67371 0.12639,0.82993 0.83767,1.0353 1.15051,0.3322 1.70029,0.33222 2.8966,1.1e-4 z m -2.61708,-17.10946 c 2.23239,-2.76431 4.16201,-5.02601 4.28804,-5.02601 0.68756,0 -0.51591,1.90189 -2.68712,4.24657 -1.80048,1.94432 -2.46037,2.83721 -2.46037,3.32908 v 0.67216 h 3.47954 3.47955 v -0.77324 -0.77323 h -2.36439 -2.3644 l 1.94022,-1.99751 c 1.06712,-1.09864 2.1311,-2.36871 2.36439,-2.82239 0.48521,-0.94356 0.55381,-2.44634 0.14641,-3.20757 -0.23841,-0.44547 -0.0528,-0.79308 1.3099,-2.4534 0.87321,-1.06392 1.54913,-1.95742 1.50204,-1.98555 -0.0471,-0.0281 -0.27722,-0.19709 -0.51142,-0.37545 -0.36973,-0.28158 -0.63345,-0.0702 -2.00188,1.60447 -1.54648,1.89258 -1.59091,1.92359 -2.36781,1.65276 -0.8495,-0.29614 -2.74959,-0.1596 -3.90335,0.28048 -0.55742,0.21263 -0.7088,0.43686 -0.7088,1.04998 0,0.89217 0.10885,0.92321 1.37784,0.39299 1.06167,-0.44359 2.74606,-0.51594 2.74606,-0.11795 0,0.14776 -1.85575,2.56431 -4.1239,5.37011 -2.26814,2.8058 -4.1239,5.2269 -4.1239,5.38023 0,0.24409 0.35429,0.49663 0.78441,0.55913 0.077,0.0112 1.96656,-2.24136 4.19894,-5.00566 z m 15.73004,3.89739 c 1.31932,-0.55125 1.96807,-1.5566 1.96807,-3.04987 0,-1.06577 -0.1237,-1.39749 -0.75746,-2.03125 l -0.75746,-0.75746 0.62859,-0.62859 c 0.74552,-0.74552 0.85789,-2.38216 0.22941,-3.34134 -0.74441,-1.1361 -2.92824,-1.58335 -5.33562,-1.09272 -0.86434,0.17615 -0.96654,0.28069 -0.96654,0.98859 0,0.69816 0.0685,0.77207 0.57992,0.62608 0.31896,-0.091 1.12721,-0.23628 1.79612,-0.32274 1.9951,-0.25791 3.3002,1.01166 2.42036,2.35446 -0.30976,0.47276 -0.72593,0.65292 -1.82558,0.79031 -1.25414,0.1567 -1.42436,0.2475 -1.42436,0.75983 0,0.51276 0.15892,0.59714 1.33799,0.71044 2.08997,0.20082 3.13166,1.71242 2.07712,3.01411 -0.77146,0.95227 -3.00896,1.14333 -4.76826,0.40717 -0.37387,-0.15644 -0.45106,-0.0503 -0.45106,0.62037 0,0.59819 0.15119,0.86988 0.57993,1.04222 0.89655,0.36037 3.72165,0.30615 4.66883,-0.0896 z M 289.215,369.6598 c 1.71682,-1.15532 1.86938,-4.09323 0.2605,-5.0166 l -0.71302,-0.40922 0.76373,-0.68239 c 0.6203,-0.55424 0.76374,-0.88872 0.76374,-1.78101 0,-1.45514 -0.70959,-2.3768 -2.15127,-2.7942 -1.73055,-0.50104 -4.01927,0.0976 -4.61273,1.20647 -0.14596,0.27273 -0.26538,0.97636 -0.26538,1.56362 0,0.83649 0.16318,1.23093 0.7534,1.82116 0.41438,0.41437 0.64081,0.7534 0.50319,0.7534 -0.13763,0 -0.53465,0.3069 -0.88228,0.682 -0.49285,0.53178 -0.63206,0.96128 -0.63206,1.95002 0,0.69742 0.12339,1.49858 0.2742,1.78036 0.82945,1.54984 4.22443,2.07949 5.93798,0.92639 z"
     id="path4596" />
  <path
     style="fill:#87aade;stroke-width:0.257744"
     d="m 285.54562,368.5836 c -1.42355,-0.80015 -1.13603,-2.97538 0.46305,-3.50313 2.10815,-0.69575 3.81746,1.43881 2.47121,3.08601 -0.57908,0.70852 -2.04506,0.91692 -2.93426,0.41712 z"
     id="path4635" />
  <path
     style="fill:#87aade;stroke-width:0.257744"
     d="m 285.43968,362.91516 c -0.76703,-0.76703 -0.80671,-1.513 -0.11716,-2.20254 1.11277,-1.11277 3.35067,-0.33811 3.35067,1.15984 0,1.56088 -2.05324,2.22297 -3.23351,1.0427 z"
     id="path4674" />
  <path
     style="fill:#87aade;stroke-width:0.257744"
     d="m 261.21175,377.34882 c -1.69706,-1.69706 0.1645,-5.10493 2.17347,-3.97887 2.00902,1.12608 1.43772,4.61151 -0.75588,4.61151 -0.48974,0 -1.02287,-0.23793 -1.41759,-0.63264 z"
     id="path4713" />
  <path
     style="fill:#d5e5ff;stroke-width:0.257744"
     d="m 200.52477,326.04606 v -23.32583 h 24.48567 24.48567 v 23.32583 23.32582 h -24.48567 -24.48567 z m 13.79193,-6.17034 c 1.21241,-0.50658 1.92852,-1.75654 1.92852,-3.36619 0,-2.38135 -1.39734,-3.73728 -3.85143,-3.73728 h -1.30152 v -1.15985 -1.15985 h 2.19082 2.19083 v -0.77323 -0.77323 h -2.96406 -2.96405 v 2.83518 c 0,1.55935 0.0646,2.83518 0.14361,2.83518 0.079,0 0.6507,-0.12768 1.27048,-0.28375 1.49456,-0.37633 2.8325,0.0482 3.35865,1.06565 0.53899,1.0423 0.47764,1.6425 -0.25718,2.51577 -0.93091,1.10633 -2.07309,1.22489 -4.45113,0.46205 -0.52633,-0.16885 -0.57992,-0.10272 -0.57992,0.71551 0,0.73001 0.11034,0.9228 0.57992,1.01324 1.3446,0.25898 3.87751,0.15716 4.70646,-0.1892 z m 12.68402,-0.0599 c 1.02687,-0.48728 1.61814,-1.6076 1.61814,-3.06601 0,-0.72367 -0.20186,-1.13801 -0.88932,-1.82548 -0.68617,-0.68616 -0.80175,-0.92293 -0.50596,-1.03643 0.53997,-0.20721 1.13753,-1.46139 1.13753,-2.38748 0,-2.46609 -4.32027,-3.69476 -6.3353,-1.80174 -1.14252,1.07335 -1.0373,3.46945 0.18099,4.12146 0.43932,0.23511 0.41153,0.31283 -0.35752,0.99998 -0.74866,0.66892 -0.83387,0.88995 -0.83387,2.16302 0,1.15579 0.11914,1.54617 0.64436,2.11129 0.3544,0.38132 0.87633,0.78926 1.15985,0.90653 0.89599,0.3706 3.22751,0.26737 4.1811,-0.18514 z"
     id="path4789" />
  <path
     style="fill:#d5e5ff;stroke-width:0.257744"
     d="m 223.36987,318.42391 c -0.82871,-0.65186 -0.91598,-1.95138 -0.19115,-2.8465 0.36529,-0.45112 0.74892,-0.60262 1.52588,-0.60262 1.38982,0 2.11005,0.66307 2.11005,1.9426 0,1.13871 -0.91139,2.04071 -2.06195,2.04071 -0.38704,0 -1.00932,-0.24039 -1.38283,-0.53419 z"
     id="path4828" />
  <path
     style="fill:#d5e5ff;stroke-width:0.257744"
     d="m 223.52133,313.14425 c -0.72217,-0.50583 -0.77866,-1.91005 -0.10149,-2.52288 0.63699,-0.57647 2.17122,-0.55112 2.7105,0.0448 1.02678,1.13458 0.19198,2.87933 -1.37764,2.87933 -0.36219,0 -0.91631,-0.18055 -1.23137,-0.40123 z"
     id="path4867" />
  <path
     style="fill:#d5e5ff;stroke-width:0.257744"
     d="m 200.52477,273.98179 v -23.32583 h 24.48567 24.48567 v 23.32583 23.32582 h -24.48567 -24.48567 z m 27.54221,10.56624 c 2.32912,-1.27409 3.73057,-3.28989 4.56854,-6.57121 0.33245,-1.30183 0.39962,-2.42235 0.30128,-5.02601 -0.14361,-3.8023 -0.76168,-5.97447 -2.22611,-7.82346 -1.68841,-2.1318 -5.02891,-2.99719 -8.14072,-2.10894 -1.84515,0.52669 -3.81596,2.50101 -4.36547,4.37325 -1.71268,5.83529 1.82356,10.75731 7.36744,10.25461 1.55796,-0.14127 3.5446,-1.08027 4.08269,-1.92971 0.22095,-0.34879 0.24853,-0.22125 0.12651,0.58492 -0.5343,3.52981 -1.84301,5.52217 -4.05972,6.18046 -1.92185,0.57073 -2.30249,0.5372 -6.05916,-0.53376 -0.55105,-0.15709 -0.57993,-0.0949 -0.57993,1.24932 v 1.41464 l 1.35316,0.41301 c 0.9294,0.28367 2.11994,0.39194 3.80172,0.34572 2.15069,-0.0591 2.6166,-0.1592 3.82977,-0.82284 z"
     id="path4906" />
  <path
     style="fill:#d5e5ff;stroke-width:0.257744"
     d="m 223.2595,274.72616 c -1.30958,-0.66797 -2.17758,-2.37133 -2.19218,-4.30192 -0.0217,-2.86783 0.96224,-4.49998 3.04102,-5.04449 3.07682,-0.80593 5.54514,1.74065 5.2151,5.38044 -0.24602,2.71314 -1.52386,4.14108 -3.85126,4.30366 -0.92822,0.0648 -1.63497,-0.043 -2.21268,-0.33769 z"
     id="path4945" />
  <path
     style="fill:#d5e5ff;stroke-width:0.257744"
     d="m 200.52477,225.01044 v -24.3568 h 24.48567 24.48567 v 24.3568 24.3568 h -24.48567 -24.48567 z m 31.96025,8.7633 v -1.4176 h -2.44857 -2.44857 v -9.66539 -9.6654 h -1.64696 c -0.90583,0 -2.77436,0.23197 -4.15228,0.51549 -1.37792,0.28352 -2.55053,0.51549 -2.60581,0.51549 -0.0553,0 -0.1005,0.63791 -0.1005,1.41759 0,1.66315 -0.12767,1.62537 3.15737,0.9343 l 2.25525,-0.47444 v 8.21118 8.21118 h -2.44856 -2.44857 v 1.4176 1.41759 h 6.4436 6.4436 z"
     id="path4984" />
  <path
     style="fill:#d5e5ff;stroke-width:0.257744"
     d="m 200.52477,176.0391 v -23.32583 h 24.48567 24.48567 v 23.32583 23.32582 h -24.48567 -24.48567 z m 29.89829,6.57247 v -2.57744 h 1.54647 1.54646 v -1.41759 -1.41759 h -1.54646 -1.54647 v -7.08796 -7.08796 l -1.99751,0.006 -1.99752,0.006 -4.57495,7.01134 -4.57496,7.01135 v 1.48853 1.48853 h 5.02601 5.02601 v 2.57744 2.57744 h 1.54646 1.54646 z"
     id="path5023" />
  <path
     style="fill:#d5e5ff;stroke-width:0.257744"
     d="m 223.63769,171.72189 c 1.92604,-3.01239 3.54476,-5.52539 3.59716,-5.58445 0.0524,-0.0591 0.0953,2.40561 0.0953,5.47705 v 5.58446 h -3.59717 -3.59716 z"
     id="path5062" />
  <path
     style="fill:#d5e5ff;stroke-width:0.257744"
     d="M 200.52477,123.97483 V 100.649 h 24.48567 24.48567 v 23.32583 23.32582 h -24.48567 -24.48567 z m 13.79323,4.1239 c 1.02759,-2.69343 1.94784,-5.1581 2.04499,-5.47706 l 0.17664,-0.57992 h -3.75465 -3.75466 v 0.64436 0.64436 h 2.57744 c 1.41759,0 2.57744,0.0881 2.57744,0.1959 0,0.10775 -0.64988,1.87652 -1.44418,3.9306 -0.7943,2.05408 -1.60346,4.17647 -1.79813,4.71642 l -0.35396,0.98174 0.93036,-0.0796 0.93036,-0.0796 z m -0.0513,-9.00785 c 1.34194,-0.47859 1.93342,-1.07217 2.25373,-2.26172 0.36351,-1.34998 -0.0763,-2.66523 -1.09912,-3.28728 -0.74873,-0.45532 -0.75517,-0.47547 -0.20765,-0.64925 0.73158,-0.23219 1.33141,-1.66857 1.1259,-2.69612 -0.19788,-0.9894 -1.36346,-1.99791 -2.57086,-2.22442 -0.90112,-0.16905 -3.56309,0.0319 -4.00004,0.30192 -0.12257,0.0757 -0.22285,0.47074 -0.22285,0.87776 0,0.71205 0.0316,0.73096 0.83596,0.50028 2.21311,-0.63471 4.31892,-0.0533 4.31892,1.19245 0,1.051 -0.85166,1.66072 -2.3197,1.66072 -1.26008,0 -1.28872,0.0172 -1.28872,0.77323 0,0.75698 0.0273,0.77323 1.30044,0.77323 1.90722,0 2.97898,1.20059 2.40561,2.69477 -0.41446,1.08008 -2.90915,1.51128 -4.61643,0.79793 l -0.89383,-0.37346 v 0.86334 c 0,0.78018 0.0931,0.88808 0.96654,1.12006 1.37857,0.36614 2.87389,0.3425 4.0121,-0.0634 z m 11.15389,-0.4112 c 1.28759,-0.62331 1.90955,-1.7322 1.90955,-3.40455 0,-2.17609 -1.58511,-3.6545 -3.9306,-3.66601 l -1.22428,-0.006 v -1.09541 -1.09542 h 2.19082 2.19083 v -0.77323 -0.77323 h -2.96406 -2.96405 v 2.86276 c 0,2.62388 0.0376,2.84758 0.45105,2.68091 0.95906,-0.38665 2.40849,-0.44124 3.1842,-0.11993 1.54355,0.63936 1.84274,2.84524 0.52635,3.88071 -0.54697,0.43025 -0.93989,0.50845 -2.09523,0.41704 -0.78211,-0.0619 -1.6915,-0.20256 -2.02088,-0.31263 -0.556,-0.18578 -0.5929,-0.13837 -0.51549,0.66245 0.0966,0.99939 0.55045,1.20297 2.77275,1.24373 0.92795,0.017 1.76797,-0.15212 2.48904,-0.50119 z"
     id="path5101" />
  <path
     style="fill:#d5e5ff;stroke-width:0.257744"
     d="M 200.52477,75.003481 V 50.64668 h 24.48567 24.48567 v 24.356801 24.3568 h -24.48567 -24.48567 z m 13.79193,-5.139369 c 1.21241,-0.506575 1.92852,-1.756532 1.92852,-3.366181 0,-2.381355 -1.39734,-3.737286 -3.85143,-3.737286 h -1.30152 v -1.159848 -1.159848 h 2.19082 2.19083 v -0.773231 -0.773232 h -2.96406 -2.96405 v 2.835183 c 0,1.559351 0.0646,2.835183 0.14361,2.835183 0.079,0 0.6507,-0.127688 1.27048,-0.283751 2.86555,-0.721553 4.9426,1.996814 2.94658,3.856384 -0.89462,0.833473 -2.1155,0.886635 -4.29624,0.187078 -0.52633,-0.168841 -0.57992,-0.102716 -0.57992,0.715512 0,0.730012 0.11034,0.922799 0.57992,1.013245 1.3446,0.25898 3.87751,0.157153 4.70646,-0.189208 z m 10.06965,0.08057 c 0.40313,-0.652284 3.97476,-10.171777 3.97476,-10.593969 0,-0.414749 -0.32806,-0.456227 -3.60841,-0.456227 h -3.60842 v 0.764215 0.764215 l 2.5482,0.07345 2.5482,0.07345 -1.77497,4.605571 c -0.97623,2.533063 -1.77496,4.707778 -1.77496,4.832698 0,0.333022 1.48491,0.277492 1.6956,-0.06341 z m 14.82633,-0.29881 c 1.74661,-1.175359 1.8922,-4.080125 0.25169,-5.021651 l -0.71931,-0.412823 0.71719,-0.603472 c 1.41168,-1.187852 1.11063,-3.476541 -0.57174,-4.346526 -1.68485,-0.871272 -4.68654,-0.363692 -5.36688,0.907529 -0.14596,0.272731 -0.26538,0.976361 -0.26538,1.563622 0,0.833734 0.16328,1.231024 0.745,1.812744 0.68581,0.685812 0.70606,0.757355 0.25491,0.900544 -1.04931,0.333037 -1.66366,3.002699 -0.98346,4.273652 0.82945,1.549837 4.22443,2.079487 5.93798,0.926381 z"
     id="path5140" />
  <path
     style="fill:#d5e5ff;stroke-width:0.257744"
     d="M 200.52477,26.032136 V 2.7063112 h 24.48567 24.48567 V 26.032136 49.357961 h -24.48567 -24.48567 z m 29.01377,8.699254 c 2.5957,-1.344168 3.87612,-3.971096 3.66419,-7.517504 -0.23332,-3.904333 -2.5454,-6.398416 -6.18595,-6.672864 -2.05072,-0.154598 -3.06791,0.08936 -4.56045,1.093773 l -1.2891,0.867496 0.14064,-0.812517 c 0.41796,-2.414692 0.94612,-3.665384 1.9877,-4.706968 1.92465,-1.924645 3.78617,-2.094488 8.09403,-0.738489 0.554,0.174384 0.57993,0.118152 0.57993,-1.257909 v -1.440452 l -1.46271,-0.425222 c -0.83239,-0.241981 -2.34312,-0.421378 -3.50575,-0.416301 -4.38428,0.01914 -7.32521,2.598154 -8.58495,7.528465 -0.60278,2.359089 -0.40236,7.46235 0.38288,9.749519 0.95766,2.789377 2.49844,4.544518 4.57055,5.206417 1.32046,0.421798 4.99766,0.149126 6.16899,-0.457444 z"
     id="path5179" />
  <path
     style="fill:#d5e5ff;stroke-width:0.257744"
     d="m 223.70934,32.28155 c -1.4159,-0.954175 -1.9207,-2.088588 -1.9207,-4.316335 0,-2.227746 0.5048,-3.36216 1.9207,-4.316335 1.18774,-0.800422 3.22079,-0.800827 4.39793,-8.75e-4 1.87134,1.271717 2.5618,4.708889 1.4102,7.02012 -1.06045,2.128307 -3.88132,2.911907 -5.80813,1.613425 z"
     id="path5218" />
  <path
     style="fill:#d5e5ff;stroke-width:0.257744"
     d="m 273.64001,71.717246 c 1.92604,-3.012382 3.54476,-5.525385 3.59717,-5.584452 0.0524,-0.05907 0.0953,2.40561 0.0953,5.477058 v 5.584452 h -3.59717 -3.59716 z"
     id="path5257" />
  <path
     style="fill:#d5e5ff;stroke-width:0.257744"
     d="m 235.58665,68.617249 c -0.90115,-0.455996 -1.23888,-1.776909 -0.67455,-2.638197 0.60374,-0.921417 1.55861,-1.242047 2.63803,-0.885806 1.48589,0.490389 1.86012,2.106329 0.74584,3.220609 -0.69874,0.69874 -1.70528,0.811454 -2.70932,0.303394 z"
     id="path5296" />
  <path
     style="fill:#d5e5ff;stroke-width:0.257744"
     d="m 235.33891,62.854757 c -0.67172,-0.853951 -0.67731,-1.497469 -0.0187,-2.156064 1.11277,-1.112769 3.35067,-0.33811 3.35067,1.159848 0,1.60779 -2.30808,2.297877 -3.33196,0.996216 z"
     id="path5335" />
</svg>
