<?xml version="1.0" encoding="UTF-8" standalone="no"?>
<svg
   version="1.1"
   width="500"
   height="500"
   id="svg496"
   sodipodi:docname="JednaLiniaKandidatov.svg"
   inkscape:export-filename="/home/karoli/Documents/Bakalarka/Bakalarka/Bakalarka/JednaLiniaKandidatov.png"
   inkscape:export-xdpi="96"
   inkscape:export-ydpi="96"
   inkscape:version="1.1.2 (1:1.1+202202050950+0a00cf5339)"
   xmlns:inkscape="http://www.inkscape.org/namespaces/inkscape"
   xmlns:sodipodi="http://sodipodi.sourceforge.net/DTD/sodipodi-0.dtd"
   xmlns="http://www.w3.org/2000/svg"
   xmlns:svg="http://www.w3.org/2000/svg">
  <defs
     id="defs500" />
  <sodipodi:namedview
     id="namedview498"
     pagecolor="#ffffff"
     bordercolor="#666666"
     borderopacity="1.0"
     inkscape:pageshadow="2"
     inkscape:pageopacity="0.0"
     inkscape:pagecheckerboard="0"
     showgrid="false"
     inkscape:zoom="2.2299488"
     inkscape:cx="166.59575"
     inkscape:cy="231.84389"
     inkscape:window-width="2488"
     inkscape:window-height="1403"
     inkscape:window-x="1992"
     inkscape:window-y="0"
     inkscape:window-maximized="1"
     inkscape:current-layer="svg496" />
  <polyline
     points="0,0 450,0 450,450 0,450 0,0"
     style="fill:none;stroke:black;stroke-width:5"
     id="polyline2" />
  <polyline
     points="0,50 450,50"
     style="fill:none;stroke:black;stroke-width:1"
     id="polyline4" />
  <polyline
     points="0,100 450,100"
     style="fill:none;stroke:black;stroke-width:1"
     id="polyline6" />
  <polyline
     points="0,150 450,150"
     style="fill:none;stroke:black;stroke-width:5"
     id="polyline8" />
  <polyline
     points="0,200 450,200"
     style="fill:none;stroke:black;stroke-width:1"
     id="polyline10" />
  <polyline
     points="0,250 450,250"
     style="fill:none;stroke:black;stroke-width:1"
     id="polyline12" />
  <polyline
     points="0,300 450,300"
     style="fill:none;stroke:black;stroke-width:5"
     id="polyline14" />
  <polyline
     points="0,350 450,350"
     style="fill:none;stroke:black;stroke-width:1"
     id="polyline16" />
  <polyline
     points="0,400 450,400"
     style="fill:none;stroke:black;stroke-width:1"
     id="polyline18" />
  <polyline
     points="50,0 50,450"
     style="fill:none;stroke:black;stroke-width:1"
     id="polyline20" />
  <polyline
     points="100,0 100,450"
     style="fill:none;stroke:black;stroke-width:1"
     id="polyline22" />
  <polyline
     points="150,0 150,450"
     style="fill:none;stroke:black;stroke-width:5"
     id="polyline24" />
  <polyline
     points="200,0 200,450"
     style="fill:none;stroke:black;stroke-width:1"
     id="polyline26" />
  <polyline
     points="250,0 250,450"
     style="fill:none;stroke:black;stroke-width:1"
     id="polyline28" />
  <polyline
     points="300,0 300,450"
     style="fill:none;stroke:black;stroke-width:5"
     id="polyline30" />
  <polyline
     points="350,0 350,450"
     style="fill:none;stroke:black;stroke-width:1"
     id="polyline32" />
  <polyline
     points="400,0 400,450"
     style="fill:none;stroke:black;stroke-width:1"
     id="polyline34" />
  <text
     x="16"
     y="35"
     style="font-wight:bold"
     font-size="30px"
     id="text36">2</text>
  <text
     x="58"
     y="20"
     style="font-wight:bold; fill:black"
     font-size="15px"
     id="text38">3</text>
  <text
     x="70"
     y="20"
     style="font-wight:bold; fill:black"
     font-size="15px"
     id="text40">4</text>
  <text
     x="82"
     y="20"
     style="font-wight:bold; fill:black"
     font-size="15px"
     id="text42">7</text>
  <text
     x="108"
     y="20"
     style="font-wight:bold; fill:black"
     font-size="15px"
     id="text44">3</text>
  <text
     x="120"
     y="20"
     style="font-wight:bold; fill:black"
     font-size="15px"
     id="text46">4</text>
  <text
     x="132"
     y="20"
     style="font-wight:bold; fill:black"
     font-size="15px"
     id="text48">7</text>
  <text
     x="108"
     y="33"
     style="font-wight:bold; fill:black"
     font-size="15px"
     id="text50">9</text>
  <text
     x="166"
     y="35"
     style="font-wight:bold"
     font-size="30px"
     id="text52">1</text>
  <text
     x="208"
     y="20"
     style="font-wight:bold; fill:black"
     font-size="15px"
     id="text54">3</text>
  <text
     x="220"
     y="20"
     style="font-wight:bold; fill:black"
     font-size="15px"
     id="text56">4</text>
  <text
     x="232"
     y="20"
     style="font-wight:bold; fill:black"
     font-size="15px"
     id="text58">5</text>
  <text
     x="208"
     y="33"
     style="font-wight:bold; fill:black"
     font-size="15px"
     id="text60">8</text>
  <text
     x="258"
     y="20"
     style="font-wight:bold; fill:black"
     font-size="15px"
     id="text62">4</text>
  <text
     x="270"
     y="20"
     style="font-wight:bold; fill:black"
     font-size="15px"
     id="text64">8</text>
  <text
     x="282"
     y="20"
     style="font-wight:bold; fill:black"
     font-size="15px"
     id="text66">9</text>
  <text
     x="308"
     y="20"
     style="font-wight:bold; fill:black"
     font-size="15px"
     id="text68">3</text>
  <text
     x="320"
     y="20"
     style="font-wight:bold; fill:black"
     font-size="15px"
     id="text70">4</text>
  <text
     x="332"
     y="20"
     style="font-wight:bold; fill:black"
     font-size="15px"
     id="text72">5</text>
  <text
     x="308"
     y="33"
     style="font-wight:bold; fill:black"
     font-size="15px"
     id="text74">7</text>
  <text
     x="366"
     y="35"
     style="font-wight:bold"
     font-size="30px"
     id="text76">6</text>
  <text
     x="408"
     y="20"
     style="font-wight:bold; fill:black"
     font-size="15px"
     id="text78">4</text>
  <text
     x="420"
     y="20"
     style="font-wight:bold; fill:black"
     font-size="15px"
     id="text80">5</text>
  <text
     x="432"
     y="20"
     style="font-wight:bold; fill:black"
     font-size="15px"
     id="text82">8</text>
  <text
     x="8"
     y="70"
     style="font-wight:bold; fill:black"
     font-size="15px"
     id="text84">1</text>
  <text
     x="20"
     y="70"
     style="font-wight:bold; fill:black"
     font-size="15px"
     id="text86">3</text>
  <text
     x="32"
     y="70"
     style="font-wight:bold; fill:black"
     font-size="15px"
     id="text88">4</text>
  <text
     x="8"
     y="83"
     style="font-wight:bold; fill:black"
     font-size="15px"
     id="text90">6</text>
  <text
     x="20"
     y="83"
     style="font-wight:bold; fill:black"
     font-size="15px"
     id="text92">7</text>
  <text
     x="66"
     y="85"
     style="font-wight:bold"
     font-size="30px"
     id="text94">8</text>
  <text
     x="116"
     y="85"
     style="font-wight:bold"
     font-size="30px"
     id="text96">5</text>
  <text
     x="158"
     y="70"
     style="font-wight:bold; fill:black"
     font-size="15px"
     id="text98">3</text>
  <text
     x="170"
     y="70"
     style="font-wight:bold; fill:black"
     font-size="15px"
     id="text100">4</text>
  <text
     x="182"
     y="70"
     style="font-wight:bold; fill:black"
     font-size="15px"
     id="text102">6</text>
  <text
     x="216"
     y="85"
     style="font-wight:bold"
     font-size="30px"
     id="text104">2</text>
  <text
     x="258"
     y="70"
     style="font-wight:bold; fill:black"
     font-size="15px"
     id="text106">4</text>
  <text
     x="270"
     y="70"
     style="font-wight:bold; fill:black"
     font-size="15px"
     id="text108">6</text>
  <text
     x="308"
     y="70"
     style="font-wight:bold; fill:black"
     font-size="15px"
     id="text110">3</text>
  <text
     x="320"
     y="70"
     style="font-wight:bold; fill:black"
     font-size="15px"
     id="text112">4</text>
  <text
     x="332"
     y="70"
     style="font-wight:bold; fill:black"
     font-size="15px"
     id="text114">7</text>
  <text
     x="366"
     y="85"
     style="font-wight:bold"
     font-size="30px"
     id="text116">9</text>
  <text
     x="408"
     y="70"
     style="font-wight:bold; fill:black"
     font-size="15px"
     id="text118">4</text>
  <text
     x="8"
     y="120"
     style="font-wight:bold; fill:black"
     font-size="15px"
     id="text120">3</text>
  <text
     x="20"
     y="120"
     style="font-wight:bold; fill:black"
     font-size="15px"
     id="text122">4</text>
  <text
     x="32"
     y="120"
     style="font-wight:bold; fill:black"
     font-size="15px"
     id="text124">6</text>
  <text
     x="58"
     y="120"
     style="font-wight:bold; fill:black"
     font-size="15px"
     id="text126">3</text>
  <text
     x="70"
     y="120"
     style="font-wight:bold; fill:black"
     font-size="15px"
     id="text128">4</text>
  <text
     x="82"
     y="120"
     style="font-wight:bold; fill:black"
     font-size="15px"
     id="text130">6</text>
  <text
     x="108"
     y="120"
     style="font-wight:bold; fill:black"
     font-size="15px"
     id="text132">3</text>
  <text
     x="120"
     y="120"
     style="font-wight:bold; fill:black"
     font-size="15px"
     id="text134">4</text>
  <text
     x="132"
     y="120"
     style="font-wight:bold; fill:black"
     font-size="15px"
     id="text136">9</text>
  <text
     x="158"
     y="120"
     style="font-wight:bold; fill:black"
     font-size="15px"
     id="text138">3</text>
  <text
     x="170"
     y="120"
     style="font-wight:bold; fill:black"
     font-size="15px"
     id="text140">4</text>
  <text
     x="182"
     y="120"
     style="font-wight:bold; fill:black"
     font-size="15px"
     id="text142">5</text>
  <text
     x="158"
     y="133"
     style="font-wight:bold; fill:black"
     font-size="15px"
     id="text144">6</text>
  <text
     x="170"
     y="133"
     style="font-wight:bold; fill:black"
     font-size="15px"
     id="text146">8</text>
  <text
     x="216"
     y="135"
     style="font-wight:bold"
     font-size="30px"
     id="text148">7</text>
  <text
     x="258"
     y="120"
     style="font-wight:bold; fill:black"
     font-size="15px"
     id="text150">4</text>
  <text
     x="270"
     y="120"
     style="font-wight:bold; fill:black"
     font-size="15px"
     id="text152">6</text>
  <text
     x="282"
     y="120"
     style="font-wight:bold; fill:black"
     font-size="15px"
     id="text154">8</text>
  <text
     x="258"
     y="133"
     style="font-wight:bold; fill:black"
     font-size="15px"
     id="text156">9</text>
  <text
     x="316"
     y="135"
     style="font-wight:bold"
     font-size="30px"
     id="text158">1</text>
  <text
     x="358"
     y="120"
     style="font-wight:bold; fill:black"
     font-size="15px"
     id="text160">4</text>
  <text
     x="370"
     y="120"
     style="font-wight:bold; fill:black"
     font-size="15px"
     id="text162">5</text>
  <text
     x="382"
     y="120"
     style="font-wight:bold; fill:black"
     font-size="15px"
     id="text164">8</text>
  <text
     x="416"
     y="135"
     style="font-wight:bold"
     font-size="30px"
     id="text166">2</text>
  <text
     x="8"
     y="170"
     style="font-wight:bold; fill:black"
     font-size="15px"
     id="text168">4</text>
  <text
     x="20"
     y="170"
     style="font-wight:bold; fill:black"
     font-size="15px"
     id="text170">5</text>
  <text
     x="32"
     y="170"
     style="font-wight:bold; fill:black"
     font-size="15px"
     id="text172">6</text>
  <text
     x="8"
     y="183"
     style="font-wight:bold; fill:black"
     font-size="15px"
     id="text174">7</text>
  <text
     x="58"
     y="170"
     style="font-wight:bold; fill:black"
     font-size="15px"
     id="text176">2</text>
  <text
     x="70"
     y="170"
     style="font-wight:bold; fill:black"
     font-size="15px"
     id="text178">4</text>
  <text
     x="82"
     y="170"
     style="font-wight:bold; fill:black"
     font-size="15px"
     id="text180">5</text>
  <text
     x="58"
     y="183"
     style="font-wight:bold; fill:black"
     font-size="15px"
     id="text182">6</text>
  <text
     x="70"
     y="183"
     style="font-wight:bold; fill:black"
     font-size="15px"
     id="text184">7</text>
  <text
     x="108"
     y="170"
     style="font-wight:bold; fill:black"
     font-size="15px"
     id="text186">2</text>
  <text
     x="120"
     y="170"
     style="font-wight:bold; fill:black"
     font-size="15px"
     id="text188">4</text>
  <text
     x="132"
     y="170"
     style="font-wight:bold; fill:black"
     font-size="15px"
     id="text190">7</text>
  <text
     x="108"
     y="183"
     style="font-wight:bold; fill:black"
     font-size="15px"
     id="text192">8</text>
  <text
     x="158"
     y="170"
     style="font-wight:bold; fill:black"
     font-size="15px"
     id="text194">4</text>
  <text
     x="170"
     y="170"
     style="font-wight:bold; fill:black"
     font-size="15px"
     id="text196">6</text>
  <text
     x="182"
     y="170"
     style="font-wight:bold; fill:black"
     font-size="15px"
     id="text198">7</text>
  <text
     x="158"
     y="183"
     style="font-wight:bold; fill:black"
     font-size="15px"
     id="text200">8</text>
  <text
     x="208"
     y="170"
     style="font-wight:bold; fill:black"
     font-size="15px"
     id="text202">4</text>
  <text
     x="220"
     y="170"
     style="font-wight:bold; fill:black"
     font-size="15px"
     id="text204">8</text>
  <text
     x="266"
     y="185"
     style="font-wight:bold"
     font-size="30px"
     id="text206">1</text>
  <text
     x="308"
     y="170"
     style="font-wight:bold; fill:black"
     font-size="15px"
     id="text208">2</text>
  <text
     x="320"
     y="170"
     style="font-wight:bold; fill:black"
     font-size="15px"
     id="text210">4</text>
  <text
     x="332"
     y="170"
     style="font-wight:bold; fill:black"
     font-size="15px"
     id="text212">5</text>
  <text
     x="308"
     y="183"
     style="font-wight:bold; fill:black"
     font-size="15px"
     id="text214">6</text>
  <text
     x="320"
     y="183"
     style="font-wight:bold; fill:black"
     font-size="15px"
     id="text216">7</text>
  <text
     x="332"
     y="183"
     style="font-wight:bold; fill:black"
     font-size="15px"
     id="text218">9</text>
  <text
     x="358"
     y="170"
     style="font-wight:bold; fill:black"
     font-size="15px"
     id="text220">2</text>
  <text
     x="370"
     y="170"
     style="font-wight:bold; fill:black"
     font-size="15px"
     id="text222">4</text>
  <text
     x="382"
     y="170"
     style="font-wight:bold; fill:black"
     font-size="15px"
     id="text224">5</text>
  <text
     x="358"
     y="183"
     style="font-wight:bold; fill:black"
     font-size="15px"
     id="text226">7</text>
  <text
     x="370"
     y="183"
     style="font-wight:bold; fill:black"
     font-size="15px"
     id="text228">8</text>
  <text
     x="416"
     y="185"
     style="font-wight:bold"
     font-size="30px"
     id="text230">3</text>
  <text
     x="8"
     y="220"
     style="font-wight:bold; fill:black"
     font-size="15px"
     id="text232">1</text>
  <text
     x="20"
     y="220"
     style="font-wight:bold; fill:black"
     font-size="15px"
     id="text234">3</text>
  <text
     x="32"
     y="220"
     style="font-wight:bold; fill:black"
     font-size="15px"
     id="text236">4</text>
  <text
     x="8"
     y="233"
     style="font-wight:bold; fill:black"
     font-size="15px"
     id="text238">6</text>
  <text
     x="20"
     y="233"
     style="font-wight:bold; fill:black"
     font-size="15px"
     id="text240">7</text>
  <text
     x="58"
     y="220"
     style="font-wight:bold; fill:black"
     font-size="15px"
     id="text242">2</text>
  <text
     x="70"
     y="220"
     style="font-wight:bold; fill:black"
     font-size="15px"
     id="text244">3</text>
  <text
     x="82"
     y="220"
     style="font-wight:bold; fill:black"
     font-size="15px"
     id="text246">4</text>
  <text
     x="58"
     y="233"
     style="font-wight:bold; fill:black"
     font-size="15px"
     id="text248">6</text>
  <text
     x="70"
     y="233"
     style="font-wight:bold; fill:black"
     font-size="15px"
     id="text250">7</text>
  <text
     x="108"
     y="220"
     style="font-wight:bold; fill:black"
     font-size="15px"
     id="text252">1</text>
  <text
     x="120"
     y="220"
     style="font-wight:bold; fill:black"
     font-size="15px"
     id="text254">2</text>
  <text
     x="132"
     y="220"
     style="font-wight:bold; fill:black"
     font-size="15px"
     id="text256">3</text>
  <text
     x="108"
     y="233"
     style="font-wight:bold; fill:black"
     font-size="15px"
     id="text258">4</text>
  <text
     x="120"
     y="233"
     style="font-wight:bold; fill:black"
     font-size="15px"
     id="text260">7</text>
  <text
     x="132"
     y="233"
     style="font-wight:bold; fill:black"
     font-size="15px"
     id="text262">8</text>
  <text
     x="166"
     y="235"
     style="font-wight:bold"
     font-size="30px"
     id="text264">9</text>
  <text
     x="208"
     y="220"
     style="font-wight:bold; fill:black"
     font-size="15px"
     id="text266">3</text>
  <text
     x="220"
     y="220"
     style="font-wight:bold; fill:black"
     font-size="15px"
     id="text268">4</text>
  <text
     x="232"
     y="220"
     style="font-wight:bold; fill:black"
     font-size="15px"
     id="text270">8</text>
  <text
     x="266"
     y="235"
     style="font-wight:bold"
     font-size="30px"
     id="text272">5</text>
  <text
     x="308"
     y="220"
     style="font-wight:bold; fill:black"
     font-size="15px"
     id="text274">2</text>
  <text
     x="320"
     y="220"
     style="font-wight:bold; fill:black"
     font-size="15px"
     id="text276">4</text>
  <text
     x="332"
     y="220"
     style="font-wight:bold; fill:black"
     font-size="15px"
     id="text278">6</text>
  <text
     x="308"
     y="233"
     style="font-wight:bold; fill:black"
     font-size="15px"
     id="text280">7</text>
  <text
     x="358"
     y="220"
     style="font-wight:bold; fill:black"
     font-size="15px"
     id="text282">1</text>
  <text
     x="370"
     y="220"
     style="font-wight:bold; fill:black"
     font-size="15px"
     id="text284">2</text>
  <text
     x="382"
     y="220"
     style="font-wight:bold; fill:black"
     font-size="15px"
     id="text286">4</text>
  <text
     x="358"
     y="233"
     style="font-wight:bold; fill:black"
     font-size="15px"
     id="text288">7</text>
  <text
     x="370"
     y="233"
     style="font-wight:bold; fill:black"
     font-size="15px"
     id="text290">8</text>
  <text
     x="408"
     y="220"
     style="font-wight:bold; fill:black"
     font-size="15px"
     id="text292">1</text>
  <text
     x="420"
     y="220"
     style="font-wight:bold; fill:black"
     font-size="15px"
     id="text294">4</text>
  <text
     x="432"
     y="220"
     style="font-wight:bold; fill:black"
     font-size="15px"
     id="text296">6</text>
  <text
     x="408"
     y="233"
     style="font-wight:bold; fill:black"
     font-size="15px"
     id="text298">8</text>
  <text
     x="16"
     y="285"
     style="font-wight:bold"
     font-size="30px"
     id="text300">9</text>
  <text
     x="58"
     y="270"
     style="font-wight:bold; fill:black"
     font-size="15px"
     id="text302">3</text>
  <text
     x="70"
     y="270"
     style="font-wight:bold; fill:black"
     font-size="15px"
     id="text304">4</text>
  <text
     x="82"
     y="270"
     style="font-wight:bold; fill:black"
     font-size="15px"
     id="text306">5</text>
  <text
     x="58"
     y="283"
     style="font-wight:bold; fill:black"
     font-size="15px"
     id="text308">6</text>
  <text
     x="70"
     y="283"
     style="font-wight:bold; fill:black"
     font-size="15px"
     id="text310">7</text>
  <text
     x="108"
     y="270"
     style="font-wight:bold; fill:black"
     font-size="15px"
     id="text312">1</text>
  <text
     x="120"
     y="270"
     style="font-wight:bold; fill:black"
     font-size="15px"
     id="text314">3</text>
  <text
     x="132"
     y="270"
     style="font-wight:bold; fill:black"
     font-size="15px"
     id="text316">4</text>
  <text
     x="108"
     y="283"
     style="font-wight:bold; fill:black"
     font-size="15px"
     id="text318">7</text>
  <text
     x="120"
     y="283"
     style="font-wight:bold; fill:black"
     font-size="15px"
     id="text320">8</text>
  <text
     x="166"
     y="285"
     style="font-wight:bold"
     font-size="30px"
     id="text322">2</text>
  <text
     x="208"
     y="270"
     style="font-wight:bold; fill:black"
     font-size="15px"
     id="text324">3</text>
  <text
     x="220"
     y="270"
     style="font-wight:bold; fill:black"
     font-size="15px"
     id="text326">4</text>
  <text
     x="232"
     y="270"
     style="font-wight:bold; fill:black"
     font-size="15px"
     id="text328">8</text>
  <text
     x="258"
     y="270"
     style="font-wight:bold; fill:black"
     font-size="15px"
     id="text330">4</text>
  <text
     x="270"
     y="270"
     style="font-wight:bold; fill:black"
     font-size="15px"
     id="text332">6</text>
  <text
     x="282"
     y="270"
     style="font-wight:bold; fill:black"
     font-size="15px"
     id="text334">7</text>
  <text
     x="258"
     y="283"
     style="font-wight:bold; fill:black"
     font-size="15px"
     id="text336">8</text>
  <text
     x="308"
     y="270"
     style="font-wight:bold; fill:black"
     font-size="15px"
     id="text338">4</text>
  <text
     x="320"
     y="270"
     style="font-wight:bold; fill:black"
     font-size="15px"
     id="text340">5</text>
  <text
     x="332"
     y="270"
     style="font-wight:bold; fill:black"
     font-size="15px"
     id="text342">6</text>
  <text
     x="308"
     y="283"
     style="font-wight:bold; fill:black"
     font-size="15px"
     id="text344">7</text>
  <text
     x="358"
     y="270"
     style="font-wight:bold; fill:black"
     font-size="15px"
     id="text346">1</text>
  <text
     x="370"
     y="270"
     style="font-wight:bold; fill:black"
     font-size="15px"
     id="text348">4</text>
  <text
     x="382"
     y="270"
     style="font-wight:bold; fill:black"
     font-size="15px"
     id="text350">5</text>
  <text
     x="358"
     y="283"
     style="font-wight:bold; fill:black"
     font-size="15px"
     id="text352">7</text>
  <text
     x="370"
     y="283"
     style="font-wight:bold; fill:black"
     font-size="15px"
     id="text354">8</text>
  <text
     x="408"
     y="270"
     style="font-wight:bold; fill:black"
     font-size="15px"
     id="text356">1</text>
  <text
     x="420"
     y="270"
     style="font-wight:bold; fill:black"
     font-size="15px"
     id="text358">4</text>
  <text
     x="432"
     y="270"
     style="font-wight:bold; fill:black"
     font-size="15px"
     id="text360">5</text>
  <text
     x="408"
     y="283"
     style="font-wight:bold; fill:black"
     font-size="15px"
     id="text362">6</text>
  <text
     x="420"
     y="283"
     style="font-wight:bold; fill:black"
     font-size="15px"
     id="text364">8</text>
  <text
     x="16"
     y="335"
     style="font-wight:bold"
     font-size="30px"
     id="text366">8</text>
  <text
     x="58"
     y="320"
     style="font-wight:bold; fill:black"
     font-size="15px"
     id="text368">2</text>
  <text
     x="70"
     y="320"
     style="font-wight:bold; fill:black"
     font-size="15px"
     id="text370">3</text>
  <text
     x="82"
     y="320"
     style="font-wight:bold; fill:black"
     font-size="15px"
     id="text372">4</text>
  <text
     x="58"
     y="333"
     style="font-wight:bold; fill:black"
     font-size="15px"
     id="text374">5</text>
  <text
     x="70"
     y="333"
     style="font-wight:bold; fill:black"
     font-size="15px"
     id="text376">7</text>
  <text
     x="116"
     y="335"
     style="font-wight:bold"
     font-size="30px"
     id="text378">6</text>
  <text
     x="158"
     y="320"
     style="font-wight:bold; fill:black"
     font-size="15px"
     id="text380">4</text>
  <text
     x="170"
     y="320"
     style="font-wight:bold; fill:black"
     font-size="15px"
     id="text382">5</text>
  <text
     x="182"
     y="320"
     style="font-wight:bold; fill:black"
     font-size="15px"
     id="text384">7</text>
  <text
     x="216"
     y="335"
     style="font-wight:bold"
     font-size="30px"
     id="text386">9</text>
  <text
     x="258"
     y="320"
     style="font-wight:bold; fill:black"
     font-size="15px"
     id="text388">2</text>
  <text
     x="270"
     y="320"
     style="font-wight:bold; fill:black"
     font-size="15px"
     id="text390">4</text>
  <text
     x="282"
     y="320"
     style="font-wight:bold; fill:black"
     font-size="15px"
     id="text392">7</text>
  <text
     x="308"
     y="320"
     style="font-wight:bold; fill:black"
     font-size="15px"
     id="text394">2</text>
  <text
     x="320"
     y="320"
     style="font-wight:bold; fill:black"
     font-size="15px"
     id="text396">4</text>
  <text
     x="332"
     y="320"
     style="font-wight:bold; fill:black"
     font-size="15px"
     id="text398">5</text>
  <text
     x="358"
     y="320"
     style="font-wight:bold; fill:black"
     font-size="15px"
     id="text400">1</text>
  <text
     x="370"
     y="320"
     style="font-wight:bold; fill:black"
     font-size="15px"
     id="text402">2</text>
  <text
     x="382"
     y="320"
     style="font-wight:bold; fill:black"
     font-size="15px"
     id="text404">4</text>
  <text
     x="358"
     y="333"
     style="font-wight:bold; fill:black"
     font-size="15px"
     id="text406">5</text>
  <text
     x="408"
     y="320"
     style="font-wight:bold; fill:black"
     font-size="15px"
     id="text408">1</text>
  <text
     x="420"
     y="320"
     style="font-wight:bold; fill:black"
     font-size="15px"
     id="text410">4</text>
  <text
     x="432"
     y="320"
     style="font-wight:bold; fill:black"
     font-size="15px"
     id="text412">5</text>
  <text
     x="8"
     y="370"
     style="font-wight:bold; fill:black"
     font-size="15px"
     id="text414">4</text>
  <text
     x="20"
     y="370"
     style="font-wight:bold; fill:black"
     font-size="15px"
     id="text416">5</text>
  <text
     x="32"
     y="370"
     style="font-wight:bold; fill:black"
     font-size="15px"
     id="text418">7</text>
  <text
     x="66"
     y="385"
     style="font-wight:bold"
     font-size="30px"
     id="text420">1</text>
  <text
     x="108"
     y="370"
     style="font-wight:bold; fill:black"
     font-size="15px"
     id="text422">2</text>
  <text
     x="120"
     y="370"
     style="font-wight:bold; fill:black"
     font-size="15px"
     id="text424">4</text>
  <text
     x="132"
     y="370"
     style="font-wight:bold; fill:black"
     font-size="15px"
     id="text426">7</text>
  <text
     x="158"
     y="370"
     style="font-wight:bold; fill:black"
     font-size="15px"
     id="text428">4</text>
  <text
     x="170"
     y="370"
     style="font-wight:bold; fill:black"
     font-size="15px"
     id="text430">5</text>
  <text
     x="182"
     y="370"
     style="font-wight:bold; fill:black"
     font-size="15px"
     id="text432">7</text>
  <text
     x="216"
     y="385"
     style="font-wight:bold"
     font-size="30px"
     id="text434">6</text>
  <text
     x="258"
     y="370"
     style="font-wight:bold; fill:black"
     font-size="15px"
     id="text436">2</text>
  <text
     x="270"
     y="370"
     style="font-wight:bold; fill:black"
     font-size="15px"
     id="text438">4</text>
  <text
     x="282"
     y="370"
     style="font-wight:bold; fill:black"
     font-size="15px"
     id="text440">7</text>
  <text
     x="316"
     y="385"
     style="font-wight:bold"
     font-size="30px"
     id="text442">8</text>
  <text
     x="366"
     y="385"
     style="font-wight:bold"
     font-size="30px"
     id="text444">3</text>
  <text
     x="408"
     y="370"
     style="font-wight:bold; fill:black"
     font-size="15px"
     id="text446">4</text>
  <text
     x="420"
     y="370"
     style="font-wight:bold; fill:black"
     font-size="15px"
     id="text448">5</text>
  <text
     x="432"
     y="370"
     style="font-wight:bold; fill:black"
     font-size="15px"
     id="text450">9</text>
  <text
     x="8"
     y="420"
     style="font-wight:bold; fill:black"
     font-size="15px"
     id="text452">4</text>
  <text
     x="20"
     y="420"
     style="font-wight:bold; fill:black"
     font-size="15px"
     id="text454">5</text>
  <text
     x="66"
     y="435"
     style="font-wight:bold"
     font-size="30px"
     id="text456">9</text>
  <text
     x="108"
     y="420"
     style="font-wight:bold; fill:black"
     font-size="15px"
     id="text458">2</text>
  <text
     x="120"
     y="420"
     style="font-wight:bold; fill:black"
     font-size="15px"
     id="text460">4</text>
  <text
     x="158"
     y="420"
     style="font-wight:bold; fill:black"
     font-size="15px"
     id="text462">4</text>
  <text
     x="170"
     y="420"
     style="font-wight:bold; fill:black"
     font-size="15px"
     id="text464">5</text>
  <text
     x="182"
     y="420"
     style="font-wight:bold; fill:black"
     font-size="15px"
     id="text466">8</text>
  <text
     x="208"
     y="420"
     style="font-wight:bold; fill:black"
     font-size="15px"
     id="text468">1</text>
  <text
     x="220"
     y="420"
     style="font-wight:bold; fill:black"
     font-size="15px"
     id="text470">4</text>
  <text
     x="232"
     y="420"
     style="font-wight:bold; fill:black"
     font-size="15px"
     id="text472">5</text>
  <text
     x="208"
     y="433"
     style="font-wight:bold; fill:black"
     font-size="15px"
     id="text474">8</text>
  <text
     x="266"
     y="435"
     style="font-wight:bold"
     font-size="30px"
     id="text476">3</text>
  <text
     x="308"
     y="420"
     style="font-wight:bold; fill:black"
     font-size="15px"
     id="text478">2</text>
  <text
     x="320"
     y="420"
     style="font-wight:bold; fill:black"
     font-size="15px"
     id="text480">4</text>
  <text
     x="332"
     y="420"
     style="font-wight:bold; fill:black"
     font-size="15px"
     id="text482">5</text>
  <text
     x="308"
     y="433"
     style="font-wight:bold; fill:black"
     font-size="15px"
     id="text484">6</text>
  <text
     x="358"
     y="420"
     style="font-wight:bold; fill:black"
     font-size="15px"
     id="text486">1</text>
  <text
     x="370"
     y="420"
     style="font-wight:bold; fill:black"
     font-size="15px"
     id="text488">2</text>
  <text
     x="382"
     y="420"
     style="font-wight:bold; fill:black"
     font-size="15px"
     id="text490">4</text>
  <text
     x="358"
     y="433"
     style="font-wight:bold; fill:black"
     font-size="15px"
     id="text492">5</text>
  <text
     x="416"
     y="435"
     style="font-wight:bold"
     font-size="30px"
     id="text494">7</text>
  <path
     style="fill:#87aade;stroke-width:0.169951"
     d=""
     id="path884" />
  <path
     style="fill:#d5e5ff;stroke-width:0.39039"
     d="M 2.7327326,176.06606 V 152.83783 H 25.96096 49.189187 v 23.22823 23.22823 H 25.96096 2.7327326 Z m 11.6538804,2.02777 c 1.105381,-2.85695 2.009783,-5.40425 2.009783,-5.66066 0,-0.32864 -1.094414,-0.46621 -3.708709,-0.46621 -3.448448,0 -3.7087084,0.0548 -3.7087084,0.78078 0,0.7007 0.2602604,0.78078 2.5375374,0.78078 1.395646,0 2.537537,0.08 2.537537,0.17785 0,0.0978 -0.79054,2.22328 -1.756756,4.72325 -0.966216,2.49997 -1.756757,4.61588 -1.756757,4.70203 0,0.0862 0.413165,0.15663 0.918146,0.15663 0.817233,0 1.139035,-0.57091 2.927927,-5.19445 z m 11.723148,-8.12115 c 1.278,-0.44551 2.388736,-2.04202 2.388736,-3.43343 0,-2.18788 -1.902054,-3.94166 -4.274907,-3.94166 -1.003202,0 -1.190558,-0.15052 -1.190558,-0.95649 0,-0.8906 0.15466,-0.96456 2.244745,-1.07358 1.945457,-0.10147 2.244744,-0.22118 2.244744,-0.89786 0,-0.70381 -0.298266,-0.79202 -3.025525,-0.8948 l -3.025525,-0.11402 v 2.94897 2.94896 l 1.555431,-0.24872 c 2.187252,-0.34976 3.611203,0.60129 3.444988,2.30089 -0.172973,1.76871 -1.676236,2.55207 -3.80634,1.98351 -1.513881,-0.40408 -1.58447,-0.38313 -1.58447,0.47019 0,1.29247 2.586264,1.75947 5.028681,0.90804 z m 12.662148,-0.0214 c 0.468993,-0.24979 1.066721,-0.7329 1.328286,-1.07358 0.673169,-0.87677 0.613156,-3.99341 -0.0964,-5.00645 -0.732084,-1.0452 -3.013111,-1.5329 -4.340599,-0.92805 -0.905395,0.41252 -0.955725,0.38171 -0.716982,-0.43894 0.47167,-1.6213 1.725447,-2.34138 3.589918,-2.06179 1.501255,0.22513 1.674078,0.1698 1.674078,-0.53596 0,-1.60983 -4.252438,-1.55377 -5.782575,0.0762 -2.501573,2.66484 -1.807659,9.07738 1.097891,10.14573 1.004951,0.36952 2.358621,0.29563 3.246385,-0.1772 z m -23.546684,-1.1074 c 0,-0.91091 0.173506,-1.17117 0.78078,-1.17117 0.520521,0 0.780781,-0.26027 0.780781,-0.78079 0,-0.52052 -0.26026,-0.78078 -0.780781,-0.78078 -0.725989,0 -0.78078,-0.26026 -0.78078,-3.7087 v -3.70871 h -0.990327 c -0.820267,0 -1.390088,0.61816 -3.318318,3.59983 -1.2803952,1.97991 -2.3279918,4.00018 -2.3279918,4.48949 0,0.8347 0.1567492,0.88966 2.5375378,0.88966 h 2.537537 v 1.17117 c 0,0.91091 0.173507,1.17117 0.780781,1.17117 0.607274,0 0.780781,-0.26026 0.780781,-1.17117 z"
     id="path489" />
  <path
     style="fill:#d5e5ff;stroke-width:0.39039"
     d="m 11.757602,163.67116 c 0.9001,-1.34196 1.697186,-2.51313 1.771303,-2.6026 0.07412,-0.0895 0.134758,1.00851 0.134758,2.43994 v 2.6026 H 11.89236 10.121057 Z"
     id="path528" />
  <path
     style="fill:#d5e5ff;stroke-width:0.39039"
     d="m 35.62038,168.39215 c -0.665513,-0.66552 -0.612205,-3.25125 0.07885,-3.82477 0.87948,-0.72991 2.278077,-0.32003 2.93637,0.86054 0.537667,0.96424 0.537742,1.18291 7.42e-4,2.14715 -0.657132,1.17993 -2.227627,1.6054 -3.015954,0.81708 z"
     id="path567" />
  <path
     style="fill:#d5e5ff;stroke-width:0.39039"
     d="m 50.750748,176.06606 v -23.22823 h 24.204204 24.204203 v 23.22823 23.22823 H 74.954952 50.750748 Z m 14.864865,6.08108 c 2.865766,-2.86577 0.04189,-7.71367 -3.670919,-6.30206 -1.155234,0.43922 -1.327382,0.11395 -0.629669,-1.18974 0.574919,-1.07425 2.021282,-1.54798 3.463406,-1.13438 1.090918,0.31287 1.197542,0.26285 1.197542,-0.56183 0,-0.72822 -0.271494,-0.95621 -1.388102,-1.16569 -1.906739,-0.3577 -4.067742,0.7395 -4.955135,2.51586 -0.742817,1.48696 -0.908771,4.82289 -0.317315,6.37854 1.052551,2.76842 4.250369,3.50912 6.300192,1.4593 z m 10.842255,-4.22673 c 1.113424,-2.95232 2.0213,-5.49962 2.017502,-5.66066 -0.0038,-0.16103 -1.675824,-0.29279 -3.715614,-0.29279 -3.448448,0 -3.708708,0.0548 -3.708708,0.78078 0,0.702 0.26026,0.78078 2.579305,0.78078 2.29863,0 2.550052,0.0743 2.310478,0.68318 -1.203791,3.05927 -3.328222,8.73067 -3.328222,8.88506 0,0.10534 0.409692,0.19152 0.910426,0.19152 0.811346,0 1.130738,-0.58417 2.934833,-5.36787 z m 11.656129,-7.92408 c 1.354599,-0.47222 2.196308,-1.81157 2.196308,-3.49484 0,-2.38597 -1.575673,-3.9039 -4.052402,-3.9039 -0.963134,0 -1.152802,-0.15737 -1.152802,-0.95649 0,-0.8906 0.15466,-0.96456 2.244745,-1.07358 1.94546,-0.10147 2.244745,-0.22118 2.244745,-0.89786 0,-0.70381 -0.298266,-0.79202 -3.025526,-0.8948 l -3.025525,-0.11402 v 2.93688 2.93689 l 1.71009,-0.2344 c 1.414138,-0.19383 1.853289,-0.0912 2.537537,0.59306 2.207068,2.20706 -0.425076,4.79087 -3.636627,3.56984 -0.902659,-0.34319 -1.001391,-0.28828 -1.001391,0.55696 0,0.56476 0.271707,1.00869 0.683184,1.11622 1.267965,0.33136 3.097348,0.2715 4.277664,-0.13996 z m -21.8204,-0.66451 c -0.102762,-0.53997 -0.604669,-0.70787 -2.394335,-0.80096 l -2.264319,-0.11777 2.170515,-2.34442 c 1.931814,-2.08659 2.170515,-2.52851 2.170515,-4.01841 0,-1.14132 -0.233045,-1.8849 -0.732361,-2.33678 -1.671985,-1.51312 -5.98877,-1.15169 -6.231362,0.52175 -0.11433,0.78865 -0.01037,0.87453 0.780781,0.64491 2.468222,-0.71636 3.263041,-0.69799 3.977917,0.0919 1.010571,1.11667 0.598779,2.0252 -2.32061,5.11991 -3.474085,3.68271 -3.398373,3.92303 1.235942,3.92303 3.348635,0 3.723811,-0.0711 3.607317,-0.68319 z m 11.003697,-0.48798 c 0,-0.91091 0.173507,-1.17117 0.780781,-1.17117 0.52052,0 0.78078,-0.26027 0.78078,-0.78079 0,-0.52052 -0.26026,-0.78078 -0.78078,-0.78078 -0.725989,0 -0.780781,-0.26026 -0.780781,-3.7087 0,-3.68539 -0.0061,-3.70871 -0.965907,-3.70871 -0.780761,0 -1.416816,0.6706 -3.318318,3.49853 -1.339614,1.9923 -2.352411,3.92518 -2.352411,4.48949 0,0.95091 0.09466,0.99096 2.342342,0.99096 h 2.342342 v 1.17117 c 0,0.98899 0.151819,1.17117 0.975976,1.17117 0.824157,0 0.975976,-0.18218 0.975976,-1.17117 z"
     id="path606" />
  <path
     style="fill:#d5e5ff;stroke-width:0.39039"
     d="m 61.305024,180.9716 c -0.619376,-1.15731 -0.484124,-2.28801 0.376655,-3.14879 0.93995,-0.93995 1.687196,-0.98976 2.509652,-0.16731 0.724245,0.72425 0.813204,2.93455 0.145002,3.60275 -0.742315,0.74232 -2.573287,0.56917 -3.031309,-0.28665 z"
     id="path645" />
  <path
     style="fill:#d5e5ff;stroke-width:0.39039"
     d="m 73.650545,163.86636 c 0.780246,-1.23461 1.480766,-2.31794 1.556713,-2.40741 0.07595,-0.0895 0.138084,0.92067 0.138084,2.24475 v 2.4074 H 73.78863 72.231917 Z"
     id="path684" />
  <path
     style="fill:#d5e5ff;stroke-width:0.39039"
     d="m 100.72072,176.06606 v -23.22823 h 23.22822 23.22823 v 23.22823 23.22823 h -23.22823 -23.22822 z m 14.73238,6.62541 c 1.26969,-0.88932 1.56465,-3.11205 0.58824,-4.43272 -0.68355,-0.92455 -0.71501,-1.15586 -0.2447,-1.79904 0.79936,-1.0932 0.67207,-3.08077 -0.25079,-3.91595 -1.19173,-1.0785 -4.3948,-1.02926 -5.50945,0.0847 -1.01049,1.00986 -1.13758,2.99924 -0.2484,3.88842 0.5515,0.5515 0.53925,0.67839 -0.13013,1.34777 -1.08013,1.08013 -0.97241,3.27372 0.21927,4.46541 0.75248,0.75247 1.36253,0.95823 2.84107,0.95823 1.05753,0 2.25632,-0.2616 2.73489,-0.59681 z m 0.88323,-13.45724 c 0,-0.69556 -0.26026,-0.78078 -2.38439,-0.78078 h -2.38439 l 2.18919,-2.3646 c 2.06082,-2.22593 2.39488,-2.96425 2.19787,-4.85763 -0.19863,-1.909 -2.59675,-2.92492 -5.36554,-2.27302 -1.125,0.26488 -1.50625,0.5655 -1.60685,1.26705 -0.1146,0.79919 -0.0122,0.88505 0.78078,0.65489 2.48331,-0.72074 3.26185,-0.69931 3.99422,0.10995 1.02398,1.13148 0.40379,2.44671 -2.5163,5.33633 -3.3503,3.31534 -3.20998,3.68859 1.3867,3.68859 3.44845,0 3.70871,-0.0548 3.70871,-0.78078 z m 10.93093,-0.39039 c 0,-0.91091 0.17351,-1.17117 0.78078,-1.17117 0.52052,0 0.78078,-0.26027 0.78078,-0.78079 0,-0.52052 -0.26026,-0.78078 -0.78078,-0.78078 -0.72599,0 -0.78078,-0.26026 -0.78078,-3.7087 0,-3.68539 -0.006,-3.70871 -0.9659,-3.70871 -0.78077,0 -1.41682,0.6706 -3.31832,3.49853 -1.33962,1.9923 -2.35241,3.92518 -2.35241,4.48949 0,0.95091 0.0947,0.99096 2.34234,0.99096 h 2.34234 v 1.17117 c 0,0.98899 0.15182,1.17117 0.97598,1.17117 0.82415,0 0.97597,-0.18218 0.97597,-1.17117 z m 11.2739,-4.12356 c 1.10837,-2.91211 1.91345,-5.4594 1.78906,-5.66066 -0.12438,-0.20127 -1.79687,-0.36593 -3.71663,-0.36593 -3.44558,0 -3.49047,0.0123 -3.49047,0.95814 0,0.90499 0.13805,0.96454 2.48876,1.07357 l 2.48876,0.11543 -1.50367,3.86047 c -2.16679,5.56294 -2.11904,5.31371 -1.01797,5.31371 0.85672,0 1.13894,-0.50445 2.96216,-5.29473 z"
     id="path723" />
  <path
     style="fill:#d5e5ff;stroke-width:0.39039"
     d="m 125.44341,163.57357 c 0.002,-1.50301 0.0723,-2.07003 0.15681,-1.26007 0.0845,0.80997 0.0831,2.0397 -0.003,2.73274 -0.0862,0.69303 -0.15539,0.0303 -0.15366,-1.47267 z"
     id="path762" />
  <path
     style="fill:#d5e5ff;stroke-width:0.39039"
     d="m 111.2768,175.6944 c -1.31113,-1.57982 1.32,-3.34618 2.7919,-1.87429 0.64604,0.64604 0.70623,0.93061 0.34113,1.6128 -0.52185,0.9751 -2.41,1.13269 -3.13303,0.26149 z"
     id="path801" />
  <path
     style="fill:#d5e5ff;stroke-width:0.39039"
     d="m 111.33933,181.25825 c -0.25765,-0.25766 -0.46846,-0.96471 -0.46846,-1.57122 0,-1.48295 1.61342,-2.17582 2.98062,-1.28 1.67971,1.10059 0.99208,3.31969 -1.02867,3.31969 -0.55826,0 -1.22583,-0.21081 -1.48349,-0.46847 z"
     id="path840" />
  <path
     style="fill:#d5e5ff;stroke-width:0.39039"
     d="m 125.44341,163.57357 c 0.002,-1.50301 0.0723,-2.07003 0.15681,-1.26007 0.0845,0.80997 0.0831,2.0397 -0.003,2.73274 -0.0862,0.69303 -0.15539,0.0303 -0.15366,-1.47267 z"
     id="path879" />
  <path
     style="fill:#d5e5ff;stroke-width:0.39039"
     d="m 123.28266,164.45194 c 0.62039,-0.91253 1.32619,-2.01051 1.56845,-2.43994 0.36398,-0.64521 0.44252,-0.35712 0.45233,1.65916 l 0.0119,2.43994 h -1.58032 -1.58031 z"
     id="path918" />
  <path
     style="fill:#d5e5ff;stroke-width:0.39039"
     d="m 152.64264,176.06606 v -23.22823 h 23.42342 23.42342 v 23.22823 23.22823 h -23.42342 -23.42342 z m 13.09582,6.26399 c 1.19898,-1.19899 1.27299,-3.14588 0.16444,-4.32588 -0.70563,-0.75111 -0.72731,-0.90012 -0.19519,-1.34173 0.88784,-0.73685 0.77087,-3.24739 -0.1919,-4.11868 -1.11432,-1.00845 -4.31193,-1.02517 -5.41421,-0.0283 -0.99263,0.8977 -1.1282,3.39634 -0.22495,4.14598 0.53006,0.43991 0.50807,0.57899 -0.19519,1.23418 -1.13601,1.05835 -1.05551,3.21327 0.16565,4.43443 0.76642,0.76641 1.35607,0.95823 2.94568,0.95823 1.5896,0 2.17925,-0.19182 2.94567,-0.95823 z m 12.04405,-13.0772 c 0.61811,-0.61812 0.82109,-1.3093 0.82109,-2.796 0,-1.67984 -0.16366,-2.11568 -1.09535,-2.91709 -1.18764,-1.02156 -3.30425,-1.2663 -4.09685,-0.4737 -0.36436,0.36436 -0.46846,0.29273 -0.46846,-0.32234 0,-0.43495 0.43175,-1.19642 0.95946,-1.69218 0.80124,-0.75273 1.21969,-0.85975 2.53753,-0.64902 1.37986,0.22065 1.57808,0.15894 1.57808,-0.49128 0,-0.84873 -0.7251,-1.21755 -2.39366,-1.21755 -3.17368,0 -4.80598,2.40845 -4.56174,6.73084 0.14222,2.51695 0.2564,2.82126 1.46306,3.89941 1.12433,1.00459 1.52916,1.13985 2.87227,0.9597 0.85991,-0.11534 1.93297,-0.57919 2.38457,-1.03079 z m -12.64738,-0.40901 c 0,-0.91091 0.1735,-1.17117 0.78078,-1.17117 0.52052,0 0.78078,-0.26027 0.78078,-0.78079 0,-0.52052 -0.26026,-0.78078 -0.78078,-0.78078 -0.72599,0 -0.78078,-0.26026 -0.78078,-3.7087 0,-3.64051 -0.017,-3.70871 -0.9244,-3.70871 -0.73438,0 -1.41647,0.74625 -3.31831,3.63048 -1.31666,1.99676 -2.39393,4.01703 -2.39393,4.48949 0,0.79698 0.18323,0.85901 2.53754,0.85901 h 2.53754 v 1.17117 c 0,0.91091 0.1735,1.17117 0.78078,1.17117 0.60727,0 0.78078,-0.26026 0.78078,-1.17117 z m 23.3925,-4.09284 c 1.12018,-2.8952 1.92638,-5.4425 1.79155,-5.66066 -0.13644,-0.22076 -1.793,-0.39665 -3.73562,-0.39665 -3.44559,0 -3.49048,0.0123 -3.49048,0.95814 0,0.90528 0.13765,0.9645 2.49534,1.07357 l 2.49533,0.11543 -1.51927,3.90391 c -2.16955,5.57483 -2.11072,5.27027 -1.018,5.27027 0.85162,0 1.14465,-0.51743 2.98115,-5.26401 z"
     id="path957" />
  <path
     style="fill:#d5e5ff;stroke-width:0.39039"
     d="m 161.24677,175.6944 c -0.61572,-0.74189 -0.17797,-2.06171 0.7852,-2.36741 1.74077,-0.5525 3.35514,1.10427 2.30683,2.36741 -0.60685,0.73121 -2.48518,0.73121 -3.09203,0 z"
     id="path996" />
  <path
     style="fill:#d5e5ff;stroke-width:0.39039"
     d="m 161.3093,181.25825 c -0.25766,-0.25766 -0.46847,-0.96471 -0.46847,-1.57122 0,-1.48295 1.61343,-2.17582 2.98063,-1.28 1.67971,1.10059 0.99207,3.31969 -1.02867,3.31969 -0.55826,0 -1.22583,-0.21081 -1.48349,-0.46847 z"
     id="path1035" />
  <path
     style="fill:#d5e5ff;stroke-width:0.39039"
     d="m 173.58903,168.12991 c -1.82695,-2.01875 0.73288,-5.26875 2.64434,-3.35729 0.78899,0.789 0.78899,2.66875 0,3.45775 -0.8151,0.81509 -1.85141,0.77573 -2.64434,-0.10046 z"
     id="path1074" />
  <path
     style="fill:#d5e5ff;stroke-width:0.39039"
     d="m 160.45044,165.9316 c 0,-0.0987 0.70104,-1.28454 1.55786,-2.63513 l 1.55785,-2.45564 0.004,2.63514 0.004,2.63513 H 162.012 c -0.85885,0 -1.56156,-0.0808 -1.56156,-0.1795 z"
     id="path1113" />
  <path
     style="fill:#d5e5ff;stroke-width:0.39039"
     d="m 200.66065,176.06606 v -23.22823 h 24.3994 24.3994 v 23.22823 23.22823 h -24.3994 -24.3994 z m 26.96697,-6.8018 c 0.62762,-0.62763 1.14114,-1.51756 1.14114,-1.97762 0,-0.93831 -0.68335,-2.40267 -1.31169,-2.81086 -0.27203,-0.17672 -0.18504,-0.52199 0.25364,-1.00672 1.694,-1.87185 0.0615,-4.77537 -2.68494,-4.77537 -3.03325,0 -4.67157,2.02149 -3.51587,4.33815 0.55865,1.11983 0.56286,1.32662 0.0389,1.90565 -1.20884,1.33575 -0.54353,4.41386 1.09688,5.07479 1.84329,0.74268 3.78244,0.45152 4.98199,-0.74802 z m -12.13213,-0.37489 c 0,-0.79732 0.22773,-1.18519 0.78078,-1.32982 1.0138,-0.26512 1.02577,-1.44845 0.0146,-1.44845 -0.69795,0 -0.77613,-0.3214 -0.87838,-3.61111 -0.11097,-3.56981 -0.12392,-3.61246 -1.13224,-3.72947 -0.90209,-0.10467 -1.2969,0.30912 -3.41591,3.58019 -1.31776,2.03419 -2.39593,4.0638 -2.39593,4.51024 0,0.73877 0.22803,0.81172 2.53754,0.81172 h 2.53753 v 1.17117 c 0,0.98899 0.15182,1.17117 0.97598,1.17117 0.81538,0 0.97598,-0.18522 0.97598,-1.12564 z"
     id="path1152" />
  <path
     style="fill:#d5e5ff;stroke-width:0.39039"
     d="m 213.67479,163.37837 c 0,-1.61036 0.0689,-2.26914 0.15313,-1.46396 0.0842,0.80518 0.0842,2.12274 0,2.92793 -0.0842,0.80518 -0.15313,0.14639 -0.15313,-1.46397 z"
     id="path1191" />
  <path
     style="fill:#d5e5ff;stroke-width:0.39039"
     d="m 223.3354,162.83148 c -1.09347,-1.31756 0.24917,-2.88422 2.07835,-2.42513 0.91554,0.22979 1.04359,0.4373 0.9388,1.52145 -0.10488,1.08514 -0.28466,1.27131 -1.32575,1.37291 -0.71935,0.0702 -1.40055,-0.11878 -1.6914,-0.46923 z"
     id="path1230" />
  <path
     style="fill:#d5e5ff;stroke-width:0.39039"
     d="m 223.0722,167.86786 c -0.59239,-0.90409 -0.59239,-1.04786 0,-1.95195 1.14749,-1.7513 3.74461,-0.92921 3.74461,1.18532 0,1.80963 -2.69914,2.36222 -3.74461,0.76663 z"
     id="path1269" />
  <path
     style="fill:#d5e5ff;stroke-width:0.39039"
     d="m 210.42041,165.92908 c 0,-0.10011 0.7027,-1.26924 1.56156,-2.59806 l 1.56156,-2.41604 v 2.59806 2.59806 h -1.56156 c -0.85886,0 -1.56156,-0.0819 -1.56156,-0.18202 z"
     id="path1308" />
  <path
     style="fill:#d5e5ff;stroke-width:0.39039"
     d="m 250.63062,176.06606 v -23.22823 h 23.42342 23.42342 v 23.22823 23.22823 h -23.42342 -23.42342 z m 32.01201,7.80781 v -1.36637 h -2.53754 -2.53753 v -9.75976 -9.75976 l -1.85436,0.017 c -1.01989,0.009 -2.90841,0.2352 -4.1967,0.50183 -2.33966,0.48424 -2.34248,0.48652 -2.46689,1.99168 l -0.12454,1.50688 1.78344,-0.24445 c 0.98089,-0.13445 2.22274,-0.35471 2.75968,-0.48947 l 0.97624,-0.24502 v 8.24052 8.24052 h -2.53754 -2.53753 v 1.36637 1.36636 h 6.63663 6.63664 z"
     id="path1347" />
  <path
     style="fill:#d5e5ff;stroke-width:0.39039"
     d="m 302.55254,176.06606 v -23.22823 h 23.42342 23.42342 v 23.22823 23.22823 h -23.42342 -23.42342 z m 13.09582,6.26399 c 1.3242,-1.3242 1.3679,-4.37913 0.0798,-5.58142 -1.14788,-1.07144 -2.60382,-1.40916 -3.91914,-0.90908 -1.20129,0.45673 -1.2218,0.42682 -0.6173,-0.89991 0.59942,-1.31558 2.22156,-1.95728 3.6117,-1.42875 1.44532,0.54951 1.48546,0.53584 1.34229,-0.45726 -0.17982,-1.24722 -2.46375,-1.73361 -4.38029,-0.93283 -3.28229,1.37143 -4.02484,8.10274 -1.14383,10.36894 1.4551,1.14459 3.79684,1.0702 5.02672,-0.15969 z m 10.75628,-4.24801 c 1.05252,-2.75607 1.91366,-5.25945 1.91366,-5.56306 0,-0.43703 -0.77256,-0.55202 -3.7087,-0.55202 -3.44845,0 -3.70871,0.0548 -3.70871,0.78078 0,0.7007 0.26026,0.78078 2.53753,0.78078 1.39565,0 2.53754,0.13576 2.53754,0.3017 0,0.16593 -0.54503,1.70309 -1.21117,3.41591 -2.49175,6.40689 -2.42807,6.10978 -1.27962,5.96967 0.90237,-0.1101 1.2026,-0.63803 2.91947,-5.13376 z m 11.97918,4.59696 c 2.1772,-1.52497 2.96584,-6.48093 1.44186,-9.06083 -2.45748,-4.16017 -8.53732,-0.89158 -6.66716,3.58435 0.84854,2.03084 3.03242,2.80143 4.98215,1.75796 0.71436,-0.38231 0.76475,-0.33444 0.51375,0.48799 -0.56755,1.85954 -1.39647,2.38115 -3.40669,2.14369 -1.62907,-0.19243 -1.85435,-0.13038 -1.85435,0.51081 0,0.40142 0.21959,0.81846 0.48799,0.92676 1.06335,0.42907 3.68015,0.22523 4.50245,-0.35073 z m 0.34017,-13.02745 c 1.35645,-0.82711 1.91864,-2.42075 1.51011,-4.28075 -0.33991,-1.54758 -1.40651,-2.40895 -3.29691,-2.6625 -1.35402,-0.18161 -1.59186,-0.35165 -1.59186,-1.13809 0,-0.86183 0.14754,-0.92457 2.1743,-0.92457 2.03153,0 2.16611,-0.0577 2.04955,-0.87838 -0.11671,-0.82174 -0.31353,-0.87838 -3.05268,-0.87838 h -2.92793 l -0.11545,2.86766 -0.11545,2.86766 1.59226,-0.26901 c 2.10121,-0.35499 3.51852,0.50957 3.51852,2.1463 0,2.01017 -2.26272,2.84774 -4.78228,1.77021 -0.54777,-0.23427 -0.68318,-0.0961 -0.68318,0.69694 0,1.09203 0.48313,1.3214 2.92793,1.39001 0.92235,0.0259 2.06566,-0.26356 2.79307,-0.7071 z m -22.50779,-0.41732 c 0,-0.69704 -0.26026,-0.78078 -2.4266,-0.78078 h -2.42661 l 1.99149,-2.04955 c 3.23647,-3.33084 3.59395,-4.6957 1.72058,-6.56907 -0.828,-0.82801 -1.51735,-1.14114 -2.51212,-1.14114 -1.75149,0 -3.32844,0.59881 -3.62719,1.37734 -0.36038,0.93912 0.0395,1.06044 1.77813,0.53953 2.10683,-0.63122 3.55037,-0.0479 3.55037,1.43468 0,0.74156 -0.75751,1.80718 -2.73273,3.84424 -3.74065,3.85774 -3.67729,4.12553 0.97597,4.12553 3.44845,0 3.70871,-0.0548 3.70871,-0.78078 z m 10.93093,-0.39039 c 0,-0.91091 0.17351,-1.17117 0.78078,-1.17117 0.52052,0 0.78078,-0.26027 0.78078,-0.78079 0,-0.52052 -0.26026,-0.78078 -0.78078,-0.78078 -0.72599,0 -0.78078,-0.26026 -0.78078,-3.7087 0,-3.64051 -0.017,-3.70871 -0.92439,-3.70871 -0.73438,0 -1.41647,0.74625 -3.31832,3.63048 -1.31666,1.99676 -2.39392,4.01703 -2.39392,4.48949 0,0.79698 0.18323,0.85901 2.53753,0.85901 h 2.53754 v 1.17117 c 0,0.91091 0.17351,1.17117 0.78078,1.17117 0.60728,0 0.78078,-0.26026 0.78078,-1.17117 z"
     id="path1386" />
  <path
     style="fill:#d5e5ff;stroke-width:0.39039"
     d="m 311.6096,181.25825 c -1.13709,-1.13708 -0.17588,-4.21622 1.31617,-4.21622 0.78165,0 2.11926,1.42359 2.11926,2.25548 0,1.84049 -2.2637,3.13247 -3.43543,1.96074 z"
     id="path1425" />
  <path
     style="fill:#d5e5ff;stroke-width:0.39039"
     d="m 322.46245,165.9316 c 0,-0.0987 0.70103,-1.28454 1.55785,-2.63513 l 1.55785,-2.45564 0.004,2.63514 0.004,2.63513 h -1.56156 c -0.85886,0 -1.56156,-0.0808 -1.56156,-0.1795 z"
     id="path1464" />
  <path
     style="fill:#d5e5ff;stroke-width:0.39039"
     d="m 334.89702,176.87563 c -0.59545,-1.30689 -0.11096,-2.89651 1.04308,-3.42233 0.79219,-0.36094 1.10281,-0.31309 1.74599,0.26898 0.87581,0.7926 1.05699,2.88898 0.31389,3.63207 -0.84176,0.84176 -2.62678,0.56637 -3.10296,-0.47872 z"
     id="path1503" />
  <path
     style="fill:#d5e5ff;stroke-width:0.39039"
     d="m 350.57055,176.06606 v -23.22823 h 24.3994 24.3994 v 23.22823 23.22823 h -24.3994 -24.3994 z m 13.93436,1.75675 c 1.12308,-2.89864 2.04865,-5.40202 2.05681,-5.56306 0.008,-0.16103 -1.65408,-0.29279 -3.69387,-0.29279 -3.41954,0 -3.70871,0.0595 -3.70871,0.76294 0,0.66497 0.319,0.77777 2.48407,0.87838 l 2.48406,0.11544 -1.68174,4.29429 c -1.96899,5.02779 -2.02477,5.36753 -0.85371,5.19982 0.72711,-0.10412 1.20868,-0.99598 2.91309,-5.39502 z m 13.21552,4.50724 c 1.19899,-1.19899 1.273,-3.14588 0.16445,-4.32588 -0.70564,-0.75111 -0.72731,-0.90012 -0.1952,-1.34173 0.34169,-0.28358 0.59859,-1.12049 0.59859,-1.95004 0,-2.02223 -1.09733,-2.94064 -3.51351,-2.94064 -2.41619,0 -3.51352,0.91841 -3.51352,2.94064 0,0.82955 0.2569,1.66646 0.59859,1.95004 0.53212,0.44161 0.51044,0.59062 -0.19519,1.34173 -1.10855,1.18 -1.03454,3.12689 0.16445,4.32588 0.76641,0.76641 1.35607,0.95823 2.94567,0.95823 1.5896,0 2.17926,-0.19182 2.94567,-0.95823 z m 11.76011,-13.25279 c 2.06496,-2.40065 0.6725,-5.9336 -2.50669,-6.36002 -1.42165,-0.19068 -1.65855,-0.35452 -1.65855,-1.14703 0,-0.86183 0.14754,-0.92457 2.1743,-0.92457 2.03153,0 2.16611,-0.0577 2.04955,-0.87838 -0.11671,-0.82174 -0.31353,-0.87838 -3.05268,-0.87838 h -2.92793 l -0.11545,2.86766 -0.11546,2.86766 1.59226,-0.26901 c 2.10121,-0.35499 3.51853,0.50957 3.51853,2.1463 0,2.03579 -2.07223,2.79077 -4.78228,1.74233 -0.54043,-0.20907 -0.68318,-0.0576 -0.68318,0.72482 0,1.19388 0.63051,1.42503 3.48206,1.27653 1.74073,-0.0907 2.27694,-0.29764 3.02552,-1.16791 z m -23.29437,0.15697 c 0,-0.69704 -0.26026,-0.78078 -2.4266,-0.78078 h -2.42661 l 1.99148,-2.04955 c 3.23648,-3.33084 3.59396,-4.6957 1.72059,-6.56907 -0.82801,-0.82801 -1.51735,-1.14114 -2.51212,-1.14114 -2.05555,0 -3.37377,0.62268 -3.37377,1.59366 0,0.63301 0.16353,0.76895 0.68319,0.56791 2.53744,-0.98165 4.39189,-0.46986 4.39189,1.21209 0,0.71419 -0.78852,1.81705 -2.73273,3.82213 -3.74065,3.85774 -3.6773,4.12553 0.97597,4.12553 3.44845,0 3.70871,-0.0548 3.70871,-0.78078 z m 11.32132,-0.34486 c 0,-0.79732 0.22773,-1.18519 0.78078,-1.32982 1.01381,-0.26512 1.02577,-1.44845 0.0146,-1.44845 -0.69794,0 -0.77612,-0.3214 -0.87838,-3.61111 -0.11064,-3.55936 -0.1267,-3.61279 -1.12125,-3.72841 -0.88515,-0.1029 -1.30442,0.33073 -3.41591,3.53289 -1.3238,2.0076 -2.40692,4.03673 -2.40692,4.50919 0,0.79698 0.18324,0.85901 2.53754,0.85901 h 2.53754 v 1.17117 c 0,0.98899 0.15182,1.17117 0.97597,1.17117 0.81539,0 0.97598,-0.18522 0.97598,-1.12564 z"
     id="path1542" />
  <path
     style="fill:#d5e5ff;stroke-width:0.39039"
     d="m 372.43242,165.92908 c 0,-0.10011 0.7027,-1.26924 1.56156,-2.59806 l 1.56156,-2.41604 v 2.59806 2.59806 h -1.56156 c -0.85886,0 -1.56156,-0.0819 -1.56156,-0.18202 z"
     id="path1581" />
  <path
     style="fill:#d5e5ff;stroke-width:0.39039"
     d="m 373.22874,175.6944 c -0.61571,-0.74189 -0.17797,-2.06171 0.78521,-2.36741 1.74076,-0.5525 3.35513,1.10427 2.30682,2.36741 -0.60684,0.73121 -2.48518,0.73121 -3.09203,0 z"
     id="path1620" />
  <path
     style="fill:#d5e5ff;stroke-width:0.39039"
     d="m 373.30887,181.27585 c -0.26733,-0.26734 -0.48606,-0.98231 -0.48606,-1.58882 0,-2.02565 3.27495,-2.36507 3.77046,-0.39078 0.13663,0.54437 0.0731,1.27 -0.14124,1.61251 -0.48835,0.78052 -2.49533,1.01492 -3.14316,0.36709 z"
     id="path1659" />
  <path
     style="fill:#d5e5ff;stroke-width:0.39039"
     d="m 152.64264,225.06005 v -24.2042 h 23.42342 23.42342 v 24.2042 24.2042 h -23.42342 -23.42342 z m 24.78978,9.8122 c 1.94377,-0.88525 4.22496,-3.37045 4.92852,-5.36928 0.68444,-1.94449 0.70507,-9.1585 0.0325,-11.37747 -0.61438,-2.02712 -2.55406,-4.31805 -4.25922,-5.03051 -2.68079,-1.1201 -6.31321,-0.44836 -8.21021,1.5183 -1.58578,1.64401 -2.05816,2.95668 -2.04761,5.68989 0.0167,4.31049 2.15831,6.88404 6.11913,7.35314 1.72781,0.20463 2.8371,-0.0762 5.29122,-1.33945 0.5906,-0.30401 0.26953,1.66784 -0.54583,3.35214 -0.65722,1.35766 -1.22675,1.90405 -2.63311,2.52615 -1.5551,0.68789 -2.05515,0.7381 -3.74846,0.37637 -1.07469,-0.22958 -2.26141,-0.53914 -2.63717,-0.6879 -0.58199,-0.23042 -0.68318,-0.0388 -0.68318,1.29407 0,1.47854 0.0805,1.58592 1.46397,1.95337 2.3492,0.62394 5.22717,0.51645 6.92942,-0.25882 z"
     id="path1698" />
  <path
     style="fill:#d5e5ff;stroke-width:0.39039"
     d="m 172.80978,224.25833 c -2.17431,-1.71032 -2.30893,-5.79523 -0.25856,-7.84561 1.25694,-1.25693 2.8939,-1.45358 4.62939,-0.55612 1.35106,0.69866 2.00857,2.114 2.00857,4.32357 0,2.20957 -0.65751,3.62491 -2.00857,4.32357 -1.51679,0.78436 -3.18043,0.69095 -4.37083,-0.24541 z"
     id="path1737" />
  <path
     style="fill:#d5e5ff;stroke-width:0.39039"
     d="m 152.64264,274.05404 v -23.22823 h 23.42342 23.42342 v 23.22823 23.22823 h -23.42342 -23.42342 z m 29.66966,9.75976 v -1.36637 h -5.13817 -5.13818 l 4.30289,-4.40347 c 2.36659,-2.42191 4.56584,-4.92529 4.88723,-5.56306 3.28614,-6.5212 -2.68609,-11.70604 -10.62548,-9.22458 -2.12152,0.66308 -2.14858,0.69075 -2.26719,2.31849 -0.066,0.90607 -0.0444,1.6474 0.048,1.6474 0.0924,0 1.01846,-0.37619 2.05789,-0.83598 1.11568,-0.49352 2.75275,-0.84845 3.99623,-0.86643 1.89964,-0.0275 2.21711,0.0935 3.23483,1.23253 2.22722,2.49269 1.54368,3.98279 -5.02018,10.94384 -3.98987,4.23131 -4.78228,5.27153 -4.78228,6.27784 v 1.20616 h 7.22222 7.22222 z"
     id="path1776" />
  <path
     style="fill:#d5e5ff;stroke-width:0.39039"
     d="m 250.63062,225.06005 v -24.2042 h 23.42342 23.42342 v 24.2042 24.2042 h -23.42342 -23.42342 z m 28.50841,9.33427 c 2.49406,-1.38687 3.62846,-3.70038 3.38636,-6.90624 -0.35035,-4.63934 -2.91526,-6.91752 -7.78816,-6.91752 h -2.63514 v -2.43994 -2.43994 h 4.48949 4.48949 v -1.36637 -1.36636 h -6.05105 -6.05105 v 5.70243 c 0,5.26772 0.052,5.68246 0.68231,5.4406 3.52144,-1.35131 6.8,-1.02478 8.53777,0.85031 1.12447,1.21332 1.29044,4.27092 0.31281,5.76296 -1.38308,2.11085 -5.41838,2.62695 -8.96224,1.14623 l -1.35143,-0.56466 v 1.7443 c 0,1.71186 0.0272,1.74887 1.46396,1.98917 0.80518,0.13467 1.63964,0.31506 1.85435,0.40087 0.21472,0.0858 1.63692,0.0995 3.16045,0.0305 2.02853,-0.0919 3.223,-0.37735 4.46208,-1.06636 z"
     id="path1854" />
  <path
     style="fill:#d5e5ff;stroke-width:0.39039"
     d="m 250.63062,274.05404 v -23.22823 h 23.42342 23.42342 v 23.22823 23.22823 h -23.42342 -23.42342 z m 15.04777,8.21594 c 1.19899,-1.19898 1.273,-3.14588 0.16445,-4.32588 -0.70563,-0.75111 -0.72731,-0.90011 -0.1952,-1.34173 0.75422,-0.62594 0.78885,-3.27081 0.0508,-3.88329 -1.63754,-1.35904 -5.28174,-1.14917 -6.08429,0.3504 -0.64056,1.1969 -0.47366,3.07596 0.31707,3.56978 0.6762,0.42229 0.66637,0.49036 -0.1952,1.35193 -1.21623,1.21623 -1.19458,3.03323 0.051,4.27879 0.76641,0.76642 1.35607,0.95824 2.94567,0.95824 1.5896,0 2.17926,-0.19182 2.94567,-0.95824 z m -0.2858,-13.38861 c 0.0918,-0.95256 0.31076,-1.26877 0.87838,-1.26877 0.49578,0 0.75605,-0.26877 0.75605,-0.78078 0,-0.52052 -0.26027,-0.78078 -0.78079,-0.78078 -0.72294,0 -0.78078,-0.26026 -0.78078,-3.51351 v -3.51352 h -1.1611 c -1.0265,0 -1.4338,0.40557 -3.51351,3.49854 -1.29383,1.9242 -2.35241,3.85663 -2.35241,4.29429 0,0.71914 0.24434,0.79576 2.53753,0.79576 h 2.53754 v 1.39352 c 0,1.22183 0.10822,1.37815 0.87838,1.26877 0.67323,-0.0956 0.90695,-0.42108 1.00071,-1.39352 z m 12.205,0.32282 c 2.16868,-2.16868 1.14279,-5.94763 -1.7626,-6.49269 -0.726,-0.1362 -1.67417,-0.0497 -2.13023,0.19442 -1.20702,0.64598 -1.09717,-0.51899 0.16826,-1.78443 0.85024,-0.85023 1.20881,-0.9532 2.53754,-0.72872 1.37607,0.23249 1.54739,0.17463 1.54739,-0.52264 0,-0.55378 -0.34401,-0.85964 -1.17118,-1.04131 -3.48747,-0.76598 -5.85585,1.69947 -5.85585,6.09585 0,4.65732 3.83017,7.11602 6.66667,4.27952 z m 10.84225,-4.22672 c 1.11343,-2.95233 2.0213,-5.49963 2.0175,-5.66066 -0.004,-0.16104 -1.67582,-0.2928 -3.71561,-0.2928 -3.44845,0 -3.70871,0.0548 -3.70871,0.78078 0,0.702 0.26026,0.78078 2.57931,0.78078 2.29863,0 2.55005,0.0743 2.31047,0.68319 -1.20379,3.05926 -3.32822,8.73067 -3.32822,8.88506 0,0.10533 0.40969,0.19151 0.91043,0.19151 0.81134,0 1.13074,-0.58417 2.93483,-5.36786 z"
     id="path1893" />
  <path
     style="fill:#d5e5ff;stroke-width:0.39039"
     d="m 263.64475,263.31831 c 0,-1.61036 0.0689,-2.26915 0.15314,-1.46397 0.0842,0.80518 0.0842,2.12275 0,2.92793 -0.0842,0.80518 -0.15314,0.1464 -0.15314,-1.46396 z"
     id="path1932" />
  <path
     style="fill:#d5e5ff;stroke-width:0.39039"
     d="m 261.64841,275.98386 c -1.11863,-0.78353 -1.10069,-1.56392 0.0533,-2.32007 1.89318,-1.24046 3.93244,0.75134 2.36946,2.31432 -0.77189,0.77189 -1.32708,0.77321 -2.42279,0.006 z"
     id="path1971" />
  <path
     style="fill:#d5e5ff;stroke-width:0.39039"
     d="m 261.26708,281.21603 c -0.61766,-0.61766 -0.62707,-1.98519 -0.0178,-2.59442 0.64486,-0.64487 2.45919,-0.58879 3.02545,0.0935 0.25652,0.30909 0.40979,1.05571 0.34059,1.65916 -0.10812,0.94299 -0.31806,1.1134 -1.49384,1.21262 -0.75242,0.0635 -1.58688,-0.10339 -1.85436,-0.37087 z"
     id="path2010" />
  <path
     style="fill:#d5e5ff;stroke-width:0.39039"
     d="m 261.24663,264.55377 c 0.49528,-0.8235 1.19872,-1.92147 1.56321,-2.43994 0.65377,-0.92996 0.66298,-0.90977 0.68319,1.49727 l 0.0205,2.43994 h -1.58369 -1.58369 z"
     id="path2049" />
  <path
     style="fill:#d5e5ff;stroke-width:0.39039"
     d="m 273.41273,267.77754 c -1.25072,-1.90885 0.40486,-4.26726 2.36775,-3.37291 0.82593,0.37632 1.00629,0.7259 1.00629,1.95035 0,0.82052 -0.21081,1.70267 -0.46846,1.96032 -0.79708,0.79708 -2.20124,0.5372 -2.90558,-0.53776 z"
     id="path2088" />
  <path
     style="fill:#d5e5ff;stroke-width:0.39039"
     d="m 273.95483,268.29578 c -1.10372,-0.8431 -1.24857,-2.45852 -0.30504,-3.40205 1.33212,-1.33212 3.11801,-0.49036 3.13101,1.47577 0.0137,2.07004 -1.38747,3.02512 -2.82597,1.92628 z"
     id="path2127" />
  <path
     style="fill:#d5e5ff;stroke-width:0.39039"
     d="m 250.63062,325.97596 v -23.22823 h 23.42342 23.42342 v 23.22823 23.22823 h -23.42342 -23.42342 z m 15.61561,-6.44144 c 0,-0.70331 -0.26026,-0.78078 -2.62291,-0.78078 h -2.62291 l 2.18812,-2.24475 c 3.28268,-3.3676 3.719,-4.61707 2.26001,-6.47187 -0.97907,-1.24469 -2.84198,-1.63989 -4.996,-1.05988 -1.36976,0.36884 -1.62372,0.59405 -1.62372,1.43992 0,0.80017 0.13799,0.94677 0.68318,0.7258 2.51743,-1.02031 2.84668,-1.0569 3.81299,-0.42374 1.54803,1.01431 1.1962,2.02787 -1.76344,5.08016 -1.68137,1.734 -2.73273,3.14484 -2.73273,3.6671 0,0.81194 0.16116,0.84882 3.70871,0.84882 3.44844,0 3.7087,-0.0548 3.7087,-0.78078 z m 10.93093,-0.58559 c 0,-1.1061 0.14872,-1.36636 0.78079,-1.36636 0.52052,0 0.78078,-0.26026 0.78078,-0.78078 0,-0.52052 -0.26026,-0.78078 -0.78078,-0.78078 -0.72295,0 -0.78079,-0.26026 -0.78079,-3.51352 v -3.51351 l -1.07357,0.006 c -0.91708,0.005 -1.40079,0.50627 -3.31832,3.43718 -1.23461,1.88708 -2.24474,3.81676 -2.24474,4.28817 0,0.79464 0.18493,0.85711 2.53754,0.85711 h 2.53753 v 1.36636 c 0,1.10611 0.14872,1.36637 0.78078,1.36637 0.63206,0 0.78078,-0.26026 0.78078,-1.36637 z m 11.26268,-4.0015 c 1.11343,-2.95232 2.0213,-5.49962 2.0175,-5.66066 -0.004,-0.16103 -1.67582,-0.29279 -3.71561,-0.29279 -3.44845,0 -3.70871,0.0548 -3.70871,0.78078 0,0.702 0.26026,0.78078 2.57931,0.78078 2.29863,0 2.55005,0.0743 2.31047,0.68318 -1.20379,3.05927 -3.32822,8.73067 -3.32822,8.88506 0,0.10534 0.40969,0.19152 0.91043,0.19152 0.81134,0 1.13074,-0.58417 2.93483,-5.36787 z"
     id="path2166" />
  <path
     style="fill:#d5e5ff;stroke-width:0.39039"
     d="m 250.63062,374.96995 v -24.2042 h 23.42342 23.42342 v 24.2042 24.20421 h -23.42342 -23.42342 z m 15.61561,-5.44683 c 0,-0.66217 -0.31981,-0.7774 -2.43771,-0.87838 l -2.43772,-0.11623 2.23112,-2.42414 c 2.50712,-2.72403 3.03944,-4.05872 2.2089,-5.53842 -0.86225,-1.53621 -3.05555,-2.20948 -5.22186,-1.60295 -1.48024,0.41444 -1.76014,0.64659 -1.76014,1.45982 0,0.76646 0.14168,0.90943 0.68318,0.68938 2.13326,-0.86687 3.00615,-0.95168 3.8829,-0.37721 0.49466,0.32411 0.89938,0.93315 0.89938,1.35342 0,0.42026 -1.22973,2.11314 -2.73273,3.76195 -3.76886,4.13447 -3.70274,4.43491 0.97598,4.43491 3.41823,0 3.7087,-0.0597 3.7087,-0.76215 z m 10.93093,-0.60422 c 0,-1.1061 0.14872,-1.36636 0.78079,-1.36636 0.52052,0 0.78078,-0.26026 0.78078,-0.78078 0,-0.52052 -0.26026,-0.78079 -0.78078,-0.78079 -0.72295,0 -0.78079,-0.26026 -0.78079,-3.51351 v -3.51351 l -1.07357,0.002 c -0.92264,0.002 -1.38915,0.49179 -3.31832,3.48678 -1.23461,1.9167 -2.24474,3.84829 -2.24474,4.29242 0,0.73361 0.23226,0.80752 2.53754,0.80752 h 2.53753 v 1.36636 c 0,1.10611 0.14872,1.36637 0.78078,1.36637 0.63206,0 0.78078,-0.26026 0.78078,-1.36637 z m 11.26268,-4.0015 c 1.11343,-2.95233 2.0213,-5.49962 2.0175,-5.66066 -0.004,-0.16104 -1.67582,-0.29279 -3.71561,-0.29279 -3.44845,0 -3.70871,0.0548 -3.70871,0.78078 0,0.702 0.26026,0.78078 2.57931,0.78078 2.29863,0 2.55005,0.0743 2.31047,0.68318 -1.20379,3.05927 -3.32822,8.73067 -3.32822,8.88506 0,0.10534 0.40969,0.19152 0.91043,0.19152 0.81134,0 1.13074,-0.58418 2.93483,-5.36787 z"
     id="path2205" />
  <path
     style="fill:#d5e5ff;stroke-width:0.39039"
     d="m 275.74686,363.25824 c 0,-1.61036 0.0689,-2.26914 0.15313,-1.46396 0.0842,0.80518 0.0842,2.12275 0,2.92793 -0.0842,0.80518 -0.15313,0.14639 -0.15313,-1.46397 z"
     id="path2244" />
  <path
     style="fill:#d5e5ff;stroke-width:0.39039"
     d="m 272.49248,315.83898 c 0,-0.10011 0.7027,-1.26924 1.56156,-2.59806 l 1.56156,-2.41604 v 2.59806 2.59807 h -1.56156 c -0.85886,0 -1.56156,-0.0819 -1.56156,-0.18203 z"
     id="path2283" />
  <path
     style="fill:#d5e5ff;stroke-width:0.39039"
     d="m 272.49248,365.78977 c 0,-0.2686 2.80448,-4.48348 2.9832,-4.48348 0.077,0 0.13992,1.05405 0.13992,2.34234 v 2.34234 h -1.56156 c -0.85886,0 -1.56156,-0.0905 -1.56156,-0.2012 z"
     id="path2322" />
  <path
     style="fill:#d5e5ff;stroke-width:0.39039"
     d="m 200.66065,423.96395 v -23.22823 h 24.3994 24.3994 v 23.22823 23.22822 h -24.3994 -24.3994 z m 15.12763,8.15859 c 1.08521,-1.21065 1.1261,-2.85849 0.1032,-4.1589 -0.67862,-0.86273 -0.70293,-1.04542 -0.19519,-1.46681 0.84524,-0.70149 0.72841,-2.97004 -0.2008,-3.89925 -1.09418,-1.09418 -4.37129,-1.09418 -5.46547,0 -0.92922,0.92921 -1.04604,3.19776 -0.2008,3.89925 0.50774,0.42139 0.48343,0.60408 -0.1952,1.46681 -0.99265,1.26195 -0.98749,2.84731 0.0134,4.11972 1.35478,1.72232 4.61349,1.74311 6.14087,0.0392 z m 0.48799,-12.64808 c 0,-0.60728 -0.26026,-0.78078 -1.17117,-0.78078 h -1.17118 v -4.87988 c 0,-4.87646 -6.5e-4,-4.87988 -0.92717,-4.87988 -2.19654,0 -3.36712,0.46847 -3.36712,1.34755 0,0.73301 0.17243,0.83425 1.17117,0.68767 l 1.17117,-0.17189 v 3.94821 3.94822 h -1.17117 c -0.91091,0 -1.17117,0.1735 -1.17117,0.78078 0,0.71954 0.26026,0.78078 3.31832,0.78078 3.05806,0 3.31832,-0.0612 3.31832,-0.78078 z m 10.93093,-0.58559 c 0,-1.10611 0.14872,-1.36637 0.78078,-1.36637 0.52052,0 0.78078,-0.26026 0.78078,-0.78078 0,-0.52052 -0.26026,-0.78078 -0.78078,-0.78078 -0.72295,0 -0.78078,-0.26026 -0.78078,-3.51351 v -3.51351 l -1.07358,0.002 c -0.92264,0.002 -1.38915,0.49179 -3.31831,3.48678 -1.23461,1.9167 -2.24475,3.84829 -2.24475,4.29242 0,0.7336 0.23226,0.80751 2.53754,0.80751 h 2.53754 v 1.36637 c 0,1.10611 0.14872,1.36637 0.78078,1.36637 0.63206,0 0.78078,-0.26026 0.78078,-1.36637 z m 11.98273,0.42419 c 0.90257,-0.77635 1.09534,-1.25574 1.09534,-2.72386 0,-2.39043 -1.35803,-3.83077 -3.66898,-3.89137 -1.47886,-0.0388 -1.60129,-0.12457 -1.60129,-1.12217 0,-1.05996 0.0439,-1.08018 2.34235,-1.08018 2.08208,0 2.34234,-0.0868 2.34234,-0.78078 0,-0.71572 -0.26026,-0.78078 -3.12312,-0.78078 h -3.12313 v 2.93536 2.93537 l 1.07358,-0.25269 c 1.149,-0.27044 1.12964,-0.26863 2.11926,-0.19881 1.76691,0.12465 2.47263,2.51404 1.10744,3.74952 -0.61716,0.55853 -1.17311,0.654 -2.73273,0.46929 -1.73483,-0.20546 -1.95794,-0.14872 -1.95794,0.49797 0,0.92645 0.49407,1.11634 3.00376,1.15449 1.6086,0.0245 2.25421,-0.16395 3.12312,-0.91136 z"
     id="path2361" />
  <path
     style="fill:#d5e5ff;stroke-width:0.39039"
     d="m 211.42427,425.88801 c -1.16511,-1.16511 -0.44803,-2.50965 1.33848,-2.50965 1.083,0 1.95196,0.63062 1.95196,1.41656 0,0.71936 -1.12916,1.70656 -1.95196,1.70656 -0.39875,0 -1.00107,-0.27606 -1.33848,-0.61347 z"
     id="path2400" />
  <path
     style="fill:#d5e5ff;stroke-width:0.39039"
     d="m 211.49398,431.54529 c -0.78477,-0.45709 -0.9169,-2.31159 -0.21471,-3.01378 0.6039,-0.6039 2.36306,-0.6039 2.96697,0 0.74231,0.74232 0.56917,2.57329 -0.28665,3.03131 -0.93546,0.50065 -1.58386,0.49603 -2.46561,-0.0175 z"
     id="path2439" />
  <path
     style="fill:#d5e5ff;stroke-width:0.39039"
     d="m 222.52251,415.77892 c 0,-0.10011 0.70271,-1.26924 1.56156,-2.59806 l 1.56157,-2.41604 v 2.59806 2.59806 h -1.56157 c -0.85885,0 -1.56156,-0.0819 -1.56156,-0.18202 z"
     id="path2478" />
  <path
     style="fill:#d5e5ff;stroke-width:0.39039"
     d="m 200.66065,374.96995 v -24.2042 h 24.3994 24.3994 v 24.2042 24.20421 h -24.3994 -24.3994 z m 28.86754,9.77065 c 2.85528,-1.45665 4.21955,-4.37009 3.748,-8.00399 -0.67047,-5.16677 -5.58969,-7.8633 -10.10749,-5.54053 l -1.89136,0.97241 0.26567,-1.41611 c 0.36499,-1.94557 1.15518,-3.3644 2.43567,-4.37337 0.93803,-0.73913 1.44362,-0.8296 3.8141,-0.68248 1.50301,0.0933 3.04017,0.30433 3.41592,0.46899 0.58725,0.25734 0.68318,0.0781 0.68318,-1.27627 v -1.57565 l -2.2076,-0.4583 c -5.12924,-1.06482 -9.20261,1.14117 -10.87861,5.89147 -1.79572,5.08959 -0.73192,12.3323 2.21509,15.08111 1.29224,1.20534 2.55396,1.62936 4.93322,1.65787 1.32683,0.0159 2.60461,-0.25049 3.57421,-0.74515 z"
     id="path2517" />
  <path
     style="fill:#d5e5ff;stroke-width:0.39039"
     d="m 223.12558,381.62484 c -2.16344,-2.25815 -1.54271,-6.90558 1.0893,-8.15562 1.57893,-0.7499 3.52326,-0.27526 4.72554,1.15357 1.71201,2.03461 1.1598,6.63414 -0.93082,7.75301 -0.41309,0.22108 -1.43246,0.40196 -2.26526,0.40196 -1.1675,0 -1.76709,-0.26397 -2.61876,-1.15292 z"
     id="path2556" />
  <path
     style="fill:#d5e5ff;stroke-width:0.39039"
     d="m 222.77975,324.19826 c -1.99547,-1.56964 -2.30992,-5.38973 -0.62045,-7.53755 1.57182,-1.99825 5.27491,-1.6718 6.43267,0.56707 1.18744,2.29625 0.42609,6.41267 -1.36315,7.37024 -1.22658,0.65645 -3.34873,0.46577 -4.44907,-0.39976 z"
     id="path2595" />
  <path
     style="fill:#d5e5ff;stroke-width:0.39039"
     d="m 200.66065,325.97596 v -23.22823 h 24.3994 24.3994 v 23.22823 23.22823 h -24.3994 -24.3994 z m 27.47029,8.60135 c 3.40032,-1.64542 5.14217,-5.92479 4.84141,-11.89435 -0.27528,-5.46369 -1.52811,-7.93253 -4.78918,-9.43761 -3.74701,-1.72936 -8.55463,0.0522 -9.92895,3.67945 -0.72624,1.91678 -0.50684,5.38803 0.46199,7.30928 1.59509,3.16317 6.10447,4.47008 9.37515,2.7171 l 1.45818,-0.78154 -0.009,0.87914 c -0.0137,1.40457 -1.39985,4.07911 -2.48138,4.78776 -1.80483,1.18257 -4.46831,1.18107 -7.36741,-0.004 -0.58463,-0.23901 -0.68318,-0.0496 -0.68318,1.31286 0,1.45682 0.10785,1.625 1.26877,1.97832 1.91723,0.58351 6.12303,0.29096 7.85317,-0.54626 z"
     id="path2634" />
  <path
     style="fill:#5599ff;stroke-width:0.39039"
     d="m 250.63062,423.96395 v -23.22823 h 23.42342 23.42342 v 23.22823 23.22822 h -23.42342 -23.42342 z m 27.84116,10.95091 c 2.82129,-1.0062 4.26094,-3.07504 4.26094,-6.12316 0,-2.31263 -0.99222,-4.10084 -2.81673,-5.0764 -0.74815,-0.40003 -1.07378,-0.72733 -0.72363,-0.72733 0.35016,0 1.18188,-0.62098 1.84827,-1.37995 1.0018,-1.14099 1.21161,-1.71043 1.21161,-3.28837 0,-4.38658 -4.3788,-6.58962 -10.73574,-5.40131 l -2.73273,0.51083 -0.12418,1.51167 c -0.1214,1.47781 -0.0995,1.50589 0.97598,1.25335 2.50086,-0.58723 6.37343,-0.71712 7.49762,-0.25146 1.54199,0.63871 2.2547,2.35489 1.61716,3.89406 -0.59098,1.42674 -1.137,1.67433 -4.30592,1.95247 -2.52455,0.22159 -2.53816,0.22923 -2.65987,1.4915 -0.11856,1.22966 -0.0764,1.26906 1.36637,1.27808 0.81878,0.005 2.1914,0.1716 3.05026,0.36996 4.22246,0.97516 4.44722,6.08966 0.32737,7.44934 -1.75968,0.58074 -5.43869,0.28332 -7.0959,-0.57365 l -1.23447,-0.63837 v 1.728 c 0,1.66741 0.0513,1.74163 1.46396,2.11682 2.14621,0.57003 7.0932,0.51607 8.80963,-0.0961 z"
     id="path2710" />
  <path
     style="fill:#5599ff;stroke-width:0.39039"
     d="m 400.54052,176.06606 v -23.22823 h 23.42343 23.42342 v 23.22823 23.22823 h -23.42342 -23.42343 z m 28.85318,8.41161 c 3.92577,-2.00278 4.65946,-7.25598 1.41169,-10.10756 l -1.34711,-1.18277 1.35193,-1.35193 c 1.22607,-1.22608 1.35193,-1.55909 1.35193,-3.57716 0,-1.99649 -0.1323,-2.35753 -1.28708,-3.51231 -2.04236,-2.04236 -5.64426,-2.66297 -10.01502,-1.72561 l -1.97117,0.42274 v 1.57098 c 0,1.33502 0.10248,1.53165 0.68231,1.30915 1.74349,-0.66904 4.61524,-1.04817 6.1716,-0.81478 3.04688,0.45691 4.32873,3.40051 2.30765,5.29922 -0.77635,0.72934 -1.53064,0.96324 -3.51351,1.0895 l -2.52493,0.16078 v 1.32088 1.32089 h 1.96449 c 2.3272,0 4.44424,0.79666 5.03112,1.89324 1.31461,2.45637 -0.13644,5.29725 -3.03761,5.94707 -1.76802,0.39601 -5.20125,-0.0161 -6.66644,-0.80028 -1.16117,-0.62144 -1.24901,-0.52303 -1.12031,1.255 0.11873,1.64023 0.14141,1.6636 2.072,2.13451 2.77928,0.67793 7.14219,0.36686 9.13846,-0.65156 z"
     id="path2749" />
  <path
     style="fill:#87aade;stroke-width:0.39039"
     d="m 200.66065,225.06005 v -24.2042 h 24.3994 24.3994 v 24.2042 24.2042 h -24.3994 -24.3994 z m 14.04093,-5.26348 c 1.97243,-1.01999 2.38316,-4.22385 0.68357,-5.33217 -0.23421,-0.15273 -0.13533,-0.60511 0.25364,-1.16044 0.85422,-1.21958 0.80402,-2.52181 -0.13337,-3.4592 -1.02266,-1.02266 -2.37591,-1.32476 -4.50442,-1.00557 -1.42104,0.2131 -1.75176,0.41396 -1.75176,1.06388 0,0.72731 0.16062,0.7771 1.74189,0.53998 1.97038,-0.29548 3.33318,0.22761 3.33318,1.27938 0,1.0445 -0.79571,1.62591 -2.22522,1.62591 -1.02803,0 -1.28829,0.15773 -1.28829,0.78078 0,0.61664 0.26026,0.78078 1.23803,0.78078 0.68092,0 1.55929,0.29074 1.95195,0.64609 2.24243,2.02937 -1.19791,4.10491 -4.45875,2.68995 -0.54904,-0.23824 -0.68318,-0.10195 -0.68318,0.69414 0,0.71689 0.2427,1.03734 0.87838,1.15977 1.91417,0.36869 3.89944,0.2474 4.96435,-0.30328 z M 227.2072,219.009 c 0,-1.10611 0.14872,-1.36637 0.78078,-1.36637 0.52052,0 0.78078,-0.26026 0.78078,-0.78078 0,-0.52052 -0.26026,-0.78078 -0.78078,-0.78078 -0.72295,0 -0.78078,-0.26026 -0.78078,-3.51351 v -3.51352 h -1.09394 c -0.94871,0 -1.38923,0.45933 -3.31832,3.45989 -1.22341,1.90294 -2.22438,3.83537 -2.22438,4.29429 0,0.76671 0.2059,0.83441 2.53754,0.83441 h 2.53754 v 1.36637 c 0,1.10611 0.14872,1.36637 0.78078,1.36637 0.63206,0 0.78078,-0.26026 0.78078,-1.36637 z m 12.31171,0.47702 c 1.27361,-1.09552 1.48001,-3.35618 0.41396,-4.53415 -0.64822,-0.71627 -0.65403,-0.84247 -0.0769,-1.6665 0.82991,-1.18487 0.78834,-2.38088 -0.12183,-3.50489 -0.62569,-0.7727 -1.1044,-0.92163 -2.96242,-0.92163 -1.85802,0 -2.33673,0.14893 -2.96242,0.92163 -0.91017,1.12401 -0.95174,2.32002 -0.12183,3.50489 0.57718,0.82403 0.57136,0.95023 -0.0769,1.6665 -1.06605,1.17797 -0.85966,3.43863 0.41395,4.53415 1.42345,1.22439 4.07085,1.22439 5.4943,0 z"
     id="path2825" />
  <path
     style="fill:#87aade;stroke-width:0.39039"
     d="m 222.52251,215.87098 c 0,-0.11554 0.69902,-1.30136 1.55337,-2.63513 l 1.55336,-2.42505 0.008,2.63514 0.008,2.63513 h -1.56157 c -0.85885,0 -1.56156,-0.0945 -1.56156,-0.21009 z"
     id="path2864" />
  <path
     style="fill:#87aade;stroke-width:0.39039"
     d="m 235.23808,218.20033 c -0.3374,-0.33741 -0.61347,-0.92504 -0.61347,-1.30586 0,-0.89893 1.21169,-1.98457 2.21498,-1.98457 0.91555,0 2.07932,1.1487 2.07932,2.0524 0,1.61287 -2.47391,2.44495 -3.68083,1.23803 z"
     id="path2903" />
  <path
     style="fill:#87aade;stroke-width:0.39039"
     d="m 235.27526,213.08808 c -0.42417,-0.42418 -0.29676,-1.88942 0.20821,-2.3944 0.60218,-0.60217 1.9744,-0.60217 2.57658,0 0.6693,0.6693 0.57873,2.13842 -0.14905,2.4177 -0.82063,0.3149 -2.3107,0.30173 -2.63574,-0.0233 z"
     id="path2942" />
  <path
     style="fill:#87aade;stroke-width:0.39039"
     d="m 200.66065,274.05404 v -23.22823 h 24.3994 24.3994 v 23.22823 23.22823 h -24.3994 -24.3994 z m 14.34685,-4.48521 c 1.59251,-0.97097 1.92235,-3.31969 0.6618,-4.71258 -0.52634,-0.58161 -0.51618,-0.77756 0.0955,-1.84341 1.48666,-2.59036 -0.97295,-4.77216 -4.74253,-4.20687 -1.52103,0.22809 -1.77306,0.39531 -1.77306,1.17643 0,0.87015 0.0702,0.89272 1.58295,0.50875 2.04342,-0.51868 3.49212,0.0665 3.49212,1.41065 0,1.03537 -0.63884,1.41651 -2.37427,1.41651 -0.87898,0 -1.13924,0.17837 -1.13924,0.78078 0,0.59337 0.26026,0.78078 1.08431,0.78078 0.59637,0 1.47475,0.27347 1.95195,0.60772 1.87617,1.31412 0.41344,3.50785 -2.13839,3.20703 -0.8159,-0.0962 -1.79089,-0.30994 -2.16664,-0.47502 -0.54986,-0.24157 -0.68318,-0.10712 -0.68318,0.68897 0,1.11163 0.47719,1.32401 3.12312,1.39002 1.1286,0.0281 2.21043,-0.23278 3.02553,-0.72976 z m 12.1997,-0.58986 c 0,-1.10611 0.14872,-1.36637 0.78078,-1.36637 0.52052,0 0.78078,-0.26026 0.78078,-0.78078 0,-0.52052 -0.26026,-0.78078 -0.78078,-0.78078 -0.72295,0 -0.78078,-0.26026 -0.78078,-3.51351 v -3.51352 l -1.07358,0.006 c -0.91707,0.005 -1.40079,0.50627 -3.31831,3.43718 -1.23461,1.88709 -2.24475,3.81676 -2.24475,4.28817 0,0.79464 0.18494,0.85711 2.53754,0.85711 h 2.53754 v 1.36637 c 0,1.1061 0.14872,1.36636 0.78078,1.36636 0.63206,0 0.78078,-0.26026 0.78078,-1.36636 z m 12.31171,0.47701 c 1.25764,-1.08178 1.48002,-3.35615 0.44046,-4.50485 -0.63495,-0.70162 -0.63587,-0.81352 -0.0155,-1.89437 1.71108,-2.98139 -1.92478,-5.59288 -5.33295,-3.83045 -1.48158,0.76616 -1.88745,2.30363 -1.01118,3.83045 0.62032,1.08085 0.6194,1.19275 -0.0155,1.89437 -1.03956,1.1487 -0.81718,3.42307 0.44046,4.50485 1.42345,1.2244 4.07086,1.2244 5.4943,0 z"
     id="path2981" />
  <path
     style="fill:#87aade;stroke-width:0.39039"
     d="m 222.52251,265.84095 c 0,-0.11555 0.69902,-1.30136 1.55337,-2.63513 l 1.55336,-2.42505 0.008,2.63513 0.008,2.63514 h -1.56157 c -0.85885,0 -1.56156,-0.0945 -1.56156,-0.21009 z"
     id="path3098" />
  <path
     style="fill:#87aade;stroke-width:0.39039"
     d=""
     id="path3137" />
  <path
     style="fill:#87aade;stroke-width:0.39039"
     d="m 235.21731,268.14953 c -0.87872,-0.87872 -0.59493,-2.15715 0.63109,-2.843 0.92168,-0.5156 1.1347,-0.50588 2.04955,0.0935 0.56153,0.36793 1.02096,1.00371 1.02096,1.41285 0,1.73526 -2.42669,2.6115 -3.7016,1.3366 z"
     id="path3176" />
  <path
     style="fill:#87aade;stroke-width:0.39039"
     d="m 235.29384,263.07663 c -0.43989,-0.4399 -0.3253,-1.89805 0.18963,-2.41298 1.19171,-1.1917 3.21705,-0.13081 2.97742,1.5596 -0.10181,0.71818 -0.40625,0.92332 -1.50789,1.01604 -0.75917,0.0639 -1.50579,-0.009 -1.65916,-0.16266 z"
     id="path3215" />
  <path
     style="fill:#d5e5ff;stroke-width:0.39039"
     d="m 200.66065,123.94894 v -23.42342 h 24.3994 24.3994 v 23.42342 23.42343 h -24.3994 -24.3994 z m 28.04471,0.87838 c 2.19317,-5.74362 3.98301,-10.75037 3.97744,-11.12612 -0.009,-0.62567 -0.61817,-0.68319 -7.23236,-0.68319 h -7.22222 v 1.35535 1.35535 l 5.20844,0.10862 5.20844,0.10861 -3.63477,9.36937 c -1.99912,5.15315 -3.64021,9.50113 -3.64687,9.66216 -0.007,0.16104 0.74533,0.29279 1.67111,0.29279 h 1.68322 z"
     id="path3291" />
  <path
     style="fill:#ff0000;stroke-width:0.138227"
     d="m 210.10521,19.869226 -0.89848,-0.240976 -0.0419,-0.652075 -0.0419,-0.652075 0.66397,0.303336 c 0.93702,0.428085 3.33224,0.447802 4.03608,0.03322 0.99437,-0.585702 1.38348,-1.753402 0.91398,-2.742795 -0.37825,-0.797107 -1.01885,-1.104024 -2.44681,-1.172295 l -1.21726,-0.0582 v -0.536 -0.536001 h 0.91699 c 1.73452,0 2.51555,-0.461094 2.6392,-1.558099 0.086,-0.762654 -0.217,-1.390371 -0.82855,-1.716661 -0.57652,-0.307604 -2.35389,-0.313263 -3.45334,-0.01099 l -0.7948,0.218514 V 9.9490297 9.3499299 l 0.7948,-0.1762792 c 0.43715,-0.096953 1.38573,-0.1766642 2.10797,-0.1771349 1.48383,-9.671e-4 2.34203,0.3016189 2.96911,1.0468622 1.01098,1.201489 0.66469,3.055217 -0.69358,3.712743 -0.33924,0.164225 -0.61681,0.32331 -0.61681,0.35352 0,0.03021 0.23241,0.152035 0.51647,0.270721 1.30239,0.544175 1.86833,1.731413 1.54469,3.24049 -0.1901,0.886431 -0.82632,1.642304 -1.7542,2.084137 -0.89746,0.427349 -3.0317,0.508572 -4.31554,0.164237 z"
     id="path3484" />
  <path
     style="fill:none;stroke:#000000;stroke-width:1px;stroke-linecap:butt;stroke-linejoin:miter;stroke-opacity:1"
     d="M 207.21823,21.722723 217.5553,7.7167073"
     id="path3638" />
  <path
     style="fill:#ff0000;stroke-width:0.138227"
     d="m 207.23045,21.658493 -0.31756,-0.244356 3.81889,-5.177984 c 2.10039,-2.847891 4.40616,-5.971614 5.12394,-6.9416069 l 1.30505,-1.7636226 0.34139,0.2236875 c 0.19131,0.1253525 0.29993,0.292998 0.24708,0.3813516 -0.16578,0.2771185 -2.22142,3.0893804 -5.06611,6.9307924 -4.2487,5.737354 -5.07372,6.842495 -5.10563,6.839168 -0.0162,-0.0017 -0.1724,-0.113034 -0.34705,-0.24743 z"
     id="path3679" />
  <path
     style="fill:#d5e5ff;stroke-width:0.138227"
     d="M 200.56754,74.988207 V 50.522009 h 24.46619 24.4662 v 24.466198 24.466199 h -24.4662 -24.46619 z m 31.51578,8.779125 v -1.311455 l -5.03884,-0.03626 -5.03884,-0.03626 3.78003,-3.900864 c 2.07902,-2.145475 4.07555,-4.291451 4.43673,-4.768835 1.42064,-1.877687 1.9879,-3.765437 1.7134,-5.701852 -0.18054,-1.273582 -0.65008,-2.259845 -1.50743,-3.166372 -1.25779,-1.329926 -2.88903,-1.986132 -5.25641,-2.114518 -1.73284,-0.09398 -3.20385,0.14445 -5.42541,0.879362 l -1.48594,0.491562 v 1.584343 c 0,0.87139 0.0466,1.560395 0.10367,1.531125 2.7769,-1.425493 4.08969,-1.822789 6.04743,-1.83016 1.31003,-0.0049 1.62052,0.03949 2.24302,0.320943 2.08776,0.943927 2.83306,3.302335 1.73171,5.47979 -0.71066,1.405023 -1.53308,2.357173 -5.97449,6.916905 l -4.28957,4.403841 v 1.28508 1.285079 h 6.98047 6.98047 z"
     id="path3755" />
  <path
     style="fill:#d5e5ff;stroke-width:0.138227"
     d="M 200.56754,25.986697 V 2.5572015 h 24.46619 24.4662 V 25.986697 49.416192 h -24.4662 -24.46619 z m 14.32769,6.86795 c 1.74185,-0.892441 2.26124,-3.354621 1.00861,-4.781289 -0.22358,-0.254641 -0.5934,-0.540396 -0.82182,-0.635013 -0.52171,-0.216097 -0.52053,-0.30089 0.007,-0.534587 1.03239,-0.456983 1.53027,-2.147061 0.99138,-3.365314 -0.35594,-0.804646 -1.00552,-1.289443 -2.10523,-1.571176 -1.46059,-0.374185 -3.05998,-0.07047 -3.9173,0.743868 -0.6012,0.571064 -0.78247,1.035355 -0.78247,2.004211 0,1.029089 0.31025,1.615741 1.13972,2.155131 l 0.50882,0.330874 -0.55911,0.276626 c -0.79017,0.390945 -1.26656,1.168667 -1.3403,2.18807 -0.12053,1.666354 0.62855,2.921474 2.00737,3.363429 0.97396,0.312186 3.10016,0.215956 3.86289,-0.17483 z m -6.38813,-11.91324 c 0.43791,-0.608199 0.83667,-1.103601 0.88614,-1.100893 0.0495,0.0027 0.46316,0.09504 0.91931,0.205181 1.72518,0.416562 3.64287,0.20048 4.73073,-0.533052 1.95264,-1.316641 1.72134,-4.624834 -0.3688,-5.274931 -0.33345,-0.10371 -0.33138,-0.108355 0.16032,-0.360609 0.93153,-0.477906 1.46141,-1.557312 1.28296,-2.613514 -0.0827,-0.489369 -0.0229,-0.61209 0.91199,-1.8723788 l 1.00047,-1.3486855 -0.37631,-0.3236871 c -0.20697,-0.1780281 -0.4235,-0.3236872 -0.48118,-0.3236872 -0.0577,0 -0.48924,0.5271082 -0.95902,1.1713514 L 215.35957,9.7378534 214.861,9.3995199 c -0.2742,-0.1860834 -0.72556,-0.3866301 -1.00301,-0.4456593 -0.74646,-0.1588163 -2.89163,-0.079607 -3.68367,0.1360188 l -0.69114,0.1881548 -0.0422,0.7290198 c -0.0376,0.648816 -0.0147,0.720577 0.20734,0.652277 0.76619,-0.235645 2.11693,-0.49582 2.58335,-0.497595 0.74018,-0.0028 1.54218,0.258152 1.87189,0.609104 l 0.27609,0.293886 -0.89192,1.206209 -0.89191,1.206208 h -0.83064 -0.83063 v 0.691136 c 0,0.598984 0.0369,0.691135 0.27645,0.691135 0.15205,0 0.27646,0.02952 0.27646,0.0656 0,0.03608 -1.06766,1.507802 -2.37257,3.270494 l -2.37258,3.204895 0.37599,0.323411 c 0.20679,0.177875 0.42472,0.32341 0.48429,0.32341 0.0596,0 0.46659,-0.497618 0.90449,-1.105817 z m 29.7256,-1.085752 c 0.9024,-0.405799 1.28101,-0.769127 1.67739,-1.609676 0.3701,-0.7848 0.44528,-2.204895 0.16607,-3.13681 -0.23171,-0.773373 -1.08113,-1.676593 -1.91347,-2.034655 -0.72582,-0.312238 -2.24066,-0.435144 -2.86559,-0.2325 -0.30704,0.09956 -0.31101,0.08487 -0.31101,-1.149084 v -1.249935 l 2.24619,-0.03798 2.24619,-0.03798 0.0421,-0.6565785 0.0421,-0.6565788 h -2.97946 -2.97945 V 11.81842 c 0,1.520498 0.027,2.764542 0.0601,2.764542 0.0331,0 0.23522,-0.06741 0.44924,-0.149805 1.31635,-0.50677 2.89172,-0.411974 3.72578,0.224195 0.89315,0.681241 1.10089,2.144394 0.45324,3.192313 -0.73527,1.189685 -2.80273,1.356189 -4.99939,0.402631 -0.21525,-0.09344 -0.24189,-0.01313 -0.24189,0.729231 v 0.834239 l 0.7948,0.163425 c 0.43715,0.08988 0.85701,0.186208 0.93304,0.214057 0.076,0.02785 0.72914,0.03304 1.45138,0.01153 1.0023,-0.02984 1.47636,-0.11249 2.00257,-0.349123 z m -10.98733,-1.056768 v -1.313158 h 0.76025 0.76025 v -0.691135 -0.691136 h -0.76025 -0.76025 V 12.578667 9.0538757 h -1.02181 -1.0218 l -2.29565,3.5000263 c -2.22268,3.388787 -2.29564,3.522778 -2.29564,4.215926 v 0.715901 h 2.48809 2.48808 v 1.313158 1.313157 h 0.82937 0.82936 z"
     id="path3794" />
  <path
     style="fill:#d5e5ff;stroke-width:0.138227"
     d="m 211.66943,31.739493 c -0.69893,-0.327652 -1.05993,-0.945243 -1.05993,-1.813324 0,-0.873036 0.36079,-1.487359 1.05993,-1.804779 0.99766,-0.452952 2.11262,-0.284449 2.78896,0.421493 0.32449,0.338698 0.40741,0.562223 0.449,1.210362 0.0848,1.321605 -0.57288,2.071056 -1.92326,2.191609 -0.54783,0.04891 -0.88449,-0.0037 -1.3147,-0.205361 z"
     id="path3833" />
  <path
     style="fill:#d5e5ff;stroke-width:0.138227"
     d="m 211.90695,26.428133 c -1.27752,-0.440009 -1.48197,-2.299264 -0.33105,-3.010572 0.39654,-0.245076 0.6347,-0.285888 1.38828,-0.237903 0.81474,0.05188 0.95097,0.104199 1.30607,0.501627 0.31291,0.350211 0.39645,0.575764 0.39645,1.070413 0,0.868895 -0.2923,1.363354 -0.96508,1.632547 -0.65375,0.26158 -1.12889,0.273199 -1.79467,0.04389 z"
     id="path3872" />
  <path
     style="fill:#d5e5ff;stroke-width:0.138227"
     d="m 222.25685,15.850064 c 0.144,-0.26906 3.18601,-5.028169 3.27649,-5.125944 0.0293,-0.03168 0.0533,1.165715 0.0533,2.660872 v 2.718466 h -1.7327 c -1.63731,0 -1.72524,-0.01395 -1.59709,-0.253394 z"
     id="path3950" />
  <path
     style="fill:#d5e5ff;stroke-width:0.138227"
     d="m 210.62356,18.768995 c -0.20907,-0.03167 -0.38013,-0.08652 -0.38013,-0.121877 0,-0.03536 0.61871,-0.898669 1.37491,-1.918462 l 1.3749,-1.854171 0.44109,0.126505 c 1.22411,0.351071 1.75273,1.877331 1.03146,2.978123 -0.48742,0.743902 -2.03949,1.062974 -3.84223,0.789882 z"
     id="path3989" />
</svg>
