<?xml version="1.0" encoding="UTF-8" standalone="no"?>
<svg
   version="1.1"
   width="500"
   height="500"
   id="svg258"
   sodipodi:docname="NakedPair2.svg"
   inkscape:export-filename="/home/karoli/Documents/Bakalarka/Bakalarka/Bakalarka/NakedPair2.png"
   inkscape:export-xdpi="96"
   inkscape:export-ydpi="96"
   inkscape:version="1.1.2 (1:1.1+202202050950+0a00cf5339)"
   xmlns:inkscape="http://www.inkscape.org/namespaces/inkscape"
   xmlns:sodipodi="http://sodipodi.sourceforge.net/DTD/sodipodi-0.dtd"
   xmlns="http://www.w3.org/2000/svg"
   xmlns:svg="http://www.w3.org/2000/svg">
  <defs
     id="defs262" />
  <sodipodi:namedview
     id="namedview260"
     pagecolor="#ffffff"
     bordercolor="#666666"
     borderopacity="1.0"
     inkscape:pageshadow="2"
     inkscape:pageopacity="0.0"
     inkscape:pagecheckerboard="0"
     showgrid="false"
     inkscape:zoom="1.5768258"
     inkscape:cx="250.18617"
     inkscape:cy="250.50326"
     inkscape:window-width="2488"
     inkscape:window-height="1403"
     inkscape:window-x="1992"
     inkscape:window-y="0"
     inkscape:window-maximized="1"
     inkscape:current-layer="svg258" />
  <polyline
     points="0,0 450,0 450,450 0,450 0,0"
     style="fill:white;stroke:black;stroke-width:5"
     id="polyline2" />
  <polyline
     points="0,50 450,50"
     style="fill:none;stroke:black;stroke-width:1"
     id="polyline4" />
  <polyline
     points="0,100 450,100"
     style="fill:none;stroke:black;stroke-width:1"
     id="polyline6" />
  <polyline
     points="0,150 450,150"
     style="fill:none;stroke:black;stroke-width:5"
     id="polyline8" />
  <polyline
     points="0,200 450,200"
     style="fill:none;stroke:black;stroke-width:1"
     id="polyline10" />
  <polyline
     points="0,250 450,250"
     style="fill:none;stroke:black;stroke-width:1"
     id="polyline12" />
  <polyline
     points="0,300 450,300"
     style="fill:none;stroke:black;stroke-width:5"
     id="polyline14" />
  <polyline
     points="0,350 450,350"
     style="fill:none;stroke:black;stroke-width:1"
     id="polyline16" />
  <polyline
     points="0,400 450,400"
     style="fill:none;stroke:black;stroke-width:1"
     id="polyline18" />
  <polyline
     points="50,0 50,450"
     style="fill:none;stroke:black;stroke-width:1"
     id="polyline20" />
  <polyline
     points="100,0 100,450"
     style="fill:none;stroke:black;stroke-width:1"
     id="polyline22" />
  <polyline
     points="150,0 150,450"
     style="fill:none;stroke:black;stroke-width:5"
     id="polyline24" />
  <polyline
     points="200,0 200,450"
     style="fill:none;stroke:black;stroke-width:1"
     id="polyline26" />
  <polyline
     points="250,0 250,450"
     style="fill:none;stroke:black;stroke-width:1"
     id="polyline28" />
  <polyline
     points="300,0 300,450"
     style="fill:none;stroke:black;stroke-width:5"
     id="polyline30" />
  <polyline
     points="350,0 350,450"
     style="fill:none;stroke:black;stroke-width:1"
     id="polyline32" />
  <polyline
     points="400,0 400,450"
     style="fill:none;stroke:black;stroke-width:1"
     id="polyline34" />
  <text
     x="16"
     y="35"
     style="font-wight:bold"
     font-size="30px"
     id="text36">4</text>
  <text
     x="58"
     y="20"
     style="font-wight:bold; fill:black"
     font-size="15px"
     id="text38">1</text>
  <text
     x="70"
     y="20"
     style="font-wight:bold; fill:black"
     font-size="15px"
     id="text40">5</text>
  <text
     x="108"
     y="20"
     style="font-wight:bold; fill:black"
     font-size="15px"
     id="text42">3</text>
  <text
     x="120"
     y="20"
     style="font-wight:bold; fill:black"
     font-size="15px"
     id="text44">5</text>
  <text
     x="166"
     y="35"
     style="font-wight:bold"
     font-size="30px"
     id="text46">2</text>
  <text
     x="216"
     y="35"
     style="font-wight:bold"
     font-size="30px"
     id="text48">7</text>
  <text
     x="258"
     y="20"
     style="font-wight:bold; fill:black"
     font-size="15px"
     id="text50">3</text>
  <text
     x="270"
     y="20"
     style="font-wight:bold; fill:black"
     font-size="15px"
     id="text52">9</text>
  <text
     x="316"
     y="35"
     style="font-wight:bold"
     font-size="30px"
     id="text54">6</text>
  <text
     x="358"
     y="20"
     style="font-wight:bold; fill:black"
     font-size="15px"
     id="text56">1</text>
  <text
     x="370"
     y="20"
     style="font-wight:bold; fill:black"
     font-size="15px"
     id="text58">8</text>
  <text
     x="382"
     y="20"
     style="font-wight:bold; fill:black"
     font-size="15px"
     id="text60">9</text>
  <text
     x="408"
     y="20"
     style="font-wight:bold; fill:black"
     font-size="15px"
     id="text62">5</text>
  <text
     x="420"
     y="20"
     style="font-wight:bold; fill:black"
     font-size="15px"
     id="text64">8</text>
  <text
     x="16"
     y="85"
     style="font-wight:bold"
     font-size="30px"
     id="text66">7</text>
  <text
     x="66"
     y="85"
     style="font-wight:bold"
     font-size="30px"
     id="text68">9</text>
  <text
     x="116"
     y="85"
     style="font-wight:bold"
     font-size="30px"
     id="text70">8</text>
  <text
     x="166"
     y="85"
     style="font-wight:bold"
     font-size="30px"
     id="text72">1</text>
  <text
     x="216"
     y="85"
     style="font-wight:bold"
     font-size="30px"
     id="text74">5</text>
  <text
     x="266"
     y="85"
     style="font-wight:bold"
     font-size="30px"
     id="text76">6</text>
  <text
     x="316"
     y="85"
     style="font-wight:bold"
     font-size="30px"
     id="text78">2</text>
  <text
     x="366"
     y="85"
     style="font-wight:bold"
     font-size="30px"
     id="text80">3</text>
  <text
     x="416"
     y="85"
     style="font-wight:bold"
     font-size="30px"
     id="text82">4</text>
  <text
     x="8"
     y="120"
     style="font-wight:bold; fill:black"
     font-size="15px"
     id="text84">1</text>
  <text
     x="20"
     y="120"
     style="font-wight:bold; fill:black"
     font-size="15px"
     id="text86">3</text>
  <text
     x="32"
     y="120"
     style="font-wight:bold; fill:black"
     font-size="15px"
     id="text88">6</text>
  <text
     x="66"
     y="135"
     style="font-wight:bold"
     font-size="30px"
     id="text90">2</text>
  <text
     x="108"
     y="120"
     style="font-wight:bold; fill:black"
     font-size="15px"
     id="text92">3</text>
  <text
     x="120"
     y="120"
     style="font-wight:bold; fill:black"
     font-size="15px"
     id="text94">5</text>
  <text
     x="132"
     y="120"
     style="font-wight:bold; fill:black"
     font-size="15px"
     id="text96">6</text>
  <text
     x="166"
     y="135"
     style="font-wight:bold"
     font-size="30px"
     id="text98">8</text>
  <text
     x="216"
     y="135"
     style="font-wight:bold"
     font-size="30px"
     id="text100">4</text>
  <text
     x="258"
     y="120"
     style="font-wight:bold; fill:black"
     font-size="15px"
     id="text102">3</text>
  <text
     x="270"
     y="120"
     style="font-wight:bold; fill:black"
     font-size="15px"
     id="text104">9</text>
  <text
     x="308"
     y="120"
     style="font-wight:bold; fill:black"
     font-size="15px"
     id="text106">1</text>
  <text
     x="320"
     y="120"
     style="font-wight:bold; fill:black"
     font-size="15px"
     id="text108">5</text>
  <text
     x="358"
     y="120"
     style="font-wight:bold; fill:black"
     font-size="15px"
     id="text110">1</text>
  <text
     x="370"
     y="120"
     style="font-wight:bold; fill:black"
     font-size="15px"
     id="text112">9</text>
  <text
     x="416"
     y="135"
     style="font-wight:bold"
     font-size="30px"
     id="text114">7</text>
  <text
     x="16"
     y="185"
     style="font-wight:bold"
     font-size="30px"
     id="text116">2</text>
  <text
     x="66"
     y="185"
     style="font-wight:bold"
     font-size="30px"
     id="text118">3</text>
  <text
     x="116"
     y="185"
     style="font-wight:bold"
     font-size="30px"
     id="text120">7</text>
  <text
     x="166"
     y="185"
     style="font-wight:bold"
     font-size="30px"
     id="text122">4</text>
  <text
     x="216"
     y="185"
     style="font-wight:bold"
     font-size="30px"
     id="text124">6</text>
  <text
     x="266"
     y="185"
     style="font-wight:bold"
     font-size="30px"
     id="text126">8</text>
  <text
     x="316"
     y="185"
     style="font-wight:bold"
     font-size="30px"
     id="text128">9</text>
  <text
     x="366"
     y="185"
     style="font-wight:bold"
     font-size="30px"
     id="text130">5</text>
  <text
     x="416"
     y="185"
     style="font-wight:bold"
     font-size="30px"
     id="text132">1</text>
  <text
     x="16"
     y="235"
     style="font-wight:bold"
     font-size="30px"
     id="text134">8</text>
  <text
     x="66"
     y="235"
     style="font-wight:bold"
     font-size="30px"
     id="text136">4</text>
  <text
     x="116"
     y="235"
     style="font-wight:bold"
     font-size="30px"
     id="text138">9</text>
  <text
     x="166"
     y="235"
     style="font-wight:bold"
     font-size="30px"
     id="text140">5</text>
  <text
     x="216"
     y="235"
     style="font-wight:bold"
     font-size="30px"
     id="text142">3</text>
  <text
     x="266"
     y="235"
     style="font-wight:bold"
     font-size="30px"
     id="text144">1</text>
  <text
     x="316"
     y="235"
     style="font-wight:bold"
     font-size="30px"
     id="text146">7</text>
  <text
     x="366"
     y="235"
     style="font-wight:bold"
     font-size="30px"
     id="text148">2</text>
  <text
     x="416"
     y="235"
     style="font-wight:bold"
     font-size="30px"
     id="text150">6</text>
  <text
     x="16"
     y="285"
     style="font-wight:bold"
     font-size="30px"
     id="text152">5</text>
  <text
     x="66"
     y="285"
     style="font-wight:bold"
     font-size="30px"
     id="text154">6</text>
  <text
     x="116"
     y="285"
     style="font-wight:bold"
     font-size="30px"
     id="text156">1</text>
  <text
     x="166"
     y="285"
     style="font-wight:bold"
     font-size="30px"
     id="text158">7</text>
  <text
     x="216"
     y="285"
     style="font-wight:bold"
     font-size="30px"
     id="text160">9</text>
  <text
     x="266"
     y="285"
     style="font-wight:bold"
     font-size="30px"
     id="text162">2</text>
  <text
     x="316"
     y="285"
     style="font-wight:bold"
     font-size="30px"
     id="text164">8</text>
  <text
     x="366"
     y="285"
     style="font-wight:bold"
     font-size="30px"
     id="text166">4</text>
  <text
     x="416"
     y="285"
     style="font-wight:bold"
     font-size="30px"
     id="text168">3</text>
  <text
     x="8"
     y="320"
     style="font-wight:bold; fill:black"
     font-size="15px"
     id="text170">3</text>
  <text
     x="20"
     y="320"
     style="font-wight:bold; fill:black"
     font-size="15px"
     id="text172">6</text>
  <text
     x="66"
     y="335"
     style="font-wight:bold"
     font-size="30px"
     id="text174">8</text>
  <text
     x="116"
     y="335"
     style="font-wight:bold"
     font-size="30px"
     id="text176">2</text>
  <text
     x="158"
     y="320"
     style="font-wight:bold; fill:black"
     font-size="15px"
     id="text178">3</text>
  <text
     x="170"
     y="320"
     style="font-wight:bold; fill:black"
     font-size="15px"
     id="text180">6</text>
  <text
     x="216"
     y="335"
     style="font-wight:bold"
     font-size="30px"
     id="text182">1</text>
  <text
     x="266"
     y="335"
     style="font-wight:bold"
     font-size="30px"
     id="text184">5</text>
  <text
     x="316"
     y="335"
     style="font-wight:bold"
     font-size="30px"
     id="text186">4</text>
  <text
     x="366"
     y="335"
     style="font-wight:bold"
     font-size="30px"
     id="text188">7</text>
  <text
     x="416"
     y="335"
     style="font-wight:bold"
     font-size="30px"
     id="text190">9</text>
  <text
     x="8"
     y="370"
     style="font-wight:bold; fill:black"
     font-size="15px"
     id="text192">1</text>
  <text
     x="20"
     y="370"
     style="font-wight:bold; fill:black"
     font-size="15px"
     id="text194">6</text>
  <text
     x="32"
     y="370"
     style="font-wight:bold; fill:black"
     font-size="15px"
     id="text196">9</text>
  <text
     x="66"
     y="385"
     style="font-wight:bold"
     font-size="30px"
     id="text198">7</text>
  <text
     x="108"
     y="370"
     style="font-wight:bold; fill:black"
     font-size="15px"
     id="text200">5</text>
  <text
     x="120"
     y="370"
     style="font-wight:bold; fill:black"
     font-size="15px"
     id="text202">6</text>
  <text
     x="158"
     y="370"
     style="font-wight:bold; fill:black"
     font-size="15px"
     id="text204">6</text>
  <text
     x="170"
     y="370"
     style="font-wight:bold; fill:black"
     font-size="15px"
     id="text206">9</text>
  <text
     x="216"
     y="385"
     style="font-wight:bold"
     font-size="30px"
     id="text208">2</text>
  <text
     x="266"
     y="385"
     style="font-wight:bold"
     font-size="30px"
     id="text210">4</text>
  <text
     x="316"
     y="385"
     style="font-wight:bold"
     font-size="30px"
     id="text212">3</text>
  <text
     x="358"
     y="370"
     style="font-wight:bold; fill:black"
     font-size="15px"
     id="text214">1</text>
  <text
     x="370"
     y="370"
     style="font-wight:bold; fill:black"
     font-size="15px"
     id="text216">6</text>
  <text
     x="382"
     y="370"
     style="font-wight:bold; fill:black"
     font-size="15px"
     id="text218">8</text>
  <text
     x="408"
     y="370"
     style="font-wight:bold; fill:black"
     font-size="15px"
     id="text220">5</text>
  <text
     x="420"
     y="370"
     style="font-wight:bold; fill:black"
     font-size="15px"
     id="text222">8</text>
  <text
     x="7.562428"
     y="419.97797"
     style="fill:#000000"
     font-size="15px"
     id="text224-3">1</text>
  <text
     x="20"
     y="420"
     style="font-wight:bold; fill:black"
     font-size="15px"
     id="text226">3</text>
  <text
     x="32"
     y="420"
     style="font-wight:bold; fill:black"
     font-size="15px"
     id="text228">6</text>
  <text
     x="8"
     y="433"
     style="font-wight:bold; fill:black"
     font-size="15px"
     id="text230">9</text>
  <text
     x="58"
     y="420"
     style="font-wight:bold; fill:black"
     font-size="15px"
     id="text232">1</text>
  <text
     x="70"
     y="420"
     style="font-wight:bold; fill:black"
     font-size="15px"
     id="text234">5</text>
  <text
     x="116"
     y="435"
     style="font-wight:bold"
     font-size="30px"
     id="text236">4</text>
  <text
     x="158"
     y="420"
     style="font-wight:bold; fill:black"
     font-size="15px"
     id="text238">3</text>
  <text
     x="170"
     y="420"
     style="font-wight:bold; fill:black"
     font-size="15px"
     id="text240">6</text>
  <text
     x="182"
     y="420"
     style="font-wight:bold; fill:black"
     font-size="15px"
     id="text242">9</text>
  <text
     x="216"
     y="435"
     style="font-wight:bold"
     font-size="30px"
     id="text244">8</text>
  <text
     x="266"
     y="435"
     style="font-wight:bold"
     font-size="30px"
     id="text246">7</text>
  <text
     x="308"
     y="420"
     style="font-wight:bold; fill:black"
     font-size="15px"
     id="text248">1</text>
  <text
     x="320"
     y="420"
     style="font-wight:bold; fill:black"
     font-size="15px"
     id="text250">5</text>
  <text
     x="370"
     y="420"
     style="font-wight:bold; fill:black"
     font-size="15px"
     id="text254">6</text>
  <text
     x="416"
     y="435"
     style="font-wight:bold"
     font-size="30px"
     id="text256">2</text>
  <path
     style="fill:#d5e5ff;stroke-width:0.317358"
     d="m 400.506,423.9905 v -23.32582 h 23.4845 23.48451 v 23.32582 23.32583 H 423.9905 400.506 Z m 31.73581,9.83811 v -1.42812 h -4.91905 c -2.70548,0 -4.91905,-0.0965 -4.91905,-0.21446 0,-0.11795 1.83004,-2.0816 4.06675,-4.36367 4.58709,-4.68012 5.60302,-6.31629 5.56567,-8.9636 -0.0318,-2.25459 -0.92634,-3.85209 -2.81305,-5.02372 -2.09135,-1.29871 -5.45184,-1.49155 -8.71581,-0.50015 l -2.22921,0.6771 v 1.57766 c 0,0.86771 0.0532,1.57765 0.11833,1.57765 0.0651,0 0.75643,-0.28226 1.53633,-0.62724 0.77989,-0.34499 2.14167,-0.78245 3.02617,-0.97214 4.56722,-0.97949 7.36531,2.65218 4.88679,6.34262 -0.49786,0.74129 -2.92565,3.4651 -5.39509,6.0529 -4.27166,4.47639 -4.48989,4.76799 -4.48989,5.99918 v 1.2941 h 7.14056 7.14055 z"
     id="path338" />
  <path
     style="fill:#d5e5ff;stroke-width:0.317358"
     d="m 373.38987,418.04876 c -0.72975,-1.04186 -0.61357,-2.37756 0.28494,-3.27607 0.99096,-0.99096 1.58537,-0.98235 2.60545,0.0377 0.66997,0.66997 0.78418,1.01719 0.63565,1.93247 -0.24616,1.51691 -0.73231,2.01119 -1.97811,2.01119 -0.7293,0 -1.20605,-0.21723 -1.54793,-0.70533 z"
     id="path416" />
  <path
     style="fill:#d5e5ff;stroke-width:0.317358"
     d="m 250.71295,423.9905 v -23.32582 h 23.32582 23.32583 v 23.32582 23.32583 h -23.32583 -23.32582 z m 28.01223,0.71035 c 2.22843,-5.80165 4.04927,-10.79837 4.04631,-11.10383 -0.005,-0.51271 -0.56744,-0.55537 -7.32285,-0.55537 h -7.31749 l 0.0976,1.34877 0.0976,1.34877 5.18795,0.0874 c 3.93762,0.0663 5.15095,0.18102 5.03442,0.47604 -1.3841,3.50395 -7.20746,18.69931 -7.20746,18.80701 0,0.0809 0.74976,0.14546 1.66613,0.14342 l 1.66613,-0.004 4.05169,-10.54845 z"
     id="path455" />
  <path
     style="fill:#d5e5ff;stroke-width:0.317358"
     d="m 200.57036,423.9905 v -23.32582 h 24.43658 24.43657 v 23.32582 23.32583 h -24.43657 -24.43658 z m 29.3034,10.65678 c 4.23974,-2.05242 4.38526,-9.08638 0.22365,-10.81018 l -0.95218,-0.39441 1.01754,-0.68572 c 1.54033,-1.03802 2.46076,-2.60446 2.46076,-4.18783 0,-3.83098 -2.44912,-5.83091 -7.14056,-5.83091 -3.88854,0 -5.90818,1.1805 -6.8376,3.99666 -0.7924,2.40102 0.6949,5.82565 2.75456,6.34259 0.72339,0.18156 0.69522,0.22675 -0.51449,0.82527 -1.8646,0.92253 -2.65514,2.20907 -2.80517,4.56521 -0.0688,1.08108 0.0437,2.47727 0.2501,3.10264 0.45398,1.37557 2.49618,3.19813 4.0864,3.64692 1.933,0.54553 5.75604,0.25318 7.45699,-0.57024 z"
     id="path494" />
  <path
     style="fill:#d5e5ff;stroke-width:0.317358"
     d="m 223.74849,432.6206 c -2.1794,-0.75064 -3.14444,-3.47287 -2.04929,-5.78073 0.87654,-1.84717 3.63294,-2.59162 5.974,-1.61346 1.50945,0.63069 2.09411,1.62761 2.09411,3.57073 0,2.00733 -1.0049,3.41184 -2.79728,3.90966 -1.44556,0.40149 -1.83591,0.39104 -3.22154,-0.0862 z"
     id="path533" />
  <path
     style="fill:#d5e5ff;stroke-width:0.317358"
     d="m 224.22677,422.02708 c -1.26246,-0.34819 -2.07902,-1.15335 -2.40774,-2.37411 -0.27942,-1.03767 -0.23894,-1.45471 0.2351,-2.42244 0.75581,-1.54294 1.75196,-2.02342 3.87885,-1.87092 1.45044,0.104 1.86006,0.28065 2.61821,1.12917 1.33892,1.49852 1.1259,3.90811 -0.43585,4.93022 -0.81828,0.53554 -2.94549,0.86818 -3.88857,0.60808 z"
     id="path572" />
  <path
     style="fill:#d5e5ff;stroke-width:0.317358"
     d="m 152.64928,423.9905 v -23.32582 h 23.32582 23.32582 v 23.32582 23.32583 H 175.9751 152.64928 Z m 11.94328,-4.16702 c 1.32867,-0.6305 1.78967,-1.42697 1.78967,-3.09203 0,-0.96355 -0.19312,-1.43405 -0.80445,-1.95989 -0.77968,-0.67066 -0.78617,-0.70761 -0.21065,-1.20039 2.106,-1.80321 0.33588,-4.78101 -2.83785,-4.77399 -2.40957,0.005 -3.21548,0.32353 -3.21548,1.26956 0,0.61977 0.12362,0.77387 0.50378,0.62799 2.35189,-0.90251 4.57395,-0.30384 4.57395,1.23231 0,0.93487 -0.81903,1.43196 -2.35933,1.43196 -0.99548,0 -1.13161,0.0955 -1.13161,0.7934 0,0.70627 0.13165,0.79339 1.19882,0.79339 1.60353,0 2.60948,0.73816 2.60948,1.91483 0,1.32112 -1.13929,1.99383 -3.08612,1.82226 -0.83357,-0.0735 -1.77688,-0.24995 -2.09625,-0.39219 -0.49749,-0.22159 -0.56568,-0.12917 -0.47603,0.64521 0.0751,0.64846 0.3288,0.96571 0.89802,1.12278 1.43815,0.39685 3.53599,0.29061 4.64405,-0.2352 z m 13.1885,-0.71626 c 1.59992,-1.79063 1.03982,-5.21545 -0.99048,-6.05643 -0.94885,-0.39302 -2.51153,-0.3337 -3.59596,0.13651 -0.44692,0.19378 -0.52068,0.12395 -0.36792,-0.34834 0.8005,-2.47502 2.19227,-3.1094 4.70571,-2.1449 0.38094,0.14618 0.50552,-0.005 0.50552,-0.61463 0,-1.04694 -0.37048,-1.24817 -2.34254,-1.27234 -3.08124,-0.0378 -4.63934,1.91649 -4.63934,5.8189 0,2.60681 0.50989,4.05058 1.78635,5.05811 1.35761,1.07157 3.71144,0.79662 4.93866,-0.57688 z m 10.92888,0.24784 c 1.38466,-1.29348 1.82765,-2.4817 1.82136,-4.8853 -0.01,-3.77807 -1.39296,-5.7348 -4.00512,-5.66631 -1.64836,0.0432 -2.64217,0.61805 -3.23748,1.87257 -1.02512,2.16028 -0.30576,4.61622 1.58331,5.40553 1.36119,0.56874 1.98429,0.56518 3.10181,-0.0177 0.86086,-0.44902 0.88403,-0.44085 0.68101,0.23997 -0.60719,2.0362 -1.71567,2.68608 -3.96736,2.32602 -1.17336,-0.18763 -1.25445,-0.15049 -1.25445,0.57448 0,0.90555 0.65339,1.12657 2.94592,0.99651 1.08176,-0.0614 1.75142,-0.30435 2.331,-0.84576 z"
     id="path611" />
  <path
     style="fill:#d5e5ff;stroke-width:0.317358"
     d="m 173.42177,417.98316 c -0.74135,-1.13144 -0.48028,-2.68407 0.58439,-3.47551 0.81179,-0.60346 0.95812,-0.61963 1.72002,-0.19006 1.16937,0.65932 1.50851,1.87916 0.91643,3.29621 -0.41921,1.00331 -0.61094,1.14029 -1.59607,1.14029 -0.83538,0 -1.24788,-0.19573 -1.62477,-0.77093 z"
     id="path650" />
  <path
     style="fill:#d5e5ff;stroke-width:0.317358"
     d="m 185.22767,414.36543 c -0.7249,-0.80101 -0.69205,-2.97858 0.0551,-3.65478 1.3754,-1.24473 3.22793,-0.11732 3.22793,1.96445 0,2.02037 -2.03582,3.06853 -3.28308,1.69033 z"
     id="path689" />
  <path
     style="fill:#d5e5ff;stroke-width:0.317358"
     d="m 100.60254,423.9905 v -23.32582 h 23.32582 23.32583 v 23.32582 23.32583 h -23.32583 -23.32582 z m 29.83166,8.56867 v -2.69754 h 1.58679 1.5868 v -1.26943 -1.26944 h -1.5868 -1.58679 v -7.14056 -7.14055 h -2.0057 -2.0057 l -4.50014,6.84742 c -4.25216,6.47008 -4.50014,6.93352 -4.50014,8.40999 v 1.56257 h 4.91905 4.91905 v 2.69754 2.69755 h 1.58679 1.58679 z"
     id="path728" />
  <path
     style="fill:#afc6e9;stroke-width:0.317358"
     d="m 120.27874,427.18099 c 0,-0.18921 6.32734,-10.08856 6.69455,-10.47386 0.17209,-0.18057 0.28733,1.88782 0.28733,5.15707 v 5.45856 h -3.49094 c -1.92001,0 -3.49094,-0.0638 -3.49094,-0.14177 z"
     id="path767" />
  <path
     style="fill:#87aade;stroke-width:0.317358"
     d="m 302.75969,423.9905 v -23.32582 h 23.32582 23.32582 v 23.32582 23.32583 h -23.32582 -23.32582 z m 23.27468,-3.94753 c 1.95082,-0.7417 2.86763,-3.12125 2.00138,-5.19449 -0.56461,-1.3513 -1.90356,-2.12419 -3.67995,-2.12419 -1.25722,0 -1.28519,-0.0242 -1.28519,-1.11076 v -1.11075 h 2.2215 c 2.15804,0 2.22151,-0.0227 2.22151,-0.79339 0,-0.79062 -0.0106,-0.7934 -3.0149,-0.7934 h -3.0149 v 2.79713 2.79714 l 1.86857,-0.13516 c 1.58661,-0.11477 1.96973,-0.034 2.53887,0.53512 0.85117,0.85117 0.86807,2.37665 0.0356,3.20916 -0.69934,0.69933 -2.55917,0.8526 -3.94632,0.32521 -0.75807,-0.28822 -0.81405,-0.24609 -0.81405,0.61264 0,0.70398 0.16894,0.95469 0.71405,1.05968 1.34831,0.2597 3.37103,0.22369 4.15386,-0.0739 z m -9.62828,-0.65416 c 0,-0.52893 -0.21158,-0.63472 -1.26944,-0.63472 h -1.26943 v -4.91905 -4.91905 l -1.03141,0.002 c -0.56728,9.8e-4 -1.56696,0.15049 -2.22151,0.33227 -0.9577,0.26597 -1.19009,0.48097 -1.19009,1.10105 0,0.69432 0.10203,0.75292 1.03141,0.59234 0.56728,-0.098 1.20993,-0.23277 1.42811,-0.29947 0.3032,-0.0927 0.3967,0.84878 0.3967,3.99444 v 4.11569 H 311.011 c -1.05786,0 -1.26944,0.10579 -1.26944,0.63472 0,0.59442 0.21158,0.63472 3.33227,0.63472 3.12068,0 3.33226,-0.0403 3.33226,-0.63472 z"
     id="path843" />
  <path
     style="fill:#ff0000;stroke:#000000;stroke-width:1px;stroke-linecap:butt;stroke-linejoin:miter;stroke-opacity:1"
     d="M 19.824735,407.55267 4.3375635,420.23848"
     id="path1174" />
  <path
     style="fill:#ff0000;stroke-width:0.317358"
     d="m 4.4590525,419.96197 c 0,-0.14175 1.713734,-1.65632 3.808298,-3.3657 l 3.8082975,-3.10798 v -1.58938 -1.58939 l -1.428112,0.21416 c -1.1360805,0.17036 -1.4281105,0.11978 -1.4281105,-0.24737 0,-0.55178 0.398726,-0.72493 2.3396115,-1.01598 l 1.468685,-0.22024 v 1.62282 c 0,0.89255 0.107436,1.62283 0.238746,1.62283 0.13131,0 1.548122,-1.07109 3.14847,-2.38019 1.60035,-1.3091 2.992431,-2.38019 3.093516,-2.38019 0.647335,0 -0.22137,0.91737 -3.148471,3.32485 l -3.332261,2.74071 v 2.67967 2.67967 h 1.269433 c 0.916813,0 1.269433,0.13223 1.269433,0.47603 0,0.38974 -0.546561,0.47604 -3.014903,0.47604 -2.468341,0 -3.0149015,-0.0863 -3.0149015,-0.47604 0,-0.3438 0.35262,-0.47603 1.2694315,-0.47603 h 1.269433 v -2.26037 c 0,-1.75847 -0.08808,-2.19302 -0.396698,-1.95708 -0.218183,0.16681 -1.8358545,1.46959 -3.5948245,2.89508 -3.131666,2.53794 -3.625073,2.85563 -3.625073,2.33408 z"
     id="path1250" />
  <text
     x="357.3989"
     y="420.22778"
     style="fill:#000000"
     font-size="15px"
     id="text224-3-6">1</text>
  <path
     style="fill:#ff0000;stroke:#000000;stroke-width:1px;stroke-linecap:butt;stroke-linejoin:miter;stroke-opacity:1"
     d="M 369.6612,407.80249 354.17403,420.4883"
     id="path1174-7" />
  <path
     style="fill:#ff0000;stroke-width:0.317358"
     d="m 354.29552,420.21179 c 0,-0.14175 1.71373,-1.65632 3.8083,-3.3657 l 3.8083,-3.10798 v -1.58938 -1.58939 l -1.42812,0.21416 c -1.13608,0.17036 -1.42811,0.11978 -1.42811,-0.24737 0,-0.55178 0.39873,-0.72493 2.33962,-1.01598 l 1.46868,-0.22024 v 1.62282 c 0,0.89255 0.10744,1.62283 0.23875,1.62283 0.13131,0 1.54812,-1.07109 3.14847,-2.38019 1.60035,-1.3091 2.99243,-2.38019 3.09351,-2.38019 0.64734,0 -0.22137,0.91737 -3.14847,3.32485 l -3.33226,2.74071 v 2.67967 2.67967 h 1.26943 c 0.91682,0 1.26944,0.13223 1.26944,0.47603 0,0.38974 -0.54656,0.47604 -3.01491,0.47604 -2.46834,0 -3.0149,-0.0863 -3.0149,-0.47604 0,-0.3438 0.35262,-0.47603 1.26943,-0.47603 h 1.26944 v -2.26037 c 0,-1.75847 -0.0881,-2.19302 -0.3967,-1.95708 -0.21818,0.16681 -1.83586,1.46959 -3.59483,2.89508 -3.13166,2.53794 -3.62507,2.85563 -3.62507,2.33408 z"
     id="path1250-5" />
  <path
     style="fill:#d5e5ff;stroke-width:0.317358"
     d="m 350.68077,423.9905 v -23.32582 h 24.2779 24.2779 v 23.32582 23.32583 h -24.2779 -24.2779 z m 6.95733,-5.49346 c 4.08517,-3.33132 3.83284,-3.24254 3.83284,-1.34847 v 1.60552 h -1.11075 c -0.97323,0 -1.11075,0.0982 -1.11075,0.7934 v 0.79339 h 3.17358 3.17358 v -0.79339 c 0,-0.69517 -0.13752,-0.7934 -1.11075,-0.7934 h -1.11076 v -2.48651 -2.48652 l 2.88268,-2.35319 c 1.58547,-1.29426 3.08747,-2.51357 3.33777,-2.70958 0.43116,-0.33762 0.30935,-1.38909 -0.16092,-1.38909 -0.12085,0 -1.53368,1.07816 -3.13963,2.39591 l -2.9199,2.39591 v -1.44384 c 0,-1.41808 -0.0184,-1.44377 -1.03141,-1.44034 -0.56728,0.002 -1.56696,0.092 -2.22151,0.2002 -1.00552,0.16621 -1.19009,0.3198 -1.19009,0.99037 0,0.74274 0.0814,0.78274 1.26943,0.62339 l 1.26943,-0.17026 v 1.37428 c 0,1.36585 -0.0219,1.39222 -3.57027,4.30218 -1.96366,1.61034 -3.69636,3.03949 -3.85044,3.17588 -0.30075,0.2662 -0.0454,1.24272 0.32499,1.24272 0.12289,0 1.59118,-1.11535 3.26288,-2.47856 z m 20.08715,0.60061 c 0.74147,-0.82985 0.88304,-1.27122 0.88304,-2.75316 0,-1.52751 -0.12477,-1.88964 -0.92767,-2.69254 -0.72674,-0.72674 -1.21241,-0.92766 -2.24237,-0.92766 -0.72309,0 -1.59094,0.14783 -1.92856,0.32852 -1.00327,0.53693 -0.77946,-0.84645 0.31381,-1.93973 0.99322,-0.99321 1.50278,-1.09648 3.12075,-0.63245 0.95445,0.27373 1.02932,0.24047 1.02932,-0.45731 0,-0.97268 -0.37124,-1.17768 -2.17193,-1.19935 -2.0596,-0.0248 -3.33297,0.73231 -4.18218,2.48655 -0.60234,1.24427 -0.68504,1.83321 -0.56022,3.9894 0.21524,3.71819 1.53469,5.20735 4.36517,4.92663 1.08479,-0.10759 1.62523,-0.37276 2.30084,-1.1289 z"
     id="path1798" />
  <path
     style="fill:#d5e5ff;stroke-width:0.317358"
     d="M 2.5388653,423.9905 V 400.66468 H 26.023369 49.507873 v 23.32582 23.32583 H 26.023369 2.5388653 Z m 11.7746597,8.64169 c 1.735674,-1.15951 2.235466,-2.48284 2.125108,-5.62679 -0.109981,-3.13323 -0.801556,-4.47311 -2.618236,-5.07267 -2.654756,-0.87615 -4.9307973,0.89543 -4.9331822,3.83978 -0.00206,2.54662 2.2288302,4.27341 4.4986662,3.48214 1.266948,-0.44166 1.212594,-0.45529 1.212594,0.30405 0,0.35702 -0.369254,1.01839 -0.820565,1.4697 -0.738935,0.73894 -0.991501,0.80293 -2.538865,0.64322 -1.6431653,-0.16959 -1.7183002,-0.14467 -1.7183002,0.56985 0,1.29251 3.0684332,1.54265 4.7927802,0.39072 z M 7.9094083,418.17968 c 4.0823447,-3.32901 3.8328437,-3.23999 3.8328437,-1.36762 v 1.58636 l -1.190093,0.0985 c -0.9559512,0.0791 -1.2100453,0.23898 -1.2915054,0.81255 -0.099716,0.70211 -0.04494,0.71406 3.2749934,0.71406 3.319934,0 3.37471,-0.012 3.274994,-0.71406 -0.08146,-0.57357 -0.335554,-0.73343 -1.291505,-0.81255 l -1.190093,-0.0985 v -2.31587 -2.31588 l 3.4116,-2.80288 c 1.87638,-1.54158 3.474505,-2.8506 3.551389,-2.90893 0.07688,-0.0583 -0.0787,-0.32454 -0.345739,-0.59158 -0.435797,-0.4358 -0.78218,-0.24 -3.381851,1.9117 -1.592978,1.31848 -2.972616,2.39723 -3.065861,2.39723 -0.09325,0 -0.169538,-0.64265 -0.169538,-1.42811 0,-1.34721 -0.04944,-1.42791 -0.872735,-1.42462 -0.480004,0.002 -1.408277,0.092 -2.062828,0.20021 -1.0494228,0.17345 -1.1900933,0.30316 -1.1900933,1.0973 0,0.57408 0.1438232,0.85628 0.3966977,0.77837 0.2181837,-0.0672 0.7894286,-0.20826 1.2694326,-0.31344 0.850389,-0.18634 0.872735,-0.15493 0.872735,1.22674 v 1.41797 l -3.9697501,3.23325 c -3.1693619,2.58136 -3.8973699,3.32046 -3.61076,3.6658 0.1974445,0.23791 0.4375664,0.43256 0.5336041,0.43256 0.096038,0 1.5423658,-1.11535 3.2140623,-2.47856 z m 18.5791127,1.71017 c 2.101798,-0.87819 2.670489,-3.86157 0.988319,-5.18477 l -0.744436,-0.58557 0.756236,-0.6736 c 0.944909,-0.84165 0.988442,-2.24497 0.104504,-3.36872 -0.723852,-0.92023 -2.699393,-1.58688 -3.938071,-1.32891 -0.442907,0.0922 -1.162313,0.24184 -1.598681,0.33244 -0.599471,0.12446 -0.793395,0.36547 -0.793395,0.98602 0,0.58153 0.1324,0.7705 0.4535,0.64728 2.391299,-0.91763 4.62423,-0.39345 4.62423,1.08553 0,1.07056 -0.739661,1.55945 -2.359322,1.55945 -0.995486,0 -1.131617,0.0955 -1.131617,0.7934 0,0.70627 0.131651,0.79339 1.198818,0.79339 1.603537,0 2.609479,0.73816 2.609479,1.91483 0,1.3376 -1.165277,2.01927 -3.099403,1.8131 -0.82626,-0.0881 -1.763591,-0.26848 -2.082959,-0.4009 -0.494137,-0.20488 -0.565077,-0.10607 -0.476037,0.66308 0.07507,0.64846 0.328807,0.96571 0.898027,1.12278 1.368028,0.3775 3.468086,0.30027 4.590808,-0.16883 z m 13.250293,-0.7922 c 0.690642,-0.77297 0.883031,-1.30178 0.883031,-2.42715 0,-1.61779 -0.655907,-3.13066 -1.569213,-3.61945 -0.787019,-0.4212 -2.740895,-0.42022 -3.529381,0.002 -1.020687,0.54625 -0.77073,-0.85519 0.352943,-1.97886 0.976857,-0.97686 1.857031,-1.07725 3.555557,-0.40554 0.441084,0.17443 0.555377,0.0532 0.555377,-0.58899 0,-1.03062 -0.351055,-1.23354 -2.171923,-1.25545 -3.344599,-0.0402 -4.957269,2.13637 -4.762386,6.42775 0.168275,3.70549 1.536215,5.25738 4.385149,4.97482 1.084787,-0.10759 1.625229,-0.37275 2.300846,-1.1289 z"
     id="path1837" />
  <path
     style="fill:#d5e5ff;stroke-width:0.317358"
     d="m 11.25193,427.30698 c -1.247905,-1.37892 -0.362209,-4.10987 1.332904,-4.10987 1.10135,0 2.013641,1.07835 2.013641,2.38018 0,2.05567 -2.079061,3.13024 -3.346545,1.72969 z"
     id="path1876" />
  <path
     style="fill:#d5e5ff;stroke-width:0.317358"
     d="m 35.40343,418.04876 c -0.729748,-1.04186 -0.613576,-2.37756 0.284938,-3.27607 0.990957,-0.99096 1.585369,-0.98235 2.605456,0.0377 0.669967,0.66997 0.784178,1.01719 0.635648,1.93247 -0.246162,1.51691 -0.732309,2.01119 -1.97811,2.01119 -0.729306,0 -1.206057,-0.21723 -1.547932,-0.70533 z"
     id="path1915" />
  <path
     style="fill:#87aade;stroke-width:0.317358"
     d="m 50.777306,423.9905 v -23.32582 h 24.277899 24.277899 v 23.32582 23.32583 H 75.055205 50.777306 Z m 25.536447,-4.10065 c 1.969769,-0.82303 2.666469,-3.49192 1.437664,-5.50734 -0.724083,-1.18761 -1.720321,-1.65822 -3.510267,-1.65822 -1.215597,0 -1.248773,-0.0295 -1.248773,-1.11076 v -1.11075 h 2.221507 c 2.158036,0 2.221507,-0.0227 2.221507,-0.79339 0,-0.79062 -0.01058,-0.7934 -3.014902,-0.7934 h -3.014903 v 2.82613 2.82613 l 1.90928,-0.17313 c 2.306725,-0.20917 3.168451,0.34238 3.168451,2.02797 0,1.63436 -0.975845,2.4195 -2.805579,2.25731 -0.813316,-0.0721 -1.728676,-0.2431 -2.034133,-0.38001 -0.461669,-0.20692 -0.555377,-0.0863 -0.555377,0.71503 0,0.74734 0.160463,0.99487 0.714056,1.10149 1.552913,0.29911 3.484889,0.20187 4.511469,-0.22706 z m -9.985897,-0.50104 c 0,-0.52893 -0.211573,-0.63472 -1.269433,-0.63472 H 63.78899 v -4.96274 -4.96275 l -1.718468,0.20197 c -2.24984,0.26443 -2.724546,0.46829 -2.724546,1.17008 0,0.81256 0.333347,0.93797 1.683649,0.63343 l 1.172574,-0.26446 v 4.09224 4.09223 h -1.269432 c -1.057861,0 -1.269433,0.10579 -1.269433,0.63472 0,0.59442 0.211572,0.63472 3.332261,0.63472 3.120688,0 3.332261,-0.0403 3.332261,-0.63472 z"
     id="path2315" />
</svg>
