<?xml version="1.0" encoding="UTF-8" standalone="no"?>
<svg version="1.1"
     baseProfile="full"
     width="500" height="500">
  <polyline points="0,0 450,0 450,450 0,450 0,0" style="fill:none;stroke:black;stroke-width:5" />
  <polyline points="0,50 450,50" style="fill:none;stroke:black;stroke-width:1" />
  <polyline points="0,100 450,100" style="fill:none;stroke:black;stroke-width:1" />
  <polyline points="0,150 450,150" style="fill:none;stroke:black;stroke-width:5" />
  <polyline points="0,200 450,200" style="fill:none;stroke:black;stroke-width:1" />
  <polyline points="0,250 450,250" style="fill:none;stroke:black;stroke-width:1" />
  <polyline points="0,300 450,300" style="fill:none;stroke:black;stroke-width:5" />
  <polyline points="0,350 450,350" style="fill:none;stroke:black;stroke-width:1" />
  <polyline points="0,400 450,400" style="fill:none;stroke:black;stroke-width:1" />
  <polyline points="50,0 50,450" style="fill:none;stroke:black;stroke-width:1" />
  <polyline points="100,0 100,450" style="fill:none;stroke:black;stroke-width:1" />
  <polyline points="150,0 150,450" style="fill:none;stroke:black;stroke-width:5" />
  <polyline points="200,0 200,450" style="fill:none;stroke:black;stroke-width:1" />
  <polyline points="250,0 250,450" style="fill:none;stroke:black;stroke-width:1" />
  <polyline points="300,0 300,450" style="fill:none;stroke:black;stroke-width:5" />
  <polyline points="350,0 350,450" style="fill:none;stroke:black;stroke-width:1" />
  <polyline points="400,0 400,450" style="fill:none;stroke:black;stroke-width:1" />
<text x="16" y="35" style="font-wight:bold" font-size="30px">2</text>
<text x="166" y="35" style="font-wight:bold" font-size="30px">1</text>
<text x="366" y="35" style="font-wight:bold" font-size="30px">6</text>
<text x="66" y="85" style="font-wight:bold" font-size="30px">8</text>
<text x="116" y="85" style="font-wight:bold" font-size="30px">5</text>
<text x="216" y="85" style="font-wight:bold" font-size="30px">2</text>
<text x="266" y="85" style="font-wight:bold" font-size="30px">6</text>
<text x="366" y="85" style="font-wight:bold" font-size="30px">9</text>
<text x="416" y="85" style="font-wight:bold" font-size="30px">4</text>
<text x="216" y="135" style="font-wight:bold" font-size="30px">7</text>
<text x="316" y="135" style="font-wight:bold" font-size="30px">1</text>
<text x="416" y="135" style="font-wight:bold" font-size="30px">2</text>
<text x="266" y="185" style="font-wight:bold" font-size="30px">1</text>
<text x="416" y="185" style="font-wight:bold" font-size="30px">3</text>
<text x="166" y="235" style="font-wight:bold" font-size="30px">9</text>
<text x="266" y="235" style="font-wight:bold" font-size="30px">5</text>
<text x="16" y="285" style="font-wight:bold" font-size="30px">9</text>
<text x="166" y="285" style="font-wight:bold" font-size="30px">2</text>
<text x="16" y="335" style="font-wight:bold" font-size="30px">8</text>
<text x="116" y="335" style="font-wight:bold" font-size="30px">6</text>
<text x="216" y="335" style="font-wight:bold" font-size="30px">9</text>
<text x="66" y="385" style="font-wight:bold" font-size="30px">1</text>
<text x="216" y="385" style="font-wight:bold" font-size="30px">6</text>
<text x="316" y="385" style="font-wight:bold" font-size="30px">8</text>
<text x="366" y="385" style="font-wight:bold" font-size="30px">3</text>
<text x="66" y="435" style="font-wight:bold" font-size="30px">9</text>
<text x="266" y="435" style="font-wight:bold" font-size="30px">3</text>
<text x="416" y="435" style="font-wight:bold" font-size="30px">7</text>
</svg>
