<?xml version="1.0" encoding="UTF-8" standalone="no"?>
<svg version="1.1"
     baseProfile="full"
     width="500" height="500">
  <polyline points="0,0 450,0 450,450 0,450 0,0" style="fill:none;stroke:black;stroke-width:5" />
  <polyline points="0,50 450,50" style="fill:none;stroke:black;stroke-width:1" />
  <polyline points="0,100 450,100" style="fill:none;stroke:black;stroke-width:1" />
  <polyline points="0,150 450,150" style="fill:none;stroke:black;stroke-width:5" />
  <polyline points="0,200 450,200" style="fill:none;stroke:black;stroke-width:1" />
  <polyline points="0,250 450,250" style="fill:none;stroke:black;stroke-width:1" />
  <polyline points="0,300 450,300" style="fill:none;stroke:black;stroke-width:5" />
  <polyline points="0,350 450,350" style="fill:none;stroke:black;stroke-width:1" />
  <polyline points="0,400 450,400" style="fill:none;stroke:black;stroke-width:1" />
  <polyline points="50,0 50,450" style="fill:none;stroke:black;stroke-width:1" />
  <polyline points="100,0 100,450" style="fill:none;stroke:black;stroke-width:1" />
  <polyline points="150,0 150,450" style="fill:none;stroke:black;stroke-width:5" />
  <polyline points="200,0 200,450" style="fill:none;stroke:black;stroke-width:1" />
  <polyline points="250,0 250,450" style="fill:none;stroke:black;stroke-width:1" />
  <polyline points="300,0 300,450" style="fill:none;stroke:black;stroke-width:5" />
  <polyline points="350,0 350,450" style="fill:none;stroke:black;stroke-width:1" />
  <polyline points="400,0 400,450" style="fill:none;stroke:black;stroke-width:1" />
<text x="16" y="35" style="font-wight:bold" font-size="30px">2</text>
<text x="58" y="25" style="font-wight:bold; fill:blue" font-size="15px">3</text>
<text x="70" y="25" style="font-wight:bold; fill:blue" font-size="15px">4</text>
<text x="82" y="25" style="font-wight:bold; fill:blue" font-size="15px">7</text>
<text x="108" y="25" style="font-wight:bold; fill:blue" font-size="15px">3</text>
<text x="120" y="25" style="font-wight:bold; fill:blue" font-size="15px">4</text>
<text x="132" y="25" style="font-wight:bold; fill:blue" font-size="15px">7</text>
<text x="108" y="40" style="font-wight:bold; fill:blue" font-size="15px">9</text>
<text x="166" y="35" style="font-wight:bold" font-size="30px">1</text>
<text x="208" y="25" style="font-wight:bold; fill:blue" font-size="15px">3</text>
<text x="220" y="25" style="font-wight:bold; fill:blue" font-size="15px">4</text>
<text x="232" y="25" style="font-wight:bold; fill:blue" font-size="15px">5</text>
<text x="208" y="40" style="font-wight:bold; fill:blue" font-size="15px">8</text>
<text x="258" y="25" style="font-wight:bold; fill:blue" font-size="15px">4</text>
<text x="270" y="25" style="font-wight:bold; fill:blue" font-size="15px">8</text>
<text x="282" y="25" style="font-wight:bold; fill:blue" font-size="15px">9</text>
<text x="308" y="25" style="font-wight:bold; fill:blue" font-size="15px">3</text>
<text x="320" y="25" style="font-wight:bold; fill:blue" font-size="15px">5</text>
<text x="332" y="25" style="font-wight:bold; fill:blue" font-size="15px">7</text>
<text x="366" y="35" style="font-wight:bold" font-size="30px">6</text>
<text x="408" y="25" style="font-wight:bold; fill:blue" font-size="15px">5</text>
<text x="420" y="25" style="font-wight:bold; fill:blue" font-size="15px">8</text>
<text x="8" y="75" style="font-wight:bold; fill:blue" font-size="15px">1</text>
<text x="20" y="75" style="font-wight:bold; fill:blue" font-size="15px">3</text>
<text x="32" y="75" style="font-wight:bold; fill:blue" font-size="15px">6</text>
<text x="8" y="90" style="font-wight:bold; fill:blue" font-size="15px">7</text>
<text x="66" y="85" style="font-wight:bold" font-size="30px">8</text>
<text x="116" y="85" style="font-wight:bold" font-size="30px">5</text>
<text x="158" y="75" style="font-wight:bold; fill:blue" font-size="15px">3</text>
<text x="170" y="75" style="font-wight:bold; fill:blue" font-size="15px">6</text>
<text x="216" y="85" style="font-wight:bold" font-size="30px">2</text>
<text x="258" y="75" style="font-wight:bold; fill:blue" font-size="15px">6</text>
<text x="308" y="75" style="font-wight:bold; fill:blue" font-size="15px">3</text>
<text x="320" y="75" style="font-wight:bold; fill:blue" font-size="15px">7</text>
<text x="366" y="85" style="font-wight:bold" font-size="30px">9</text>
<text x="416" y="85" style="font-wight:bold" font-size="30px">4</text>
<text x="8" y="125" style="font-wight:bold; fill:blue" font-size="15px">3</text>
<text x="20" y="125" style="font-wight:bold; fill:blue" font-size="15px">4</text>
<text x="32" y="125" style="font-wight:bold; fill:blue" font-size="15px">6</text>
<text x="58" y="125" style="font-wight:bold; fill:blue" font-size="15px">3</text>
<text x="70" y="125" style="font-wight:bold; fill:blue" font-size="15px">4</text>
<text x="82" y="125" style="font-wight:bold; fill:blue" font-size="15px">6</text>
<text x="108" y="125" style="font-wight:bold; fill:blue" font-size="15px">3</text>
<text x="120" y="125" style="font-wight:bold; fill:blue" font-size="15px">4</text>
<text x="132" y="125" style="font-wight:bold; fill:blue" font-size="15px">9</text>
<text x="158" y="125" style="font-wight:bold; fill:blue" font-size="15px">3</text>
<text x="170" y="125" style="font-wight:bold; fill:blue" font-size="15px">4</text>
<text x="182" y="125" style="font-wight:bold; fill:blue" font-size="15px">5</text>
<text x="158" y="140" style="font-wight:bold; fill:blue" font-size="15px">6</text>
<text x="170" y="140" style="font-wight:bold; fill:blue" font-size="15px">8</text>
<text x="216" y="135" style="font-wight:bold" font-size="30px">7</text>
<text x="258" y="125" style="font-wight:bold; fill:blue" font-size="15px">4</text>
<text x="270" y="125" style="font-wight:bold; fill:blue" font-size="15px">6</text>
<text x="282" y="125" style="font-wight:bold; fill:blue" font-size="15px">8</text>
<text x="258" y="140" style="font-wight:bold; fill:blue" font-size="15px">9</text>
<text x="316" y="135" style="font-wight:bold" font-size="30px">1</text>
<text x="358" y="125" style="font-wight:bold; fill:blue" font-size="15px">5</text>
<text x="370" y="125" style="font-wight:bold; fill:blue" font-size="15px">8</text>
<text x="416" y="135" style="font-wight:bold" font-size="30px">2</text>
<text x="8" y="175" style="font-wight:bold; fill:blue" font-size="15px">4</text>
<text x="20" y="175" style="font-wight:bold; fill:blue" font-size="15px">5</text>
<text x="32" y="175" style="font-wight:bold; fill:blue" font-size="15px">6</text>
<text x="8" y="190" style="font-wight:bold; fill:blue" font-size="15px">7</text>
<text x="58" y="175" style="font-wight:bold; fill:blue" font-size="15px">2</text>
<text x="70" y="175" style="font-wight:bold; fill:blue" font-size="15px">4</text>
<text x="82" y="175" style="font-wight:bold; fill:blue" font-size="15px">5</text>
<text x="58" y="190" style="font-wight:bold; fill:blue" font-size="15px">6</text>
<text x="70" y="190" style="font-wight:bold; fill:blue" font-size="15px">7</text>
<text x="108" y="175" style="font-wight:bold; fill:blue" font-size="15px">2</text>
<text x="120" y="175" style="font-wight:bold; fill:blue" font-size="15px">4</text>
<text x="132" y="175" style="font-wight:bold; fill:blue" font-size="15px">7</text>
<text x="108" y="190" style="font-wight:bold; fill:blue" font-size="15px">8</text>
<text x="158" y="175" style="font-wight:bold; fill:blue" font-size="15px">4</text>
<text x="170" y="175" style="font-wight:bold; fill:blue" font-size="15px">6</text>
<text x="182" y="175" style="font-wight:bold; fill:blue" font-size="15px">7</text>
<text x="158" y="190" style="font-wight:bold; fill:blue" font-size="15px">8</text>
<text x="208" y="175" style="font-wight:bold; fill:blue" font-size="15px">4</text>
<text x="220" y="175" style="font-wight:bold; fill:blue" font-size="15px">8</text>
<text x="266" y="185" style="font-wight:bold" font-size="30px">1</text>
<text x="308" y="175" style="font-wight:bold; fill:blue" font-size="15px">2</text>
<text x="320" y="175" style="font-wight:bold; fill:blue" font-size="15px">4</text>
<text x="332" y="175" style="font-wight:bold; fill:blue" font-size="15px">5</text>
<text x="308" y="190" style="font-wight:bold; fill:blue" font-size="15px">6</text>
<text x="320" y="190" style="font-wight:bold; fill:blue" font-size="15px">7</text>
<text x="332" y="190" style="font-wight:bold; fill:blue" font-size="15px">9</text>
<text x="358" y="175" style="font-wight:bold; fill:blue" font-size="15px">2</text>
<text x="370" y="175" style="font-wight:bold; fill:blue" font-size="15px">4</text>
<text x="382" y="175" style="font-wight:bold; fill:blue" font-size="15px">5</text>
<text x="358" y="190" style="font-wight:bold; fill:blue" font-size="15px">7</text>
<text x="370" y="190" style="font-wight:bold; fill:blue" font-size="15px">8</text>
<text x="416" y="185" style="font-wight:bold" font-size="30px">3</text>
<text x="8" y="225" style="font-wight:bold; fill:blue" font-size="15px">1</text>
<text x="20" y="225" style="font-wight:bold; fill:blue" font-size="15px">3</text>
<text x="32" y="225" style="font-wight:bold; fill:blue" font-size="15px">4</text>
<text x="8" y="240" style="font-wight:bold; fill:blue" font-size="15px">6</text>
<text x="20" y="240" style="font-wight:bold; fill:blue" font-size="15px">7</text>
<text x="58" y="225" style="font-wight:bold; fill:blue" font-size="15px">2</text>
<text x="70" y="225" style="font-wight:bold; fill:blue" font-size="15px">3</text>
<text x="82" y="225" style="font-wight:bold; fill:blue" font-size="15px">4</text>
<text x="58" y="240" style="font-wight:bold; fill:blue" font-size="15px">6</text>
<text x="70" y="240" style="font-wight:bold; fill:blue" font-size="15px">7</text>
<text x="108" y="225" style="font-wight:bold; fill:blue" font-size="15px">1</text>
<text x="120" y="225" style="font-wight:bold; fill:blue" font-size="15px">2</text>
<text x="132" y="225" style="font-wight:bold; fill:blue" font-size="15px">3</text>
<text x="108" y="240" style="font-wight:bold; fill:blue" font-size="15px">4</text>
<text x="120" y="240" style="font-wight:bold; fill:blue" font-size="15px">7</text>
<text x="132" y="240" style="font-wight:bold; fill:blue" font-size="15px">8</text>
<text x="166" y="235" style="font-wight:bold" font-size="30px">9</text>
<text x="208" y="225" style="font-wight:bold; fill:blue" font-size="15px">3</text>
<text x="220" y="225" style="font-wight:bold; fill:blue" font-size="15px">4</text>
<text x="232" y="225" style="font-wight:bold; fill:blue" font-size="15px">8</text>
<text x="266" y="235" style="font-wight:bold" font-size="30px">5</text>
<text x="308" y="225" style="font-wight:bold; fill:blue" font-size="15px">2</text>
<text x="320" y="225" style="font-wight:bold; fill:blue" font-size="15px">4</text>
<text x="332" y="225" style="font-wight:bold; fill:blue" font-size="15px">6</text>
<text x="308" y="240" style="font-wight:bold; fill:blue" font-size="15px">7</text>
<text x="358" y="225" style="font-wight:bold; fill:blue" font-size="15px">1</text>
<text x="370" y="225" style="font-wight:bold; fill:blue" font-size="15px">2</text>
<text x="382" y="225" style="font-wight:bold; fill:blue" font-size="15px">4</text>
<text x="358" y="240" style="font-wight:bold; fill:blue" font-size="15px">7</text>
<text x="370" y="240" style="font-wight:bold; fill:blue" font-size="15px">8</text>
<text x="408" y="225" style="font-wight:bold; fill:blue" font-size="15px">1</text>
<text x="420" y="225" style="font-wight:bold; fill:blue" font-size="15px">6</text>
<text x="432" y="225" style="font-wight:bold; fill:blue" font-size="15px">8</text>
<text x="16" y="285" style="font-wight:bold" font-size="30px">9</text>
<text x="58" y="275" style="font-wight:bold; fill:blue" font-size="15px">3</text>
<text x="70" y="275" style="font-wight:bold; fill:blue" font-size="15px">4</text>
<text x="82" y="275" style="font-wight:bold; fill:blue" font-size="15px">5</text>
<text x="58" y="290" style="font-wight:bold; fill:blue" font-size="15px">6</text>
<text x="70" y="290" style="font-wight:bold; fill:blue" font-size="15px">7</text>
<text x="108" y="275" style="font-wight:bold; fill:blue" font-size="15px">1</text>
<text x="120" y="275" style="font-wight:bold; fill:blue" font-size="15px">3</text>
<text x="132" y="275" style="font-wight:bold; fill:blue" font-size="15px">4</text>
<text x="108" y="290" style="font-wight:bold; fill:blue" font-size="15px">7</text>
<text x="120" y="290" style="font-wight:bold; fill:blue" font-size="15px">8</text>
<text x="166" y="285" style="font-wight:bold" font-size="30px">2</text>
<text x="208" y="275" style="font-wight:bold; fill:blue" font-size="15px">3</text>
<text x="220" y="275" style="font-wight:bold; fill:blue" font-size="15px">4</text>
<text x="232" y="275" style="font-wight:bold; fill:blue" font-size="15px">8</text>
<text x="258" y="275" style="font-wight:bold; fill:blue" font-size="15px">4</text>
<text x="270" y="275" style="font-wight:bold; fill:blue" font-size="15px">6</text>
<text x="282" y="275" style="font-wight:bold; fill:blue" font-size="15px">7</text>
<text x="258" y="290" style="font-wight:bold; fill:blue" font-size="15px">8</text>
<text x="308" y="275" style="font-wight:bold; fill:blue" font-size="15px">4</text>
<text x="320" y="275" style="font-wight:bold; fill:blue" font-size="15px">5</text>
<text x="332" y="275" style="font-wight:bold; fill:blue" font-size="15px">6</text>
<text x="308" y="290" style="font-wight:bold; fill:blue" font-size="15px">7</text>
<text x="358" y="275" style="font-wight:bold; fill:blue" font-size="15px">1</text>
<text x="370" y="275" style="font-wight:bold; fill:blue" font-size="15px">4</text>
<text x="382" y="275" style="font-wight:bold; fill:blue" font-size="15px">5</text>
<text x="358" y="290" style="font-wight:bold; fill:blue" font-size="15px">7</text>
<text x="370" y="290" style="font-wight:bold; fill:blue" font-size="15px">8</text>
<text x="408" y="275" style="font-wight:bold; fill:blue" font-size="15px">1</text>
<text x="420" y="275" style="font-wight:bold; fill:blue" font-size="15px">5</text>
<text x="432" y="275" style="font-wight:bold; fill:blue" font-size="15px">6</text>
<text x="408" y="290" style="font-wight:bold; fill:blue" font-size="15px">8</text>
<text x="16" y="335" style="font-wight:bold" font-size="30px">8</text>
<text x="58" y="325" style="font-wight:bold; fill:blue" font-size="15px">2</text>
<text x="70" y="325" style="font-wight:bold; fill:blue" font-size="15px">3</text>
<text x="82" y="325" style="font-wight:bold; fill:blue" font-size="15px">4</text>
<text x="58" y="340" style="font-wight:bold; fill:blue" font-size="15px">5</text>
<text x="70" y="340" style="font-wight:bold; fill:blue" font-size="15px">7</text>
<text x="116" y="335" style="font-wight:bold" font-size="30px">6</text>
<text x="158" y="325" style="font-wight:bold; fill:blue" font-size="15px">4</text>
<text x="170" y="325" style="font-wight:bold; fill:blue" font-size="15px">5</text>
<text x="182" y="325" style="font-wight:bold; fill:blue" font-size="15px">7</text>
<text x="216" y="335" style="font-wight:bold" font-size="30px">9</text>
<text x="258" y="325" style="font-wight:bold; fill:blue" font-size="15px">2</text>
<text x="270" y="325" style="font-wight:bold; fill:blue" font-size="15px">4</text>
<text x="282" y="325" style="font-wight:bold; fill:blue" font-size="15px">7</text>
<text x="308" y="325" style="font-wight:bold; fill:blue" font-size="15px">2</text>
<text x="320" y="325" style="font-wight:bold; fill:blue" font-size="15px">4</text>
<text x="332" y="325" style="font-wight:bold; fill:blue" font-size="15px">5</text>
<text x="358" y="325" style="font-wight:bold; fill:blue" font-size="15px">1</text>
<text x="370" y="325" style="font-wight:bold; fill:blue" font-size="15px">2</text>
<text x="382" y="325" style="font-wight:bold; fill:blue" font-size="15px">4</text>
<text x="358" y="340" style="font-wight:bold; fill:blue" font-size="15px">5</text>
<text x="408" y="325" style="font-wight:bold; fill:blue" font-size="15px">1</text>
<text x="420" y="325" style="font-wight:bold; fill:blue" font-size="15px">5</text>
<text x="8" y="375" style="font-wight:bold; fill:blue" font-size="15px">4</text>
<text x="20" y="375" style="font-wight:bold; fill:blue" font-size="15px">5</text>
<text x="32" y="375" style="font-wight:bold; fill:blue" font-size="15px">7</text>
<text x="66" y="385" style="font-wight:bold" font-size="30px">1</text>
<text x="108" y="375" style="font-wight:bold; fill:blue" font-size="15px">2</text>
<text x="120" y="375" style="font-wight:bold; fill:blue" font-size="15px">4</text>
<text x="132" y="375" style="font-wight:bold; fill:blue" font-size="15px">7</text>
<text x="158" y="375" style="font-wight:bold; fill:blue" font-size="15px">4</text>
<text x="170" y="375" style="font-wight:bold; fill:blue" font-size="15px">5</text>
<text x="182" y="375" style="font-wight:bold; fill:blue" font-size="15px">7</text>
<text x="216" y="385" style="font-wight:bold" font-size="30px">6</text>
<text x="258" y="375" style="font-wight:bold; fill:blue" font-size="15px">2</text>
<text x="270" y="375" style="font-wight:bold; fill:blue" font-size="15px">4</text>
<text x="282" y="375" style="font-wight:bold; fill:blue" font-size="15px">7</text>
<text x="316" y="385" style="font-wight:bold" font-size="30px">8</text>
<text x="366" y="385" style="font-wight:bold" font-size="30px">3</text>
<text x="408" y="375" style="font-wight:bold; fill:blue" font-size="15px">5</text>
<text x="420" y="375" style="font-wight:bold; fill:blue" font-size="15px">9</text>
<text x="8" y="425" style="font-wight:bold; fill:blue" font-size="15px">4</text>
<text x="20" y="425" style="font-wight:bold; fill:blue" font-size="15px">5</text>
<text x="66" y="435" style="font-wight:bold" font-size="30px">9</text>
<text x="108" y="425" style="font-wight:bold; fill:blue" font-size="15px">2</text>
<text x="120" y="425" style="font-wight:bold; fill:blue" font-size="15px">4</text>
<text x="158" y="425" style="font-wight:bold; fill:blue" font-size="15px">4</text>
<text x="170" y="425" style="font-wight:bold; fill:blue" font-size="15px">5</text>
<text x="182" y="425" style="font-wight:bold; fill:blue" font-size="15px">8</text>
<text x="208" y="425" style="font-wight:bold; fill:blue" font-size="15px">1</text>
<text x="220" y="425" style="font-wight:bold; fill:blue" font-size="15px">4</text>
<text x="232" y="425" style="font-wight:bold; fill:blue" font-size="15px">5</text>
<text x="208" y="440" style="font-wight:bold; fill:blue" font-size="15px">8</text>
<text x="266" y="435" style="font-wight:bold" font-size="30px">3</text>
<text x="308" y="425" style="font-wight:bold; fill:blue" font-size="15px">2</text>
<text x="320" y="425" style="font-wight:bold; fill:blue" font-size="15px">4</text>
<text x="332" y="425" style="font-wight:bold; fill:blue" font-size="15px">5</text>
<text x="308" y="440" style="font-wight:bold; fill:blue" font-size="15px">6</text>
<text x="358" y="425" style="font-wight:bold; fill:blue" font-size="15px">1</text>
<text x="370" y="425" style="font-wight:bold; fill:blue" font-size="15px">2</text>
<text x="382" y="425" style="font-wight:bold; fill:blue" font-size="15px">4</text>
<text x="358" y="440" style="font-wight:bold; fill:blue" font-size="15px">5</text>
<text x="416" y="435" style="font-wight:bold" font-size="30px">7</text>
</svg>
