<?xml version="1.0" encoding="UTF-8" standalone="no"?>
<svg
   version="1.1"
   width="500"
   height="500"
   id="svg428"
   sodipodi:docname="dvojityPar.svg"
   inkscape:export-filename="/home/karoli/Documents/Bakalarka/Bakalarka/Bakalarka/dvojityPar.png"
   inkscape:export-xdpi="96"
   inkscape:export-ydpi="96"
   inkscape:version="1.1.2 (1:1.1+202202050950+0a00cf5339)"
   xmlns:inkscape="http://www.inkscape.org/namespaces/inkscape"
   xmlns:sodipodi="http://sodipodi.sourceforge.net/DTD/sodipodi-0.dtd"
   xmlns="http://www.w3.org/2000/svg"
   xmlns:svg="http://www.w3.org/2000/svg">
  <defs
     id="defs432" />
  <sodipodi:namedview
     id="namedview430"
     pagecolor="#ffffff"
     bordercolor="#666666"
     borderopacity="1.0"
     inkscape:pageshadow="2"
     inkscape:pageopacity="0.0"
     inkscape:pagecheckerboard="0"
     showgrid="false"
     inkscape:zoom="1.8194143"
     inkscape:cx="141.52906"
     inkscape:cy="244.5842"
     inkscape:window-width="2488"
     inkscape:window-height="1403"
     inkscape:window-x="1992"
     inkscape:window-y="0"
     inkscape:window-maximized="1"
     inkscape:current-layer="svg428" />
  <polyline
     points="0,0 450,0 450,450 0,450 0,0"
     style="fill:none;stroke:black;stroke-width:5"
     id="polyline2" />
  <polyline
     points="0,50 450,50"
     style="fill:none;stroke:black;stroke-width:1"
     id="polyline4" />
  <polyline
     points="0,100 450,100"
     style="fill:none;stroke:black;stroke-width:1"
     id="polyline6" />
  <polyline
     points="0,150 450,150"
     style="fill:none;stroke:black;stroke-width:5"
     id="polyline8" />
  <polyline
     points="0,200 450,200"
     style="fill:none;stroke:black;stroke-width:1"
     id="polyline10" />
  <polyline
     points="0,250 450,250"
     style="fill:none;stroke:black;stroke-width:1"
     id="polyline12" />
  <polyline
     points="0,300 450,300"
     style="fill:none;stroke:black;stroke-width:5"
     id="polyline14" />
  <polyline
     points="0,350 450,350"
     style="fill:none;stroke:black;stroke-width:1"
     id="polyline16" />
  <polyline
     points="0,400 450,400"
     style="fill:none;stroke:black;stroke-width:1"
     id="polyline18" />
  <polyline
     points="50,0 50,450"
     style="fill:none;stroke:black;stroke-width:1"
     id="polyline20" />
  <polyline
     points="100,0 100,450"
     style="fill:none;stroke:black;stroke-width:1"
     id="polyline22" />
  <polyline
     points="150,0 150,450"
     style="fill:none;stroke:black;stroke-width:5"
     id="polyline24" />
  <polyline
     points="200,0 200,450"
     style="fill:none;stroke:black;stroke-width:1"
     id="polyline26" />
  <polyline
     points="250,0 250,450"
     style="fill:none;stroke:black;stroke-width:1"
     id="polyline28" />
  <polyline
     points="300,0 300,450"
     style="fill:none;stroke:black;stroke-width:5"
     id="polyline30" />
  <polyline
     points="350,0 350,450"
     style="fill:none;stroke:black;stroke-width:1"
     id="polyline32" />
  <polyline
     points="400,0 400,450"
     style="fill:none;stroke:black;stroke-width:1"
     id="polyline34" />
  <text
     x="8"
     y="20"
     style="font-wight:bold;fill:#000000"
     font-size="15px"
     id="text36">2</text>
  <text
     x="20"
     y="20"
     style="font-wight:bold;fill:#000000"
     font-size="15px"
     id="text38">7</text>
  <text
     x="32"
     y="20"
     style="font-wight:bold;fill:#000000"
     font-size="15px"
     id="text40">8</text>
  <text
     x="66"
     y="35"
     style="font-wight:bold"
     font-size="30px"
     id="text42">5</text>
  <text
     x="116"
     y="35"
     style="font-wight:bold"
     font-size="30px"
     id="text44">6</text>
  <text
     x="158"
     y="20.474581"
     style="fill:#000000"
     font-size="15px"
     id="text46">2</text>
  <text
     x="170"
     y="20"
     style="font-wight:bold;fill:#000000"
     font-size="15px"
     id="text48">4</text>
  <text
     x="181.85855"
     y="19.602314"
     style="fill:#000000"
     font-size="15px"
     id="text52">9</text>
  <text
     x="216"
     y="35"
     style="font-wight:bold"
     font-size="30px"
     id="text54">1</text>
  <text
     x="258"
     y="20"
     style="font-wight:bold;fill:#000000"
     font-size="15px"
     id="text56">4</text>
  <text
     x="270"
     y="20"
     style="font-wight:bold;fill:#000000"
     font-size="15px"
     id="text58">9</text>
  <text
     x="316"
     y="35"
     style="font-wight:bold;fill:#000000"
     font-size="30px"
     id="text60">3</text>
  <text
     x="264.31744"
     y="133.98744"
     font-size="30px"
     id="text60-5">3</text>
  <text
     x="213.93983"
     y="432.97049"
     font-size="30px"
     id="text60-3">3</text>
  <text
     x="358"
     y="20"
     style="font-wight:bold;fill:#000000"
     font-size="15px"
     id="text62">2</text>
  <text
     x="370"
     y="20"
     style="font-wight:bold;fill:#000000"
     font-size="15px"
     id="text64">7</text>
  <text
     x="382"
     y="20"
     style="font-wight:bold;fill:#000000"
     font-size="15px"
     id="text66">8</text>
  <text
     x="408"
     y="20"
     style="font-wight:bold;fill:#000000"
     font-size="15px"
     id="text68">2</text>
  <text
     x="420"
     y="20"
     style="font-wight:bold;fill:#000000"
     font-size="15px"
     id="text70">7</text>
  <text
     x="432"
     y="20"
     style="font-wight:bold;fill:#000000"
     font-size="15px"
     id="text72">8</text>
  <text
     x="408"
     y="33"
     style="font-wight:bold;fill:#000000"
     font-size="15px"
     id="text74">9</text>
  <text
     x="8"
     y="70"
     style="font-wight:bold;fill:#000000"
     font-size="15px"
     id="text76">2</text>
  <text
     x="20"
     y="70"
     style="font-wight:bold;fill:#000000"
     font-size="15px"
     id="text78">3</text>
  <text
     x="32"
     y="70"
     style="font-wight:bold;fill:#000000"
     font-size="15px"
     id="text80">7</text>
  <text
     x="66"
     y="85"
     style="font-wight:bold;fill:#000000"
     font-size="30px"
     id="text82">4</text>
  <text
     x="108"
     y="70"
     style="font-wight:bold;fill:#000000"
     font-size="15px"
     id="text84">2</text>
  <text
     x="120"
     y="70"
     style="font-wight:bold;fill:#000000"
     font-size="15px"
     id="text86">3</text>
  <text
     x="132"
     y="70"
     style="font-wight:bold;fill:#000000"
     font-size="15px"
     id="text88">7</text>
  <text
     x="158"
     y="70"
     style="font-wight:bold;fill:#000000"
     font-size="15px"
     id="text90">2</text>
  <text
     x="170.4882"
     y="70.204292"
     style="fill:#000000"
     font-size="15px"
     id="text96">9</text>
  <text
     x="216"
     y="85"
     style="font-wight:bold"
     font-size="30px"
     id="text98">5</text>
  <text
     x="266"
     y="85"
     style="font-wight:bold"
     font-size="30px"
     id="text100">8</text>
  <text
     x="316"
     y="85"
     style="font-wight:bold;fill:#000000"
     font-size="30px"
     id="text102">6</text>
  <text
     x="366"
     y="85"
     style="font-wight:bold;fill:#000000"
     font-size="30px"
     id="text104">1</text>
  <text
     x="408"
     y="70"
     style="font-wight:bold;fill:#000000"
     font-size="15px"
     id="text106">2</text>
  <text
     x="420"
     y="70"
     style="font-wight:bold;fill:#000000"
     font-size="15px"
     id="text108">7</text>
  <text
     x="432"
     y="70"
     style="font-wight:bold;fill:#000000"
     font-size="15px"
     id="text110">9</text>
  <text
     x="8"
     y="120"
     style="font-wight:bold;fill:#000000"
     font-size="15px"
     id="text112">1</text>
  <text
     x="20"
     y="120"
     style="font-wight:bold;fill:#000000"
     font-size="15px"
     id="text114">2</text>
  <text
     x="32"
     y="120"
     style="font-wight:bold;fill:#000000"
     font-size="15px"
     id="text116">3</text>
  <text
     x="8"
     y="133"
     style="font-wight:bold;fill:#000000"
     font-size="15px"
     id="text118">7</text>
  <text
     x="20"
     y="133"
     style="font-wight:bold;fill:#000000"
     font-size="15px"
     id="text120">8</text>
  <text
     x="66"
     y="135"
     style="font-wight:bold;fill:#000000"
     font-size="30px"
     id="text122">9</text>
  <text
     x="108"
     y="120"
     style="font-wight:bold;fill:#000000"
     font-size="15px"
     id="text124">1</text>
  <text
     x="120"
     y="120"
     style="font-wight:bold;fill:#000000"
     font-size="15px"
     id="text126">2</text>
  <text
     x="132"
     y="120"
     style="font-wight:bold;fill:#000000"
     font-size="15px"
     id="text128">3</text>
  <text
     x="108"
     y="133"
     style="font-wight:bold;fill:#000000"
     font-size="15px"
     id="text130">7</text>
  <text
     x="120"
     y="133"
     style="font-wight:bold;fill:#000000"
     font-size="15px"
     id="text132">8</text>
  <text
     x="166"
     y="135"
     style="font-wight:bold"
     font-size="30px"
     id="text134">6</text>
  <text
     x="308"
     y="120"
     style="font-wight:bold;fill:#000000"
     font-size="15px"
     id="text142">2</text>
  <text
     x="320"
     y="120"
     style="font-wight:bold;fill:#000000"
     font-size="15px"
     id="text144">7</text>
  <text
     x="332"
     y="120"
     style="font-wight:bold;fill:#000000"
     font-size="15px"
     id="text146">8</text>
  <text
     x="366"
     y="135"
     style="font-wight:bold"
     font-size="30px"
     id="text148">5</text>
  <text
     x="416"
     y="135"
     style="font-wight:bold;fill:#000000"
     font-size="30px"
     id="text150">4</text>
  <text
     x="8"
     y="170"
     style="font-wight:bold;fill:#000000"
     font-size="15px"
     id="text152">1</text>
  <text
     x="20"
     y="170"
     style="font-wight:bold;fill:#000000"
     font-size="15px"
     id="text154">3</text>
  <text
     x="32"
     y="170"
     style="font-wight:bold;fill:#000000"
     font-size="15px"
     id="text156">5</text>
  <text
     x="8"
     y="183"
     style="font-wight:bold;fill:#000000"
     font-size="15px"
     id="text158">7</text>
  <text
     x="20"
     y="183"
     style="font-wight:bold;fill:#000000"
     font-size="15px"
     id="text160">8</text>
  <text
     x="66"
     y="185"
     style="font-wight:bold"
     font-size="30px"
     id="text162">2</text>
  <text
     x="108"
     y="170"
     style="font-wight:bold;fill:#000000"
     font-size="15px"
     id="text164">1</text>
  <text
     x="120"
     y="170"
     style="font-wight:bold;fill:#000000"
     font-size="15px"
     id="text166">3</text>
  <text
     x="132"
     y="170"
     style="font-wight:bold;fill:#000000"
     font-size="15px"
     id="text168">7</text>
  <text
     x="108"
     y="183"
     style="font-wight:bold;fill:#000000"
     font-size="15px"
     id="text170">8</text>
  <text
     x="158"
     y="170"
     style="font-wight:bold; fill:blue"
     font-size="15px"
     id="text172">1</text>
  <text
     x="170"
     y="170"
     style="font-wight:bold; fill:blue"
     font-size="15px"
     id="text174">3</text>
  <text
     x="158"
     y="183"
     style="font-wight:bold; fill:blue"
     font-size="15px"
     id="text178">7</text>
  <text
     x="170"
     y="183"
     style="font-wight:bold; fill:blue"
     font-size="15px"
     id="text180">8</text>
  <text
     x="216"
     y="185"
     style="font-wight:bold"
     font-size="30px"
     id="text182">9</text>
  <text
     x="266"
     y="185"
     style="font-wight:bold"
     font-size="30px"
     id="text184">6</text>
  <text
     x="308"
     y="170"
     style="font-wight:bold;fill:#000000"
     font-size="15px"
     id="text186">1</text>
  <text
     x="320"
     y="170"
     style="font-wight:bold;fill:#000000"
     font-size="15px"
     id="text188">4</text>
  <text
     x="332"
     y="170"
     style="font-wight:bold;fill:#000000"
     font-size="15px"
     id="text190">7</text>
  <text
     x="308"
     y="183"
     style="font-wight:bold;fill:#000000"
     font-size="15px"
     id="text192">8</text>
  <text
     x="358"
     y="170"
     style="font-wight:bold;fill:#000000"
     font-size="15px"
     id="text194">3</text>
  <text
     x="370"
     y="170"
     style="font-wight:bold;fill:#000000"
     font-size="15px"
     id="text196">4</text>
  <text
     x="382"
     y="170"
     style="font-wight:bold;fill:#000000"
     font-size="15px"
     id="text198">7</text>
  <text
     x="358"
     y="183"
     style="font-wight:bold;fill:#000000"
     font-size="15px"
     id="text200">8</text>
  <text
     x="408"
     y="170"
     style="font-wight:bold;fill:#000000"
     font-size="15px"
     id="text202">1</text>
  <text
     x="420"
     y="170"
     style="font-wight:bold;fill:#000000"
     font-size="15px"
     id="text204">3</text>
  <text
     x="432"
     y="170"
     style="font-wight:bold;fill:#000000"
     font-size="15px"
     id="text206">7</text>
  <text
     x="408"
     y="183"
     style="font-wight:bold;fill:#000000"
     font-size="15px"
     id="text208">8</text>
  <text
     x="16"
     y="235"
     style="font-wight:bold"
     font-size="30px"
     id="text210">4</text>
  <text
     x="58"
     y="220"
     style="font-wight:bold;fill:#000000"
     font-size="15px"
     id="text212">3</text>
  <text
     x="70"
     y="220"
     style="font-wight:bold;fill:#000000"
     font-size="15px"
     id="text214">7</text>
  <text
     x="116"
     y="235"
     style="font-wight:bold"
     font-size="30px"
     id="text216">9</text>
  <text
     x="158"
     y="220"
     style="font-wight:bold; fill:blue"
     font-size="15px"
     id="text218">1</text>
  <text
     x="170"
     y="220"
     style="font-wight:bold; fill:blue"
     font-size="15px"
     id="text220">3</text>
  <text
     x="182"
     y="220"
     style="font-wight:bold; fill:blue"
     font-size="15px"
     id="text222">7</text>
  <text
     x="158"
     y="233"
     style="font-wight:bold; fill:blue"
     font-size="15px"
     id="text224">8</text>
  <text
     x="220"
     y="220"
     style="font-wight:bold; fill:blue"
     font-size="15px"
     id="text228">7</text>
  <text
     x="232"
     y="220"
     style="font-wight:bold; fill:blue"
     font-size="15px"
     id="text230">8</text>
  <text
     x="266"
     y="235"
     style="font-wight:bold"
     font-size="30px"
     id="text232">2</text>
  <text
     x="316"
     y="235"
     style="font-wight:bold"
     font-size="30px"
     id="text234">5</text>
  <text
     x="358"
     y="220"
     style="font-wight:bold;fill:#000000"
     font-size="15px"
     id="text236">3</text>
  <text
     x="370"
     y="220"
     style="font-wight:bold;fill:#000000"
     font-size="15px"
     id="text238">7</text>
  <text
     x="382"
     y="220"
     style="font-wight:bold;fill:#000000"
     font-size="15px"
     id="text240">8</text>
  <text
     x="416"
     y="235"
     style="font-wight:bold"
     font-size="30px"
     id="text242">6</text>
  <text
     x="8"
     y="270"
     style="font-wight:bold;fill:#000000"
     font-size="15px"
     id="text244">1</text>
  <text
     x="20"
     y="270"
     style="font-wight:bold;fill:#000000"
     font-size="15px"
     id="text246">3</text>
  <text
     x="32"
     y="270"
     style="font-wight:bold;fill:#000000"
     font-size="15px"
     id="text248">5</text>
  <text
     x="8"
     y="283"
     style="font-wight:bold;fill:#000000"
     font-size="15px"
     id="text250">7</text>
  <text
     x="20"
     y="283"
     style="font-wight:bold;fill:#000000"
     font-size="15px"
     id="text252">8</text>
  <text
     x="66"
     y="285"
     style="font-wight:bold;fill:#000000"
     font-size="30px"
     id="text254">6</text>
  <text
     x="108"
     y="270"
     style="font-wight:bold;fill:#000000"
     font-size="15px"
     id="text256">1</text>
  <text
     x="120"
     y="270"
     style="font-wight:bold;fill:#000000"
     font-size="15px"
     id="text258">3</text>
  <text
     x="132"
     y="270"
     style="font-wight:bold;fill:#000000"
     font-size="15px"
     id="text260">7</text>
  <text
     x="108"
     y="283"
     style="font-wight:bold;fill:#000000"
     font-size="15px"
     id="text262">8</text>
  <text
     x="158"
     y="270"
     style="font-wight:bold; fill:blue"
     font-size="15px"
     id="text264">1</text>
  <text
     x="170"
     y="270"
     style="font-wight:bold; fill:blue"
     font-size="15px"
     id="text266">3</text>
  <text
     x="158"
     y="283"
     style="font-wight:bold; fill:blue"
     font-size="15px"
     id="text270">7</text>
  <text
     x="170"
     y="283"
     style="font-wight:bold; fill:blue"
     font-size="15px"
     id="text272">8</text>
  <text
     x="207.91043"
     y="268.40698"
     style="fill:#0000ff"
     font-size="15px"
     id="text276">4</text>
  <text
     x="219.15916"
     y="268.74319"
     style="fill:#0000ff"
     font-size="15px"
     id="text278">7</text>
  <text
     x="231.63156"
     y="268.01749"
     style="fill:#0000ff"
     font-size="15px"
     id="text280">8</text>
  <text
     x="258"
     y="270"
     style="font-wight:bold; fill:blue"
     font-size="15px"
     id="text282">1</text>
  <text
     x="280.75696"
     y="269.46988"
     style="fill:#0000ff"
     font-size="15px"
     id="text288">5</text>
  <text
     x="316"
     y="285"
     style="font-wight:bold"
     font-size="30px"
     id="text290">9</text>
  <text
     x="358"
     y="270"
     style="font-wight:bold;fill:#000000"
     font-size="15px"
     id="text292">2</text>
  <text
     x="370"
     y="270"
     style="font-wight:bold;fill:#000000"
     font-size="15px"
     id="text294">3</text>
  <text
     x="382"
     y="270"
     style="font-wight:bold;fill:#000000"
     font-size="15px"
     id="text296">4</text>
  <text
     x="358"
     y="283"
     style="font-wight:bold;fill:#000000"
     font-size="15px"
     id="text298">7</text>
  <text
     x="370"
     y="283"
     style="font-wight:bold;fill:#000000"
     font-size="15px"
     id="text300">8</text>
  <text
     x="408"
     y="270"
     style="font-wight:bold;fill:#000000"
     font-size="15px"
     id="text302">1</text>
  <text
     x="420"
     y="270"
     style="font-wight:bold;fill:#000000"
     font-size="15px"
     id="text304">2</text>
  <text
     x="432"
     y="270"
     style="font-wight:bold;fill:#000000"
     font-size="15px"
     id="text306">3</text>
  <text
     x="408"
     y="283"
     style="font-wight:bold;fill:#000000"
     font-size="15px"
     id="text308">7</text>
  <text
     x="420"
     y="283"
     style="font-wight:bold;fill:#000000"
     font-size="15px"
     id="text310">8</text>
  <text
     x="8"
     y="320"
     style="font-wight:bold;fill:#000000"
     font-size="15px"
     id="text312">2</text>
  <text
     x="20"
     y="320"
     style="font-wight:bold;fill:#000000"
     font-size="15px"
     id="text314">3</text>
  <text
     x="32"
     y="320"
     style="font-wight:bold;fill:#000000"
     font-size="15px"
     id="text316">7</text>
  <text
     x="58"
     y="320"
     style="font-wight:bold;fill:#000000"
     font-size="15px"
     id="text318">3</text>
  <text
     x="70"
     y="320"
     style="font-wight:bold;fill:#000000"
     font-size="15px"
     id="text320">7</text>
  <text
     x="116"
     y="335"
     style="font-wight:bold;fill:#000000"
     font-size="30px"
     id="text322">5</text>
  <text
     x="158"
     y="320"
     style="font-wight:bold; fill:blue"
     font-size="15px"
     id="text324">1</text>
  <text
     x="168.96402"
     y="319.60693"
     style="fill:#0000ff"
     font-size="15px"
     id="text328">4</text>
  <text
     x="182.9879"
     y="319.40735"
     style="fill:#0000ff"
     font-size="15px"
     id="text330">8</text>
  <text
     x="157.67223"
     y="334.19754"
     style="fill:#0000ff"
     font-size="15px"
     id="text332">9</text>
  <text
     x="216"
     y="335"
     style="font-wight:bold"
     font-size="30px"
     id="text334">6</text>
  <text
     x="258"
     y="320"
     style="font-wight:bold; fill:blue"
     font-size="15px"
     id="text336">1</text>
  <text
     x="269.56152"
     y="320"
     style="fill:#0000ff"
     font-size="15px"
     id="text340">4</text>
  <text
     x="283.08719"
     y="319.38452"
     style="fill:#0000ff"
     font-size="15px"
     id="text342">9</text>
  <text
     x="308"
     y="320"
     style="font-wight:bold;fill:#000000"
     font-size="15px"
     id="text344">1</text>
  <text
     x="320"
     y="320"
     style="font-wight:bold;fill:#000000"
     font-size="15px"
     id="text346">2</text>
  <text
     x="332"
     y="320"
     style="font-wight:bold;fill:#000000"
     font-size="15px"
     id="text348">4</text>
  <text
     x="308"
     y="333"
     style="font-wight:bold;fill:#000000"
     font-size="15px"
     id="text350">7</text>
  <text
     x="320"
     y="333"
     style="font-wight:bold;fill:#000000"
     font-size="15px"
     id="text352">8</text>
  <text
     x="358"
     y="320"
     style="font-wight:bold;fill:#000000"
     font-size="15px"
     id="text354">2</text>
  <text
     x="370"
     y="320"
     style="font-wight:bold;fill:#000000"
     font-size="15px"
     id="text356">3</text>
  <text
     x="382"
     y="320"
     style="font-wight:bold;fill:#000000"
     font-size="15px"
     id="text358">4</text>
  <text
     x="358"
     y="333"
     style="font-wight:bold;fill:#000000"
     font-size="15px"
     id="text360">7</text>
  <text
     x="370"
     y="333"
     style="font-wight:bold;fill:#000000"
     font-size="15px"
     id="text362">8</text>
  <text
     x="408"
     y="320"
     style="font-wight:bold;fill:#000000"
     font-size="15px"
     id="text364">1</text>
  <text
     x="420"
     y="320"
     style="font-wight:bold;fill:#000000"
     font-size="15px"
     id="text366">2</text>
  <text
     x="432"
     y="320"
     style="font-wight:bold;fill:#000000"
     font-size="15px"
     id="text368">3</text>
  <text
     x="408"
     y="333"
     style="font-wight:bold;fill:#000000"
     font-size="15px"
     id="text370">7</text>
  <text
     x="420"
     y="333"
     style="font-wight:bold;fill:#000000"
     font-size="15px"
     id="text372">8</text>
  <text
     x="16"
     y="385"
     style="font-wight:bold;fill:#000000"
     font-size="30px"
     id="text374">6</text>
  <text
     x="66"
     y="385"
     style="font-wight:bold;fill:#000000"
     font-size="30px"
     id="text376">1</text>
  <text
     x="108"
     y="370"
     style="font-wight:bold;fill:#000000"
     font-size="15px"
     id="text378">3</text>
  <text
     x="120"
     y="370"
     style="font-wight:bold;fill:#000000"
     font-size="15px"
     id="text380">7</text>
  <text
     x="158.22827"
     y="369.63553"
     style="fill:#0000ff"
     font-size="15px"
     id="text384">4</text>
  <text
     x="169.74777"
     y="369.42871"
     style="fill:#0000ff"
     font-size="15px"
     id="text386">8</text>
  <text
     x="216"
     y="385"
     style="font-wight:bold"
     font-size="30px"
     id="text388">2</text>
  <text
     x="255.16954"
     y="367.80093"
     style="fill:#0000ff"
     font-size="15px"
     id="text392">4</text>
  <text
     x="308"
     y="370"
     style="font-wight:bold;fill:#000000"
     font-size="15px"
     id="text394">4</text>
  <text
     x="320"
     y="370"
     style="font-wight:bold;fill:#000000"
     font-size="15px"
     id="text396">7</text>
  <text
     x="332"
     y="370"
     style="font-wight:bold;fill:#000000"
     font-size="15px"
     id="text398">8</text>
  <text
     x="366"
     y="385"
     style="font-wight:bold;fill:#000000"
     font-size="30px"
     id="text400">9</text>
  <text
     x="416"
     y="385"
     style="font-wight:bold;fill:#000000"
     font-size="30px"
     id="text402">5</text>
  <text
     x="16"
     y="435"
     style="font-wight:bold"
     font-size="30px"
     id="text404">9</text>
  <text
     x="66"
     y="435"
     style="font-wight:bold"
     font-size="30px"
     id="text406">8</text>
  <text
     x="116"
     y="435"
     style="font-wight:bold"
     font-size="30px"
     id="text408">4</text>
  <text
     x="166"
     y="435"
     style="font-wight:bold"
     font-size="30px"
     id="text410">5</text>
  <text
     x="266"
     y="435"
     style="font-wight:bold"
     font-size="30px"
     id="text414">7</text>
  <text
     x="266.04413"
     y="435.17349"
     font-size="30px"
     id="text414-6">7</text>
  <text
     x="215.59743"
     y="135.11902"
     font-size="30px"
     id="text414-7">7</text>
  <text
     x="308"
     y="420"
     style="font-wight:bold;fill:#000000"
     font-size="15px"
     id="text416">1</text>
  <text
     x="320"
     y="420"
     style="font-wight:bold;fill:#000000"
     font-size="15px"
     id="text418">2</text>
  <text
     x="366"
     y="435"
     style="font-wight:bold;fill:#000000"
     font-size="30px"
     id="text420">6</text>
  <text
     x="408"
     y="420"
     style="font-wight:bold;fill:#000000"
     font-size="15px"
     id="text422">1</text>
  <text
     x="420"
     y="420"
     style="font-wight:bold;fill:#000000"
     font-size="15px"
     id="text424">2</text>
  <path
     style="fill:#d5e5ff;stroke-width:0.592417"
     d="M 200.53318,26.066351 V 2.6658768 h 24.28909 24.2891 V 26.066351 49.466825 h -24.2891 -24.28909 z m 31.99052,7.701422 c 0,-1.332939 -0.23697,-1.481043 -2.36967,-1.481043 h -2.36967 v -9.774882 -9.774881 h -1.45188 c -0.79854,0 -2.79795,0.288678 -4.44313,0.641507 -2.64478,0.567204 -2.99125,0.816691 -2.99125,2.153983 0,1.451753 0.10703,1.497807 2.66588,1.147077 l 2.66588,-0.365398 v 7.986296 7.986298 h -2.36967 c -2.1327,0 -2.36967,0.148104 -2.36967,1.481043 v 1.481042 h 6.51659 6.51659 z"
     id="path586" />
  <path
     style="fill:#d5e5ff;stroke-width:0.592417"
     d="M 200.53318,74.940758 V 50.651659 h 24.28909 24.2891 v 24.289099 24.2891 h -24.2891 -24.28909 z m 28.11949,9.821551 c 3.59568,-1.502372 5.09273,-7.274346 2.8649,-11.045776 -1.10148,-1.864653 -4.52892,-3.515111 -7.2997,-3.515111 -1.6225,0 -1.76526,-0.16769 -1.76526,-2.07346 v -2.07346 h 4.44312 c 4.3444,0 4.44313,-0.03291 4.44313,-1.481042 v -1.481043 h -6.22038 -6.22038 v 5.639249 5.639249 l 1.62915,-0.4556 c 5.02764,-1.406005 8.44194,0.226478 8.44194,4.036348 0,3.194693 -2.25111,4.913873 -5.92417,4.524307 -1.46623,-0.15551 -3.1324,-0.476839 -3.7026,-0.714066 -0.85449,-0.355501 -1.03673,-0.115004 -1.03673,1.368108 0,1.395061 0.29954,1.857124 1.33294,2.056165 2.94671,0.567563 7.10972,0.371805 9.01404,-0.423868 z"
     id="path664" />
  <path
     style="fill:#d5e5ff;stroke-width:0.592417"
     d="M 250.88863,74.940758 V 50.651659 h 23.10426 23.10427 v 24.289099 24.2891 h -23.10427 -23.10426 z m 29.44048,9.50479 c 2.68249,-1.635623 3.72203,-5.195096 2.35463,-8.062545 -0.54322,-1.139145 -1.38772,-2.224686 -1.87667,-2.412313 -0.72853,-0.279564 -0.62175,-0.658737 0.59154,-2.100658 1.68746,-2.005432 1.86957,-3.937218 0.60221,-6.388023 -1.762,-3.40735 -9.04167,-3.994803 -12.06301,-0.97346 -2.02455,2.024549 -2.14673,5.678528 -0.2532,7.572064 l 1.29276,1.292757 -1.45432,1.347824 c -1.13924,1.055808 -1.45433,1.939972 -1.45433,4.080935 0,1.50321 0.27329,3.243757 0.60731,3.867881 1.56657,2.927156 8.1254,3.926501 11.65308,1.775538 z"
     id="path703" />
  <path
     style="fill:#d5e5ff;stroke-width:0.592417"
     d="m 272.80806,70.793839 c -1.42591,-1.425903 -1.48144,-2.27499 -0.26262,-4.015103 1.83639,-2.621813 6.7792,-1.131083 6.7792,2.044577 0,2.877924 -4.30685,4.180257 -6.51658,1.970526 z"
     id="path820" />
  <path
     style="fill:#d5e5ff;stroke-width:0.592417"
     d="m 273.04485,82.188796 c -3.23235,-2.158297 -1.46211,-7.248038 2.5209,-7.248038 3.77415,0 5.70643,3.976632 3.16648,6.516588 -1.18496,1.184961 -4.39072,1.597251 -5.68738,0.73145 z"
     id="path859" />
  <path
     style="fill:#d5e5ff;stroke-width:0.592417"
     d=""
     id="path898" />
  <path
     style="fill:#d5e5ff;stroke-width:0.364466"
     d="m 152.52903,124.10068 v -23.32583 h 23.32582 23.32583 v 23.32583 23.32582 h -23.32583 -23.32582 z m 26.49086,10.87986 c 0.63825,-0.19305 1.72763,-0.97879 2.42083,-1.74608 3.41636,-3.7815 1.94454,-10.95114 -2.55279,-12.43539 -1.86358,-0.61504 -5.01728,-0.26546 -6.32456,0.70106 l -1.08211,0.80004 0.008,-1.01319 c 0.0115,-1.45752 1.19603,-3.85859 2.35221,-4.76804 1.70031,-1.33746 4.51467,-1.4234 7.59479,-0.23192 0.58597,0.22668 0.64811,0.0745 0.54669,-1.33913 l -0.11441,-1.59487 -2.26431,-0.48629 c -4.34026,-0.93213 -8.09467,0.6327 -10.02155,4.17697 -2.94222,5.41187 -1.73545,14.90344 2.20442,17.33842 2.10903,1.30345 4.302,1.48489 7.23279,0.59842 z"
     id="path1132" />
  <path
     style="fill:#d5e5ff;stroke-width:0.364466"
     d="m 173.2454,131.80864 c -1.01011,-0.90253 -1.18386,-1.32628 -1.32096,-3.22176 -0.19319,-2.67075 0.51323,-4.25887 2.26624,-5.09482 3.44663,-1.64359 6.41235,1.45423 5.63216,5.88304 -0.57003,3.23583 -4.18332,4.57269 -6.57744,2.43354 z"
     id="path1171" />
  <path
     style="fill:#d5e5ff;stroke-width:0.364466"
     d=""
     id="path1327" />
  <path
     style="fill:#d5e5ff;stroke-width:0.364466"
     d="m 152.52903,424.05621 v -23.32583 h 23.32582 23.32583 v 23.32583 23.32582 h -23.32583 -23.32582 z m 25.92522,10.68996 c 1.95386,-0.78178 3.44568,-2.61447 3.91695,-4.81193 1.17067,-5.45865 -2.4574,-9.77502 -7.95561,-9.46492 l -2.20673,0.12446 6.7e-4,-2.46015 6.6e-4,-2.46014 h 4.37359 4.3736 v -1.27563 -1.27564 H 174.94369 168.93 v 5.50948 5.50948 l 1.00228,-0.25129 c 0.55125,-0.13822 2.08442,-0.33845 3.40704,-0.44496 3.91004,-0.31488 5.85647,1.17247 5.85647,4.47518 0,2.01335 -0.80639,3.31098 -2.63792,4.2449 -1.8791,0.95818 -4.3853,0.75284 -7.71899,-0.63244 -0.55304,-0.22981 -0.63782,-0.0437 -0.63782,1.40001 0,1.78978 0.11625,1.87106 3.64466,2.54853 1.45309,0.279 5.08349,-0.12474 6.60853,-0.73494 z"
     id="path1405" />
  <path
     style="fill:#d5e5ff;stroke-width:0.364466"
     d=""
     id="path1483" />
  <path
     style="fill:#d5e5ff;stroke-width:0.364466"
     d="m 187.64271,313.44077 c 0.001,-1.60365 0.0654,-2.21435 0.14239,-1.35711 0.077,0.85723 0.0759,2.16931 -0.002,2.91573 -0.0783,0.74641 -0.14131,0.045 -0.13998,-1.55862 z"
     id="path1717" />
  <path
     style="fill:#d5e5ff;stroke-width:0.364466"
     d="m 200.63854,326.01485 v -23.32583 h 24.41922 24.41923 v 23.32583 23.32582 h -24.41923 -24.41922 z m 29.76835,8.15611 c 2.17401,-1.75717 2.82077,-3.15564 2.8372,-6.13476 0.0264,-4.7791 -2.47371,-7.47029 -6.95095,-7.48235 -1.79542,-0.005 -2.49389,0.17509 -3.60383,0.92831 l -1.37677,0.9343 0.25109,-1.57026 c 0.70991,-4.43949 4.64851,-6.60344 8.83511,-4.85417 0.71964,0.30069 1.37041,0.5467 1.44615,0.5467 0.0757,0 0.13773,-0.71563 0.13773,-1.59029 v -1.5903 l -2.18605,-0.46391 c -7.16346,-1.52019 -11.71088,2.85894 -11.756,11.32092 -0.0222,4.16569 0.75679,7.03136 2.41866,8.89736 1.761,1.97732 2.93141,2.43043 5.93853,2.29904 2.29027,-0.10007 2.78897,-0.25439 4.00913,-1.24059 z"
     id="path1795" />
  <path
     style="fill:#d5e5ff;stroke-width:0.364466"
     d="m 223.73863,332.26423 c -1.92538,-1.20879 -2.55336,-4.51949 -1.32268,-6.97324 1.57632,-3.1429 5.85533,-2.88909 7.18176,0.42599 1.78258,4.45509 -2.16506,8.8664 -5.85908,6.54725 z"
     id="path1834" />
  <path
     style="fill:#d5e5ff;stroke-width:0.364466"
     d="m 200.63854,375.03553 v -24.23699 h 24.41922 24.41923 v 24.23699 24.23699 h -24.41923 -24.41922 z m 31.70854,8.74718 v -1.27563 h -5.15282 -5.15281 l 4.22007,-4.34582 c 4.76543,-4.90742 5.7211,-6.43468 5.7211,-9.143 0,-3.32728 -1.84538,-5.47833 -5.31837,-6.19932 -2.1669,-0.44985 -3.52122,-0.32331 -6.6179,0.61832 l -1.91344,0.58184 v 1.5902 c 0,1.79258 0.19833,1.87572 2.12715,0.8917 4.3029,-2.19517 8.44236,-0.87225 8.44236,2.69809 0,1.95908 -0.83625,3.12438 -6.33545,8.82823 -3.8143,3.95626 -4.23406,4.52247 -4.23406,5.71133 v 1.31969 h 7.10709 7.10708 z"
     id="path1951" />
  <path
     style="fill:#d5e5ff;stroke-width:0.364466"
     d="m 200.63854,424.05621 v -23.32583 h 24.41922 24.41923 v 23.32583 23.32582 h -24.41923 -24.41922 z m 24.96592,9.07382 c 4.14275,-1.13161 6.24318,-5.16194 4.61199,-8.84952 -0.45796,-1.03529 -1.18213,-1.94186 -1.85877,-2.32694 -1.3432,-0.76442 -1.36998,-0.94352 -0.21949,-1.46772 1.40576,-0.64051 2.1297,-2.41645 1.9362,-4.74979 -0.1434,-1.72929 -0.34467,-2.16849 -1.46363,-3.19395 -2.10462,-1.92874 -4.92445,-2.38835 -9.62795,-1.56927 l -2.30777,0.40188 v 1.5493 1.54929 L 218.5768,413.98 c 3.99702,-1.03681 7.68145,-0.37005 8.14424,1.47384 0.69072,2.75208 -0.63393,4.12604 -4.30883,4.46921 l -2.45697,0.22944 v 1.18047 1.18046 l 2.3651,0.1506 c 2.63001,0.16747 4.03368,0.93775 4.88789,2.6823 0.76966,1.57185 -0.082,3.78067 -1.786,4.63189 -1.59343,0.79601 -5.1657,0.84094 -7.28932,0.0917 -2.13428,-0.75301 -2.1868,-0.73181 -2.1868,0.8829 0,1.29422 0.11218,1.46455 1.18452,1.79858 2.74352,0.85462 6.17072,1.00777 8.47383,0.37866 z"
     id="path2643" />
  <path
     style="fill:#d5e5ff;stroke-width:0.364466"
     d="m 250.57038,375.03553 v -24.23699 h 23.32583 23.32582 v 24.23699 24.23699 h -23.32582 -23.32583 z m 12.02738,-8.38272 c 0,-1.03266 0.13885,-1.27563 0.72893,-1.27563 0.48596,0 0.72894,-0.24298 0.72894,-0.72893 0,-0.48596 -0.24298,-0.72894 -0.72894,-0.72894 -0.68033,0 -0.72893,-0.24297 -0.72893,-3.64466 v -3.64466 h -1.08796 c -0.97071,0 -1.34387,0.38269 -3.46243,3.55076 -1.30595,1.95292 -2.37446,3.92104 -2.37446,4.3736 0,0.77576 0.14593,0.82283 2.55126,0.82283 h 2.55126 v 1.27563 c 0,1.11769 0.11281,1.27563 0.91117,1.27563 0.79835,0 0.91116,-0.15794 0.91116,-1.27563 z"
     id="path9012" />
  <path
     style="fill:#d5e5ff;stroke-width:0.364466"
     d="m 258.01429,362.91703 c 0.29577,-0.55125 1.03732,-1.74032 1.64789,-2.64238 l 1.11013,-1.64009 0.002,2.64237 0.002,2.64238 h -1.64945 -1.64946 z"
     id="path9090" />
  <path
     style="fill:#d5e5ff;stroke-width:0.364466"
     d="m 250.57038,326.01485 v -23.32583 h 23.32583 23.32582 v 23.32583 23.32582 h -23.32582 -23.32583 z m 15.67204,-6.56039 c 0,-0.56695 -0.24298,-0.72893 -1.0934,-0.72893 h -1.09339 v -4.97047 -4.97048 l -2.0539,0.2414 c -2.44869,0.2878 -2.68416,0.40801 -2.68416,1.37038 0,0.66077 0.15512,0.71324 1.45786,0.49315 l 1.45787,-0.24631 v 4.04117 4.04116 h -1.27564 c -1.03265,0 -1.27563,0.13884 -1.27563,0.72893 0,0.67494 0.24298,0.72893 3.2802,0.72893 3.03721,0 3.28019,-0.054 3.28019,-0.72893 z m 10.56952,-0.5467 c 0,-1.03265 0.13884,-1.27563 0.72893,-1.27563 0.48595,0 0.72893,-0.24298 0.72893,-0.72893 0,-0.48596 -0.24298,-0.72893 -0.72893,-0.72893 -0.68034,0 -0.72893,-0.24298 -0.72893,-3.64466 v -3.64466 h -1.05781 c -0.93744,0 -1.31072,0.39433 -3.2802,3.46523 -1.22231,1.90588 -2.22238,3.874 -2.22238,4.37359 0,0.875 0.087,0.90836 2.36903,0.90836 h 2.36903 v 1.27563 c 0,1.1177 0.11281,1.27563 0.91116,1.27563 0.79836,0 0.91117,-0.15793 0.91117,-1.27563 z m 13.16375,-0.40564 c 3.20644,-3.07196 1.79056,-10.34611 -2.01382,-10.34611 -2.57046,0 -4.0064,1.37161 -4.0064,3.8269 0,0.67836 0.21483,1.63479 0.4774,2.12541 0.8188,1.52994 3.20495,2.17509 4.82936,1.30573 0.66641,-0.35665 0.71429,-0.31164 0.48465,0.45559 -0.5669,1.89402 -2.29909,2.65984 -4.46286,1.97309 -0.699,-0.22186 -0.8183,-0.127 -0.8183,0.65066 0,1.03896 0.78898,1.33418 3.04751,1.14033 0.92759,-0.0796 1.76711,-0.46542 2.46246,-1.1316 z"
     id="path9129" />
  <path
     style="fill:#d5e5ff;stroke-width:0.364466"
     d="m 250.57038,424.05621 v -23.32583 h 23.32583 23.32582 v 23.32583 23.32582 h -23.32582 -23.32583 z m 28.16091,0.99527 c 2.15816,-5.65903 3.92126,-10.65818 3.91801,-11.10921 l -0.006,-0.82005 h -7.10708 -7.10709 v 1.44786 1.44786 l 5.06578,0.10112 5.06578,0.10113 -3.60385,9.29388 c -1.98211,5.11164 -3.60567,9.41689 -3.60791,9.56723 -0.002,0.15034 0.77497,0.2702 1.72714,0.26635 l 1.73121,-0.007 3.92392,-10.28916 z"
     id="path9168" />
  <path
     style="fill:#d5e5ff;stroke-width:0.364466"
     d="m 152.52903,375.03553 v -24.23699 h 23.32582 23.32583 v 24.23699 24.23699 h -23.32583 -23.32582 z m 13.12077,-6.56039 c 0,-1.03266 0.13885,-1.27563 0.72893,-1.27563 0.48596,0 0.72894,-0.24298 0.72894,-0.72893 0,-0.48596 -0.24298,-0.72894 -0.72894,-0.72894 -0.68033,0 -0.72893,-0.24297 -0.72893,-3.64466 v -3.64466 h -1.10418 c -0.99777,0 -1.33147,0.35024 -3.46243,3.63405 -1.29703,1.99872 -2.35824,3.96684 -2.35824,4.37359 0,0.67265 0.23077,0.73955 2.55126,0.73955 h 2.55126 v 1.27563 c 0,1.11769 0.11281,1.27563 0.91117,1.27563 0.79835,0 0.91116,-0.15794 0.91116,-1.27563 z m 11.69095,0.21027 c 1.28648,-1.28648 1.39299,-2.79342 0.29601,-4.188 -0.71074,-0.90356 -0.72462,-1.0275 -0.18223,-1.62683 0.81151,-0.89671 0.74279,-2.80472 -0.13254,-3.68005 -2.3108,-2.3108 -6.98914,-0.593 -6.41101,2.354 0.1186,0.60453 0.47268,1.29092 0.78684,1.52531 0.50992,0.38043 0.48984,0.50754 -0.18714,1.18452 -0.50269,0.50269 -0.75835,1.22635 -0.75835,2.14655 0,2.23837 1.27839,3.32003 3.94604,3.33878 1.26548,0.009 1.78748,-0.19938 2.64238,-1.05428 z"
     id="path9207" />
  <path
     style="fill:#d5e5ff;stroke-width:0.364466"
     d="m 152.52903,326.01485 v -23.32583 h 23.32582 23.32583 v 23.32583 23.32582 h -23.32583 -23.32582 z m 11.76734,7.64987 c 1.36715,-1.0754 2.22962,-3.61913 1.97009,-5.81045 -0.39216,-3.31118 -1.67371,-4.82804 -4.07908,-4.82804 -1.68978,0 -2.71278,0.66322 -3.34056,2.16571 -1.3777,3.29729 1.59306,6.57703 4.59909,5.07742 1.2795,-0.6383 1.28236,-0.6333 0.58781,1.02898 -0.59208,1.41705 -1.67966,1.85632 -3.67107,1.48273 -1.08761,-0.20404 -1.27324,-0.13904 -1.27324,0.44584 0,1.021 0.30434,1.17066 2.38063,1.17066 1.34617,0 2.16438,-0.21216 2.82633,-0.73285 z m 2.08236,-14.21026 c 0,-0.59009 -0.24297,-0.72893 -1.27563,-0.72893 h -1.27563 v -4.97106 -4.97106 l -1.83101,0.21686 c -2.20979,0.26171 -2.54258,0.44241 -2.54258,1.38056 0,0.62997 0.16559,0.69288 1.27563,0.48463 l 1.27563,-0.23931 v 4.04969 4.04969 h -1.0934 c -0.85042,0 -1.09339,0.16198 -1.09339,0.72893 0,0.67494 0.24297,0.72893 3.28019,0.72893 3.03722,0 3.28019,-0.054 3.28019,-0.72893 z m 9.84059,-0.91117 c 0,-1.03265 0.13884,-1.27563 0.72893,-1.27563 0.48595,0 0.72893,-0.24297 0.72893,-0.72893 0,-0.48595 -0.24298,-0.72893 -0.72893,-0.72893 -0.68034,0 -0.72893,-0.24298 -0.72893,-3.64466 v -3.64466 h -1.04524 c -0.91553,0 -1.3226,0.42062 -3.2802,3.38939 -1.34843,2.04495 -2.23495,3.77979 -2.23495,4.3736 0,0.96834 0.0382,0.98419 2.36903,0.98419 h 2.36903 v 1.27563 c 0,1.1177 0.11281,1.27564 0.91116,1.27564 0.79836,0 0.91117,-0.15794 0.91117,-1.27564 z m 13.3407,0.89684 c 0.54796,-0.20834 1.20946,-0.65936 1.46999,-1.00228 0.70687,-0.93039 0.60321,-3.14492 -0.19325,-4.1285 -0.67719,-0.8363 -0.67719,-0.86871 0,-1.72962 0.96303,-1.2243 0.86293,-2.12019 -0.37523,-3.35835 -1.3473,-1.3473 -3.76398,-1.48962 -5.26364,-0.30998 -1.12524,0.88511 -1.32512,2.97547 -0.38397,4.01544 0.5284,0.58388 0.51324,0.69997 -0.18223,1.39544 -1.40705,1.40705 -0.71985,4.36297 1.19386,5.13525 1.08455,0.43767 2.55557,0.43082 3.73447,-0.0174 z"
     id="path9246" />
  <path
     style="fill:#d5e5ff;stroke-width:0.364466"
     d="m 186.49726,312.45671 c -0.56219,-0.56219 -0.56219,-1.84328 0,-2.40547 0.95645,-0.95645 3.2073,-0.11238 3.2073,1.20273 0,1.31512 -2.25085,2.15919 -3.2073,1.20274 z"
     id="path9285" />
  <path
     style="fill:#d5e5ff;stroke-width:0.364466"
     d="m 186.29862,317.69455 c -1.69107,-1.86862 0.41985,-4.18614 2.70097,-2.96533 0.97491,0.52176 0.97491,2.7328 0,3.25455 -1.05108,0.56252 -2.02448,0.45829 -2.70097,-0.28922 z"
     id="path9363" />
  <path
     style="fill:#d5e5ff;stroke-width:0.364466"
     d="m 172.42029,313.71412 c 1.93009,-3.05064 1.9767,-3.0588 1.9767,-0.34624 v 2.44192 h -1.6513 -1.6513 z"
     id="path9402" />
  <path
     style="fill:#d5e5ff;stroke-width:0.364466"
     d=""
     id="path9441" />
  <path
     style="fill:#d5e5ff;stroke-width:0.364466"
     d="m 161.21358,328.91732 c -0.93102,-0.54326 -1.20357,-2.40222 -0.50788,-3.46398 0.73844,-1.127 2.54859,-1.23843 3.10895,-0.19138 0.6537,1.22145 0.45074,2.8469 -0.43274,3.46572 -0.93067,0.65186 -1.31812,0.68575 -2.16833,0.18964 z"
     id="path9480" />
  <path
     style="fill:#d5e5ff;stroke-width:0.364466"
     d="m 161.31441,364.3749 c 0.45463,-0.75172 1.20605,-1.93786 1.66983,-2.63587 l 0.84323,-1.26912 v 2.63587 2.63586 h -1.66982 -1.66982 z"
     id="path9519" />
  <path
     style="fill:#d5e5ff;stroke-width:0.364466"
     d="m 172.93176,362.08322 c -0.87119,-1.62782 0.82563,-3.10051 2.52468,-2.1912 0.9271,0.49617 1.05644,2.37879 0.18637,2.71267 -1.14744,0.44031 -2.31669,0.2154 -2.71105,-0.52147 z"
     id="path9558" />
  <path
     style="fill:#d5e5ff;stroke-width:0.364466"
     d="m 173.16233,367.82124 c -0.44959,-0.32875 -0.60875,-0.84483 -0.52524,-1.70315 0.0947,-0.9732 0.33246,-1.30188 1.13376,-1.56716 2.0637,-0.68321 3.7322,1.67724 2.2402,3.16924 -0.69505,0.69506 -1.97432,0.74044 -2.84872,0.10107 z"
     id="path9597" />
  <path
     style="fill:#d5e5ff;stroke-width:0.364466"
     d="m 200.63854,273.89621 v -23.32583 h 24.41922 24.41923 v 23.32583 23.32582 h -24.41923 -24.41922 z m 25.01275,-10.38477 c 1.07675,-2.80501 1.95773,-5.30616 1.95773,-5.55811 0,-0.33727 -0.96125,-0.45809 -3.64466,-0.45809 h -3.64466 v 0.91116 c 0,0.88407 0.075,0.91117 2.5203,0.91117 h 2.5203 l -1.79137,4.63596 c -0.98525,2.54977 -1.79136,4.6928 -1.79136,4.76226 0,0.0695 0.43109,0.0744 0.95799,0.011 0.87117,-0.10488 1.13542,-0.57754 2.91573,-5.21534 z m -10.43411,3.64215 c 0,-1.03266 0.13884,-1.27563 0.72893,-1.27563 0.48596,0 0.72893,-0.24298 0.72893,-0.72894 0,-0.48147 -0.24297,-0.72893 -0.71573,-0.72893 -0.65526,0 -0.72455,-0.30023 -0.82005,-3.55354 -0.10328,-3.51827 -0.11335,-3.55355 -1.01418,-3.55355 -0.73517,0 -1.34436,0.62983 -3.17271,3.2802 -1.38783,2.01178 -2.26917,3.66776 -2.27921,4.28247 -0.0162,0.99228 0.007,1.00229 2.35266,1.00229 h 2.36903 v 1.27563 c 0,1.11769 0.11281,1.27563 0.91117,1.27563 0.79835,0 0.91116,-0.15794 0.91116,-1.27563 z m 24.10724,0.29173 c 0.38488,-0.38488 0.79334,-1.27632 0.90769,-1.981 0.16545,-1.01955 0.0263,-1.49239 -0.6815,-2.31522 -0.86325,-1.00359 -0.86971,-1.0537 -0.21957,-1.70383 0.84766,-0.84766 0.86107,-2.53971 0.0283,-3.56815 -0.8124,-1.00327 -3.29493,-1.38031 -4.84923,-0.7365 -1.78632,0.73992 -2.37167,3.06169 -1.09401,4.33936 0.62804,0.62803 0.64371,0.75504 0.14427,1.16953 -1.66246,1.37972 -1.24209,4.3761 0.73973,5.27283 1.49671,0.67722 4.11906,0.42825 5.02433,-0.47702 z"
     id="path9790" />
  <path
     style="fill:#d5e5ff;stroke-width:0.364466"
     d="m 200.63854,225.05776 v -24.41922 h 24.41922 24.41923 v 24.41922 24.41923 h -24.41923 -24.41922 z m 25.74136,-10.0203 c 1.07693,-2.80501 1.95806,-5.30616 1.95806,-5.55811 0,-0.33727 -0.96126,-0.45809 -3.64466,-0.45809 -3.40169,0 -3.64466,0.0486 -3.64466,0.72893 0,0.65951 0.24297,0.72893 2.55126,0.72893 1.40319,0 2.55126,0.0717 2.55126,0.1593 0,0.0876 -0.80037,2.21208 -1.77861,4.72104 -0.97823,2.50895 -1.68202,4.65832 -1.56398,4.77636 0.11805,0.11805 0.52933,0.16671 0.91396,0.10814 0.53451,-0.0814 1.16078,-1.30841 2.65737,-5.2065 z m 13.06625,4.4622 c 0.56038,-0.4869 1.03044,-1.36442 1.15706,-2.16002 0.17661,-1.10962 0.0558,-1.49748 -0.70288,-2.25613 -0.89524,-0.89525 -0.90039,-0.93043 -0.22558,-1.54113 0.74799,-0.67692 0.90788,-2.34069 0.32892,-3.4225 -0.48614,-0.90835 -2.68024,-1.58891 -4.20212,-1.30341 -1.39385,0.26149 -2.72554,1.70141 -2.72554,2.94706 0,0.4519 0.30641,1.20003 0.68092,1.66252 0.66803,0.82499 0.6664,0.85264 -0.0859,1.46182 -0.89268,0.72284 -1.01089,3.21596 -0.19887,4.19437 1.20737,1.45479 4.51415,1.68585 5.97399,0.41742 z"
     id="path9868" />
  <path
     style="fill:#d5e5ff;stroke-width:0.364466"
     d="m 152.52903,225.05776 v -24.41922 h 23.32582 23.32583 v 24.41922 24.41923 h -23.32583 -23.32582 z m 12.22363,7.85365 c 2.04717,-0.85536 2.58359,-3.11441 1.13847,-4.79446 -0.827,-0.96145 -0.83236,-1.01029 -0.18223,-1.66042 0.97405,-0.97405 0.85285,-2.70675 -0.26771,-3.82731 -0.83793,-0.83793 -1.15415,-0.91958 -2.97627,-0.76847 -1.55024,0.12856 -2.19889,0.36684 -2.70712,0.99448 -0.8692,1.07342 -0.85256,2.74729 0.0362,3.63601 0.62804,0.62804 0.6437,0.75504 0.14426,1.16954 -1.6656,1.38233 -1.24196,4.39067 0.73974,5.25296 1.48926,0.64803 2.51959,0.64744 4.0747,-0.002 z m 1.56031,-13.59399 c 0.10211,-0.71901 -0.0438,-0.82005 -1.18452,-0.82005 h -1.30098 v -4.73805 -4.73806 h -1.04784 c -2.27319,0 -3.32575,0.41089 -3.32575,1.29827 0,0.75953 0.12589,0.82227 1.27563,0.63569 l 1.27563,-0.20701 v 3.87458 3.87458 h -1.0934 c -0.92778,0 -1.09339,0.14016 -1.09339,0.92536 v 0.92535 l 3.18907,-0.1053 c 2.9926,-0.0988 3.19626,-0.15583 3.30555,-0.92536 z m 11.23696,-0.22979 c 1.09665,-1.27493 1.14119,-3.22098 0.0976,-4.26457 -0.72216,-0.72216 -0.72825,-0.7921 -0.12674,-1.45677 0.70631,-0.78046 0.78924,-2.67133 0.15089,-3.44049 -0.69913,-0.84241 -2.85189,-1.36052 -4.57765,-1.10173 -1.40432,0.21059 -1.61277,0.35763 -1.61277,1.13763 0,0.79379 0.11336,0.86732 0.99576,0.64585 1.74693,-0.43845 3.0953,-0.27896 3.61165,0.42719 0.27231,0.3724 0.49511,0.79805 0.49511,0.94587 0,0.67135 -1.25811,1.41424 -2.39506,1.41424 -1.00662,0 -1.2496,0.14174 -1.2496,0.72893 0,0.55397 0.24298,0.72893 1.01231,0.72893 2.38919,0 3.52297,2.31538 1.71413,3.50057 -0.89164,0.58422 -2.36083,0.5669 -3.91095,-0.0461 -0.50599,-0.20011 -0.63782,-0.0614 -0.63782,0.6712 0,1.12511 0.57207,1.32539 3.4263,1.1995 1.82798,-0.0806 2.27912,-0.2442 3.00684,-1.09023 z m 9.54614,-0.68137 c 0.39824,-1.0524 1.31208,-3.44461 2.03075,-5.31602 0.71867,-1.87142 1.30667,-3.55252 1.30667,-3.73578 0,-0.18326 -1.6401,-0.3332 -3.64466,-0.3332 -3.37447,0 -3.64466,0.0528 -3.64466,0.71296 0,0.62827 0.29821,0.72569 2.5103,0.82005 l 2.51031,0.10709 -1.54761,4.00912 c -2.27255,5.88712 -2.22393,5.64922 -1.15472,5.64922 0.7623,0 1.02676,-0.30975 1.63362,-1.91344 z"
     id="path9946" />
  <path
     style="fill:#d5e5ff;stroke-width:0.364466"
     d="m 200.63854,175.85485 v -23.32582 h 24.41922 24.41923 v 23.32582 23.32583 h -24.41923 -24.41922 z m 27.27081,8.77421 c 3.20704,-1.64975 4.85245,-4.75372 5.09657,-9.61433 0.20273,-4.03657 -0.43065,-7.12841 -1.90353,-9.29206 -1.49824,-2.20089 -3.06974,-2.9886 -5.96234,-2.9886 -4.39833,0 -6.92627,2.32042 -7.27612,6.67878 -0.31692,3.9482 1.07918,6.58492 4.09681,7.73736 2.15863,0.82439 5.12555,0.58436 6.7084,-0.54273 l 1.17555,-0.83706 -0.24897,1.40896 c -0.80991,4.58343 -4.34169,6.62382 -8.72932,5.04312 -0.80182,-0.28887 -1.50829,-0.52769 -1.56993,-0.53071 -0.0616,-0.003 -0.0616,0.69156 0,1.5435 0.10845,1.499 0.16499,1.56338 1.75217,1.99516 2.0662,0.56211 5.11915,0.29449 6.86071,-0.60139 z"
     id="path10024" />
  <path
     style="fill:#d5e5ff;stroke-width:0.364466"
     d="m 250.57038,175.85485 v -23.32582 h 23.32583 23.32582 v 23.32582 23.32583 h -23.32582 -23.32583 z m 29.11251,8.81753 c 0.72622,-0.37508 1.81243,-1.37852 2.4138,-2.22988 0.98513,-1.39463 1.0934,-1.82452 1.0934,-4.34113 0,-2.24906 -0.16354,-3.07845 -0.83947,-4.25734 -1.84804,-3.22318 -5.90564,-4.35961 -9.309,-2.6072 l -1.76576,0.90919 0.2472,-1.31771 c 0.75636,-4.03173 3.36722,-5.96745 7.09533,-5.26054 1.11124,0.21071 2.30746,0.49692 2.65826,0.63603 0.54344,0.2155 0.63781,0.0367 0.63781,-1.20828 0,-1.31127 -0.11778,-1.50226 -1.14778,-1.86133 -1.8206,-0.63466 -5.75104,-0.48053 -7.41717,0.29086 -3.36226,1.55668 -4.98621,4.67168 -5.21714,10.00731 -0.27205,6.28603 1.55843,10.40537 5.21714,11.74069 1.78954,0.65313 4.51682,0.43753 6.33338,-0.50067 z"
     id="path10063" />
  <path
     style="fill:#d5e5ff;stroke-width:0.364466"
     d="m 250.57038,225.05776 v -24.41922 h 23.32583 23.32582 v 24.41922 24.41923 h -23.32582 -23.32583 z m 31.70855,8.74719 v -1.45787 h -4.95248 -4.95248 l 4.18908,-4.50727 c 5.32264,-5.72693 6.17283,-7.38532 5.35093,-10.43761 -1.115,-4.14082 -5.98751,-5.83919 -11.66243,-4.06508 l -2.00456,0.62668 -0.11109,1.72009 c -0.0611,0.94605 -0.0399,1.72009 0.0471,1.72009 0.087,0 1.03903,-0.39788 2.11565,-0.88417 3.04554,-1.37563 5.57528,-1.37373 7.21428,0.005 0.90461,0.76118 1.12137,1.2226 1.12137,2.38713 0,2.17017 -0.74127,3.25748 -5.86909,8.6089 -4.37839,4.56931 -4.70043,5.00254 -4.70043,6.32348 v 1.41809 h 7.10709 7.10709 z"
     id="path10102" />
  <path
     style="fill:#d5e5ff;stroke-width:0.364466"
     d="m 273.16604,181.74115 c -1.88485,-1.88486 -1.88909,-5.34734 -0.009,-7.4514 0.8923,-0.99865 1.29091,-1.16839 2.74385,-1.16839 1.45294,0 1.85155,0.16974 2.74385,1.16839 1.87997,2.10406 1.87573,5.56654 -0.009,7.4514 -1.48399,1.48399 -3.98547,1.48399 -5.46946,0 z"
     id="path10141" />
  <path
     style="fill:#d5e5ff;stroke-width:0.364466"
     d="m 223.0097,174.45044 c -2.68589,-1.68624 -2.57169,-7.1718 0.17892,-8.5942 2.33427,-1.20709 4.71019,-0.37723 5.65086,1.97373 0.72197,1.80439 0.74627,2.94545 0.0955,4.48304 -1.06856,2.52463 -3.76131,3.49599 -5.92526,2.13743 z"
     id="path10180" />
  <path
     style="fill:#d5e5ff;stroke-width:0.364466"
     d="m 200.63854,124.10068 v -23.32583 h 24.41922 24.41923 v 23.32583 23.32582 h -24.41923 -24.41922 z m 24.00278,10.29616 c 2.98888,-7.47208 7.70576,-20.06498 7.70576,-20.57248 0,-0.61205 -0.50709,-0.65766 -7.31132,-0.65766 h -7.31132 l 0.11312,1.36674 0.11312,1.36675 5.1469,0.10084 5.14691,0.10084 -3.59793,9.32282 c -1.97886,5.12755 -3.59792,9.46943 -3.59792,9.64863 0,0.17919 0.71814,0.3258 1.59588,0.3258 1.40079,0 1.64489,-0.12252 1.9968,-1.00228 z"
     id="path10219" />
  <path
     style="fill:#d5e5ff;stroke-width:0.364466"
     d="m 250.57038,124.10068 v -23.32583 h 23.32583 23.32582 v 23.32583 23.32582 h -23.32582 -23.32583 z m 26.54706,9.63942 c 4.38494,-1.75451 5.44634,-7.46471 1.9354,-10.41232 l -1.38113,-1.15953 1.23879,-1.13527 c 2.756,-2.52568 1.97508,-7.04487 -1.48916,-8.61775 -1.75198,-0.79545 -5.68944,-0.93802 -8.60972,-0.31173 l -1.84027,0.39467 v 1.47015 c 0,1.41546 0.0373,1.46177 1.00229,1.24477 3.87604,-0.8716 5.15162,-0.9924 6.53773,-0.61916 1.89849,0.51121 2.73793,1.47729 2.73793,3.15099 0,2.14814 -0.99569,2.85214 -4.26746,3.01736 l -2.73029,0.13788 v 1.41802 1.41803 h 2.31513 c 2.91898,0 4.62508,0.99547 5.12214,2.98864 0.98994,3.96957 -3.75114,6.21629 -9.16849,4.34479 l -1.91344,-0.66103 v 1.57004 c 0,1.68127 0.12736,1.76714 3.64466,2.4574 1.57552,0.3092 5.29639,-0.068 6.86589,-0.69595 z"
     id="path10258" />
  <path
     style="fill:#d5e5ff;stroke-width:0.364466"
     d="m 172.96255,181.00115 c -0.55601,-1.03891 -0.48158,-1.66835 0.27862,-2.35632 1.59149,-1.44027 4.16839,-0.0624 3.49344,1.868 -0.29177,0.83447 -0.58681,1.00879 -1.86538,1.10217 -1.21185,0.0885 -1.59718,-0.0355 -1.90668,-0.61385 z"
     id="path10492" />
  <path
     style="fill:#d5e5ff;stroke-width:0.364466"
     d="m 173.57694,176.19012 c -0.73216,-0.42644 -0.84496,-1.80467 -0.20046,-2.44917 0.5638,-0.5638 2.20614,-0.5638 2.76994,0 1.50449,1.50448 -0.65591,3.56373 -2.56948,2.44917 z"
     id="path10531" />
  <path
     style="fill:#d5e5ff;stroke-width:0.364466"
     d="m 235.03728,217.93575 c -1.25433,-1.91436 0.98971,-3.86019 2.96168,-2.56811 1.08069,0.70809 1.19149,2.03174 0.242,2.89101 -1.00908,0.91321 -2.49166,0.76377 -3.20368,-0.3229 z"
     id="path10570" />
  <path
     style="fill:#d5e5ff;stroke-width:0.364466"
     d="m 235.26674,212.85288 c -0.66837,-0.80533 -0.15176,-2.32277 0.87884,-2.58143 1.8074,-0.45363 3.19635,1.44976 1.96007,2.68604 -0.60905,0.60905 -2.29829,0.54681 -2.83891,-0.10461 z"
     id="path10609" />
  <path
     style="fill:#d5e5ff;stroke-width:0.364466"
     d="m 161.54956,226.12197 c -0.73216,-0.42645 -0.84496,-1.80467 -0.20046,-2.44918 0.5638,-0.5638 2.20615,-0.5638 2.76995,0 1.50448,1.50449 -0.65592,3.56373 -2.56949,2.44918 z"
     id="path10648" />
  <path
     style="fill:#d5e5ff;stroke-width:0.364466"
     d="m 161.27621,231.25368 c -0.87724,-0.87724 -0.91141,-1.39961 -0.16157,-2.47016 1.09863,-1.56851 3.80623,-0.64823 3.80623,1.29368 0,0.85021 -1.25594,1.90542 -2.26789,1.90542 -0.35631,0 -0.97586,-0.32802 -1.37677,-0.72894 z"
     id="path10687" />
  <path
     style="fill:#d5e5ff;stroke-width:0.364466"
     d="m 211.58822,262.1648 c 0.80171,-1.2404 1.53618,-2.3338 1.63214,-2.42977 0.096,-0.096 0.17449,0.91891 0.17449,2.25529 v 2.42977 h -1.63215 -1.63215 z"
     id="path10882" />
  <path
     style="fill:#d5e5ff;stroke-width:0.364466"
     d="m 235.17169,261.1107 c -0.73215,-0.42644 -0.84496,-1.80467 -0.20045,-2.44917 0.5638,-0.5638 2.20614,-0.5638 2.76994,0 0.24055,0.24055 0.43736,0.78178 0.43736,1.20274 0,1.46791 -1.53448,2.10401 -3.00685,1.24643 z"
     id="path10921" />
  <path
     style="fill:#d5e5ff;stroke-width:0.364466"
     d="m 234.89834,266.24242 c -0.40091,-0.40091 -0.72893,-0.97494 -0.72893,-1.27563 0,-0.83245 1.3522,-2.00456 2.31254,-2.00456 1.85908,0 2.73284,2.40385 1.25103,3.44176 -1.09022,0.76362 -1.95896,0.7141 -2.83464,-0.16157 z"
     id="path10960" />
  <path
     style="fill:#80b3ff;stroke-width:0.364466"
     d="M 2.7334951,225.05776 V 200.63854 H 26.05932 49.385145 v 24.41922 24.41923 H 26.05932 2.7334951 Z m 27.6994169,7.67474 v -2.5303 l 1.548981,-0.11207 c 1.503558,-0.10879 1.552297,-0.15215 1.662098,-1.47882 l 0.113117,-1.36675 H 32.09501 30.432912 v -7.10709 -7.10709 h -2.018089 -2.01809 l -4.542299,6.93111 c -4.107149,6.26712 -4.542298,7.08763 -4.542298,8.56496 v 1.63384 h 4.920291 4.920291 v 2.55126 2.55126 h 1.640097 1.640097 z"
     id="path11075" />
  <path
     style="fill:#80b3ff;stroke-width:0.364466"
     d="m 20.462096,226.78898 c 0.83058,-1.36482 6.36149,-9.90629 6.512394,-10.0572 0.09802,-0.098 0.178228,2.22725 0.178228,5.16728 v 5.3455 h -3.483937 c -2.69204,0 -3.420918,-0.10355 -3.206685,-0.45558 z"
     id="path11229" />
  <path
     style="fill:#d5e5ff;stroke-width:0.364466"
     d="m 100.77485,225.05776 v -24.41922 h 23.32583 23.32582 v 24.41922 24.41923 h -23.32582 -23.32583 z m 27.23497,9.52713 c 3.43966,-1.75479 5.01687,-5.16359 4.9983,-10.80276 -0.0185,-5.632 -1.68407,-9.32614 -4.7898,-10.6238 -2.41191,-1.00776 -6.41665,-0.39918 -8.24333,1.2527 -2.20229,1.99155 -2.81516,6.93662 -1.23096,9.93237 1.59982,3.02531 6.23267,4.26696 9.46229,2.53598 l 1.36135,-0.72964 -0.0277,0.82076 c -0.0346,1.02484 -0.70349,2.78372 -1.45581,3.82827 -1.3324,1.84995 -4.48198,2.42335 -7.44588,1.35557 -0.80183,-0.28887 -1.5083,-0.52768 -1.56994,-0.5307 -0.0616,-0.003 -0.0616,0.69155 0,1.54349 0.10844,1.49872 0.1653,1.56351 1.75217,1.99678 2.20604,0.60232 5.37381,0.34719 7.18934,-0.57902 z"
     id="path11344" />
  <path
     style="fill:#d5e5ff;stroke-width:0.364466"
     d="m 122.38326,223.7777 c -1.25696,-1.25696 -1.27749,-1.32571 -1.13716,-3.80914 0.166,-2.9379 1.03631,-4.2179 3.13565,-4.61174 2.99915,-0.56264 5.01009,1.74392 4.74274,5.43997 -0.13711,1.89547 -0.31085,2.31922 -1.32096,3.22175 -1.73196,1.5475 -3.72028,1.45916 -5.42027,-0.24084 z"
     id="path11383" />
  <path
     style="fill:#d5e5ff;stroke-width:0.364466"
     d="m 302.68902,225.05776 v -24.41922 h 23.32583 23.32582 v 24.41922 24.41923 h -23.32582 -23.32583 z m 26.10281,9.54661 c 2.57365,-1.31352 3.78341,-3.46359 3.78341,-6.72418 0,-4.7407 -3.89615,-8.01812 -8.8383,-7.43472 l -1.73122,0.20436 v -2.34064 -2.34064 l 4.46471,-0.10234 4.46471,-0.10233 0.11312,-1.36675 0.11311,-1.36675 h -6.03569 -6.03569 v 5.64923 c 0,3.10707 0.041,5.64675 0.0911,5.64373 0.0501,-0.003 0.74716,-0.24183 1.54898,-0.5307 2.88134,-1.03804 6.07746,-0.51477 7.65379,1.25308 0.55162,0.61865 0.72893,1.33298 0.72893,2.93667 0,2.44898 -0.84697,3.68194 -3.02246,4.39992 -1.59793,0.52736 -5.05392,0.23614 -6.58334,-0.55475 -1.35522,-0.70081 -1.64046,-0.37128 -1.44498,1.66934 0.11084,1.15701 0.21907,1.24184 2.12136,1.66273 2.75204,0.6089 6.84466,0.34492 8.60844,-0.55526 z"
     id="path11422" />
  <path
     style="fill:#d5e5ff;stroke-width:0.364466"
     d="m 400.73038,225.05776 v -24.41922 h 23.32583 23.32582 v 24.41922 24.41923 h -23.32582 -23.32583 z m 27.73615,10.14931 c 3.19908,-1.08507 4.79181,-3.55402 4.76966,-7.39363 -0.0208,-3.60664 -1.47568,-5.9489 -4.32668,-6.96569 -2.05833,-0.7341 -3.79441,-0.63255 -5.7027,0.33355 l -1.70187,0.86159 0.008,-0.95271 c 0.004,-0.52399 0.31868,-1.63696 0.69839,-2.47328 1.36309,-3.00218 4.13931,-3.78551 8.86084,-2.50015 0.97029,0.26414 1.00228,0.2269 1.00228,-1.16683 0,-1.35555 -0.0823,-1.46436 -1.40904,-1.86185 -2.10484,-0.63062 -5.47149,-0.50933 -7.15591,0.25782 -1.99426,0.90825 -3.96491,3.20197 -4.77471,5.55746 -0.88581,2.57659 -0.9127,8.08048 -0.0533,10.90984 1.3758,4.52953 5.5498,6.83039 9.78504,5.39388 z"
     id="path11500" />
  <path
     style="fill:#d5e5ff;stroke-width:0.364466"
     d="m 424.49791,232.65564 c -3.13336,-0.88007 -3.66921,-6.71007 -0.8229,-8.95303 0.69199,-0.54531 3.45572,-0.6029 4.41051,-0.0919 2.35201,1.25876 2.40017,7.47984 0.0672,8.67516 -1.13551,0.58178 -2.43271,0.71303 -3.65477,0.36978 z"
     id="path11539" />
  <path
     style="fill:#87aade;stroke-width:0.364466"
     d="m 250.57038,326.01485 v -23.32583 h 23.32583 23.32582 v 23.32583 23.32582 h -23.32582 -23.32583 z m 15.67204,-6.56039 c 0,-0.5922 -0.24298,-0.72893 -1.29535,-0.72893 h -1.29536 l 0.11084,-4.95578 0.11084,-4.95578 -1.80139,0.23959 c -2.17028,0.28864 -2.38997,0.40702 -2.38997,1.28784 0,0.57875 0.1971,0.65253 1.27563,0.47751 l 1.27564,-0.20701 v 4.05681 4.05682 h -1.27564 c -0.82004,0 -1.27563,0.17355 -1.27563,0.48595 0,0.8548 0.42453,0.97191 3.52318,0.97191 2.79423,0 3.03721,-0.0583 3.03721,-0.72893 z m 10.56952,-0.39859 c 0,-0.821 0.19816,-1.17934 0.72893,-1.31814 0.40091,-0.10484 0.72893,-0.48038 0.72893,-0.83453 0,-0.35416 -0.32802,-0.7297 -0.72893,-0.83454 -0.66547,-0.17402 -0.72893,-0.49714 -0.72893,-3.71138 v -3.52075 l -1.00229,0.11532 c -0.81325,0.0936 -1.43189,0.76306 -3.28019,3.54975 -1.25285,1.88893 -2.27791,3.81605 -2.27791,4.28248 0,0.80078 0.13205,0.84805 2.36903,0.84805 2.35831,0 2.36903,0.005 2.36903,1.03265 0,1.20584 0.23771,1.51861 1.15414,1.51861 0.50395,0 0.66819,-0.27714 0.66819,-1.12752 z m 12.61932,-0.14424 c 2.68518,-1.7594 3.03515,-7.20068 0.61859,-9.61773 -1.11287,-1.11309 -1.37838,-1.21135 -2.76912,-1.02481 -2.08001,0.27898 -3.17947,1.56323 -3.17947,3.71382 0,2.22594 1.19766,3.60337 3.14079,3.61219 0.77827,0.004 1.64055,-0.0697 1.91617,-0.16279 0.96852,-0.32702 0.79424,0.66613 -0.3108,1.77117 -1.00295,1.00296 -1.28327,1.09645 -2.74926,0.91691 -1.31935,-0.16158 -1.63244,-0.0913 -1.63244,0.36673 0,1.31263 3.19343,1.58564 4.96554,0.42451 z"
     id="path11732" />
  <path
     style="fill:#87aade;stroke-width:0.364466"
     d="m 250.57038,375.03553 v -24.23699 h 23.32583 23.32582 v 24.23699 24.23699 h -23.32582 -23.32583 z m 11.96448,-8.3331 c 0.0755,-0.66001 0.37697,-1.11116 0.82005,-1.22703 0.9218,-0.24105 0.90181,-1.41848 -0.0282,-1.66169 -0.66503,-0.17391 -0.72893,-0.49714 -0.72893,-3.68717 0,-3.38473 -0.0262,-3.49637 -0.82005,-3.49097 -0.45102,0.003 -1.00349,0.12608 -1.2277,0.27335 -0.78374,0.5148 -4.90557,7.14016 -4.79694,7.71052 0.0844,0.44322 0.67421,0.60028 2.56598,0.68327 l 2.45638,0.10777 v 1.28433 c 0,1.12343 0.10274,1.26974 0.82005,1.16786 0.59657,-0.0847 0.85257,-0.40092 0.93938,-1.16024 z"
     id="path11771" />
  <path
     style="fill:#87aade;stroke-width:0.364466"
     d="m 152.52903,375.03553 v -24.23699 h 23.32582 23.32583 v 24.23699 24.23699 h -23.32583 -23.32582 z m 13.05787,-6.51077 c 0.0754,-0.66001 0.37697,-1.11116 0.82005,-1.22703 0.91481,-0.23923 0.90483,-1.41769 -0.014,-1.65798 -0.63569,-0.16624 -0.7264,-0.56399 -0.82005,-3.59605 -0.1041,-3.37076 -0.11598,-3.41038 -1.05477,-3.51937 -0.84189,-0.0977 -1.22545,0.31259 -3.38499,3.62128 -1.33953,2.05234 -2.38665,3.98805 -2.32694,4.30159 0.0831,0.43663 0.68355,0.5953 2.56494,0.67784 l 2.45637,0.10777 v 1.28433 c 0,1.12343 0.10274,1.26974 0.82005,1.16786 0.59657,-0.0847 0.85257,-0.40092 0.93938,-1.16024 z m 11.73348,0.30791 c 1.05753,-0.95706 1.28613,-2.82154 0.50754,-4.13959 -0.5383,-0.91128 -0.57568,-1.26231 -0.21798,-2.04736 0.93037,-2.04195 0.0362,-3.83052 -2.19132,-4.38327 -1.10891,-0.27516 -3.30178,0.33521 -3.93187,1.09442 -0.6296,0.75862 -0.55912,2.65593 0.12683,3.41389 0.56924,0.62901 0.56121,0.73079 -0.12674,1.60537 -1.39724,1.77631 -0.68991,4.27802 1.45228,5.13648 0.97764,0.39177 3.6564,-0.024 4.38126,-0.67994 z"
     id="path11810" />
  <path
     style="fill:#87aade;stroke-width:0.364466"
     d="m 152.52903,326.01485 v -23.32583 h 23.32582 23.32583 v 23.32583 23.32582 h -23.32583 -23.32582 z m 11.10801,7.95567 c 1.62059,-0.73839 2.5284,-2.67956 2.51912,-5.38661 -0.0132,-3.85682 -1.22345,-5.48479 -4.07736,-5.48479 -4.52705,0 -4.71473,7.2372 -0.19101,7.36582 0.56761,0.0161 1.40026,-0.0875 1.85032,-0.23037 1.02659,-0.32583 1.02479,-0.11135 -0.0119,1.4142 -0.77673,1.14307 -0.95259,1.21759 -2.73349,1.15826 -1.56714,-0.0522 -1.90336,0.0451 -1.90336,0.55096 0,0.3379 0.20502,0.69709 0.45559,0.7982 0.85727,0.34591 3.15406,0.2417 4.09204,-0.18567 z m 2.6732,-14.60718 c 0.0977,-0.51119 -0.1366,-0.63781 -1.18041,-0.63781 h -1.30236 v -4.96725 -4.96724 l -1.89251,0.25105 c -2.28134,0.30263 -2.48108,0.4104 -2.48108,1.33874 0,0.62997 0.16559,0.69288 1.27563,0.48463 l 1.27563,-0.23931 v 4.04969 4.04969 h -1.0934 c -0.85738,0 -1.09339,0.16041 -1.09339,0.74312 0,0.69919 0.18827,0.7369 3.18497,0.63782 2.69395,-0.0891 3.20378,-0.20364 3.30692,-0.74313 z m 9.84617,-0.77354 c 0.0753,-0.6569 0.37774,-1.10824 0.82005,-1.22391 0.92181,-0.24106 0.90181,-1.41849 -0.0282,-1.66169 -0.66547,-0.17403 -0.72893,-0.49714 -0.72893,-3.71138 v -3.52076 l -1.00228,0.11533 c -0.80972,0.0932 -1.43994,0.76758 -3.2802,3.51022 -1.25285,1.86719 -2.27791,3.79431 -2.27791,4.28247 0,0.84943 0.10183,0.88758 2.36903,0.88758 2.35831,0 2.36903,0.005 2.36903,1.03266 0,0.56796 0.11501,1.14766 0.25557,1.28823 0.55108,0.55108 1.39003,-0.006 1.50385,-0.99875 z m 14.55043,-0.0733 c 0.96667,-1.09037 1.0607,-2.72951 0.22936,-3.99829 -0.52742,-0.80494 -0.5332,-1.02021 -0.054,-2.0097 1.03611,-2.13935 -0.0231,-3.90251 -2.54793,-4.24115 -2.95058,-0.39576 -4.69727,1.5486 -3.74842,4.17262 0.39119,1.0818 0.36426,1.42658 -0.19211,2.4597 -0.50697,0.94138 -0.57246,1.46591 -0.30245,2.42259 0.70783,2.50792 4.79651,3.246 6.61552,1.19423 z"
     id="path11849" />
  <path
     style="fill:#87aade;stroke-width:0.364466"
     d="m 171.88597,314.44305 c 0.45575,-0.75171 0.99863,-1.6506 1.2064,-1.99752 0.86391,-1.4425 1.30462,-1.04088 1.30462,1.18891 v 2.17536 h -1.66983 -1.66982 z"
     id="path11888" />
  <path
     style="fill:#87aade;stroke-width:0.364466"
     d="m 160.90636,328.56073 c -0.71288,-0.71288 -0.92547,-2.91035 -0.28156,-2.91035 0.15782,0 0.24594,-0.14761 0.19583,-0.32802 -0.0501,-0.18041 0.0729,-0.35836 0.27335,-0.39546 0.20045,-0.0371 0.5585,-0.22847 0.79565,-0.42529 0.77433,-0.64264 2.30231,0.69848 2.30231,2.02076 0,2.3987 -1.80526,3.51868 -3.28558,2.03836 z"
     id="path11927" />
  <path
     style="fill:#87aade;stroke-width:0.364466"
     d="m 186.46992,312.57357 c -0.64844,-0.42122 -0.64844,-2.21798 0,-2.63919 1.15867,-0.75263 3.23464,0.0943 3.23464,1.31959 0,1.22532 -2.07597,2.07223 -3.23464,1.3196 z"
     id="path11966" />
  <path
     style="fill:#87aade;stroke-width:0.364466"
     d=""
     id="path12005" />
  <path
     style="fill:#87aade;stroke-width:0.364466"
     d="m 172.78254,367.36973 c -0.57104,-0.87151 -0.56401,-0.98057 0.12561,-1.94906 0.68955,-0.96839 1.10194,-1.07875 3.0213,-0.80858 0.14126,0.0199 0.36349,0.60468 0.49385,1.29955 0.28968,1.54414 -0.39877,2.38127 -1.95836,2.38127 -0.75091,0 -1.26087,-0.27983 -1.6824,-0.92318 z"
     id="path12044" />
  <path
     style="fill:#87aade;stroke-width:0.364466"
     d="m 173.23737,362.44619 c -0.68573,-0.40004 -0.56622,-2.13958 0.17958,-2.61378 1.42456,-0.90578 3.57219,0.82614 2.80411,2.26132 -0.42412,0.79247 -1.92543,0.96982 -2.98369,0.35246 z"
     id="path12122" />
  <path
     style="fill:#87aade;stroke-width:0.364466"
     d="m 160.54728,365.58046 c 0,-0.25081 2.97936,-4.94134 3.13867,-4.94134 0.0778,0 0.14152,1.14807 0.14152,2.55126 v 2.55126 h -1.64009 c -0.90206,0 -1.6401,-0.0725 -1.6401,-0.16118 z"
     id="path12161" />
  <path
     style="fill:#87aade;stroke-width:0.364466"
     d="m 257.95082,364.02273 c 0.55126,-0.0835 1.45331,-0.0835 2.00456,0 0.55126,0.0835 0.10023,0.15183 -1.00228,0.15183 -1.10251,0 -1.55353,-0.0683 -1.00228,-0.15183 z"
     id="path12200" />
  <path
     style="fill:#87aade;stroke-width:0.364466"
     d="m 257.49524,363.75813 c 0,-0.25081 2.97936,-4.94134 3.13867,-4.94134 0.0778,0 0.14152,1.14807 0.14152,2.55126 v 2.55126 h -1.6401 c -0.90205,0 -1.64009,-0.0725 -1.64009,-0.16118 z"
     id="path12239" />
  <path
     style="fill:#87aade;stroke-width:0.364466"
     d="m 273.22118,313.80524 c 0.81696,-1.30297 1.54907,-2.36903 1.6269,-2.36903 0.0778,0 0.14153,1.06606 0.14153,2.36903 v 2.36903 h -1.6269 -1.6269 z"
     id="path12278" />
  <path
     style="fill:#87aade;stroke-width:0.364466"
     d="m 286.25979,313.77118 c -0.62101,-0.74827 -0.62101,-2.82828 0,-3.57654 0.61605,-0.74231 1.9974,-0.74636 2.73572,-0.008 0.73818,0.73818 0.73818,2.85441 0,3.59259 -0.73832,0.73833 -2.11967,0.73428 -2.73572,-0.008 z"
     id="path12317" />
  <path
     style="fill:#87aade;stroke-width:0.364466"
     d="m 200.63854,273.89621 v -23.32583 h 24.41922 24.41923 v 23.32583 23.32582 h -24.41923 -24.41922 z m 22.88252,-5.55811 c 0.32159,-0.39081 4.08796,-9.90609 4.08796,-10.32773 0,-0.0829 -1.65212,-0.15067 -3.67138,-0.15067 -3.29991,0 -3.65908,0.0645 -3.54978,0.63782 0.0989,0.51858 0.57909,0.65792 2.56867,0.74537 l 2.44706,0.10756 -0.86095,2.26147 c -2.96762,7.79512 -2.79131,7.18176 -2.06443,7.18176 0.36738,0 0.83667,-0.20501 1.04285,-0.45558 z m -8.30388,-1.0364 c 0,-0.821 0.19816,-1.17934 0.72893,-1.31814 0.93676,-0.24497 0.94717,-1.42138 0.0147,-1.66522 -0.6307,-0.16493 -0.72656,-0.56396 -0.82004,-3.41382 -0.10391,-3.16749 -0.12325,-3.22907 -1.04786,-3.33656 -0.82638,-0.0961 -1.2178,0.30877 -3.18908,3.29828 -1.23589,1.87428 -2.24708,3.76867 -2.24708,4.20975 0,0.74406 0.17107,0.80197 2.36903,0.80197 h 2.36903 v 1.27563 c 0,1.11769 0.11281,1.27563 0.91117,1.27563 0.77555,0 0.91116,-0.16781 0.91116,-1.12752 z m 23.11539,0.61609 c 2.06718,-0.86372 2.43996,-3.18802 0.86444,-5.38981 -0.35644,-0.49813 -0.32162,-0.74854 0.18137,-1.30433 1.28079,-1.41527 0.3113,-3.79119 -1.75902,-4.31081 -1.47496,-0.37019 -3.35859,0.16905 -4.16309,1.1918 -0.92145,1.17144 -0.93251,1.83197 -0.053,3.16599 0.67308,1.02092 0.67303,1.05578 -0.002,1.73122 -0.99337,0.99336 -0.92331,3.26223 0.13073,4.23405 1.32614,1.22269 2.95348,1.45382 4.80098,0.68189 z"
     id="path12356" />
  <path
     style="fill:#87aade;stroke-width:0.364466"
     d="m 210.68168,263.41781 c 0.35797,-0.55125 0.99187,-1.53328 1.40866,-2.18228 0.4168,-0.64901 0.88082,-1.18204 1.03116,-1.18452 0.15034,-0.002 0.27335,0.97955 0.27335,2.18229 v 2.18679 h -1.68201 -1.68202 z"
     id="path12590" />
  <path
     style="fill:#87aade;stroke-width:0.364466"
     d="m 234.97124,261.067 c -0.59778,-0.59778 -0.55048,-1.93077 0.0873,-2.46007 0.70661,-0.58644 2.40952,-0.34472 2.88129,0.40898 0.63311,1.01149 -0.25891,2.48845 -1.50291,2.48845 -0.56558,0 -1.22513,-0.19681 -1.46568,-0.43736 z"
     id="path12629" />
  <path
     style="fill:#87aade;stroke-width:0.364466"
     d="m 234.80723,266.07129 c -0.89405,-1.22953 -0.80017,-1.76259 0.43935,-2.4948 1.40045,-0.82727 2.79034,-0.4992 3.09924,0.73155 0.56232,2.24047 -2.19318,3.61352 -3.53859,1.76325 z"
     id="path12668" />
  <path
     style="fill:#87aade;stroke-width:0.364466"
     d="m 173.22549,181.24374 c -1.38663,-1.38662 -0.58266,-2.99981 1.5283,-3.0666 1.63412,-0.0517 1.80048,0.0866 1.99996,1.66279 0.10433,0.82435 -0.0315,1.14004 -0.56294,1.30872 -0.38523,0.12227 -0.70043,0.34012 -0.70043,0.48412 0,0.52463 -1.63146,0.2444 -2.26489,-0.38903 z"
     id="path13214" />
  <path
     style="fill:#87aade;stroke-width:0.364466"
     d="m 173.57694,176.19012 c -0.73216,-0.42644 -0.84496,-1.80467 -0.20046,-2.44917 0.5638,-0.5638 2.20614,-0.5638 2.76994,0 1.50449,1.50448 -0.65591,3.56373 -2.56948,2.44917 z"
     id="path13253" />
  <text
     x="268.21982"
     y="270.25247"
     style="fill:#0000ff"
     font-size="15px"
     id="text348-6">4</text>
  <path
     style="fill:none;stroke:#000000;stroke-width:1.33242px;stroke-linecap:butt;stroke-linejoin:miter;stroke-opacity:1"
     d="m 279.54417,257.56714 -11.9583,14.77228"
     id="path13477-2" />
  <text
     x="183.05894"
     y="269.31021"
     style="fill:#0000ff"
     font-size="15px"
     id="text348-9">4</text>
  <path
     style="fill:none;stroke:#000000;stroke-width:1.33242px;stroke-linecap:butt;stroke-linejoin:miter;stroke-opacity:1"
     d="m 194.38331,256.62485 -11.9583,14.77228"
     id="path13477-1" />
  <path
     style="fill:#87aade;stroke-width:0.169951"
     d="m 174.13609,281.85727 c -0.31565,-0.0708 -0.77452,-0.32939 -1.01971,-0.57457 -0.37417,-0.37417 -0.44579,-0.59759 -0.44579,-1.39061 0,-0.85234 0.0543,-0.99334 0.55502,-1.44072 0.48385,-0.43232 0.68711,-0.49591 1.58512,-0.49591 0.90587,0 1.08851,0.0584 1.51439,0.48428 0.61782,0.61782 0.78803,1.47561 0.45225,2.27922 -0.40646,0.97281 -1.42416,1.41141 -2.64128,1.13831 z"
     id="path15456" />
  <path
     style="fill:#87aade;stroke-width:0.169951"
     d="m 174.0302,276.47419 c -0.94902,-0.22958 -1.44435,-1.35254 -1.03196,-2.33953 0.29782,-0.71278 0.70859,-0.93784 1.71176,-0.93784 1.31821,0 1.94005,0.50513 1.94904,1.58322 0.007,0.86389 -0.24362,1.28533 -0.93755,1.57527 -0.57524,0.24035 -1.05095,0.27379 -1.69129,0.11888 z"
     id="path15495" />
  <path
     style="fill:#87aade;stroke-width:0.169951"
     d="m 250.59329,274.04658 v -23.45329 h 23.45329 23.45328 v 23.45329 23.45328 h -23.45328 -23.45329 z m 19.62245,-3.74647 2.03248,-2.54174 h 0.8142 0.8142 v 1.27464 1.27464 h 0.76479 0.76478 v -1.27464 -1.27464 h 0.76478 0.76478 v -0.6798 -0.67981 h -0.76478 -0.76478 v -1.25923 -1.25924 l 2.37115,-2.93401 c 1.30414,-1.61371 2.33428,-2.99368 2.28921,-3.06661 -0.0451,-0.0729 -0.30447,-0.29105 -0.57644,-0.48471 l -0.49449,-0.3521 -1.75223,2.17117 -1.75223,2.17117 -0.0506,-1.0622 -0.0506,-1.06219 -0.96911,3.2e-4 -0.96911,3.2e-4 -2.25186,3.41584 c -2.11792,3.21269 -2.25186,3.46538 -2.25186,4.24847 v 0.83261 h 0.6841 0.6841 l -1.61883,2.01673 c -0.89036,1.10919 -1.61883,2.06884 -1.61883,2.13254 0,0.12783 0.88425,0.93982 1.01971,0.93637 0.0467,-0.001 0.99959,-1.14594 2.11746,-2.5439 z m -3.98693,-0.9272 v -0.76478 h -1.18701 -1.18701 l -0.0451,-4.80112 -0.0451,-4.80113 -0.42488,-0.0615 c -0.23368,-0.0338 -1.17054,0.0746 -2.0819,0.24089 l -1.65703,0.30239 v 0.73633 c 0,0.8329 -0.0316,0.82233 1.48707,0.4965 l 1.0622,-0.22789 v 4.05777 4.05776 h -1.18966 -1.18966 v 0.76478 0.76478 h 3.22908 3.22907 z m 20.66648,0.004 c 1.37859,-0.57601 2.09704,-1.72569 2.10327,-3.36568 0.009,-2.48328 -1.80925,-4.07219 -4.35977,-3.80895 l -0.90499,0.0934 v -1.17244 -1.17245 l 2.25186,-0.0474 2.25185,-0.0474 v -0.67981 -0.6798 l -2.93166,-0.0465 -2.93166,-0.0465 v 2.80821 c 0,1.54452 0.0321,2.80821 0.0713,2.80821 0.0392,0 0.54171,-0.12052 1.11671,-0.26783 1.18574,-0.30377 2.04935,-0.21908 2.87286,0.28172 1.40765,0.85605 1.28421,3.23731 -0.20782,4.00887 -0.66597,0.34439 -2.58697,0.33351 -3.43168,-0.0194 -0.89287,-0.37307 -0.93117,-0.35275 -0.93117,0.49384 0,0.81436 0.0473,0.84698 1.69951,1.17227 0.75423,0.14849 2.65511,-0.0297 3.33144,-0.31228 z"
     id="path15573" />
  <path
     style="fill:#87aade;stroke-width:0.169951"
     d="m 270.42666,266.17065 c 0.0747,-0.12546 0.86245,-1.36336 1.75045,-2.75088 l 1.61454,-2.52276 0.0501,1.23029 0.0501,1.2303 -1.23082,1.52058 c -1.1065,1.36699 -1.28837,1.52058 -1.80056,1.52058 -0.43088,0 -0.53662,-0.0556 -0.43384,-0.22811 z"
     id="path15612" />
  <path
     style="fill:#ff0000;stroke-width:0.169951"
     d="m 267.52033,272.19576 c -0.27873,-0.30799 -0.2009,-0.43287 1.88561,-3.02542 5.01342,-6.22931 9.48209,-11.72728 9.61133,-11.8252 0.0281,-0.0213 0.24924,0.11702 0.4913,0.30743 l 0.44013,0.3462 -2.1926,2.71292 c -7.51806,9.30214 -9.58657,11.80532 -9.75535,11.80532 -0.10433,0 -0.32052,-0.14456 -0.48042,-0.32125 z"
     id="path15805" />
  <path
     style="fill:#ff0000;stroke-width:0.169951"
     d="m 274.01153,268.90555 -0.0499,-1.23215 -0.72229,-0.0523 c -0.39726,-0.0287 -0.7223,-0.11101 -0.7223,-0.18281 0,-0.22501 0.74898,-0.83285 1.10469,-0.89653 0.23579,-0.0422 0.35526,-0.21689 0.39006,-0.5703 0.0276,-0.2802 0.31151,-0.81492 0.63094,-1.18827 l 0.58077,-0.67881 0.006,1.23215 0.006,1.23215 h 0.76479 c 0.73645,0 0.76478,0.0189 0.76478,0.50985 0,0.49097 -0.0283,0.50985 -0.76478,0.50985 h -0.76479 v 1.27464 1.27463 h -0.58738 -0.58738 z"
     id="path15844" />
  <path
     style="fill:#ff0000;stroke-width:0.169951"
     d="m 268.94803,267.28989 c 0,-0.73057 0.43347,-1.54906 2.43764,-4.60285 l 2.13708,-3.25628 h 0.85674 0.85674 l -0.002,1.14717 c -0.002,1.05344 -0.0501,1.20814 -0.59483,1.89338 l -0.59318,0.74621 v -1.29855 c 0,-0.7142 -0.0585,-1.29855 -0.1299,-1.29855 -0.13428,0 -3.77899,5.62451 -3.77899,5.83173 0,0.0641 0.27349,0.11657 0.60776,0.11657 h 0.60776 l -0.39532,0.50045 c -0.33548,0.42469 -0.51752,0.50187 -1.20259,0.50985 -0.66025,0.008 -0.80727,-0.045 -0.80727,-0.28913 z"
     id="path15883" />
  <path
     style="fill:#ff0000;stroke-width:0.169951"
     d=""
     id="path15922" />
  <path
     style="fill:#ff0000;stroke-width:0.169951"
     d="m 183.8024,265.99998 c 0,-0.44436 0.49842,-1.32704 2.27921,-4.03634 l 2.2792,-3.46761 0.8649,-0.0514 0.86489,-0.0514 v 1.17065 c 0,1.09372 -0.0419,1.22451 -0.63732,1.99036 l -0.63731,0.81972 -0.085,-1.37289 -0.085,-1.37288 -1.78448,2.8025 c -0.98147,1.54137 -1.80999,2.87354 -1.84114,2.96038 -0.0312,0.0868 0.21968,0.15788 0.55743,0.15788 h 0.61408 l -0.37696,0.50985 c -0.328,0.44364 -0.48315,0.50986 -1.19474,0.50986 -0.81418,0 -0.8178,-0.003 -0.8178,-0.56874 z"
     id="path15961" />
  <path
     style="fill:#ff0000;stroke-width:0.169951"
     d="m 182.46441,271.31069 c -0.27797,-0.22509 -0.35195,-0.39024 -0.24038,-0.53664 0.43898,-0.57601 6.04199,-7.52478 9.79599,-12.14883 l 1.82675,-2.25013 0.41626,0.27275 c 0.22894,0.15001 0.41626,0.33464 0.41626,0.4103 0,0.0756 -0.8255,1.15667 -1.83444,2.40226 -7.39944,9.13499 -9.77536,12.04966 -9.87011,12.10822 -0.0598,0.037 -0.28947,-0.0791 -0.51033,-0.25793 z"
     id="path16000" />
  <path
     style="fill:#ff0000;stroke-width:0.169951"
     d="m 188.73099,267.9381 v -1.34984 l -0.69664,-0.0523 -0.69663,-0.0523 0.36907,-0.46737 c 0.20298,-0.25705 0.51647,-0.46736 0.69663,-0.46736 0.22146,0 0.32757,-0.11787 0.32757,-0.36388 0,-0.20013 0.28679,-0.74057 0.63732,-1.20099 l 0.63732,-0.83711 0.0499,1.20099 0.0499,1.20099 h 0.75734 c 0.72489,0 0.75733,0.0214 0.75733,0.50008 0,0.46683 -0.048,0.50356 -0.72229,0.55234 l -0.72229,0.0523 -0.0496,1.31712 -0.0496,1.31713 h -0.67265 -0.67266 z"
     id="path16039" />
  <path
     style="fill:#87aade;fill-opacity:1;stroke-width:0.480616"
     d="m 186.27299,317.65278 c -1.53003,-1.53003 -0.38054,-3.27483 1.97922,-3.00425 0.98648,0.11311 1.39311,0.45365 1.50781,1.26272 0.30983,2.18559 -1.92622,3.30234 -3.48703,1.74153 z"
     id="path5585" />
  <path
     style="fill:#d7e3f4;stroke-width:0.480616"
     d="m 50.945285,224.92824 v -24.2711 H 75.216388 99.48749 v 24.2711 24.2711 H 75.216388 50.945285 Z m 14.311537,-5.31403 c 1.172004,-0.8209 1.515164,-3.89936 0.543031,-4.87149 -0.379776,-0.37978 -0.368464,-0.81789 0.04087,-1.58274 0.727982,-1.36024 0.261709,-3.19922 -0.979609,-3.86355 -0.534554,-0.28608 -1.989926,-0.45454 -3.23416,-0.37433 -1.739456,0.11212 -2.300744,0.34845 -2.428848,1.02266 -0.147802,0.77788 0.07179,0.84109 1.945682,0.56009 1.617729,-0.2426 2.259089,-0.13988 2.739285,0.43872 0.947581,1.14177 0.276847,2.20958 -1.387919,2.20958 -1.120633,0 -1.456932,0.21485 -1.456932,0.93078 0,0.69881 0.389289,0.96832 1.562001,1.08139 1.300231,0.12536 1.587423,0.37142 1.713688,1.46823 0.202291,1.75722 -1.548895,2.6479 -3.718841,1.89145 -1.307482,-0.45579 -1.479312,-0.41159 -1.479312,0.38049 0,0.4929 0.270347,1.00527 0.60077,1.1386 1.307701,0.52766 4.530187,0.27763 5.540297,-0.42988 z m 11.111116,-4.34138 c 1.084849,-2.79925 1.972453,-5.39458 1.972453,-5.76739 0,-0.52312 -0.822761,-0.67783 -3.604619,-0.67783 -3.284209,0 -3.604619,0.0854 -3.604619,0.96123 0,0.83307 0.32041,0.96123 2.403079,0.96123 1.321694,0 2.40308,0.0864 2.40308,0.19208 0,0.10564 -0.75697,2.15212 -1.682156,4.54773 -0.925186,2.39561 -1.682156,4.47195 -1.682156,4.61408 0,0.14214 0.410059,0.25843 0.911243,0.25843 0.713038,0 1.340272,-1.10703 2.883695,-5.08956 z"
     id="path1453" />
  <path
     style="fill:#d7e3f4;stroke-width:0.480616"
     d="m 350.8496,224.92824 v -24.2711 h 24.27111 24.2711 v 24.2711 24.2711 h -24.2711 -24.27111 z m 14.25662,-5.27556 c 1.44081,-1.00918 1.8211,-2.97217 0.85997,-4.43903 -0.56978,-0.8696 -0.64231,-1.34732 -0.26224,-1.72739 0.82714,-0.82714 0.61428,-2.98736 -0.38333,-3.89018 -1.29954,-1.17607 -5.9779,-0.91373 -6.21802,0.34868 -0.14715,0.77365 0.0786,0.84276 1.91796,0.58721 2.3769,-0.33021 3.45791,0.16735 3.20949,1.47723 -0.11791,0.62171 -0.65749,0.95063 -1.72945,1.05425 -1.16882,0.11298 -1.55806,0.38314 -1.55806,1.08138 0,0.69902 0.33508,0.93078 1.34572,0.93078 2.55279,0 3.29493,1.85955 1.2713,3.18548 -0.99761,0.65365 -1.53844,0.70924 -2.88369,0.29637 -1.46765,-0.45044 -1.6558,-0.40862 -1.6558,0.36802 0,0.4819 0.27035,0.98528 0.60077,1.11861 1.27893,0.51605 4.51997,0.28479 5.48538,-0.39141 z m 11.26997,-4.33676 c 2.58159,-6.66093 2.62778,-6.48831 -1.7361,-6.48831 -3.28421,0 -3.60462,0.0854 -3.60462,0.96123 0,0.83307 0.32041,0.96123 2.40308,0.96123 1.32169,0 2.40308,0.17425 2.40308,0.38722 0,0.21297 -0.75697,2.26447 -1.68216,4.5589 -0.92518,2.29442 -1.68215,4.29798 -1.68215,4.45236 0,0.15438 0.45813,0.21158 1.01807,0.12711 0.80227,-0.12102 1.41292,-1.17236 2.8808,-4.95974 z m 13.4033,4.08524 c 1.17177,-1.17177 1.24375,-3.21676 0.15554,-4.41921 -0.61766,-0.68251 -0.67374,-1.02223 -0.24031,-1.45566 0.80684,-0.80684 0.69859,-3.05497 -0.18987,-3.94343 -0.44097,-0.44097 -1.5752,-0.75525 -2.72569,-0.75525 -3.08459,0 -4.53411,1.92182 -3.25382,4.31405 0.3318,0.61998 0.27977,1.26181 -0.17302,2.13457 -0.82466,1.58953 -0.46987,3.47184 0.8254,4.37908 1.47964,1.03638 4.44581,0.90181 5.60177,-0.25415 z"
     id="path1492" />
  <path
     style="fill:#d7e3f4;stroke-width:0.480616"
     d="m 385.76252,213.06642 c -1.21243,-0.67851 -0.97899,-2.2504 0.38504,-2.59275 1.52038,-0.38159 2.19008,0.0619 2.19008,1.45025 0,1.25549 -1.32375,1.8428 -2.57512,1.1425 z"
     id="path1531" />
  <path
     style="fill:#d7e3f4;stroke-width:0.480616"
     d="m 385.53562,218.50057 c -0.36309,-0.23018 -0.57072,-1.00562 -0.48062,-1.79495 0.11711,-1.0259 0.44865,-1.43081 1.26648,-1.54675 2.219,-0.31456 3.45269,2.25503 1.56714,3.26414 -1.11592,0.59723 -1.51263,0.61031 -2.353,0.0776 z"
     id="path1570" />
  <path
     style="fill:#d5e5ff;stroke-width:0.480616"
     d="M 152.83585,74.97608 V 50.704977 h 23.30988 23.30987 V 74.97608 99.247182 h -23.30987 -23.30988 z m 13.45725,-5.527083 c 0,-0.836681 -0.32041,-0.961232 -2.4728,-0.961232 h -2.47279 l 2.47279,-2.614617 c 2.72547,-2.881782 3.11413,-4.433905 1.51157,-6.036469 -1.58819,-1.588185 -6.24801,-1.241187 -6.24801,0.465264 0,0.74591 0.21725,0.785053 1.88559,0.339746 1.44671,-0.386147 2.06198,-0.356908 2.64339,0.125621 1.2349,1.024871 0.90086,1.874431 -1.88559,4.795739 -1.53258,1.606752 -2.64339,3.207476 -2.64339,3.809248 0,0.971238 0.23162,1.037932 3.60462,1.037932 3.28421,0 3.60462,-0.08544 3.60462,-0.961232 z m 11.28447,-0.18661 c 3.19707,-3.197074 1.42622,-10.38694 -2.55829,-10.38694 -3.23266,0 -4.97226,3.819446 -2.925,6.422115 0.95906,1.219246 1.31411,1.349167 3.1282,1.144693 2.00134,-0.22558 2.03504,-0.205822 1.53202,0.89819 -0.6001,1.317073 -1.88344,1.834414 -3.52716,1.421868 -0.94681,-0.237635 -1.16685,-0.109869 -1.16685,0.677527 0,0.831117 0.31354,0.970389 2.18462,0.970389 1.66218,0 2.45911,-0.274497 3.33246,-1.147842 z"
     id="path3170" />
  <path
     style="fill:#87aade;stroke-width:0.480616"
     d="m 173.51925,64.193819 c -0.72612,-1.356756 -0.61429,-2.180033 0.42372,-3.119418 1.28008,-1.158451 2.92368,-0.277667 2.92368,1.56676 0,2.355345 -2.33755,3.439591 -3.3474,1.552658 z"
     id="path3209" />
  <path
     style="fill:#87aade;stroke-width:0.480616"
     d="M 152.83585,25.953258 V 2.6433874 h 23.30988 23.30987 V 25.953258 49.263129 H 176.14573 152.83585 Z M 166.2931,19.94556 c 0,-0.836681 -0.32041,-0.961232 -2.4728,-0.961232 h -2.47279 l 2.47279,-2.614617 c 2.54238,-2.688187 3.02127,-4.147886 1.87203,-5.706055 -1.38257,-1.8745231 -6.60847,-1.7976817 -6.60847,0.09717 0,0.789746 0.19477,0.828731 1.88559,0.377425 1.44671,-0.386147 2.06198,-0.356908 2.64339,0.125621 1.2349,1.024871 0.90086,1.874431 -1.88559,4.795739 -1.53258,1.606752 -2.64339,3.207476 -2.64339,3.809248 0,0.971237 0.23162,1.037931 3.60462,1.037931 3.28421,0 3.60462,-0.08544 3.60462,-0.96123 z m 11.05417,-0.961232 c 0,-0.961232 0.2403,-1.441848 0.72092,-1.441848 0.39651,0 0.72092,-0.324416 0.72092,-0.720924 0,-0.396508 -0.32441,-0.720923 -0.72092,-0.720923 -0.57674,0 -0.72092,-0.720924 -0.72092,-3.60462 0,-3.4645881 -0.0439,-3.6046189 -1.13103,-3.6046189 -0.86666,0 -1.65303,0.7850163 -3.36431,3.3585509 -1.22831,1.847203 -2.23329,3.793698 -2.23329,4.325543 0,0.83998 0.31564,0.966992 2.40308,0.966992 2.34968,0 2.40308,0.03204 2.40308,1.441848 0,1.121437 0.21361,1.441848 0.96123,1.441848 0.74763,0 0.96124,-0.320411 0.96124,-1.441848 z m 11.57175,-0.443646 c 1.26198,-1.261987 1.40487,-1.719786 1.40487,-4.501035 0,-3.953914 -1.10952,-5.6288688 -3.72868,-5.6288688 -3.66985,0 -5.31817,3.9734708 -2.72432,6.5673158 1.00411,1.004107 1.54674,1.18656 2.88369,0.969602 1.87613,-0.304454 2.08352,0.196888 0.66728,1.613122 -0.76922,0.769226 -1.33684,0.912545 -2.64339,0.667436 -1.30825,-0.245431 -1.66381,-0.1552 -1.66381,0.422227 0,0.893333 0.69936,1.207275 2.80051,1.257135 1.15822,0.02749 1.98622,-0.349303 3.00385,-1.366934 z"
     id="path3285" />
  <path
     style="fill:#87aade;stroke-width:0.480616"
     d="m 185.32806,14.034314 c -1.06717,-0.780335 -0.87876,-3.146223 0.30983,-3.890446 1.91081,-1.1964392 3.69323,2.074719 2.03438,3.73357 -0.94424,0.944244 -1.24033,0.964058 -2.34421,0.156876 z"
     id="path3324" />
  <path
     style="fill:#87aade;stroke-width:0.480616"
     d="m 172.54111,15.85002 c 0,-0.33672 2.48354,-4.074931 2.70725,-4.074931 0.097,0 0.17644,0.973248 0.17644,2.162772 0,2.082669 -0.0534,2.162772 -1.44185,2.162772 -0.79301,0 -1.44184,-0.112776 -1.44184,-0.250613 z"
     id="path3363" />
  <path
     style="fill:#87aade;stroke-width:0.480616"
     d="M 250.8815,25.953258 V 2.6433874 h 23.30987 23.30987 V 25.953258 49.263129 H 274.19137 250.8815 Z m 14.41847,-6.96893 c 0,-0.961232 0.24031,-1.441848 0.72093,-1.441848 0.39651,0 0.72092,-0.324416 0.72092,-0.720924 0,-0.396508 -0.32441,-0.720923 -0.72092,-0.720923 -0.57674,0 -0.72093,-0.720924 -0.72093,-3.60462 0,-3.4830005 -0.0389,-3.6046189 -1.15179,-3.6046189 -0.91165,0 -1.61309,0.7401268 -3.36431,3.5498399 -2.89324,4.642018 -2.87609,5.101246 0.19056,5.101246 2.34968,0 2.40308,0.03204 2.40308,1.441848 0,1.121437 0.21361,1.441848 0.96123,1.441848 0.74763,0 0.96123,-0.320411 0.96123,-1.441848 z m 11.5439,0.120154 c 2.32385,-2.094932 2.56646,-7.156902 0.44469,-9.2786634 -1.20895,-1.2089528 -4.33418,-1.2630937 -5.38834,-0.093347 -2.79778,3.1045524 -0.14851,7.8392864 3.61284,6.4568224 1.50814,-0.554307 1.63761,-0.27296 0.57352,1.246246 -0.55806,0.796741 -1.22977,1.068172 -2.64339,1.068172 -1.31467,0 -1.89521,0.208564 -1.89521,0.680873 0,1.672868 3.40855,1.621313 5.29589,-0.0801 z"
     id="path3402" />
  <path
     style="fill:#87aade;stroke-width:0.480616"
     d="m 273.48146,14.189184 c -1.10132,-1.101322 -1.18276,-1.603325 -0.47472,-2.926307 1.00985,-1.8869336 3.3474,-0.802688 3.3474,1.552658 0,1.914667 -1.57739,2.668939 -2.87268,1.373649 z"
     id="path3441" />
  <path
     style="fill:#87aade;stroke-width:0.480616"
     d="m 261.16577,14.778939 c 0.38315,-0.726932 1.03066,-1.754248 1.4389,-2.282926 0.70038,-0.90698 0.74313,-0.832384 0.75756,1.321694 0.0149,2.223847 -0.0224,2.282926 -1.43891,2.282926 -1.43486,0 -1.44493,-0.01757 -0.75755,-1.321694 z"
     id="path3480" />
  <text
     x="182.35893"
     y="170.14648"
     style="fill:#0000ff"
     font-size="15px"
     id="text348-9-5">4</text>
  <path
     style="fill:none;stroke:#000000;stroke-width:1.33242px;stroke-linecap:butt;stroke-linejoin:miter;stroke-opacity:1"
     d="M 193.6833,157.46113 181.725,172.23341"
     id="path13477-1-6" />
  <path
     style="fill:#ff0000;stroke-width:0.169951"
     d="m 183.10239,166.83626 c 0,-0.44436 0.49842,-1.32704 2.27921,-4.03634 l 2.2792,-3.46761 0.8649,-0.0514 0.86489,-0.0514 v 1.17065 c 0,1.09372 -0.0419,1.22451 -0.63732,1.99036 l -0.63731,0.81972 -0.085,-1.37289 -0.085,-1.37288 -1.78448,2.8025 c -0.98147,1.54137 -1.80999,2.87354 -1.84114,2.96038 -0.0312,0.0868 0.21968,0.15788 0.55743,0.15788 h 0.61408 l -0.37696,0.50985 c -0.328,0.44364 -0.48315,0.50986 -1.19474,0.50986 -0.81418,0 -0.8178,-0.003 -0.8178,-0.56874 z"
     id="path15961-2" />
  <path
     style="fill:#ff0000;stroke-width:0.169951"
     d="m 181.7644,172.14697 c -0.27797,-0.22509 -0.35195,-0.39024 -0.24038,-0.53664 0.43898,-0.57601 6.04199,-7.52478 9.79599,-12.14883 l 1.82675,-2.25013 0.41626,0.27275 c 0.22894,0.15001 0.41626,0.33464 0.41626,0.4103 0,0.0756 -0.8255,1.15667 -1.83444,2.40226 -7.39944,9.13499 -9.77536,12.04966 -9.87011,12.10822 -0.0598,0.037 -0.28947,-0.0791 -0.51033,-0.25793 z"
     id="path16000-9" />
  <path
     style="fill:#ff0000;stroke-width:0.169951"
     d="m 188.03098,168.77438 v -1.34984 l -0.69664,-0.0523 -0.69663,-0.0523 0.36907,-0.46737 c 0.20298,-0.25705 0.51647,-0.46736 0.69663,-0.46736 0.22146,0 0.32757,-0.11787 0.32757,-0.36388 0,-0.20013 0.28679,-0.74057 0.63732,-1.20099 l 0.63732,-0.83711 0.0499,1.20099 0.0499,1.20099 h 0.75734 c 0.72489,0 0.75733,0.0214 0.75733,0.50008 0,0.46683 -0.048,0.50356 -0.72229,0.55234 l -0.72229,0.0523 -0.0496,1.31712 -0.0496,1.31713 h -0.67265 -0.67266 z"
     id="path16039-1" />
  <path
     style="fill:#87aade;stroke-width:0.138183"
     d="m 152.55362,176.04467 v -23.42196 h 23.42196 23.42195 v 23.42196 23.42196 h -23.42195 -23.42196 z m 23.94392,6.97677 c 0.28708,-0.0835 0.74766,-0.34997 1.02352,-0.59218 0.69869,-0.61346 1.00467,-1.35783 1.00559,-2.44639 9.7e-4,-1.12434 -0.36334,-1.82958 -1.25403,-2.4277 l -0.63149,-0.42406 0.52987,-0.30495 c 1.45819,-0.83923 1.46465,-3.41405 0.0109,-4.36603 -1.48609,-0.97319 -4.16986,-0.78874 -5.24161,0.36023 -0.72661,0.77897 -0.91761,1.97336 -0.47232,2.95366 0.27557,0.60666 1.00484,1.30336 1.37451,1.31313 0.12968,0.003 0.0128,0.12156 -0.26619,0.26901 -1.14496,0.60515 -1.75232,1.79897 -1.58063,3.10685 0.24447,1.8623 1.77182,2.91773 4.0126,2.7728 0.532,-0.0344 1.20216,-0.13088 1.48924,-0.21437 z m -13.73931,-1.06946 c 0.22755,-0.58901 1.13371,-2.934 2.01369,-5.2111 0.87998,-2.2771 1.59997,-4.28248 1.59997,-4.45639 v -0.31621 h -3.59275 -3.59275 v 0.69092 0.69091 h 2.61035 2.61035 l -1.85034,4.7834 c -1.0177,2.63086 -1.85035,4.80724 -1.85035,4.83639 0,0.0291 0.36857,0.053 0.81905,0.053 h 0.81905 z m 21.58354,-11.77819 1.99751,-2.4854 0.79455,-0.002 0.79455,-0.002 v 1.24364 1.24365 h 0.82909 0.8291 v -1.24365 -1.24364 h 0.76 0.76001 v -0.69091 -0.69092 h -0.76001 -0.76 v -1.30033 -1.30033 l 2.36282,-2.92354 c 1.29956,-1.60796 2.34111,-2.93803 2.31456,-2.95573 -0.0265,-0.0177 -0.25513,-0.20005 -0.50796,-0.40524 -0.25283,-0.20518 -0.50941,-0.37306 -0.57018,-0.37306 -0.0608,0 -0.89546,0.97017 -1.85487,2.15593 l -1.74437,2.15594 v -1.11957 -1.11956 l -1.00183,0.008 -1.00182,0.008 -2.24547,3.44777 -2.24547,3.44776 v 0.82793 0.82793 h 0.69097 0.69096 l -1.5401,1.90001 c -0.84705,1.04501 -1.59804,1.97434 -1.66888,2.06518 -0.0881,0.11304 0.0163,0.2971 0.33095,0.58323 0.25285,0.22993 0.52468,0.41988 0.60405,0.42211 0.0794,0.002 1.0432,-1.11438 2.14184,-2.48136 z m -9.05349,-0.0142 c 0.89289,-0.16507 1.93595,-0.63947 2.30567,-1.04867 0.13009,-0.14399 0.37093,-0.56562 0.53519,-0.93695 0.62203,-1.40621 0.10819,-3.16765 -1.09818,-3.76451 l -0.5563,-0.27523 0.58841,-0.41475 c 0.70259,-0.49524 1.05434,-1.17018 1.05434,-2.02311 0,-0.8109 -0.19121,-1.29862 -0.72682,-1.85391 -0.62637,-0.64938 -1.68045,-1.00253 -2.97475,-0.99663 -1.01397,0.005 -2.56541,0.25271 -2.90928,0.46523 -0.0881,0.0544 -0.1601,0.3751 -0.1601,0.71262 0,0.70521 0.0215,0.71252 1.19684,0.40639 1.00458,-0.26166 2.56686,-0.26888 3.05946,-0.0141 0.83801,0.43335 1.15168,1.23627 0.80609,2.06339 -0.27756,0.66428 -0.83885,0.91987 -2.23676,1.01852 l -1.16744,0.0824 v 0.58182 0.58182 l 1.16962,0.073 c 1.83977,0.11478 2.59277,0.71146 2.58243,2.04635 -0.007,0.87598 -0.28312,1.32159 -1.0664,1.71966 -0.77335,0.39301 -2.72644,0.36822 -3.79111,-0.0481 -0.418,-0.16346 -0.77555,-0.29723 -0.79455,-0.29727 -0.019,-4e-5 -0.0345,0.33503 -0.0345,0.74459 v 0.74466 l 0.86365,0.22079 c 1.52266,0.38927 2.17348,0.43041 3.35454,0.21209 z m -9.05458,-0.81674 v -0.69091 h -1.24364 -1.24364 v -4.83639 -4.8364 h -0.67571 c -0.37163,0 -1.28012,0.12437 -2.01886,0.27637 -0.73873,0.152 -1.3674,0.27637 -1.39703,0.27637 -0.0296,0 -0.0539,0.33382 -0.0539,0.74182 v 0.74182 l 1.20909,-0.25273 c 0.66501,-0.13901 1.25574,-0.25519 1.31274,-0.25819 0.057,-0.003 0.10364,1.82651 0.10364,4.06556 v 4.07101 l -1.2091,0.0399 -1.2091,0.0399 -0.0421,0.65637 -0.0421,0.65637 h 3.25486 3.25486 z"
     id="path4389" />
  <path
     style="fill:#87aade;stroke-width:0.138183"
     d="m 184.47381,166.2392 c 0,-0.035 0.76173,-1.25709 1.69274,-2.71581 l 1.69273,-2.65223 0.0398,1.27187 0.0398,1.27187 -1.18761,1.44395 c -1.14183,1.38828 -1.20862,1.44394 -1.73256,1.44394 -0.29972,0 -0.54495,-0.0286 -0.54495,-0.0636 z"
     id="path4428" />
  <path
     style="fill:#87aade;stroke-width:0.138183"
     d="M 200.64118,273.87797 V 250.5942 h 24.38923 24.38924 v 23.28377 23.28377 h -24.38924 -24.38923 z m 22.57915,-5.33394 c 0.4529,-0.35624 0.85428,-1.2193 2.4999,-5.37521 1.58445,-4.00146 1.9585,-5.06688 1.82558,-5.1998 -0.15146,-0.15146 -5.42465,-0.23012 -6.31542,-0.0942 -0.72477,0.11059 -0.76001,0.13501 -0.76001,0.52675 0,0.62047 0.48079,0.77764 2.70628,0.88469 1.05001,0.0505 1.95118,0.13391 2.00261,0.18534 0.0514,0.0514 -0.56154,1.82153 -1.36214,3.93356 -1.53429,4.04753 -1.92566,5.21508 -1.79269,5.34805 0.18049,0.18049 0.84922,0.0635 1.19589,-0.20917 z m -8.22298,-0.25037 c 0.11377,-0.072 0.22676,-0.47882 0.27636,-0.99494 0.0806,-0.839 0.10682,-0.88842 0.67078,-1.2667 0.91128,-0.61123 0.93172,-1.38629 0.0462,-1.75307 -0.54961,-0.22766 -0.66875,-0.65747 -0.76729,-2.76832 -0.1745,-3.73801 -0.26001,-4.0073 -1.27253,-4.0073 -0.42858,0 -0.60481,0.10319 -1.12099,0.65637 -0.62013,0.66458 -2.27,3.06387 -3.06443,4.45639 -1.19139,2.08834 -1.35088,2.80835 -0.69517,3.13841 0.22866,0.11511 1.01117,0.17458 2.31456,0.17593 l 1.9691,0.002 v 1.0265 c 0,0.74894 0.0587,1.08521 0.21714,1.24364 0.23402,0.23402 1.11194,0.29007 1.42623,0.091 z m 23.46913,-0.43225 c 0.6194,-0.30493 0.98467,-0.59443 1.24351,-0.98557 0.688,-1.03963 0.54912,-2.82967 -0.31862,-4.10666 -0.44725,-0.65818 -0.42294,-1.02768 0.11137,-1.69255 0.38728,-0.48192 0.44631,-0.66029 0.44316,-1.33918 -0.005,-1.15285 -0.76344,-2.24078 -1.88922,-2.71116 -1.10506,-0.46173 -3.19066,-0.14034 -4.18988,0.64565 -0.53149,0.41807 -1.16725,1.47234 -1.16725,1.93562 0,0.42757 0.22599,0.9779 0.75313,1.83397 0.4373,0.7102 0.43489,0.96767 -0.0141,1.50007 -0.53031,0.62887 -0.73906,1.21996 -0.73906,2.09268 0,1.54495 0.79384,2.57417 2.47102,3.2037 0.80756,0.30312 2.25004,0.13831 3.29591,-0.37657 z"
     id="path4584" />
  <path
     style="fill:#87aade;stroke-width:0.138183"
     d="M 152.55362,274.01615 V 250.5942 h 23.42196 23.42195 v 23.42195 23.42196 h -23.42195 -23.42196 z m 24.45219,8.7718 c 1.18563,-0.65985 1.76073,-2.08891 1.46819,-3.64829 -0.11815,-0.62981 -0.81353,-1.43229 -1.51218,-1.74509 -0.50971,-0.2282 -0.51999,-0.24493 -0.20846,-0.33929 0.41212,-0.12482 1.05217,-0.71301 1.30729,-1.20134 0.24877,-0.47618 0.25143,-1.78057 0.005,-2.37074 -0.25029,-0.59904 -1.07279,-1.2633 -1.825,-1.4739 -0.96916,-0.27135 -2.90318,-0.12377 -3.61407,0.27577 -1.76061,0.98952 -1.89872,3.50006 -0.25005,4.54561 0.61579,0.39052 0.62354,0.404 0.28178,0.48977 -0.52158,0.13091 -1.36362,1.04478 -1.55682,1.68963 -0.35478,1.18414 -0.0565,2.46276 0.76066,3.2607 0.78227,0.76387 1.37424,0.93602 3.07723,0.89487 1.24758,-0.0301 1.53719,-0.0831 2.0666,-0.3777 z m -14.60324,0.10644 c 1.86101,-4.75897 3.96932,-10.38961 3.96932,-10.60086 0,-0.27537 -0.0723,-0.28102 -3.59275,-0.28102 h -3.59275 v 0.69091 0.69091 h 2.57249 c 2.38324,0 2.5676,0.0178 2.50593,0.24182 -0.0366,0.133 -0.85223,2.28235 -1.81249,4.77632 -0.96026,2.49397 -1.74592,4.56153 -1.74592,4.59457 0,0.15496 1.63395,0.0464 1.69617,-0.11265 z m 22.67542,-13.58401 2.0551,-2.54881 h 0.7431 0.7431 v 1.31273 1.31274 h 0.82909 0.8291 v -1.31274 -1.31273 h 0.76 0.76001 v -0.69092 -0.69091 h -0.76001 -0.76 v -1.25132 -1.25131 l 2.35977,-2.91977 2.35978,-2.91977 -0.52886,-0.45285 c -0.29087,-0.24906 -0.55994,-0.45166 -0.59794,-0.45021 -0.038,0.001 -0.84637,0.97331 -1.79638,2.1597 l -1.72728,2.15708 -0.0404,-1.05943 -0.0404,-1.05943 -0.99601,0.002 -0.99601,0.002 -2.24547,3.43109 c -2.22606,3.40146 -2.24546,3.43779 -2.24546,4.20494 v 0.77384 l 0.69579,0.0418 0.6958,0.0418 -1.67499,2.07123 -1.67498,2.07123 0.5301,0.44855 c 0.29155,0.2467 0.56118,0.44606 0.59918,0.44303 0.038,-0.003 0.99389,-1.15248 2.12419,-2.55432 z m -9.02386,0.68315 c 1.86039,-0.55177 2.8629,-2.68818 2.07528,-4.42256 -0.24992,-0.55036 -0.90057,-1.15412 -1.45696,-1.35198 -0.23498,-0.0836 -0.19403,-0.14171 0.31262,-0.44383 1.73632,-1.03542 1.43241,-3.74786 -0.51244,-4.57355 -1.07103,-0.45471 -2.96811,-0.47236 -4.56463,-0.0425 -0.56083,0.15101 -0.56154,0.15208 -0.56154,0.83679 0,0.37708 0.0377,0.68559 0.0837,0.68559 0.046,0 0.46576,-0.10094 0.93273,-0.2243 1.18988,-0.31435 2.65499,-0.31839 3.28178,-0.009 0.98187,0.48457 1.18751,1.72038 0.4149,2.49338 -0.41666,0.41688 -0.48758,0.43649 -1.74461,0.48242 l -1.3103,0.0479 v 0.66067 0.66067 l 1.24428,0.0595 c 0.9653,0.0462 1.32743,0.12157 1.61511,0.33636 0.64208,0.47937 0.89457,0.93253 0.89457,1.60549 0,0.90534 -0.33585,1.45758 -1.08911,1.79078 -0.85982,0.38034 -2.96208,0.3105 -3.94304,-0.13098 l -0.65637,-0.29541 v 0.79986 0.79986 l 0.86365,0.21718 c 1.16009,0.29174 3.16736,0.30036 4.12039,0.0177 z m -9.82043,-0.60649 v -0.69092 h -1.24364 -1.24364 v -4.83639 -4.83639 l -0.86365,0.006 c -0.475,0.003 -1.39219,0.11466 -2.03819,0.24708 l -1.17455,0.24075 -0.0418,0.7202 c -0.0479,0.82621 -0.10254,0.80451 1.28536,0.51053 0.53197,-0.11268 1.04498,-0.20487 1.14001,-0.20487 0.13434,0 0.17278,0.90675 0.17278,4.07638 v 4.07639 h -1.24365 -1.24364 v 0.59879 c 0,0.32934 0.0414,0.64025 0.0921,0.69092 0.0507,0.0507 1.51195,0.0921 3.24729,0.0921 h 3.15517 z"
     id="path4623" />
  <path
     style="fill:#87aade;stroke-width:0.138183"
     d="m 185.38244,264.99974 c 0.13723,-0.209 0.86536,-1.34383 1.61807,-2.52184 0.75271,-1.178 1.42486,-2.2009 1.49367,-2.2731 0.0751,-0.0788 0.12511,0.37005 0.12511,1.124 v 1.25528 l -1.13306,1.39783 c -1.12632,1.38951 -1.1367,1.39783 -1.74318,1.39783 h -0.61011 z"
     id="path4662" />
</svg>
