<?xml version="1.0" encoding="UTF-8" standalone="no"?>
<svg
   version="1.1"
   width="500"
   height="500"
   id="svg428"
   sodipodi:docname="dvojityPar.svg"
   inkscape:export-filename="/home/karoli/Documents/Bakalarka/Bakalarka/Bakalarka/dvojityPar.png"
   inkscape:export-xdpi="96"
   inkscape:export-ydpi="96"
   inkscape:version="1.1.2 (1:1.1+202202050950+0a00cf5339)"
   xmlns:inkscape="http://www.inkscape.org/namespaces/inkscape"
   xmlns:sodipodi="http://sodipodi.sourceforge.net/DTD/sodipodi-0.dtd"
   xmlns="http://www.w3.org/2000/svg"
   xmlns:svg="http://www.w3.org/2000/svg">
  <defs
     id="defs432" />
  <sodipodi:namedview
     id="namedview430"
     pagecolor="#ffffff"
     bordercolor="#666666"
     borderopacity="1.0"
     inkscape:pageshadow="2"
     inkscape:pageopacity="0.0"
     inkscape:pagecheckerboard="0"
     showgrid="false"
     inkscape:zoom="3.3868041"
     inkscape:cx="222.18586"
     inkscape:cy="226.46718"
     inkscape:window-width="2488"
     inkscape:window-height="1403"
     inkscape:window-x="1992"
     inkscape:window-y="0"
     inkscape:window-maximized="1"
     inkscape:current-layer="svg428" />
  <polyline
     points="0,0 450,0 450,450 0,450 0,0"
     style="fill:none;stroke:black;stroke-width:5"
     id="polyline2" />
  <polyline
     points="0,50 450,50"
     style="fill:none;stroke:black;stroke-width:1"
     id="polyline4" />
  <polyline
     points="0,100 450,100"
     style="fill:none;stroke:black;stroke-width:1"
     id="polyline6" />
  <polyline
     points="0,150 450,150"
     style="fill:none;stroke:black;stroke-width:5"
     id="polyline8" />
  <polyline
     points="0,200 450,200"
     style="fill:none;stroke:black;stroke-width:1"
     id="polyline10" />
  <polyline
     points="0,250 450,250"
     style="fill:none;stroke:black;stroke-width:1"
     id="polyline12" />
  <polyline
     points="0,300 450,300"
     style="fill:none;stroke:black;stroke-width:5"
     id="polyline14" />
  <polyline
     points="0,350 450,350"
     style="fill:none;stroke:black;stroke-width:1"
     id="polyline16" />
  <polyline
     points="0,400 450,400"
     style="fill:none;stroke:black;stroke-width:1"
     id="polyline18" />
  <polyline
     points="50,0 50,450"
     style="fill:none;stroke:black;stroke-width:1"
     id="polyline20" />
  <polyline
     points="100,0 100,450"
     style="fill:none;stroke:black;stroke-width:1"
     id="polyline22" />
  <polyline
     points="150,0 150,450"
     style="fill:none;stroke:black;stroke-width:5"
     id="polyline24" />
  <polyline
     points="200,0 200,450"
     style="fill:none;stroke:black;stroke-width:1"
     id="polyline26" />
  <polyline
     points="250,0 250,450"
     style="fill:none;stroke:black;stroke-width:1"
     id="polyline28" />
  <polyline
     points="300,0 300,450"
     style="fill:none;stroke:black;stroke-width:5"
     id="polyline30" />
  <polyline
     points="350,0 350,450"
     style="fill:none;stroke:black;stroke-width:1"
     id="polyline32" />
  <polyline
     points="400,0 400,450"
     style="fill:none;stroke:black;stroke-width:1"
     id="polyline34" />
  <text
     x="8"
     y="20"
     style="font-wight:bold;fill:#000000"
     font-size="15px"
     id="text36">2</text>
  <text
     x="207.00142"
     y="119.40342"
     style="fill:#000000"
     font-size="15px"
     id="text36-7">2</text>
  <text
     x="20"
     y="20"
     style="font-wight:bold;fill:#000000"
     font-size="15px"
     id="text38">7</text>
  <text
     x="181.27626"
     y="20.214851"
     style="fill:#000000"
     font-size="15px"
     id="text38-3">7</text>
  <text
     x="32"
     y="20"
     style="font-wight:bold;fill:#000000"
     font-size="15px"
     id="text40">8</text>
  <text
     x="7.8800445"
     y="85.312828"
     style="fill:#000000"
     font-size="15px"
     id="text40-1">8</text>
  <text
     x="230.43336"
     y="119.53618"
     style="fill:#000000"
     font-size="15px"
     id="text40-6">8</text>
  <text
     x="66"
     y="35"
     style="font-wight:bold"
     font-size="30px"
     id="text42">5</text>
  <text
     x="116"
     y="35"
     style="font-wight:bold"
     font-size="30px"
     id="text44">6</text>
  <text
     x="158"
     y="20.474581"
     style="fill:#000000"
     font-size="15px"
     id="text46">2</text>
  <text
     x="170"
     y="20"
     style="font-wight:bold;fill:#000000"
     font-size="15px"
     id="text48">4</text>
  <text
     x="158.38725"
     y="36.471428"
     style="fill:#000000"
     font-size="15px"
     id="text52">9</text>
  <text
     x="216"
     y="35"
     style="font-wight:bold"
     font-size="30px"
     id="text54">1</text>
  <text
     x="258"
     y="20"
     style="font-wight:bold;fill:#000000"
     font-size="15px"
     id="text56">4</text>
  <text
     x="270"
     y="20"
     style="font-wight:bold;fill:#000000"
     font-size="15px"
     id="text58">9</text>
  <text
     x="316"
     y="35"
     style="font-wight:bold;fill:#000000"
     font-size="30px"
     id="text60">3</text>
  <text
     x="264.31744"
     y="133.98744"
     font-size="30px"
     id="text60-5">3</text>
  <text
     x="213.93983"
     y="432.97049"
     font-size="30px"
     id="text60-3">3</text>
  <text
     x="358"
     y="20"
     style="font-wight:bold;fill:#000000"
     font-size="15px"
     id="text62">2</text>
  <text
     x="370"
     y="20"
     style="font-wight:bold;fill:#000000"
     font-size="15px"
     id="text64">7</text>
  <text
     x="382"
     y="20"
     style="font-wight:bold;fill:#000000"
     font-size="15px"
     id="text66">8</text>
  <text
     x="258.52402"
     y="69.309448"
     style="fill:#000000"
     font-size="15px"
     id="text66-5">8</text>
  <text
     x="408"
     y="20"
     style="font-wight:bold;fill:#000000"
     font-size="15px"
     id="text68">2</text>
  <text
     x="420"
     y="20"
     style="font-wight:bold;fill:#000000"
     font-size="15px"
     id="text70">7</text>
  <text
     x="432"
     y="20"
     style="font-wight:bold;fill:#000000"
     font-size="15px"
     id="text72">8</text>
  <text
     x="431.50546"
     y="70.046288"
     style="fill:#000000"
     font-size="15px"
     id="text72-9">8</text>
  <text
     x="408"
     y="33"
     style="font-wight:bold;fill:#000000"
     font-size="15px"
     id="text74">9</text>
  <text
     x="8"
     y="70"
     style="font-wight:bold;fill:#000000"
     font-size="15px"
     id="text76">2</text>
  <text
     x="20"
     y="70"
     style="font-wight:bold;fill:#000000"
     font-size="15px"
     id="text78">3</text>
  <text
     x="32"
     y="70"
     style="font-wight:bold;fill:#000000"
     font-size="15px"
     id="text80">7</text>
  <text
     x="66"
     y="85"
     style="font-wight:bold;fill:#000000"
     font-size="30px"
     id="text82">4</text>
  <text
     x="108"
     y="70"
     style="font-wight:bold;fill:#000000"
     font-size="15px"
     id="text84">2</text>
  <text
     x="120"
     y="70"
     style="font-wight:bold;fill:#000000"
     font-size="15px"
     id="text86">3</text>
  <text
     x="132"
     y="70"
     style="font-wight:bold;fill:#000000"
     font-size="15px"
     id="text88">7</text>
  <text
     x="218.53603"
     y="119.44042"
     style="fill:#000000"
     font-size="15px"
     id="text88-3">7</text>
  <text
     x="158"
     y="70"
     style="font-wight:bold;fill:#000000"
     font-size="15px"
     id="text90">2</text>
  <text
     x="181.62964"
     y="69.733627"
     style="fill:#000000"
     font-size="15px"
     id="text96">9</text>
  <text
     x="216"
     y="85"
     style="font-wight:bold"
     font-size="30px"
     id="text98">5</text>
  <text
     x="316"
     y="85"
     style="font-wight:bold;fill:#000000"
     font-size="30px"
     id="text102">6</text>
  <text
     x="366"
     y="85"
     style="font-wight:bold;fill:#000000"
     font-size="30px"
     id="text104">1</text>
  <text
     x="408"
     y="70"
     style="font-wight:bold;fill:#000000"
     font-size="15px"
     id="text106">2</text>
  <text
     x="420"
     y="70"
     style="font-wight:bold;fill:#000000"
     font-size="15px"
     id="text108">7</text>
  <text
     x="408.41489"
     y="85.575966"
     style="fill:#000000"
     font-size="15px"
     id="text110">9</text>
  <text
     x="270.19003"
     y="69.136833"
     style="fill:#000000"
     font-size="15px"
     id="text110-6">9</text>
  <text
     x="8"
     y="120"
     style="font-wight:bold;fill:#000000"
     font-size="15px"
     id="text112">1</text>
  <text
     x="20"
     y="120"
     style="font-wight:bold;fill:#000000"
     font-size="15px"
     id="text114">2</text>
  <text
     x="32"
     y="120"
     style="font-wight:bold;fill:#000000"
     font-size="15px"
     id="text116">3</text>
  <text
     x="8"
     y="133"
     style="font-wight:bold;fill:#000000"
     font-size="15px"
     id="text118">7</text>
  <text
     x="20"
     y="133"
     style="font-wight:bold;fill:#000000"
     font-size="15px"
     id="text120">8</text>
  <text
     x="66"
     y="135"
     style="font-wight:bold;fill:#000000"
     font-size="30px"
     id="text122">9</text>
  <text
     x="108"
     y="120"
     style="font-wight:bold;fill:#000000"
     font-size="15px"
     id="text124">1</text>
  <text
     x="120"
     y="120"
     style="font-wight:bold;fill:#000000"
     font-size="15px"
     id="text126">2</text>
  <text
     x="132"
     y="120"
     style="font-wight:bold;fill:#000000"
     font-size="15px"
     id="text128">3</text>
  <text
     x="108"
     y="133"
     style="font-wight:bold;fill:#000000"
     font-size="15px"
     id="text130">7</text>
  <text
     x="120"
     y="133"
     style="font-wight:bold;fill:#000000"
     font-size="15px"
     id="text132">8</text>
  <text
     x="166"
     y="135"
     style="font-wight:bold"
     font-size="30px"
     id="text134">6</text>
  <text
     x="308"
     y="120"
     style="font-wight:bold;fill:#000000"
     font-size="15px"
     id="text142">2</text>
  <text
     x="320"
     y="120"
     style="font-wight:bold;fill:#000000"
     font-size="15px"
     id="text144">7</text>
  <text
     x="332"
     y="120"
     style="font-wight:bold;fill:#000000"
     font-size="15px"
     id="text146">8</text>
  <text
     x="366"
     y="135"
     style="font-wight:bold"
     font-size="30px"
     id="text148">5</text>
  <text
     x="416"
     y="135"
     style="font-wight:bold;fill:#000000"
     font-size="30px"
     id="text150">4</text>
  <text
     x="8"
     y="170"
     style="font-wight:bold;fill:#000000"
     font-size="15px"
     id="text152">1</text>
  <text
     x="20"
     y="170"
     style="font-wight:bold;fill:#000000"
     font-size="15px"
     id="text154">3</text>
  <text
     x="32"
     y="170"
     style="font-wight:bold;fill:#000000"
     font-size="15px"
     id="text156">5</text>
  <text
     x="8"
     y="183"
     style="font-wight:bold;fill:#000000"
     font-size="15px"
     id="text158">7</text>
  <text
     x="20"
     y="183"
     style="font-wight:bold;fill:#000000"
     font-size="15px"
     id="text160">8</text>
  <text
     x="66"
     y="185"
     style="font-wight:bold"
     font-size="30px"
     id="text162">2</text>
  <text
     x="108"
     y="170"
     style="font-wight:bold;fill:#000000"
     font-size="15px"
     id="text164">1</text>
  <text
     x="120"
     y="170"
     style="font-wight:bold;fill:#000000"
     font-size="15px"
     id="text166">3</text>
  <text
     x="132"
     y="170"
     style="font-wight:bold;fill:#000000"
     font-size="15px"
     id="text168">7</text>
  <text
     x="108"
     y="183"
     style="font-wight:bold;fill:#000000"
     font-size="15px"
     id="text170">8</text>
  <text
     x="158"
     y="170"
     style="font-wight:bold;fill:#000000"
     font-size="15px"
     id="text172">1</text>
  <text
     x="170"
     y="170"
     style="font-wight:bold;fill:#000000"
     font-size="15px"
     id="text174">3</text>
  <text
     x="158"
     y="183"
     style="font-wight:bold;fill:#000000"
     font-size="15px"
     id="text178">7</text>
  <text
     x="170"
     y="183"
     style="font-wight:bold;fill:#000000"
     font-size="15px"
     id="text180">8</text>
  <text
     x="216"
     y="185"
     style="font-wight:bold"
     font-size="30px"
     id="text182">9</text>
  <text
     x="266"
     y="185"
     style="font-wight:bold"
     font-size="30px"
     id="text184">6</text>
  <text
     x="308"
     y="170"
     style="font-wight:bold;fill:#000000"
     font-size="15px"
     id="text186">1</text>
  <text
     x="320"
     y="170"
     style="font-wight:bold;fill:#000000"
     font-size="15px"
     id="text188">4</text>
  <text
     x="332"
     y="170"
     style="font-wight:bold;fill:#000000"
     font-size="15px"
     id="text190">7</text>
  <text
     x="308"
     y="183"
     style="font-wight:bold;fill:#000000"
     font-size="15px"
     id="text192">8</text>
  <text
     x="358"
     y="170"
     style="font-wight:bold;fill:#000000"
     font-size="15px"
     id="text194">3</text>
  <text
     x="370"
     y="170"
     style="font-wight:bold;fill:#000000"
     font-size="15px"
     id="text196">4</text>
  <text
     x="382"
     y="170"
     style="font-wight:bold;fill:#000000"
     font-size="15px"
     id="text198">7</text>
  <text
     x="358"
     y="183"
     style="font-wight:bold;fill:#000000"
     font-size="15px"
     id="text200">8</text>
  <text
     x="408"
     y="170"
     style="font-wight:bold;fill:#000000"
     font-size="15px"
     id="text202">1</text>
  <text
     x="420"
     y="170"
     style="font-wight:bold;fill:#000000"
     font-size="15px"
     id="text204">3</text>
  <text
     x="432"
     y="170"
     style="font-wight:bold;fill:#000000"
     font-size="15px"
     id="text206">7</text>
  <text
     x="408"
     y="183"
     style="font-wight:bold;fill:#000000"
     font-size="15px"
     id="text208">8</text>
  <text
     x="16"
     y="235"
     style="font-wight:bold"
     font-size="30px"
     id="text210">4</text>
  <text
     x="58"
     y="220"
     style="font-wight:bold;fill:#000000"
     font-size="15px"
     id="text212">3</text>
  <text
     x="70"
     y="220"
     style="font-wight:bold;fill:#000000"
     font-size="15px"
     id="text214">7</text>
  <text
     x="116"
     y="235"
     style="font-wight:bold"
     font-size="30px"
     id="text216">9</text>
  <text
     x="158"
     y="220"
     style="font-wight:bold;fill:#000000"
     font-size="15px"
     id="text218">1</text>
  <text
     x="170"
     y="220"
     style="font-wight:bold;fill:#000000"
     font-size="15px"
     id="text220">3</text>
  <text
     x="182"
     y="220"
     style="font-wight:bold;fill:#000000"
     font-size="15px"
     id="text222">7</text>
  <text
     x="158"
     y="233"
     style="font-wight:bold;fill:#000000"
     font-size="15px"
     id="text224">8</text>
  <text
     x="220"
     y="220"
     style="font-wight:bold;fill:#000000"
     font-size="15px"
     id="text228">7</text>
  <text
     x="232"
     y="220"
     style="font-wight:bold;fill:#000000"
     font-size="15px"
     id="text230">8</text>
  <text
     x="266"
     y="235"
     style="font-wight:bold"
     font-size="30px"
     id="text232">2</text>
  <text
     x="316"
     y="235"
     style="font-wight:bold"
     font-size="30px"
     id="text234">5</text>
  <text
     x="358"
     y="220"
     style="font-wight:bold;fill:#000000"
     font-size="15px"
     id="text236">3</text>
  <text
     x="370"
     y="220"
     style="font-wight:bold;fill:#000000"
     font-size="15px"
     id="text238">7</text>
  <text
     x="382"
     y="220"
     style="font-wight:bold;fill:#000000"
     font-size="15px"
     id="text240">8</text>
  <text
     x="416"
     y="235"
     style="font-wight:bold"
     font-size="30px"
     id="text242">6</text>
  <text
     x="8"
     y="270"
     style="font-wight:bold;fill:#000000"
     font-size="15px"
     id="text244">1</text>
  <text
     x="20"
     y="270"
     style="font-wight:bold;fill:#000000"
     font-size="15px"
     id="text246">3</text>
  <text
     x="32"
     y="270"
     style="font-wight:bold;fill:#000000"
     font-size="15px"
     id="text248">5</text>
  <text
     x="8"
     y="283"
     style="font-wight:bold;fill:#000000"
     font-size="15px"
     id="text250">7</text>
  <text
     x="20"
     y="283"
     style="font-wight:bold;fill:#000000"
     font-size="15px"
     id="text252">8</text>
  <text
     x="66"
     y="285"
     style="font-wight:bold;fill:#000000"
     font-size="30px"
     id="text254">6</text>
  <text
     x="108"
     y="270"
     style="font-wight:bold;fill:#000000"
     font-size="15px"
     id="text256">1</text>
  <text
     x="120"
     y="270"
     style="font-wight:bold;fill:#000000"
     font-size="15px"
     id="text258">3</text>
  <text
     x="132"
     y="270"
     style="font-wight:bold;fill:#000000"
     font-size="15px"
     id="text260">7</text>
  <text
     x="108"
     y="283"
     style="font-wight:bold;fill:#000000"
     font-size="15px"
     id="text262">8</text>
  <text
     x="158"
     y="270"
     style="font-wight:bold;fill:#000000"
     font-size="15px"
     id="text264">1</text>
  <text
     x="170"
     y="270"
     style="font-wight:bold;fill:#000000"
     font-size="15px"
     id="text266">3</text>
  <text
     x="158"
     y="283"
     style="font-wight:bold;fill:#000000"
     font-size="15px"
     id="text270">7</text>
  <text
     x="170"
     y="283"
     style="font-wight:bold;fill:#000000"
     font-size="15px"
     id="text272">8</text>
  <text
     x="207.91043"
     y="268.40698"
     style="fill:#000000"
     font-size="15px"
     id="text276">4</text>
  <text
     x="219.15916"
     y="268.74319"
     style="fill:#000000"
     font-size="15px"
     id="text278">7</text>
  <text
     x="231.63156"
     y="268.01749"
     style="fill:#000000"
     font-size="15px"
     id="text280">8</text>
  <text
     x="258"
     y="270"
     style="font-wight:bold;fill:#000000"
     font-size="15px"
     id="text282">1</text>
  <text
     x="280.75696"
     y="269.46988"
     style="fill:#000000"
     font-size="15px"
     id="text288">5</text>
  <text
     x="316"
     y="285"
     style="font-wight:bold"
     font-size="30px"
     id="text290">9</text>
  <text
     x="358"
     y="270"
     style="font-wight:bold;fill:#000000"
     font-size="15px"
     id="text292">2</text>
  <text
     x="370"
     y="270"
     style="font-wight:bold;fill:#000000"
     font-size="15px"
     id="text294">3</text>
  <text
     x="382"
     y="270"
     style="font-wight:bold;fill:#000000"
     font-size="15px"
     id="text296">4</text>
  <text
     x="358"
     y="283"
     style="font-wight:bold;fill:#000000"
     font-size="15px"
     id="text298">7</text>
  <text
     x="370"
     y="283"
     style="font-wight:bold;fill:#000000"
     font-size="15px"
     id="text300">8</text>
  <text
     x="408"
     y="270"
     style="font-wight:bold;fill:#000000"
     font-size="15px"
     id="text302">1</text>
  <text
     x="420"
     y="270"
     style="font-wight:bold;fill:#000000"
     font-size="15px"
     id="text304">2</text>
  <text
     x="432"
     y="270"
     style="font-wight:bold;fill:#000000"
     font-size="15px"
     id="text306">3</text>
  <text
     x="408"
     y="283"
     style="font-wight:bold;fill:#000000"
     font-size="15px"
     id="text308">7</text>
  <text
     x="420"
     y="283"
     style="font-wight:bold;fill:#000000"
     font-size="15px"
     id="text310">8</text>
  <text
     x="8"
     y="320"
     style="font-wight:bold;fill:#000000"
     font-size="15px"
     id="text312">2</text>
  <text
     x="20"
     y="320"
     style="font-wight:bold;fill:#000000"
     font-size="15px"
     id="text314">3</text>
  <text
     x="32"
     y="320"
     style="font-wight:bold;fill:#000000"
     font-size="15px"
     id="text316">7</text>
  <text
     x="58"
     y="320"
     style="font-wight:bold;fill:#000000"
     font-size="15px"
     id="text318">3</text>
  <text
     x="70"
     y="320"
     style="font-wight:bold;fill:#000000"
     font-size="15px"
     id="text320">7</text>
  <text
     x="116"
     y="335"
     style="font-wight:bold;fill:#000000"
     font-size="30px"
     id="text322">5</text>
  <text
     x="158"
     y="320"
     style="font-wight:bold;fill:#000000"
     font-size="15px"
     id="text324">1</text>
  <text
     x="168.96402"
     y="319.60693"
     style="fill:#000000"
     font-size="15px"
     id="text328">4</text>
  <text
     x="182.9879"
     y="319.40735"
     style="fill:#000000"
     font-size="15px"
     id="text330">8</text>
  <text
     x="157.67223"
     y="334.19754"
     style="fill:#000000"
     font-size="15px"
     id="text332">9</text>
  <text
     x="216"
     y="335"
     style="font-wight:bold"
     font-size="30px"
     id="text334">6</text>
  <text
     x="258"
     y="320"
     style="font-wight:bold;fill:#000000"
     font-size="15px"
     id="text336">1</text>
  <text
     x="269.56152"
     y="320"
     style="fill:#000000"
     font-size="15px"
     id="text340">4</text>
  <text
     x="283.08719"
     y="319.38452"
     style="fill:#000000"
     font-size="15px"
     id="text342">9</text>
  <text
     x="308"
     y="320"
     style="font-wight:bold;fill:#000000"
     font-size="15px"
     id="text344">1</text>
  <text
     x="320"
     y="320"
     style="font-wight:bold;fill:#000000"
     font-size="15px"
     id="text346">2</text>
  <text
     x="332"
     y="320"
     style="font-wight:bold;fill:#000000"
     font-size="15px"
     id="text348">4</text>
  <text
     x="308"
     y="333"
     style="font-wight:bold;fill:#000000"
     font-size="15px"
     id="text350">7</text>
  <text
     x="320"
     y="333"
     style="font-wight:bold;fill:#000000"
     font-size="15px"
     id="text352">8</text>
  <text
     x="358"
     y="320"
     style="font-wight:bold;fill:#000000"
     font-size="15px"
     id="text354">2</text>
  <text
     x="370"
     y="320"
     style="font-wight:bold;fill:#000000"
     font-size="15px"
     id="text356">3</text>
  <text
     x="382"
     y="320"
     style="font-wight:bold;fill:#000000"
     font-size="15px"
     id="text358">4</text>
  <text
     x="358"
     y="333"
     style="font-wight:bold;fill:#000000"
     font-size="15px"
     id="text360">7</text>
  <text
     x="370"
     y="333"
     style="font-wight:bold;fill:#000000"
     font-size="15px"
     id="text362">8</text>
  <text
     x="408"
     y="320"
     style="font-wight:bold;fill:#000000"
     font-size="15px"
     id="text364">1</text>
  <text
     x="420"
     y="320"
     style="font-wight:bold;fill:#000000"
     font-size="15px"
     id="text366">2</text>
  <text
     x="432"
     y="320"
     style="font-wight:bold;fill:#000000"
     font-size="15px"
     id="text368">3</text>
  <text
     x="408"
     y="333"
     style="font-wight:bold;fill:#000000"
     font-size="15px"
     id="text370">7</text>
  <text
     x="420"
     y="333"
     style="font-wight:bold;fill:#000000"
     font-size="15px"
     id="text372">8</text>
  <text
     x="16"
     y="385"
     style="font-wight:bold;fill:#000000"
     font-size="30px"
     id="text374">6</text>
  <text
     x="66"
     y="385"
     style="font-wight:bold;fill:#000000"
     font-size="30px"
     id="text376">1</text>
  <text
     x="108"
     y="370"
     style="font-wight:bold;fill:#000000"
     font-size="15px"
     id="text378">3</text>
  <text
     x="120"
     y="370"
     style="font-wight:bold;fill:#000000"
     font-size="15px"
     id="text380">7</text>
  <text
     x="158.22827"
     y="369.63553"
     style="fill:#000000"
     font-size="15px"
     id="text384">4</text>
  <text
     x="169.74777"
     y="369.42871"
     style="fill:#000000"
     font-size="15px"
     id="text386">8</text>
  <text
     x="216"
     y="385"
     style="font-wight:bold"
     font-size="30px"
     id="text388">2</text>
  <text
     x="255.16954"
     y="367.80093"
     style="fill:#000000"
     font-size="15px"
     id="text392">4</text>
  <text
     x="308"
     y="370"
     style="font-wight:bold;fill:#000000"
     font-size="15px"
     id="text394">4</text>
  <text
     x="320"
     y="370"
     style="font-wight:bold;fill:#000000"
     font-size="15px"
     id="text396">7</text>
  <text
     x="332"
     y="370"
     style="font-wight:bold;fill:#000000"
     font-size="15px"
     id="text398">8</text>
  <text
     x="268.44995"
     y="367.61261"
     style="fill:#000000"
     font-size="15px"
     id="text398-2">8</text>
  <text
     x="366"
     y="385"
     style="font-wight:bold;fill:#000000"
     font-size="30px"
     id="text400">9</text>
  <text
     x="416"
     y="385"
     style="font-wight:bold;fill:#000000"
     font-size="30px"
     id="text402">5</text>
  <text
     x="16"
     y="435"
     style="font-wight:bold"
     font-size="30px"
     id="text404">9</text>
  <text
     x="66"
     y="435"
     style="font-wight:bold"
     font-size="30px"
     id="text406">8</text>
  <text
     x="116"
     y="435"
     style="font-wight:bold"
     font-size="30px"
     id="text408">4</text>
  <text
     x="166"
     y="435"
     style="font-wight:bold"
     font-size="30px"
     id="text410">5</text>
  <text
     x="266"
     y="435"
     style="font-wight:bold"
     font-size="30px"
     id="text414">7</text>
  <text
     x="266.04413"
     y="435.17349"
     font-size="30px"
     id="text414-6">7</text>
  <text
     x="308"
     y="420"
     style="font-wight:bold;fill:#000000"
     font-size="15px"
     id="text416">1</text>
  <text
     x="320"
     y="420"
     style="font-wight:bold;fill:#000000"
     font-size="15px"
     id="text418">2</text>
  <text
     x="366"
     y="435"
     style="font-wight:bold;fill:#000000"
     font-size="30px"
     id="text420">6</text>
  <text
     x="408"
     y="420"
     style="font-wight:bold;fill:#000000"
     font-size="15px"
     id="text422">1</text>
  <text
     x="420"
     y="420"
     style="font-wight:bold;fill:#000000"
     font-size="15px"
     id="text424">2</text>
  <path
     style="fill:#d5e5ff;stroke-width:0.592417"
     d="M 200.53318,26.066351 V 2.6658768 h 24.28909 24.2891 V 26.066351 49.466825 h -24.2891 -24.28909 z m 31.99052,7.701422 c 0,-1.332939 -0.23697,-1.481043 -2.36967,-1.481043 h -2.36967 v -9.774882 -9.774881 h -1.45188 c -0.79854,0 -2.79795,0.288678 -4.44313,0.641507 -2.64478,0.567204 -2.99125,0.816691 -2.99125,2.153983 0,1.451753 0.10703,1.497807 2.66588,1.147077 l 2.66588,-0.365398 v 7.986296 7.986298 h -2.36967 c -2.1327,0 -2.36967,0.148104 -2.36967,1.481043 v 1.481042 h 6.51659 6.51659 z"
     id="path586" />
  <path
     style="fill:#d5e5ff;stroke-width:0.592417"
     d="M 200.53318,74.940758 V 50.651659 h 24.28909 24.2891 v 24.289099 24.2891 h -24.2891 -24.28909 z m 28.11949,9.821551 c 3.59568,-1.502372 5.09273,-7.274346 2.8649,-11.045776 -1.10148,-1.864653 -4.52892,-3.515111 -7.2997,-3.515111 -1.6225,0 -1.76526,-0.16769 -1.76526,-2.07346 v -2.07346 h 4.44312 c 4.3444,0 4.44313,-0.03291 4.44313,-1.481042 v -1.481043 h -6.22038 -6.22038 v 5.639249 5.639249 l 1.62915,-0.4556 c 5.02764,-1.406005 8.44194,0.226478 8.44194,4.036348 0,3.194693 -2.25111,4.913873 -5.92417,4.524307 -1.46623,-0.15551 -3.1324,-0.476839 -3.7026,-0.714066 -0.85449,-0.355501 -1.03673,-0.115004 -1.03673,1.368108 0,1.395061 0.29954,1.857124 1.33294,2.056165 2.94671,0.567563 7.10972,0.371805 9.01404,-0.423868 z"
     id="path664" />
  <path
     style="fill:#d5e5ff;stroke-width:0.592417"
     d=""
     id="path898" />
  <path
     style="fill:#d5e5ff;stroke-width:0.364466"
     d="m 152.52903,124.10068 v -23.32583 h 23.32582 23.32583 v 23.32583 23.32582 h -23.32583 -23.32582 z m 26.49086,10.87986 c 0.63825,-0.19305 1.72763,-0.97879 2.42083,-1.74608 3.41636,-3.7815 1.94454,-10.95114 -2.55279,-12.43539 -1.86358,-0.61504 -5.01728,-0.26546 -6.32456,0.70106 l -1.08211,0.80004 0.008,-1.01319 c 0.0115,-1.45752 1.19603,-3.85859 2.35221,-4.76804 1.70031,-1.33746 4.51467,-1.4234 7.59479,-0.23192 0.58597,0.22668 0.64811,0.0745 0.54669,-1.33913 l -0.11441,-1.59487 -2.26431,-0.48629 c -4.34026,-0.93213 -8.09467,0.6327 -10.02155,4.17697 -2.94222,5.41187 -1.73545,14.90344 2.20442,17.33842 2.10903,1.30345 4.302,1.48489 7.23279,0.59842 z"
     id="path1132" />
  <path
     style="fill:#d5e5ff;stroke-width:0.364466"
     d="m 173.2454,131.80864 c -1.01011,-0.90253 -1.18386,-1.32628 -1.32096,-3.22176 -0.19319,-2.67075 0.51323,-4.25887 2.26624,-5.09482 3.44663,-1.64359 6.41235,1.45423 5.63216,5.88304 -0.57003,3.23583 -4.18332,4.57269 -6.57744,2.43354 z"
     id="path1171" />
  <path
     style="fill:#d5e5ff;stroke-width:0.364466"
     d=""
     id="path1327" />
  <path
     style="fill:#d5e5ff;stroke-width:0.364466"
     d="m 152.52903,424.05621 v -23.32583 h 23.32582 23.32583 v 23.32583 23.32582 h -23.32583 -23.32582 z m 25.92522,10.68996 c 1.95386,-0.78178 3.44568,-2.61447 3.91695,-4.81193 1.17067,-5.45865 -2.4574,-9.77502 -7.95561,-9.46492 l -2.20673,0.12446 6.7e-4,-2.46015 6.6e-4,-2.46014 h 4.37359 4.3736 v -1.27563 -1.27564 H 174.94369 168.93 v 5.50948 5.50948 l 1.00228,-0.25129 c 0.55125,-0.13822 2.08442,-0.33845 3.40704,-0.44496 3.91004,-0.31488 5.85647,1.17247 5.85647,4.47518 0,2.01335 -0.80639,3.31098 -2.63792,4.2449 -1.8791,0.95818 -4.3853,0.75284 -7.71899,-0.63244 -0.55304,-0.22981 -0.63782,-0.0437 -0.63782,1.40001 0,1.78978 0.11625,1.87106 3.64466,2.54853 1.45309,0.279 5.08349,-0.12474 6.60853,-0.73494 z"
     id="path1405" />
  <path
     style="fill:#d5e5ff;stroke-width:0.364466"
     d=""
     id="path1483" />
  <path
     style="fill:#d5e5ff;stroke-width:0.364466"
     d="m 200.63854,326.01485 v -23.32583 h 24.41922 24.41923 v 23.32583 23.32582 h -24.41923 -24.41922 z m 29.76835,8.15611 c 2.17401,-1.75717 2.82077,-3.15564 2.8372,-6.13476 0.0264,-4.7791 -2.47371,-7.47029 -6.95095,-7.48235 -1.79542,-0.005 -2.49389,0.17509 -3.60383,0.92831 l -1.37677,0.9343 0.25109,-1.57026 c 0.70991,-4.43949 4.64851,-6.60344 8.83511,-4.85417 0.71964,0.30069 1.37041,0.5467 1.44615,0.5467 0.0757,0 0.13773,-0.71563 0.13773,-1.59029 v -1.5903 l -2.18605,-0.46391 c -7.16346,-1.52019 -11.71088,2.85894 -11.756,11.32092 -0.0222,4.16569 0.75679,7.03136 2.41866,8.89736 1.761,1.97732 2.93141,2.43043 5.93853,2.29904 2.29027,-0.10007 2.78897,-0.25439 4.00913,-1.24059 z"
     id="path1795" />
  <path
     style="fill:#d5e5ff;stroke-width:0.364466"
     d="m 223.73863,332.26423 c -1.92538,-1.20879 -2.55336,-4.51949 -1.32268,-6.97324 1.57632,-3.1429 5.85533,-2.88909 7.18176,0.42599 1.78258,4.45509 -2.16506,8.8664 -5.85908,6.54725 z"
     id="path1834" />
  <path
     style="fill:#d5e5ff;stroke-width:0.364466"
     d="m 200.63854,375.03553 v -24.23699 h 24.41922 24.41923 v 24.23699 24.23699 h -24.41923 -24.41922 z m 31.70854,8.74718 v -1.27563 h -5.15282 -5.15281 l 4.22007,-4.34582 c 4.76543,-4.90742 5.7211,-6.43468 5.7211,-9.143 0,-3.32728 -1.84538,-5.47833 -5.31837,-6.19932 -2.1669,-0.44985 -3.52122,-0.32331 -6.6179,0.61832 l -1.91344,0.58184 v 1.5902 c 0,1.79258 0.19833,1.87572 2.12715,0.8917 4.3029,-2.19517 8.44236,-0.87225 8.44236,2.69809 0,1.95908 -0.83625,3.12438 -6.33545,8.82823 -3.8143,3.95626 -4.23406,4.52247 -4.23406,5.71133 v 1.31969 h 7.10709 7.10708 z"
     id="path1951" />
  <path
     style="fill:#d5e5ff;stroke-width:0.364466"
     d="m 200.63854,424.05621 v -23.32583 h 24.41922 24.41923 v 23.32583 23.32582 h -24.41923 -24.41922 z m 24.96592,9.07382 c 4.14275,-1.13161 6.24318,-5.16194 4.61199,-8.84952 -0.45796,-1.03529 -1.18213,-1.94186 -1.85877,-2.32694 -1.3432,-0.76442 -1.36998,-0.94352 -0.21949,-1.46772 1.40576,-0.64051 2.1297,-2.41645 1.9362,-4.74979 -0.1434,-1.72929 -0.34467,-2.16849 -1.46363,-3.19395 -2.10462,-1.92874 -4.92445,-2.38835 -9.62795,-1.56927 l -2.30777,0.40188 v 1.5493 1.54929 L 218.5768,413.98 c 3.99702,-1.03681 7.68145,-0.37005 8.14424,1.47384 0.69072,2.75208 -0.63393,4.12604 -4.30883,4.46921 l -2.45697,0.22944 v 1.18047 1.18046 l 2.3651,0.1506 c 2.63001,0.16747 4.03368,0.93775 4.88789,2.6823 0.76966,1.57185 -0.082,3.78067 -1.786,4.63189 -1.59343,0.79601 -5.1657,0.84094 -7.28932,0.0917 -2.13428,-0.75301 -2.1868,-0.73181 -2.1868,0.8829 0,1.29422 0.11218,1.46455 1.18452,1.79858 2.74352,0.85462 6.17072,1.00777 8.47383,0.37866 z"
     id="path2643" />
  <path
     style="fill:#d5e5ff;stroke-width:0.364466"
     d="m 250.57038,424.05621 v -23.32583 h 23.32583 23.32582 v 23.32583 23.32582 h -23.32582 -23.32583 z m 28.16091,0.99527 c 2.15816,-5.65903 3.92126,-10.65818 3.91801,-11.10921 l -0.006,-0.82005 h -7.10708 -7.10709 v 1.44786 1.44786 l 5.06578,0.10112 5.06578,0.10113 -3.60385,9.29388 c -1.98211,5.11164 -3.60567,9.41689 -3.60791,9.56723 -0.002,0.15034 0.77497,0.2702 1.72714,0.26635 l 1.73121,-0.007 3.92392,-10.28916 z"
     id="path9168" />
  <path
     style="fill:#d5e5ff;stroke-width:0.364466"
     d=""
     id="path9441" />
  <path
     style="fill:#d5e5ff;stroke-width:0.364466"
     d="m 200.63854,175.85485 v -23.32582 h 24.41922 24.41923 v 23.32582 23.32583 h -24.41923 -24.41922 z m 27.27081,8.77421 c 3.20704,-1.64975 4.85245,-4.75372 5.09657,-9.61433 0.20273,-4.03657 -0.43065,-7.12841 -1.90353,-9.29206 -1.49824,-2.20089 -3.06974,-2.9886 -5.96234,-2.9886 -4.39833,0 -6.92627,2.32042 -7.27612,6.67878 -0.31692,3.9482 1.07918,6.58492 4.09681,7.73736 2.15863,0.82439 5.12555,0.58436 6.7084,-0.54273 l 1.17555,-0.83706 -0.24897,1.40896 c -0.80991,4.58343 -4.34169,6.62382 -8.72932,5.04312 -0.80182,-0.28887 -1.50829,-0.52769 -1.56993,-0.53071 -0.0616,-0.003 -0.0616,0.69156 0,1.5435 0.10845,1.499 0.16499,1.56338 1.75217,1.99516 2.0662,0.56211 5.11915,0.29449 6.86071,-0.60139 z"
     id="path10024" />
  <path
     style="fill:#d5e5ff;stroke-width:0.364466"
     d="m 250.57038,175.85485 v -23.32582 h 23.32583 23.32582 v 23.32582 23.32583 h -23.32582 -23.32583 z m 29.11251,8.81753 c 0.72622,-0.37508 1.81243,-1.37852 2.4138,-2.22988 0.98513,-1.39463 1.0934,-1.82452 1.0934,-4.34113 0,-2.24906 -0.16354,-3.07845 -0.83947,-4.25734 -1.84804,-3.22318 -5.90564,-4.35961 -9.309,-2.6072 l -1.76576,0.90919 0.2472,-1.31771 c 0.75636,-4.03173 3.36722,-5.96745 7.09533,-5.26054 1.11124,0.21071 2.30746,0.49692 2.65826,0.63603 0.54344,0.2155 0.63781,0.0367 0.63781,-1.20828 0,-1.31127 -0.11778,-1.50226 -1.14778,-1.86133 -1.8206,-0.63466 -5.75104,-0.48053 -7.41717,0.29086 -3.36226,1.55668 -4.98621,4.67168 -5.21714,10.00731 -0.27205,6.28603 1.55843,10.40537 5.21714,11.74069 1.78954,0.65313 4.51682,0.43753 6.33338,-0.50067 z"
     id="path10063" />
  <path
     style="fill:#d5e5ff;stroke-width:0.364466"
     d="m 250.57038,225.05776 v -24.41922 h 23.32583 23.32582 v 24.41922 24.41923 h -23.32582 -23.32583 z m 31.70855,8.74719 v -1.45787 h -4.95248 -4.95248 l 4.18908,-4.50727 c 5.32264,-5.72693 6.17283,-7.38532 5.35093,-10.43761 -1.115,-4.14082 -5.98751,-5.83919 -11.66243,-4.06508 l -2.00456,0.62668 -0.11109,1.72009 c -0.0611,0.94605 -0.0399,1.72009 0.0471,1.72009 0.087,0 1.03903,-0.39788 2.11565,-0.88417 3.04554,-1.37563 5.57528,-1.37373 7.21428,0.005 0.90461,0.76118 1.12137,1.2226 1.12137,2.38713 0,2.17017 -0.74127,3.25748 -5.86909,8.6089 -4.37839,4.56931 -4.70043,5.00254 -4.70043,6.32348 v 1.41809 h 7.10709 7.10709 z"
     id="path10102" />
  <path
     style="fill:#d5e5ff;stroke-width:0.364466"
     d="m 273.16604,181.74115 c -1.88485,-1.88486 -1.88909,-5.34734 -0.009,-7.4514 0.8923,-0.99865 1.29091,-1.16839 2.74385,-1.16839 1.45294,0 1.85155,0.16974 2.74385,1.16839 1.87997,2.10406 1.87573,5.56654 -0.009,7.4514 -1.48399,1.48399 -3.98547,1.48399 -5.46946,0 z"
     id="path10141" />
  <path
     style="fill:#d5e5ff;stroke-width:0.364466"
     d="m 223.0097,174.45044 c -2.68589,-1.68624 -2.57169,-7.1718 0.17892,-8.5942 2.33427,-1.20709 4.71019,-0.37723 5.65086,1.97373 0.72197,1.80439 0.74627,2.94545 0.0955,4.48304 -1.06856,2.52463 -3.76131,3.49599 -5.92526,2.13743 z"
     id="path10180" />
  <path
     style="fill:#80b3ff;stroke-width:0.364466"
     d="M 2.7334951,225.05776 V 200.63854 H 26.05932 49.385145 v 24.41922 24.41923 H 26.05932 2.7334951 Z m 27.6994169,7.67474 v -2.5303 l 1.548981,-0.11207 c 1.503558,-0.10879 1.552297,-0.15215 1.662098,-1.47882 l 0.113117,-1.36675 H 32.09501 30.432912 v -7.10709 -7.10709 h -2.018089 -2.01809 l -4.542299,6.93111 c -4.107149,6.26712 -4.542298,7.08763 -4.542298,8.56496 v 1.63384 h 4.920291 4.920291 v 2.55126 2.55126 h 1.640097 1.640097 z"
     id="path11075" />
  <path
     style="fill:#80b3ff;stroke-width:0.364466"
     d="m 20.462096,226.78898 c 0.83058,-1.36482 6.36149,-9.90629 6.512394,-10.0572 0.09802,-0.098 0.178228,2.22725 0.178228,5.16728 v 5.3455 h -3.483937 c -2.69204,0 -3.420918,-0.10355 -3.206685,-0.45558 z"
     id="path11229" />
  <path
     style="fill:#d5e5ff;stroke-width:0.364466"
     d="m 100.77485,225.05776 v -24.41922 h 23.32583 23.32582 v 24.41922 24.41923 h -23.32582 -23.32583 z m 27.23497,9.52713 c 3.43966,-1.75479 5.01687,-5.16359 4.9983,-10.80276 -0.0185,-5.632 -1.68407,-9.32614 -4.7898,-10.6238 -2.41191,-1.00776 -6.41665,-0.39918 -8.24333,1.2527 -2.20229,1.99155 -2.81516,6.93662 -1.23096,9.93237 1.59982,3.02531 6.23267,4.26696 9.46229,2.53598 l 1.36135,-0.72964 -0.0277,0.82076 c -0.0346,1.02484 -0.70349,2.78372 -1.45581,3.82827 -1.3324,1.84995 -4.48198,2.42335 -7.44588,1.35557 -0.80183,-0.28887 -1.5083,-0.52768 -1.56994,-0.5307 -0.0616,-0.003 -0.0616,0.69155 0,1.54349 0.10844,1.49872 0.1653,1.56351 1.75217,1.99678 2.20604,0.60232 5.37381,0.34719 7.18934,-0.57902 z"
     id="path11344" />
  <path
     style="fill:#d5e5ff;stroke-width:0.364466"
     d="m 122.38326,223.7777 c -1.25696,-1.25696 -1.27749,-1.32571 -1.13716,-3.80914 0.166,-2.9379 1.03631,-4.2179 3.13565,-4.61174 2.99915,-0.56264 5.01009,1.74392 4.74274,5.43997 -0.13711,1.89547 -0.31085,2.31922 -1.32096,3.22175 -1.73196,1.5475 -3.72028,1.45916 -5.42027,-0.24084 z"
     id="path11383" />
  <path
     style="fill:#d5e5ff;stroke-width:0.364466"
     d="m 302.68902,225.05776 v -24.41922 h 23.32583 23.32582 v 24.41922 24.41923 h -23.32582 -23.32583 z m 26.10281,9.54661 c 2.57365,-1.31352 3.78341,-3.46359 3.78341,-6.72418 0,-4.7407 -3.89615,-8.01812 -8.8383,-7.43472 l -1.73122,0.20436 v -2.34064 -2.34064 l 4.46471,-0.10234 4.46471,-0.10233 0.11312,-1.36675 0.11311,-1.36675 h -6.03569 -6.03569 v 5.64923 c 0,3.10707 0.041,5.64675 0.0911,5.64373 0.0501,-0.003 0.74716,-0.24183 1.54898,-0.5307 2.88134,-1.03804 6.07746,-0.51477 7.65379,1.25308 0.55162,0.61865 0.72893,1.33298 0.72893,2.93667 0,2.44898 -0.84697,3.68194 -3.02246,4.39992 -1.59793,0.52736 -5.05392,0.23614 -6.58334,-0.55475 -1.35522,-0.70081 -1.64046,-0.37128 -1.44498,1.66934 0.11084,1.15701 0.21907,1.24184 2.12136,1.66273 2.75204,0.6089 6.84466,0.34492 8.60844,-0.55526 z"
     id="path11422" />
  <path
     style="fill:#d5e5ff;stroke-width:0.364466"
     d="m 400.73038,225.05776 v -24.41922 h 23.32583 23.32582 v 24.41922 24.41923 h -23.32582 -23.32583 z m 27.73615,10.14931 c 3.19908,-1.08507 4.79181,-3.55402 4.76966,-7.39363 -0.0208,-3.60664 -1.47568,-5.9489 -4.32668,-6.96569 -2.05833,-0.7341 -3.79441,-0.63255 -5.7027,0.33355 l -1.70187,0.86159 0.008,-0.95271 c 0.004,-0.52399 0.31868,-1.63696 0.69839,-2.47328 1.36309,-3.00218 4.13931,-3.78551 8.86084,-2.50015 0.97029,0.26414 1.00228,0.2269 1.00228,-1.16683 0,-1.35555 -0.0823,-1.46436 -1.40904,-1.86185 -2.10484,-0.63062 -5.47149,-0.50933 -7.15591,0.25782 -1.99426,0.90825 -3.96491,3.20197 -4.77471,5.55746 -0.88581,2.57659 -0.9127,8.08048 -0.0533,10.90984 1.3758,4.52953 5.5498,6.83039 9.78504,5.39388 z"
     id="path11500" />
  <path
     style="fill:#d5e5ff;stroke-width:0.364466"
     d="m 424.49791,232.65564 c -3.13336,-0.88007 -3.66921,-6.71007 -0.8229,-8.95303 0.69199,-0.54531 3.45572,-0.6029 4.41051,-0.0919 2.35201,1.25876 2.40017,7.47984 0.0672,8.67516 -1.13551,0.58178 -2.43271,0.71303 -3.65477,0.36978 z"
     id="path11539" />
  <path
     style="fill:#87aade;stroke-width:0.364466"
     d=""
     id="path12005" />
  <text
     x="268.21982"
     y="270.25247"
     style="fill:#0000ff"
     font-size="15px"
     id="text348-6">4</text>
  <path
     style="fill:none;stroke:#000000;stroke-width:1.33242px;stroke-linecap:butt;stroke-linejoin:miter;stroke-opacity:1"
     d="m 279.54417,257.56714 -11.9583,14.77228"
     id="path13477-2" />
  <text
     x="183.05894"
     y="269.31021"
     style="fill:#0000ff"
     font-size="15px"
     id="text348-9">4</text>
  <path
     style="fill:none;stroke:#000000;stroke-width:1.33242px;stroke-linecap:butt;stroke-linejoin:miter;stroke-opacity:1"
     d="m 194.38331,256.62485 -11.9583,14.77228"
     id="path13477-1" />
  <path
     style="fill:#87aade;stroke-width:0.169951"
     d="m 270.42666,266.17065 c 0.0747,-0.12546 0.86245,-1.36336 1.75045,-2.75088 l 1.61454,-2.52276 0.0501,1.23029 0.0501,1.2303 -1.23082,1.52058 c -1.1065,1.36699 -1.28837,1.52058 -1.80056,1.52058 -0.43088,0 -0.53662,-0.0556 -0.43384,-0.22811 z"
     id="path15612" />
  <path
     style="fill:#ff0000;stroke-width:0.169951"
     d="m 267.52033,272.19576 c -0.27873,-0.30799 -0.2009,-0.43287 1.88561,-3.02542 5.01342,-6.22931 9.48209,-11.72728 9.61133,-11.8252 0.0281,-0.0213 0.24924,0.11702 0.4913,0.30743 l 0.44013,0.3462 -2.1926,2.71292 c -7.51806,9.30214 -9.58657,11.80532 -9.75535,11.80532 -0.10433,0 -0.32052,-0.14456 -0.48042,-0.32125 z"
     id="path15805" />
  <path
     style="fill:#ff0000;stroke-width:0.169951"
     d="m 274.01153,268.90555 -0.0499,-1.23215 -0.72229,-0.0523 c -0.39726,-0.0287 -0.7223,-0.11101 -0.7223,-0.18281 0,-0.22501 0.74898,-0.83285 1.10469,-0.89653 0.23579,-0.0422 0.35526,-0.21689 0.39006,-0.5703 0.0276,-0.2802 0.31151,-0.81492 0.63094,-1.18827 l 0.58077,-0.67881 0.006,1.23215 0.006,1.23215 h 0.76479 c 0.73645,0 0.76478,0.0189 0.76478,0.50985 0,0.49097 -0.0283,0.50985 -0.76478,0.50985 h -0.76479 v 1.27464 1.27463 h -0.58738 -0.58738 z"
     id="path15844" />
  <path
     style="fill:#ff0000;stroke-width:0.169951"
     d="m 268.94803,267.28989 c 0,-0.73057 0.43347,-1.54906 2.43764,-4.60285 l 2.13708,-3.25628 h 0.85674 0.85674 l -0.002,1.14717 c -0.002,1.05344 -0.0501,1.20814 -0.59483,1.89338 l -0.59318,0.74621 v -1.29855 c 0,-0.7142 -0.0585,-1.29855 -0.1299,-1.29855 -0.13428,0 -3.77899,5.62451 -3.77899,5.83173 0,0.0641 0.27349,0.11657 0.60776,0.11657 h 0.60776 l -0.39532,0.50045 c -0.33548,0.42469 -0.51752,0.50187 -1.20259,0.50985 -0.66025,0.008 -0.80727,-0.045 -0.80727,-0.28913 z"
     id="path15883" />
  <path
     style="fill:#ff0000;stroke-width:0.169951"
     d=""
     id="path15922" />
  <path
     style="fill:#ff0000;stroke-width:0.169951"
     d="m 183.8024,265.99998 c 0,-0.44436 0.49842,-1.32704 2.27921,-4.03634 l 2.2792,-3.46761 0.8649,-0.0514 0.86489,-0.0514 v 1.17065 c 0,1.09372 -0.0419,1.22451 -0.63732,1.99036 l -0.63731,0.81972 -0.085,-1.37289 -0.085,-1.37288 -1.78448,2.8025 c -0.98147,1.54137 -1.80999,2.87354 -1.84114,2.96038 -0.0312,0.0868 0.21968,0.15788 0.55743,0.15788 h 0.61408 l -0.37696,0.50985 c -0.328,0.44364 -0.48315,0.50986 -1.19474,0.50986 -0.81418,0 -0.8178,-0.003 -0.8178,-0.56874 z"
     id="path15961" />
  <path
     style="fill:#ff0000;stroke-width:0.169951"
     d="m 182.46441,271.31069 c -0.27797,-0.22509 -0.35195,-0.39024 -0.24038,-0.53664 0.43898,-0.57601 6.04199,-7.52478 9.79599,-12.14883 l 1.82675,-2.25013 0.41626,0.27275 c 0.22894,0.15001 0.41626,0.33464 0.41626,0.4103 0,0.0756 -0.8255,1.15667 -1.83444,2.40226 -7.39944,9.13499 -9.77536,12.04966 -9.87011,12.10822 -0.0598,0.037 -0.28947,-0.0791 -0.51033,-0.25793 z"
     id="path16000" />
  <path
     style="fill:#ff0000;stroke-width:0.169951"
     d="m 188.73099,267.9381 v -1.34984 l -0.69664,-0.0523 -0.69663,-0.0523 0.36907,-0.46737 c 0.20298,-0.25705 0.51647,-0.46736 0.69663,-0.46736 0.22146,0 0.32757,-0.11787 0.32757,-0.36388 0,-0.20013 0.28679,-0.74057 0.63732,-1.20099 l 0.63732,-0.83711 0.0499,1.20099 0.0499,1.20099 h 0.75734 c 0.72489,0 0.75733,0.0214 0.75733,0.50008 0,0.46683 -0.048,0.50356 -0.72229,0.55234 l -0.72229,0.0523 -0.0496,1.31712 -0.0496,1.31713 h -0.67265 -0.67266 z"
     id="path16039" />
  <path
     style="fill:#d7e3f4;stroke-width:0.480616"
     d="m 350.8496,224.92824 v -24.2711 h 24.27111 24.2711 v 24.2711 24.2711 h -24.2711 -24.27111 z m 14.25662,-5.27556 c 1.44081,-1.00918 1.8211,-2.97217 0.85997,-4.43903 -0.56978,-0.8696 -0.64231,-1.34732 -0.26224,-1.72739 0.82714,-0.82714 0.61428,-2.98736 -0.38333,-3.89018 -1.29954,-1.17607 -5.9779,-0.91373 -6.21802,0.34868 -0.14715,0.77365 0.0786,0.84276 1.91796,0.58721 2.3769,-0.33021 3.45791,0.16735 3.20949,1.47723 -0.11791,0.62171 -0.65749,0.95063 -1.72945,1.05425 -1.16882,0.11298 -1.55806,0.38314 -1.55806,1.08138 0,0.69902 0.33508,0.93078 1.34572,0.93078 2.55279,0 3.29493,1.85955 1.2713,3.18548 -0.99761,0.65365 -1.53844,0.70924 -2.88369,0.29637 -1.46765,-0.45044 -1.6558,-0.40862 -1.6558,0.36802 0,0.4819 0.27035,0.98528 0.60077,1.11861 1.27893,0.51605 4.51997,0.28479 5.48538,-0.39141 z m 11.26997,-4.33676 c 2.58159,-6.66093 2.62778,-6.48831 -1.7361,-6.48831 -3.28421,0 -3.60462,0.0854 -3.60462,0.96123 0,0.83307 0.32041,0.96123 2.40308,0.96123 1.32169,0 2.40308,0.17425 2.40308,0.38722 0,0.21297 -0.75697,2.26447 -1.68216,4.5589 -0.92518,2.29442 -1.68215,4.29798 -1.68215,4.45236 0,0.15438 0.45813,0.21158 1.01807,0.12711 0.80227,-0.12102 1.41292,-1.17236 2.8808,-4.95974 z m 13.4033,4.08524 c 1.17177,-1.17177 1.24375,-3.21676 0.15554,-4.41921 -0.61766,-0.68251 -0.67374,-1.02223 -0.24031,-1.45566 0.80684,-0.80684 0.69859,-3.05497 -0.18987,-3.94343 -0.44097,-0.44097 -1.5752,-0.75525 -2.72569,-0.75525 -3.08459,0 -4.53411,1.92182 -3.25382,4.31405 0.3318,0.61998 0.27977,1.26181 -0.17302,2.13457 -0.82466,1.58953 -0.46987,3.47184 0.8254,4.37908 1.47964,1.03638 4.44581,0.90181 5.60177,-0.25415 z"
     id="path1492" />
  <path
     style="fill:#d7e3f4;stroke-width:0.480616"
     d="m 385.76252,213.06642 c -1.21243,-0.67851 -0.97899,-2.2504 0.38504,-2.59275 1.52038,-0.38159 2.19008,0.0619 2.19008,1.45025 0,1.25549 -1.32375,1.8428 -2.57512,1.1425 z"
     id="path1531" />
  <path
     style="fill:#d7e3f4;stroke-width:0.480616"
     d="m 385.53562,218.50057 c -0.36309,-0.23018 -0.57072,-1.00562 -0.48062,-1.79495 0.11711,-1.0259 0.44865,-1.43081 1.26648,-1.54675 2.219,-0.31456 3.45269,2.25503 1.56714,3.26414 -1.11592,0.59723 -1.51263,0.61031 -2.353,0.0776 z"
     id="path1570" />
  <path
     style="fill:#87aade;stroke-width:0.480616"
     d="m 172.54111,15.85002 c 0,-0.33672 2.48354,-4.074931 2.70725,-4.074931 0.097,0 0.17644,0.973248 0.17644,2.162772 0,2.082669 -0.0534,2.162772 -1.44185,2.162772 -0.79301,0 -1.44184,-0.112776 -1.44184,-0.250613 z"
     id="path3363" />
  <path
     style="fill:#87aade;stroke-width:0.480616"
     d="M 250.8815,25.953258 V 2.6433874 h 23.30987 23.30987 V 25.953258 49.263129 H 274.19137 250.8815 Z m 14.41847,-6.96893 c 0,-0.961232 0.24031,-1.441848 0.72093,-1.441848 0.39651,0 0.72092,-0.324416 0.72092,-0.720924 0,-0.396508 -0.32441,-0.720923 -0.72092,-0.720923 -0.57674,0 -0.72093,-0.720924 -0.72093,-3.60462 0,-3.4830005 -0.0389,-3.6046189 -1.15179,-3.6046189 -0.91165,0 -1.61309,0.7401268 -3.36431,3.5498399 -2.89324,4.642018 -2.87609,5.101246 0.19056,5.101246 2.34968,0 2.40308,0.03204 2.40308,1.441848 0,1.121437 0.21361,1.441848 0.96123,1.441848 0.74763,0 0.96123,-0.320411 0.96123,-1.441848 z m 11.5439,0.120154 c 2.32385,-2.094932 2.56646,-7.156902 0.44469,-9.2786634 -1.20895,-1.2089528 -4.33418,-1.2630937 -5.38834,-0.093347 -2.79778,3.1045524 -0.14851,7.8392864 3.61284,6.4568224 1.50814,-0.554307 1.63761,-0.27296 0.57352,1.246246 -0.55806,0.796741 -1.22977,1.068172 -2.64339,1.068172 -1.31467,0 -1.89521,0.208564 -1.89521,0.680873 0,1.672868 3.40855,1.621313 5.29589,-0.0801 z"
     id="path3402" />
  <path
     style="fill:#87aade;stroke-width:0.480616"
     d="m 273.48146,14.189184 c -1.10132,-1.101322 -1.18276,-1.603325 -0.47472,-2.926307 1.00985,-1.8869336 3.3474,-0.802688 3.3474,1.552658 0,1.914667 -1.57739,2.668939 -2.87268,1.373649 z"
     id="path3441" />
  <path
     style="fill:#87aade;stroke-width:0.480616"
     d="m 261.16577,14.778939 c 0.38315,-0.726932 1.03066,-1.754248 1.4389,-2.282926 0.70038,-0.90698 0.74313,-0.832384 0.75756,1.321694 0.0149,2.223847 -0.0224,2.282926 -1.43891,2.282926 -1.43486,0 -1.44493,-0.01757 -0.75755,-1.321694 z"
     id="path3480" />
  <text
     x="182.35893"
     y="170.14648"
     style="fill:#0000ff"
     font-size="15px"
     id="text348-9-5">4</text>
  <path
     style="fill:none;stroke:#000000;stroke-width:1.33242px;stroke-linecap:butt;stroke-linejoin:miter;stroke-opacity:1"
     d="M 193.6833,157.46113 181.725,172.23341"
     id="path13477-1-6" />
  <path
     style="fill:#ff0000;stroke-width:0.169951"
     d="m 183.10239,166.83626 c 0,-0.44436 0.49842,-1.32704 2.27921,-4.03634 l 2.2792,-3.46761 0.8649,-0.0514 0.86489,-0.0514 v 1.17065 c 0,1.09372 -0.0419,1.22451 -0.63732,1.99036 l -0.63731,0.81972 -0.085,-1.37289 -0.085,-1.37288 -1.78448,2.8025 c -0.98147,1.54137 -1.80999,2.87354 -1.84114,2.96038 -0.0312,0.0868 0.21968,0.15788 0.55743,0.15788 h 0.61408 l -0.37696,0.50985 c -0.328,0.44364 -0.48315,0.50986 -1.19474,0.50986 -0.81418,0 -0.8178,-0.003 -0.8178,-0.56874 z"
     id="path15961-2" />
  <path
     style="fill:#ff0000;stroke-width:0.169951"
     d="m 181.7644,172.14697 c -0.27797,-0.22509 -0.35195,-0.39024 -0.24038,-0.53664 0.43898,-0.57601 6.04199,-7.52478 9.79599,-12.14883 l 1.82675,-2.25013 0.41626,0.27275 c 0.22894,0.15001 0.41626,0.33464 0.41626,0.4103 0,0.0756 -0.8255,1.15667 -1.83444,2.40226 -7.39944,9.13499 -9.77536,12.04966 -9.87011,12.10822 -0.0598,0.037 -0.28947,-0.0791 -0.51033,-0.25793 z"
     id="path16000-9" />
  <path
     style="fill:#ff0000;stroke-width:0.169951"
     d="m 188.03098,168.77438 v -1.34984 l -0.69664,-0.0523 -0.69663,-0.0523 0.36907,-0.46737 c 0.20298,-0.25705 0.51647,-0.46736 0.69663,-0.46736 0.22146,0 0.32757,-0.11787 0.32757,-0.36388 0,-0.20013 0.28679,-0.74057 0.63732,-1.20099 l 0.63732,-0.83711 0.0499,1.20099 0.0499,1.20099 h 0.75734 c 0.72489,0 0.75733,0.0214 0.75733,0.50008 0,0.46683 -0.048,0.50356 -0.72229,0.55234 l -0.72229,0.0523 -0.0496,1.31712 -0.0496,1.31713 h -0.67265 -0.67266 z"
     id="path16039-1" />
  <path
     style="fill:#87aade;stroke-width:0.138183"
     d="m 185.38244,264.99974 c 0.13723,-0.209 0.86536,-1.34383 1.61807,-2.52184 0.75271,-1.178 1.42486,-2.2009 1.49367,-2.2731 0.0751,-0.0788 0.12511,0.37005 0.12511,1.124 v 1.25528 l -1.13306,1.39783 c -1.12632,1.38951 -1.1367,1.39783 -1.74318,1.39783 h -0.61011 z"
     id="path4662" />
  <path
     style="fill:#87aade;stroke-width:0.181878"
     d="m 152.59545,375.03197 v -24.46256 h 23.3713 23.37129 v 24.46256 24.46257 h -23.37129 -23.3713 z m 12.91333,-6.63853 v -1.27315 h 0.72751 0.72751 v -0.72751 -0.72751 h -0.72751 -0.72751 v -3.54662 -3.54661 h -1.00601 -1.006 l -2.2678,3.43568 c -2.07766,3.14764 -2.26779,3.50598 -2.26779,4.27413 v 0.83844 h 2.45535 2.45535 v 1.27315 1.27314 h 0.81845 0.81845 z m 11.09082,0.86391 c 0.96072,-0.4909 1.42415,-1.08349 1.65668,-2.1184 0.29755,-1.32432 -0.47144,-3.06612 -1.49744,-3.39177 -0.34845,-0.11059 -0.33601,-0.14193 0.18103,-0.45637 1.14081,-0.69377 1.48867,-2.47875 0.70863,-3.63625 -0.68605,-1.01802 -1.46673,-1.35534 -3.13677,-1.35534 -1.67005,0 -2.45073,0.33732 -3.13678,1.35534 -0.78674,1.16745 -0.36903,3.15934 0.7715,3.679 l 0.45467,0.20716 -0.63415,0.43092 c -0.8453,0.57439 -1.23281,1.3759 -1.22245,2.52847 0.0187,2.08442 1.28631,3.14552 3.77414,3.15935 0.97897,0.005 1.46846,-0.0891 2.08094,-0.40211 z"
     id="path3226" />
  <path
     style="fill:#87aade;stroke-width:0.181878"
     d="m 173.5114,368.19197 c -0.73211,-0.28727 -1.08275,-0.8867 -1.08722,-1.85865 -0.003,-0.73077 0.0851,-0.96702 0.52759,-1.40955 0.46223,-0.46223 0.66591,-0.53165 1.55996,-0.53165 0.89404,0 1.09772,0.0694 1.55995,0.53165 0.51319,0.51319 0.61552,0.86491 0.53326,1.83277 -0.0607,0.71372 -0.3445,1.1011 -1.01075,1.37948 -0.70457,0.29439 -1.42574,0.31376 -2.08279,0.056 z"
     id="path3265" />
  <path
     style="fill:#87aade;stroke-width:0.181878"
     d="m 173.42046,362.71743 c -0.20007,-0.11474 -0.46346,-0.33733 -0.58532,-0.49464 -0.31156,-0.4022 -0.28586,-1.49388 0.0464,-1.96817 0.61256,-0.87456 2.64872,-0.8734 3.26177,0.002 0.33111,0.47272 0.35607,1.56379 0.0451,1.96888 -0.52754,0.68711 -1.97811,0.945 -2.76785,0.49208 z"
     id="path3304" />
  <path
     style="fill:#87aade;stroke-width:0.181878"
     d="m 160.53075,365.43792 c 0.49407,-0.8258 3.05595,-4.80629 3.18399,-4.94707 0.089,-0.0978 0.15714,0.98699 0.15714,2.50082 v 2.6736 h -1.73858 c -1.34215,0 -1.70755,-0.0518 -1.60255,-0.22735 z"
     id="path3343" />
  <path
     style="fill:#87aade;stroke-width:0.181878"
     d="m 152.59545,326.01591 v -23.46223 h 23.3713 23.37129 v 23.46223 23.46224 h -23.37129 -23.3713 z m 11.0493,7.97385 c 1.57204,-0.74747 2.3745,-2.29073 2.5385,-4.88192 0.16777,-2.65064 -0.65031,-4.8529 -2.12199,-5.71241 -0.78759,-0.45997 -2.74264,-0.49704 -3.55412,-0.0674 -1.24244,0.65784 -1.90972,1.8501 -1.90972,3.41219 0,1.79027 0.59658,2.87757 1.90972,3.48057 1.03721,0.47629 2.22346,0.43655 3.24923,-0.10886 l 0.84805,-0.45091 -0.10979,0.49638 c -0.37695,1.70426 -1.14277,2.64621 -2.33295,2.86949 -0.5862,0.10997 -1.79199,-0.067 -2.51846,-0.3697 -0.27255,-0.11355 -0.31829,-0.0268 -0.31829,0.60363 0,0.83509 0.0626,0.89677 1.13394,1.11725 1.02634,0.21123 2.23471,0.0639 3.18588,-0.38832 z m 2.59154,-14.61239 v -0.63657 h -1.18221 -1.1822 v -4.9107 -4.9107 l -0.68205,-1.4e-4 c -0.37512,-8e-5 -1.35726,0.13389 -2.18253,0.29771 l -1.50049,0.29785 v 0.72734 0.72734 l 0.77298,-0.1085 c 0.42514,-0.0597 1.03898,-0.16288 1.36408,-0.22934 l 0.59111,-0.12083 v 4.11499 4.11498 h -1.27315 -1.27314 v 0.63657 0.63658 h 3.2738 3.2738 z m 10.00328,-1.00032 v -1.27315 h 0.72751 0.72751 v -0.72751 -0.72751 h -0.72751 -0.72751 v -3.54662 -3.54661 h -1.00601 -1.006 l -2.2678,3.43568 c -2.07766,3.14764 -2.26779,3.50598 -2.26779,4.27413 v 0.83844 h 2.45535 2.45535 v 1.27315 1.27314 h 0.81845 0.81845 z m 13.63711,0.86392 c 1.14087,-0.58296 1.51818,-1.18563 1.60603,-2.56528 0.0888,-1.39447 -0.24035,-2.15251 -1.17377,-2.70324 l -0.64015,-0.37769 0.54299,-0.3438 c 0.76235,-0.48269 1.18716,-1.45953 1.07345,-2.46837 -0.16757,-1.4867 -1.22012,-2.37773 -2.99729,-2.53732 -1.3636,-0.12246 -2.46474,0.19002 -3.26994,0.92793 -0.56116,0.51427 -0.66132,0.73238 -0.73295,1.5962 -0.0999,1.20513 0.24815,2.00138 1.1027,2.52243 0.32025,0.19527 0.48282,0.35534 0.36126,0.35572 -0.12156,3.8e-4 -0.50918,0.25369 -0.86139,0.56292 -1.66356,1.46063 -1.03682,4.48379 1.08241,5.22116 1.02937,0.35816 3.023,0.26086 3.90665,-0.19066 z"
     id="path3382" />
  <path
     style="fill:#87aade;stroke-width:0.181878"
     d="m 161.38283,329.02351 c -0.84245,-0.36641 -1.20529,-1.19013 -1.10923,-2.51816 0.0684,-0.94589 0.15512,-1.15735 0.65919,-1.60774 0.44715,-0.39953 0.75723,-0.51767 1.35053,-0.51455 1.31409,0.007 2.00544,0.86362 1.99103,2.46729 -0.0103,1.14562 -0.23733,1.61647 -1.00518,2.08466 -0.67895,0.41399 -1.09328,0.43342 -1.88634,0.0885 z"
     id="path3421" />
  <path
     style="fill:#87aade;stroke-width:0.181878"
     d="m 171.82903,315.69667 c 0.52517,-0.0367 1.38454,-0.0367 1.90972,0 0.52517,0.0367 0.0955,0.0668 -0.95486,0.0668 -1.05035,0 -1.48003,-0.0301 -0.95486,-0.0668 z"
     id="path3460" />
  <path
     style="fill:#87aade;stroke-width:0.181878"
     d="m 171.26154,315.42153 c 0.49407,-0.8258 3.05595,-4.80629 3.18399,-4.94707 0.089,-0.0978 0.15714,0.98699 0.15714,2.50082 v 2.6736 h -1.73858 c -1.34215,0 -1.70756,-0.0518 -1.60255,-0.22735 z"
     id="path3499" />
  <path
     style="fill:#87aade;stroke-width:0.181878"
     d="m 186.64526,318.11294 c -1.22023,-0.55039 -1.42672,-2.3927 -0.36803,-3.28354 0.43176,-0.3633 0.73842,-0.45366 1.53952,-0.45366 0.86316,0 1.07328,0.0729 1.53201,0.53164 0.43219,0.43219 0.53164,0.68682 0.53164,1.36121 0,1.62672 -1.64211,2.56289 -3.23514,1.84435 z"
     id="path3538" />
  <path
     style="fill:#87aade;stroke-width:0.181878"
     d="m 186.69754,312.71069 c -0.59442,-0.32512 -0.81845,-0.72747 -0.81845,-1.46991 0,-1.32569 1.41676,-2.10058 2.79086,-1.52645 1.1296,0.47198 1.3756,1.79607 0.49693,2.67474 -0.42662,0.42662 -0.68711,0.53055 -1.31862,0.52611 -0.43283,-0.003 -0.95066,-0.0951 -1.15072,-0.20449 z"
     id="path3577" />
  <path
     style="fill:#87aade;stroke-width:0.181878"
     d="m 250.62758,326.01591 v -23.46223 h 23.37129 23.37129 v 23.46223 23.46224 h -23.37129 -23.37129 z m 15.64148,-6.63854 v -0.63657 h -1.17923 -1.17924 l -0.0484,-4.86523 -0.0484,-4.86523 -0.53622,-0.061 c -0.29492,-0.0336 -1.2566,0.0789 -2.13706,0.24991 l -1.60084,0.31094 v 0.72967 0.72967 l 0.77298,-0.1085 c 0.42514,-0.0597 1.03897,-0.16288 1.36408,-0.22934 l 0.5911,-0.12083 v 4.11499 4.11498 h -1.27314 -1.27315 v 0.63657 0.63658 h 3.2738 3.2738 z m 10.54892,-0.63657 v -1.27314 h 0.72751 c 0.71019,0 0.72751,-0.0152 0.72751,-0.63657 0,-0.62142 -0.0173,-0.63658 -0.72751,-0.63658 h -0.72751 v -3.63755 -3.63756 h -0.99332 -0.99331 l -2.28049,3.4665 c -2.05658,3.12615 -2.28048,3.5458 -2.28048,4.27413 v 0.80763 h 2.45535 2.45535 v 1.27314 1.27315 h 0.81845 0.81845 z m 11.65431,0.70179 c 2.2583,-0.6766 3.51551,-3.48062 3.08827,-6.88793 -0.18492,-1.47473 -0.7634,-2.91038 -1.40704,-3.49191 -1.41764,-1.28085 -4.13923,-1.09124 -5.3724,0.3743 -1.16524,1.38481 -1.07205,3.96868 0.1907,5.28773 1.08483,1.1332 2.9571,1.3577 4.35025,0.52165 l 0.59111,-0.35473 v 0.43382 c 0,0.2386 -0.20585,0.84688 -0.45743,1.35175 -0.62378,1.25176 -1.28535,1.5952 -2.82835,1.46828 -0.64363,-0.0529 -1.35438,-0.15483 -1.57946,-0.22641 -0.37806,-0.12024 -0.40922,-0.0745 -0.40922,0.6005 0,0.69086 0.0371,0.74053 0.68204,0.91181 0.95014,0.25235 2.33015,0.25723 3.15153,0.0111 z"
     id="path3616" />
  <path
     style="fill:#87aade;stroke-width:0.181878"
     d="m 271.7254,316.09334 c 0,-0.0887 2.54527,-4.11704 3.20806,-5.07734 0.21377,-0.30972 0.24762,0.0197 0.24762,2.40988 v 2.76863 h -1.72784 c -0.95031,0 -1.72784,-0.0455 -1.72784,-0.10117 z"
     id="path3655" />
  <path
     style="fill:#87aade;stroke-width:0.181878"
     d="m 286.51967,314.10781 c -0.59185,-0.41455 -1.02169,-1.67386 -0.88423,-2.59053 0.23297,-1.55352 1.52042,-2.37328 2.85291,-1.81653 1.5041,0.62846 1.69062,3.41299 0.29413,4.39113 -0.51183,0.3585 -1.76117,0.36729 -2.26281,0.0159 z"
     id="path3694" />
  <path
     style="fill:#d5e5ff;stroke-width:0.181878"
     d="m 257.58007,363.43727 c 0.14566,-0.22508 0.89983,-1.41183 1.67593,-2.63723 0.77609,-1.2254 1.44385,-2.228 1.48391,-2.228 0.0401,0 0.0728,1.18675 0.0728,2.63722 v 2.63723 h -1.74876 -1.74875 z"
     id="path3772" />
  <path
     style="fill:#87aade;stroke-width:0.194788"
     d="m 258.05151,364.01174 c 0.56604,-0.0395 1.44259,-0.0391 1.94788,9.2e-4 0.50529,0.04 0.0422,0.0723 -1.02917,0.0718 -1.07133,-5.1e-4 -1.48475,-0.0332 -0.91871,-0.0727 z"
     id="path7144" />
  <path
     style="fill:#87aade;stroke-width:0.194788"
     d="m 257.57962,363.47417 c 0.16799,-0.43778 3.01754,-4.77266 3.13733,-4.77266 0.0571,0 0.10375,1.13951 0.10375,2.53224 v 2.53224 h -1.67653 c -1.40931,0 -1.65869,-0.0465 -1.56455,-0.29182 z"
     id="path7183" />
  <path
     style="fill:#87aade;stroke-width:0.194788"
     d="m 152.51875,273.96887 v -23.37452 h 23.47192 23.47192 v 23.37452 23.37452 h -23.47192 -23.47192 z m 24.48696,8.8259 c 0.86641,-0.44046 1.61475,-1.72922 1.61429,-2.78006 -3.9e-4,-0.92569 -0.54514,-1.95391 -1.30335,-2.46014 l -0.62189,-0.41522 0.49242,-0.26353 c 1.0644,-0.56965 1.44634,-2.45715 0.73939,-3.65392 -0.59197,-1.00213 -1.77886,-1.46325 -3.48455,-1.35379 -2.12937,0.13666 -3.22746,1.09863 -3.22078,2.82154 0.004,0.9539 0.3395,1.6011 1.0948,2.1101 l 0.60502,0.40772 -0.57667,0.25526 c -0.96875,0.42881 -1.35183,1.26669 -1.27596,2.79082 0.058,1.16472 0.13441,1.38641 0.65861,1.91061 0.32616,0.32616 0.9368,0.72089 1.35699,0.87717 0.99381,0.36964 2.95171,0.24654 3.92168,-0.24656 z m -12.64926,-4.88145 c 1.09961,-2.86581 1.99771,-5.36396 1.99577,-5.55145 -0.003,-0.31223 -0.30634,-0.34087 -3.60711,-0.34087 h -3.60357 v 0.68175 0.68176 h 2.60698 2.60698 l -1.82604,4.7236 c -1.00432,2.59798 -1.82685,4.78934 -1.82783,4.86969 -0.001,0.0804 0.3711,0.14609 0.82686,0.14609 h 0.82865 z m 20.72548,-8.60751 c 1.9158,-2.40032 2.04601,-2.52096 2.73319,-2.53224 l 0.72156,-0.0118 0.0576,1.31482 0.0576,1.31481 h 0.77915 0.77915 l 0.0576,-1.31481 0.0576,-1.31482 h 0.77025 c 0.75043,0 0.77026,-0.0176 0.77026,-0.68176 0,-0.66552 -0.0186,-0.68175 -0.77916,-0.68175 h -0.77915 v -1.26309 -1.26308 l 2.33665,-2.87615 c 1.28515,-1.58189 2.33216,-2.91999 2.32667,-2.97356 -0.005,-0.0536 -0.25914,-0.29387 -0.56368,-0.53402 l -0.5537,-0.43662 -1.72427,2.14525 -1.72427,2.14525 -0.0974,-1.02687 -0.0974,-1.02687 -0.92517,-0.0594 -0.92517,-0.0594 -2.33474,3.56555 c -1.9268,2.94254 -2.33523,3.69317 -2.33753,4.296 -0.003,0.70547 0.0205,0.73045 0.67898,0.73045 0.37497,0 0.68176,0.0425 0.68176,0.0944 0,0.0519 -0.70124,0.95778 -1.5583,2.01307 -0.85707,1.0553 -1.55831,2.01018 -1.55831,2.12195 0,0.19677 0.74192,0.80418 1.00757,0.82489 0.0721,0.006 1.03627,-1.12396 2.14267,-2.51018 z m -9.14601,0.75874 c 0.92855,-0.25789 1.88515,-1.06452 2.2239,-1.87526 0.59311,-1.41951 0.11327,-3.14271 -1.04863,-3.76584 l -0.60248,-0.32311 0.54525,-0.32209 c 0.74514,-0.44016 1.24985,-1.5552 1.10578,-2.44298 -0.32552,-2.00596 -2.46575,-2.93388 -5.46266,-2.36841 l -1.28392,0.24226 v 0.77794 c 0,0.59647 0.0653,0.75287 0.28004,0.67047 0.69477,-0.26661 2.72891,-0.5304 3.23421,-0.41941 1.24682,0.27384 1.84399,1.24611 1.42923,2.32695 -0.19886,0.51822 -1.15421,0.88527 -2.30417,0.88527 h -1.08101 v 0.68176 c 0,0.67203 0.0118,0.68177 0.82785,0.68284 1.9356,0.003 2.91207,0.67858 2.91207,2.01613 0,0.97565 -0.32,1.41529 -1.30356,1.79092 -0.99877,0.38143 -2.65672,0.28585 -3.61219,-0.20824 -0.7803,-0.40351 -0.80163,-0.38785 -0.73455,0.53934 0.0581,0.80302 0.0862,0.83468 0.93644,1.05566 1.11338,0.28936 3.00113,0.3161 3.9384,0.0558 z m -9.78203,-0.67319 v -0.68175 h -1.16872 -1.16873 v -4.8697 -4.86969 l -0.82785,0.005 c -0.72976,0.004 -1.2878,0.0943 -3.01921,0.4875 -0.35537,0.0807 -0.43827,0.23278 -0.43827,0.80405 v 0.70452 l 0.87641,-0.12012 c 0.48203,-0.0661 1.09561,-0.17514 1.36351,-0.24238 l 0.48711,-0.12226 v 4.11166 4.11166 h -1.26612 -1.26612 v 0.68175 0.68176 h 3.214 3.21399 z"
     id="path7222" />
  <path
     style="fill:#87aade;stroke-width:0.194788"
     d="m 173.6485,281.69387 c -1.64859,-0.74799 -1.23156,-3.40315 0.58813,-3.74452 0.8287,-0.15547 1.95591,0.20745 2.3378,0.75268 0.45281,0.64647 0.37504,1.96706 -0.15192,2.57968 -0.53794,0.6254 -1.86836,0.82307 -2.77401,0.41216 z"
     id="path7261" />
  <path
     style="fill:#87aade;stroke-width:0.194788"
     d="m 173.34605,275.93173 c -0.73883,-0.73882 -0.73883,-1.4338 0,-2.17263 0.76833,-0.76833 2.12764,-0.81188 2.84826,-0.0913 0.65049,0.65049 0.65049,1.70466 0,2.35516 -0.72062,0.72062 -2.07993,0.67706 -2.84826,-0.0913 z"
     id="path7300" />
  <path
     style="fill:#87aade;stroke-width:0.194788"
     d="m 152.51875,175.99067 v -23.37452 h 23.47192 23.47192 v 23.37452 23.37452 h -23.47192 -23.47192 z m 24.72199,6.66412 c 1.32776,-0.99132 1.73898,-2.66373 1.00751,-4.09753 -0.22826,-0.44743 -0.47897,-0.81629 -0.55715,-0.8197 -0.0782,-0.003 -0.30691,-0.13096 -0.50831,-0.28346 -0.35059,-0.26545 -0.34037,-0.29899 0.2398,-0.78717 1.54972,-1.30401 1.08374,-3.82243 -0.84756,-4.58071 -1.03855,-0.40777 -3.051,-0.30263 -3.9573,0.20674 -1.72066,0.96707 -1.90398,3.52374 -0.32676,4.55718 l 0.50816,0.33295 -0.64145,0.43227 c -0.84579,0.56998 -1.12774,1.17485 -1.13122,2.42683 -0.003,1.21683 0.34924,1.98978 1.17649,2.57883 1.11287,0.79244 3.99575,0.81176 5.03779,0.0338 z m -12.86758,-4.77974 c 1.08654,-2.82039 1.97552,-5.31854 1.97552,-5.55145 0,-0.41951 -0.0337,-0.42347 -3.60357,-0.42347 h -3.60357 v 0.77915 0.77915 h 2.53224 c 1.39273,0 2.53224,0.0681 2.53224,0.15124 0,0.0832 -0.7889,2.1968 -1.75309,4.69692 -0.9642,2.50012 -1.75309,4.57959 -1.75309,4.62105 0,0.0415 0.382,0.0754 0.8489,0.0754 h 0.8489 z m 20.06373,-7.73956 c 1.96399,-2.45295 2.03859,-2.52069 2.77573,-2.52069 h 0.75749 v 1.26612 1.26612 h 0.77915 0.77915 v -1.26612 -1.26612 h 0.77915 c 0.7606,0 0.77915,-0.0162 0.77915,-0.68176 0,-0.66552 -0.0185,-0.68175 -0.77915,-0.68175 h -0.77915 l 1.3e-4,-1.21743 1.3e-4,-1.21742 2.33732,-2.88996 c 1.28553,-1.58948 2.33733,-2.96407 2.33733,-3.05464 0,-0.0906 -0.24304,-0.33775 -0.54009,-0.54926 l -0.5401,-0.38458 -1.74866,2.16803 -1.74866,2.16804 -0.0584,-1.11496 -0.0584,-1.11497 h -0.94338 -0.94338 l -2.2609,3.47417 c -1.96654,3.02186 -2.26089,3.57976 -2.26089,4.28532 0,0.80027 0.009,0.81117 0.69562,0.81117 h 0.69562 l -1.68548,2.06446 -1.68548,2.06447 0.43945,0.46777 c 0.2417,0.25728 0.53374,0.46258 0.64898,0.45623 0.11524,-0.006 1.11774,-1.14586 2.22776,-2.53224 z m -7.79817,-0.36083 c 1.02356,-0.52218 1.63314,-1.40842 1.74102,-2.53119 0.13744,-1.43032 -0.30205,-2.23533 -1.66511,-3.04992 -0.0303,-0.0181 0.24761,-0.33578 0.6177,-0.70587 0.8893,-0.8893 1.05775,-1.78707 0.55048,-2.93383 -0.30353,-0.68618 -0.57564,-0.9605 -1.30114,-1.31171 -0.81353,-0.39382 -1.11935,-0.43261 -2.70205,-0.34275 -2.31048,0.13119 -2.46646,0.20145 -2.46646,1.111 v 0.72977 l 1.01639,-0.26364 c 1.87875,-0.48735 3.60649,-0.21386 3.92709,0.62162 0.51646,1.34587 -0.26601,2.22908 -2.10565,2.37675 l -1.27953,0.10271 v 0.6331 0.63311 l 1.36557,0.0772 c 1.15473,0.0652 1.44403,0.15562 1.87374,0.58533 0.70235,0.70235 0.69693,1.96176 -0.0115,2.67019 -0.76513,0.76514 -3.11458,0.82362 -4.83481,0.12035 -0.29162,-0.11922 -0.34088,-0.0249 -0.34088,0.65313 0,0.75256 0.0368,0.80192 0.73046,0.97999 0.40175,0.10313 0.90576,0.2333 1.12003,0.28927 0.80202,0.20951 2.98874,-0.0487 3.76465,-0.44457 z m -10.48483,-0.40677 v -0.77915 h -1.16872 -1.16873 v -4.7723 -4.7723 h -0.90278 c -0.49653,0 -1.46073,0.10281 -2.14267,0.22846 l -1.23988,0.22846 v 0.76983 c 0,0.7647 0.004,0.76898 0.63306,0.6429 0.34818,-0.0698 0.96176,-0.17962 1.36351,-0.24403 l 0.73046,-0.11711 v 4.01804 4.01805 h -1.26612 -1.26612 v 0.77915 0.77915 h 3.214 3.21399 z"
     id="path7378" />
  <path
     style="fill:#87aade;stroke-width:0.194788"
     d="m 173.75061,176.32298 c -1.2141,-0.61411 -1.21162,-2.294 0.004,-2.92257 1.35526,-0.70059 2.92331,0.0571 2.9113,1.40679 -0.007,0.82494 -0.31682,1.28853 -1.04499,1.56539 -0.70182,0.26683 -1.27507,0.25163 -1.87063,-0.0496 z"
     id="path7417" />
  <path
     style="fill:#87aade;stroke-width:0.194788"
     d=""
     id="path7456" />
  <path
     style="fill:#87aade;stroke-width:0.194788"
     d="m 174.07056,181.83323 c -1.27499,-0.39222 -1.80563,-1.62825 -1.22328,-2.84945 0.57262,-1.20079 2.46469,-1.46172 3.45055,-0.47585 0.78271,0.7827 0.80808,2.06061 0.0558,2.81284 -0.28244,0.28244 -0.61114,0.51473 -0.73045,0.51619 -0.11931,0.001 -0.39223,0.0397 -0.6065,0.0851 -0.21427,0.0453 -0.64004,0.005 -0.94617,-0.0888 z"
     id="path7495" />
  <path
     style="fill:#87aade;stroke-width:0.194788"
     d="m 185.17158,165.13126 c 0.39579,-0.61602 1.15232,-1.79935 1.68118,-2.62964 0.52886,-0.83028 0.99661,-1.5096 1.03945,-1.5096 0.0428,0 0.0779,0.51462 0.0779,1.1436 0,1.10708 -0.0379,1.19108 -1.1862,2.62964 -0.99442,1.24577 -1.27882,1.48603 -1.75908,1.48603 h -0.57287 z"
     id="path7534" />
  <path
     style="fill:#87aade;stroke-width:0.194788"
     d="m 250.49696,273.96887 v -23.37452 h 23.47191 23.47192 v 23.37452 23.37452 h -23.47192 -23.47191 z m 19.76408,-3.71336 c 1.90248,-2.34658 1.98978,-2.42432 2.78722,-2.48235 l 0.82322,-0.0599 v 1.27732 1.27732 h 0.77915 0.77915 v -1.26612 -1.26612 h 0.77915 c 0.7606,0 0.77915,-0.0162 0.77915,-0.68176 0,-0.66552 -0.0185,-0.68176 -0.77915,-0.68176 h -0.77915 v -1.24927 -1.24928 l 2.33733,-2.88996 c 1.28552,-1.58948 2.33738,-2.94973 2.33745,-3.02279 7e-5,-0.073 -0.25158,-0.31205 -0.55921,-0.53111 l -0.55934,-0.39829 -1.72942,2.15406 -1.72942,2.15406 -0.0584,-1.08728 -0.0584,-1.08728 h -0.95859 -0.95859 l -2.33896,3.55487 c -1.93005,2.93339 -2.33968,3.68258 -2.34308,4.28533 -0.004,0.70573 0.0189,0.73046 0.67764,0.73046 0.37496,0 0.68175,0.0506 0.68175,0.11256 0,0.0619 -0.71363,0.98535 -1.58585,2.05209 l -1.58585,1.93953 0.4546,0.48389 c 0.25002,0.26614 0.54213,0.45471 0.64911,0.41905 0.10699,-0.0357 1.07832,-1.15494 2.15852,-2.48728 z m -3.98628,-0.86415 v -0.68175 h -1.26612 -1.26612 v -4.8697 -4.86969 l -0.82785,0.009 c -0.45531,0.005 -1.35377,0.11735 -1.99657,0.25039 -1.16696,0.24153 -1.16882,0.24303 -1.23079,0.99247 l -0.0621,0.75059 0.84122,-0.13375 c 0.46267,-0.0736 1.03844,-0.18288 1.27949,-0.24293 l 0.43827,-0.1092 v 4.11166 4.11166 h -1.16873 -1.16872 v 0.68175 0.68176 h 3.21399 3.214 z m 20.59792,-0.007 c 0.96593,-0.40359 1.40032,-0.81889 1.8259,-1.74566 0.70681,-1.53921 0.38048,-3.38829 -0.78356,-4.43993 -0.84368,-0.76222 -2.3644,-1.20073 -3.45468,-0.99619 l -0.65469,0.12282 v -1.19041 -1.1904 h 2.24006 2.24006 v -0.77915 -0.77915 h -3.01921 -3.01921 v 2.84714 2.84714 l 0.43827,-0.1407 c 0.24105,-0.0774 1.03021,-0.18517 1.75368,-0.23952 1.44125,-0.10828 2.00654,0.11346 2.60059,1.02009 0.36231,0.55295 0.40257,1.82324 0.0771,2.43145 -0.57868,1.08127 -2.49661,1.48006 -4.18785,0.87077 -1.06966,-0.38536 -1.07134,-0.3846 -1.07134,0.48702 0,0.7054 0.0558,0.78969 0.63306,0.95637 1.03936,0.3001 3.58153,0.25271 4.38185,-0.0817 z"
     id="path7763" />
  <text
     x="169.63345"
     y="69.589188"
     style="fill:#000000"
     font-size="15px"
     id="text38-6">7</text>
  <path
     style="fill:#87aade;stroke-width:0.295264"
     d="M 152.65128,25.983197 V 2.5097406 h 23.32583 23.32582 V 25.983197 49.456654 h -23.32582 -23.32583 z m 12.02009,10.197074 c 1.45502,-0.887176 2.24578,-2.708761 2.24761,-5.177592 0.002,-2.469363 -0.43621,-3.944127 -1.45609,-4.902247 -0.61739,-0.580011 -1.06456,-0.707762 -2.47738,-0.707762 -1.42129,0 -1.85867,0.12651 -2.49092,0.720477 -1.66326,1.562552 -1.66408,4.377312 -0.002,5.939008 0.58829,0.552668 1.0843,0.717499 2.14563,0.713014 0.75924,-0.0032 1.61296,-0.116346 1.89715,-0.251411 0.8747,-0.415708 0.63018,0.930618 -0.34636,1.907164 -0.91692,0.91692 -2.01247,1.10229 -3.39902,0.575123 -0.70515,-0.268099 -0.75738,-0.228874 -0.75738,0.568878 0,0.960962 0.30065,1.108612 2.36211,1.160041 0.84835,0.02117 1.67129,-0.17575 2.27639,-0.544693 z m 1.56204,-16.397609 c 0,-0.726474 -0.0378,-0.738159 -2.38606,-0.738159 h -2.38605 l 2.10654,-2.332962 c 2.4226,-2.682983 2.91621,-3.877191 2.25587,-5.457624 -0.2426,-0.580624 -0.81885,-1.229405 -1.32396,-1.4906072 -1.04079,-0.5382118 -3.09175,-0.6023717 -4.42282,-0.1383585 -0.75622,0.2636217 -0.92985,0.4848927 -0.92985,1.1850167 v 0.860869 l 1.06948,-0.446858 c 1.90505,-0.795979 3.52151,-0.54045 3.96531,0.626835 0.42348,1.113819 -0.14251,2.078508 -2.832,4.826942 -1.59278,1.627686 -2.49805,2.786593 -2.49805,3.197933 0,0.628926 0.0927,0.645132 3.69079,0.645132 h 3.6908 z m 10.92475,-0.885791 c 0,-1.279476 0.0328,-1.328687 0.88579,-1.328687 0.748,0 0.88579,-0.114824 0.88579,-0.738159 0,-0.623334 -0.13779,-0.738159 -0.88579,-0.738159 h -0.88579 V 12.548703 9.0055399 h -0.98786 c -0.9319,0 -1.11588,0.1922193 -3.2479,3.3934061 -1.56323,2.347159 -2.26004,3.667166 -2.26004,4.281322 v 0.887916 h 2.36211 2.36211 v 1.131844 c 0,1.317678 0.14751,1.525529 1.08263,1.525529 0.61969,0 0.68895,-0.133572 0.68895,-1.328686 z m 10.51433,-3.690795 c 1.03411,-2.679518 1.88167,-5.170804 1.88347,-5.5361929 0.003,-0.6522226 -0.0614,-0.6643432 -3.53989,-0.6643432 h -3.54316 v 0.8742954 0.8742957 l 2.48778,0.08531 2.48778,0.08531 -1.74962,4.536967 c -0.96229,2.495331 -1.74962,4.59643 -1.74962,4.669109 0,0.07268 0.41469,0.09051 0.92154,0.03962 0.90229,-0.09059 0.96081,-0.19429 2.80172,-4.964372 z"
     id="path729" />
  <path
     style="fill:#87aade;stroke-width:0.295264"
     d="m 161.53062,30.667596 c -0.88954,-1.13087 -0.69311,-2.995823 0.39185,-3.720271 1.22403,-0.817301 3.12989,0.483446 3.12989,2.13614 0,2.076727 -2.31512,3.118101 -3.52174,1.584131 z"
     id="path768" />
  <path
     style="fill:#d5e5ff;stroke-width:0.295264"
     d="M 152.65128,74.996956 V 50.637708 h 23.32583 23.32582 v 24.359248 24.359247 h -23.32582 -23.32583 z m 13.58213,-5.610009 c 0,-0.730967 -0.0251,-0.738159 -2.57617,-0.738159 h -2.57616 l 2.12079,-2.140661 c 1.16644,-1.177364 2.32404,-2.630656 2.57246,-3.229538 1.22103,-2.943695 -1.40289,-5.18346 -5.02525,-4.289519 -1.34419,0.331724 -1.46148,0.432971 -1.54823,1.33647 l -0.0939,0.977555 0.89118,-0.460844 c 0.49014,-0.253464 1.49261,-0.460844 2.22771,-0.460844 1.08406,0 1.42404,0.133536 1.79972,0.706894 0.74633,1.139043 0.25997,2.098915 -2.55601,5.044477 -1.61216,1.686349 -2.61777,2.979115 -2.61777,3.365282 0,0.605777 0.12519,0.627046 3.69079,0.627046 h 3.6908 z m 21.80942,-0.05863 c 0.42804,-0.311555 1.0772,-1.151531 1.44259,-1.866612 1.29563,-2.535611 0.67356,-7.098899 -1.14099,-8.369858 -0.99527,-0.697119 -3.52249,-0.641342 -4.46305,0.0985 -1.0369,0.815623 -1.51131,2.141126 -1.33288,3.724081 0.27432,2.433778 2.59728,3.867177 4.78546,2.952898 1.14502,-0.478418 1.19829,-0.405988 0.71694,0.974794 -0.56115,1.60973 -2.41928,2.138469 -4.58907,1.305842 -0.34455,-0.132217 -0.42341,0.01955 -0.34811,0.669979 0.0692,0.597854 0.31071,0.904178 0.83551,1.059773 1.16996,0.346878 3.24481,0.06842 4.0936,-0.549399 z m -12.00276,-4.813215 c 1.09953,-2.841913 2.00022,-5.333199 2.00152,-5.536193 0.002,-0.275705 -0.93138,-0.369079 -3.68843,-0.369079 h -3.6908 v 0.738159 c 0,0.732118 0.0215,0.738159 2.62984,0.738159 h 2.62984 l -1.74405,4.450441 c -0.95922,2.447743 -1.74404,4.648901 -1.74404,4.891462 0,0.306029 0.24593,0.412422 0.80348,0.347592 0.74967,-0.08717 0.93737,-0.439488 2.80264,-5.260541 z"
     id="path844" />
  <path
     style="fill:#d5e5ff;stroke-width:0.295264"
     d="m 184.99751,64.113903 c -1.24174,-1.241737 -0.91458,-3.461169 0.59479,-4.03503 1.6334,-0.62102 3.00085,1.104199 2.44731,3.087623 -0.29782,1.067147 -0.48397,1.254748 -1.49197,1.503619 -0.62124,0.153382 -0.96326,0.03066 -1.55013,-0.556212 z"
     id="path883" />
  <path
     style="fill:#87aade;stroke-width:0.295264"
     d="m 250.6788,374.98478 v -24.35925 h 23.32583 23.32582 v 24.35925 24.35925 H 274.00463 250.6788 Z m 11.81054,-8.26738 c 0,-1.22043 0.0601,-1.32869 0.73816,-1.32869 0.59053,0 0.73816,-0.14763 0.73816,-0.73816 0,-0.59053 -0.14763,-0.73816 -0.73816,-0.73816 h -0.73816 v -3.54316 -3.54316 l -1.10723,0.006 c -1.08556,0.006 -1.15206,0.0737 -3.39554,3.48156 -1.43548,2.1805 -2.28829,3.77397 -2.28829,4.27567 v 0.79976 h 2.50974 2.50974 v 1.32869 c 0,1.27947 0.0328,1.32868 0.88579,1.32868 0.85299,0 0.88579,-0.0492 0.88579,-1.32868 z m 12.1662,1.0216 c 2.24993,-0.62488 3.10927,-3.45022 1.58544,-5.21264 l -0.71629,-0.82844 0.62771,-0.67242 c 0.76599,-0.82055 0.82269,-2.34894 0.12654,-3.41138 -1.0594,-1.61687 -4.36674,-1.69369 -5.92285,-0.13758 -0.74922,0.74922 -0.83392,1.00664 -0.68835,2.09195 0.0949,0.70723 0.4105,1.43559 0.73653,1.69959 0.55754,0.45147 0.55123,0.48361 -0.27666,1.41018 -0.91598,1.02516 -1.0348,1.78892 -0.51175,3.28935 0.24162,0.69311 0.67522,1.11657 1.55013,1.51389 1.40008,0.63581 1.97475,0.67821 3.48955,0.2575 z"
     id="path2588" />
  <path
     style="fill:#87aade;stroke-width:0.295264"
     d="m 271.77673,365.84503 c -0.86715,-0.86715 -0.91855,-1.62788 -0.17226,-2.54951 0.67084,-0.82844 2.44937,-0.93677 3.19174,-0.1944 0.72212,0.72212 0.62449,2.26901 -0.18456,2.92413 -0.92446,0.74858 -1.97276,0.68194 -2.83492,-0.18022 z"
     id="path2627" />
  <path
     style="fill:#d7e3f4;stroke-width:0.295264"
     d="m 272.67594,361.02395 c -1.41791,-0.27375 -1.78622,-2.1129 -0.58123,-2.90244 1.66169,-1.08878 3.95696,0.80142 2.68281,2.20934 -0.58297,0.64417 -1.2373,0.85997 -2.10158,0.6931 z"
     id="path2666" />
  <path
     style="fill:#d7e3f4;stroke-width:0.295264"
     d="m 234.21356,118.24864 c -1.97035,-0.81031 -1.09846,-3.83399 1.10554,-3.83399 0.78063,0 2.07284,1.25971 2.07284,2.02071 0,1.35234 -1.80091,2.37977 -3.17838,1.81328 z"
     id="path2781" />
  <path
     style="fill:#d7e3f4;stroke-width:0.295264"
     d="m 233.69305,112.33886 c -0.73138,-0.80817 -0.29753,-2.08383 0.84543,-2.48579 1.7158,-0.60342 3.32824,1.38725 2.11024,2.60524 -0.67811,0.67811 -2.29295,0.61285 -2.95567,-0.11945 z"
     id="path2820" />
  <path
     style="fill:#d5e5ff;stroke-width:0.295264"
     d="m 200.77925,124.01071 v -23.47345 h 24.35925 24.35925 v 23.47345 23.47346 H 225.1385 200.77925 Z m 37.35116,-5.1674 c 0.38897,-0.36542 0.791,-1.04586 0.8934,-1.51208 0.24114,-1.09795 -0.33806,-2.83546 -1.07706,-3.23096 -0.56298,-0.3013 -0.55825,-0.33445 0.17128,-1.20144 1.01314,-1.20406 0.98121,-2.43232 -0.0911,-3.50466 -1.47663,-1.47664 -4.4751,-1.46529 -5.8211,0.022 -0.84793,0.93695 -0.7521,2.82738 0.18415,3.63271 l 0.74222,0.63843 -0.78695,0.65173 c -0.43283,0.35845 -0.85423,1.00365 -0.93645,1.43377 -0.20302,1.06205 0.25021,2.5727 0.96632,3.22077 1.25318,1.13411 4.47777,1.0499 5.75533,-0.1503 z m -22.88324,-0.14734 c 0,-0.72647 -0.0378,-0.73816 -2.38606,-0.73816 h -2.38605 l 2.10141,-2.32728 c 2.31422,-2.56296 2.77961,-3.60166 2.33508,-5.21163 -0.5255,-1.9032 -3.24017,-2.78027 -5.82086,-1.88064 -0.7549,0.26316 -0.92985,0.48537 -0.92985,1.18105 0,1.0041 -0.0751,0.98152 1.32257,0.39754 1.49949,-0.62653 2.77189,-0.45169 3.46088,0.47554 0.82021,1.10381 0.36181,1.99171 -2.58066,4.99867 -1.59278,1.62769 -2.49805,2.7866 -2.49805,3.19794 0,0.62892 0.0927,0.64513 3.69079,0.64513 h 3.6908 z m 9.79241,-4.57659 c 1.09704,-2.84191 1.9999,-5.26676 2.00637,-5.38856 0.006,-0.12179 -1.6491,-0.22145 -3.67903,-0.22145 h -3.6908 v 0.73816 c 0,0.72948 0.0295,0.73816 2.50974,0.73816 1.38036,0 2.50974,0.0533 2.50974,0.11847 0,0.0652 -0.61203,1.69279 -1.36007,3.61698 -0.74804,1.92418 -1.54225,4.00496 -1.76491,4.62396 l -0.40483,1.12545 0.93959,-0.092 c 0.9284,-0.0909 0.96336,-0.15358 2.9342,-5.25914 z"
     id="path3212" />
  <path
     style="fill:#d5e5ff;stroke-width:0.295264"
     d=""
     id="path3329" />
  <text
     x="107.8773"
     y="85.483292"
     style="fill:#000000"
     font-size="15px"
     id="text40-2">8</text>
  <path
     style="fill:#d5e5ff;stroke-width:0.295264"
     d="m 50.490076,224.99087 v -24.35925 h 24.50688 24.506879 v 24.35925 24.35924 H 74.996956 50.490076 Z m 13.3417,-4.88214 c 2.457967,-0.68268 3.461271,-3.62736 1.79056,-5.25526 l -0.811975,-0.79117 0.664343,-0.65189 c 0.88546,-0.86885 0.88546,-2.45059 0,-3.47698 -0.736658,-0.85391 -2.502727,-1.37277 -3.894151,-1.14408 -2.130649,0.35017 -2.232568,0.40183 -2.232568,1.13152 0,0.7051 0.02953,0.71288 2.059544,0.54269 2.351272,-0.19712 2.959937,0.0936 2.959937,1.41384 0,1.02217 -0.691856,1.45055 -2.342698,1.45055 -1.066087,0 -1.200465,0.0783 -1.200465,0.69976 0,0.61125 0.169591,0.71888 1.340668,0.85088 1.593737,0.17963 2.497758,0.9008 2.497758,1.99253 0,1.24999 -0.962919,1.90335 -2.766705,1.87728 -0.849918,-0.0123 -1.837355,-0.17864 -2.194304,-0.36967 -0.601811,-0.32208 -0.648999,-0.28258 -0.648999,0.54322 0,0.73126 0.145242,0.92259 0.811975,1.06964 0.446586,0.0985 0.944843,0.2234 1.107238,0.27758 0.601363,0.2006 1.80256,0.13321 2.859842,-0.16044 z m 12.666389,-5.40521 c 1.123932,-2.89732 1.968886,-5.38861 1.877676,-5.53619 -0.09121,-0.14758 -1.752419,-0.26833 -3.691575,-0.26833 h -3.525737 v 0.73816 c 0,0.72993 0.0282,0.73816 2.529638,0.73816 2.964046,0 2.896483,-0.68959 0.530165,5.41117 -0.870917,2.24537 -1.583485,4.14717 -1.583485,4.22622 0,0.079 0.409456,0.10209 0.909902,0.0512 0.889788,-0.0905 0.95508,-0.20898 2.953416,-5.36039 z"
     id="path3786" />
  <path
     style="fill:#d5e5ff;stroke-width:0.295264"
     d="m 152.65128,224.99087 v -24.35925 h 23.32583 23.32582 v 24.35925 24.35924 h -23.32582 -23.32583 z m 11.92907,8.0033 c 1.32852,-0.55508 1.94832,-1.52948 1.94832,-3.06294 0,-0.97681 -0.17796,-1.45437 -0.75819,-2.03461 l -0.7582,-0.75819 0.62932,-0.66988 c 1.09937,-1.17023 0.80646,-3.41339 -0.53635,-4.10759 -0.83558,-0.43196 -1.64061,-0.55658 -3.24969,-0.50304 -2.26641,0.0754 -3.57313,3.03329 -2.02427,4.58215 l 0.6842,0.6842 -0.83184,0.93099 c -0.99848,1.1175 -1.08505,2.42196 -0.25145,3.78913 0.87008,1.42699 3.22562,1.95307 5.14815,1.14978 z m 11.21302,-12.90109 c 1.7911,-0.49732 2.54585,-1.44075 2.54585,-3.18229 0,-1.25008 -0.12401,-1.56784 -0.85035,-2.17901 -0.81267,-0.68382 -0.82527,-0.73118 -0.28443,-1.06894 1.47548,-0.92145 1.2396,-3.50331 -0.39741,-4.34984 -1.00007,-0.51715 -2.78526,-0.64244 -4.4469,-0.3121 -0.90729,0.18037 -1.10724,0.3469 -1.10724,0.92213 0,0.69071 0.0351,0.69936 2.18139,0.53704 2.11216,-0.15975 2.19756,-0.14029 2.69133,0.61329 0.47423,0.72377 0.47607,0.82997 0.0263,1.51644 -0.39669,0.60542 -0.72135,0.73815 -1.80554,0.73815 -1.21316,0 -1.32188,0.0607 -1.32188,0.73816 0,0.62601 0.13681,0.73816 0.90046,0.73816 1.15371,0 2.56501,0.72778 2.71192,1.39849 0.0627,0.2864 -0.006,0.88451 -0.15285,1.32913 -0.39619,1.19997 -2.01214,1.61512 -4.00868,1.02985 l -1.51769,-0.4449 v 0.84783 c 0,0.68465 0.15628,0.8823 0.81197,1.02692 0.44659,0.0985 0.94485,0.2234 1.10724,0.27758 0.61053,0.20366 1.80959,0.13127 2.91653,-0.17609 z m -9.55996,-0.71222 c 0,-0.66434 -0.11811,-0.73816 -1.18105,-0.73816 h -1.18106 v -4.87185 -4.87185 h -0.90267 c -0.49647,0 -1.49299,0.14864 -2.21448,0.33032 -1.11342,0.28036 -1.3118,0.44171 -1.3118,1.06694 0,0.70573 0.0557,0.72828 1.32868,0.53739 l 1.32869,-0.19925 v 4.00415 4.00415 h -1.18106 c -1.06294,0 -1.18105,0.0738 -1.18105,0.73816 v 0.73816 h 3.2479 3.2479 z m 22.19187,-4.42896 c 1.08386,-2.76071 1.9817,-5.252 1.9952,-5.53619 0.0221,-0.46586 -0.3387,-0.51671 -3.66625,-0.51671 h -3.69079 v 0.73816 c 0,0.73202 0.0218,0.73816 2.62522,0.73816 h 2.62522 l -1.17644,3.02645 c -0.64705,1.66455 -1.49336,3.86509 -1.8807,4.89008 l -0.70425,1.86363 0.95107,-0.0921 c 0.9406,-0.091 0.97271,-0.14721 2.92172,-5.11153 z"
     id="path3825" />
  <path
     style="fill:#d5e5ff;stroke-width:0.295264"
     d="m 161.80446,226.23266 c -0.57301,-0.28989 -0.73816,-0.60182 -0.73816,-1.39417 0,-1.3421 1.17866,-2.02292 2.5318,-1.46244 0.47505,0.19678 0.86373,0.46366 0.86373,0.59307 0,0.12941 0.0784,0.43955 0.17418,0.6892 0.19228,0.50107 -1.0857,1.95926 -1.71089,1.95214 -0.21038,-0.002 -0.71468,-0.1724 -1.12066,-0.3778 z"
     id="path3864" />
  <path
     style="fill:#d5e5ff;stroke-width:0.295264"
     d="m 161.2696,231.32753 c -1.34674,-1.25468 -0.47951,-3.2364 1.4163,-3.2364 1.41097,0 2.07119,0.61316 2.07119,1.92357 0,1.7527 -2.14758,2.56114 -3.48749,1.31283 z"
     id="path3903" />
  <path
     style="fill:#d5e5ff;stroke-width:0.295264"
     d="m 200.77925,224.99087 v -24.35925 h 24.35925 24.35925 v 24.35925 24.35924 H 225.1385 200.77925 Z m 37.58765,-4.89162 c 1.27214,-0.35326 2.27004,-1.68039 2.27183,-3.02135 10e-4,-1.00839 -0.70048,-2.43503 -1.31366,-2.67032 -0.37033,-0.14211 -0.31957,-0.30424 0.28435,-0.90815 1.05792,-1.05793 1.00498,-2.60444 -0.12792,-3.73735 -1.40092,-1.40092 -5.12175,-1.1885 -5.93927,0.33906 -0.50066,0.93549 -0.33141,2.69538 0.32658,3.39577 l 0.61057,0.64992 -0.7582,0.7582 c -0.58023,0.58023 -0.7582,1.05779 -0.7582,2.0346 0,2.69069 2.28385,4.02604 5.40392,3.15962 z m -11.86517,-5.39963 c 1.11597,-2.89947 1.95549,-5.39076 1.86561,-5.53619 -0.0899,-0.14544 -1.75001,-0.26443 -3.68916,-0.26443 h -3.52574 v 0.73816 c 0,0.72993 0.0282,0.73816 2.52964,0.73816 2.96404,0 2.89648,-0.68959 0.53016,5.41117 -0.87091,2.24537 -1.58348,4.14717 -1.58348,4.22622 0,0.079 0.41488,0.10209 0.92197,0.0512 0.90633,-0.091 0.95638,-0.18193 2.951,-5.36429 z"
     id="path3942" />
  <path
     style="fill:#d5e5ff;stroke-width:0.295264"
     d="m 235.39079,218.47833 c -1.21571,-0.85152 -0.66185,-3.31475 0.76737,-3.41279 1.70938,-0.11727 2.7101,0.56634 2.7101,1.85134 0,1.70174 -1.99699,2.59842 -3.47747,1.56145 z"
     id="path3981" />
  <path
     style="fill:#d5e5ff;stroke-width:0.295264"
     d=""
     id="path4020" />
  <path
     style="fill:#d5e5ff;stroke-width:0.295264"
     d="m 235.67758,213.1622 c -0.96265,-0.68071 -0.79651,-2.16053 0.31186,-2.77767 0.7291,-0.40597 0.89484,-0.40597 1.62395,0 0.90879,0.50602 1.26539,2.02681 0.60395,2.57576 -0.73629,0.61107 -1.83734,0.6986 -2.53976,0.20191 z"
     id="path4059" />
  <path
     style="fill:#87aade;stroke-width:0.295264"
     d="m 200.77925,274.00463 v -23.47346 h 24.35925 24.35925 v 23.47346 23.47345 H 225.1385 200.77925 Z m 24.85086,-10.48186 c 1.09703,-2.84191 1.9999,-5.3332 2.00637,-5.5362 0.009,-0.2762 -0.91697,-0.36907 -3.67904,-0.36907 h -3.69079 v 0.73815 c 0,0.72948 0.0295,0.73816 2.50974,0.73816 1.38036,0 2.50974,0.1227 2.50974,0.27265 0,0.20843 -2.25741,6.15376 -3.4642,9.12366 -0.11693,0.28775 0.10118,0.36559 0.8274,0.29526 l 0.98618,-0.0955 z m -10.38294,3.69079 c 0,-1.22042 0.0601,-1.32868 0.73816,-1.32868 0.59052,0 0.73816,-0.14764 0.73816,-0.73816 0,-0.59053 -0.14764,-0.73816 -0.73816,-0.73816 h -0.73816 v -3.54317 -3.54316 l -1.10724,0.007 c -1.08956,0.007 -1.14379,0.0643 -3.39553,3.56565 -1.25856,1.95702 -2.28829,3.88027 -2.28829,4.27389 0,0.70126 0.0506,0.71568 2.50974,0.71568 h 2.50974 v 1.32868 c 0,1.27948 0.0328,1.32869 0.88579,1.32869 0.85298,0 0.88579,-0.0492 0.88579,-1.32869 z m 23.88366,0.27747 c 1.14362,-0.9623 1.47082,-2.47748 0.82668,-3.82825 -0.25581,-0.53643 -0.72385,-1.05746 -1.0401,-1.15783 -0.53654,-0.17029 -0.51791,-0.23958 0.27845,-1.03595 1.12363,-1.12362 1.1318,-2.3496 0.0239,-3.58952 -1.56801,-1.75491 -5.23285,-1.33658 -6.20381,0.70814 -0.4982,1.04913 -0.2058,2.43022 0.65141,3.07681 l 0.65544,0.4944 -0.86317,0.77125 c -0.70761,0.63224 -0.86003,0.99895 -0.84574,2.03474 0.0196,1.42194 0.65738,2.59586 1.62114,2.98407 0.35592,0.14336 1.40093,0.26909 2.32224,0.27938 1.3827,0.0154 1.83194,-0.11325 2.57351,-0.73724 z"
     id="path4135" />
  <path
     style="fill:#87aade;stroke-width:0.295264"
     d="m 234.72151,266.31204 c -0.61861,-0.74537 -0.46672,-2.22105 0.29182,-2.83528 0.87946,-0.71215 1.81958,-0.68936 2.78168,0.0674 0.88053,0.69262 0.99367,1.60609 0.31834,2.57024 -0.5652,0.80695 -2.77909,0.93592 -3.39184,0.1976 z"
     id="path4174" />
  <path
     style="fill:#87aade;stroke-width:0.295264"
     d="m 234.89894,260.7997 c -0.60747,-0.86728 -0.57979,-1.29047 0.13089,-2.00115 1.1534,-1.15341 3.2479,-0.43798 3.2479,1.1094 0,1.5219 -2.47912,2.1762 -3.37879,0.89175 z"
     id="path4213" />
  <path
     style="fill:#87aade;stroke-width:0.295264"
     d="m 210.50121,263.89185 c 0.16187,-0.28419 0.89387,-1.44679 1.62666,-2.58356 l 1.33236,-2.06684 0.008,2.58355 0.008,2.58356 h -1.63434 c -1.47179,0 -1.60507,-0.0514 -1.34004,-0.51671 z"
     id="path4252" />
  <path
     style="fill:#d5e5ff;stroke-width:0.295264"
     d="m 250.6788,124.01071 v -23.47345 h 23.32583 23.32582 v 23.47345 23.47346 H 274.00463 250.6788 Z m 26.42609,9.77022 c 2.45955,-1.04279 3.97309,-3.30251 3.97309,-5.93179 0,-2.40916 -1.04843,-4.209 -3.04616,-5.22934 l -0.84465,-0.43141 1.06343,-0.62744 c 1.70665,-1.00695 2.29839,-2.22394 2.18587,-4.49554 -0.12035,-2.42991 -0.83616,-3.50647 -3.05238,-4.59077 -1.32723,-0.64935 -2.04431,-0.79753 -3.90512,-0.80697 -1.25364,-0.006 -3.17621,0.15911 -4.27238,0.36772 l -1.99303,0.37928 v 1.44288 c 0,0.79359 0.0997,1.43815 0.22145,1.43237 0.1218,-0.006 1.01866,-0.20301 1.99303,-0.43828 2.12379,-0.51281 4.96005,-0.56363 5.85087,-0.10483 1.49717,0.77109 1.97362,1.48739 1.97362,2.96721 0,2.37224 -1.26115,3.19643 -4.89108,3.19643 h -2.19525 v 1.32868 1.32869 h 1.64083 c 3.9475,0 6.03602,1.42007 6.03602,4.10414 0,1.62233 -0.65999,2.68673 -2.16673,3.49438 -1.41526,0.75862 -5.47365,0.67132 -7.57697,-0.163 -0.89317,-0.35429 -1.66411,-0.64423 -1.71319,-0.64431 -0.0491,-8e-5 -0.0491,0.69741 0,1.54999 l 0.0892,1.55013 1.91922,0.515 c 2.42143,0.64975 6.95947,0.54909 8.71027,-0.19322 z"
     id="path4521" />
  <path
     style="fill:#87aade;stroke-width:0.295264"
     d="m 272.92822,361.02939 c -1.65245,-0.26768 -2.03356,-2.29147 -0.55812,-2.96372 1.13628,-0.51773 2.81558,0.34318 2.81558,1.44343 0,0.68068 -1.4427,1.65227 -2.25746,1.52029 z"
     id="path4597" />
  <path
     style="fill:#d5e5ff;stroke-width:0.295264"
     d="m 273.62277,63.624566 c -1.08758,-0.855485 -1.1237,-2.650237 -0.0745,-3.699475 0.88423,-0.884227 1.32775,-0.905642 2.33571,-0.112781 0.62173,0.489051 0.77798,0.863176 0.77798,1.86278 0,2.174548 -1.51648,3.147274 -3.03923,1.949476 z"
     id="path5190" />
  <path
     style="fill:#d5e5ff;stroke-width:0.295264"
     d="M 250.6788,74.996956 V 50.637708 h 23.32583 23.32582 V 74.996956 99.356203 H 274.00463 250.6788 Z m 15.32101,-6.218335 c 1.14363,-0.962298 1.47082,-2.477479 0.82669,-3.828243 -0.25581,-0.536439 -0.72386,-1.057466 -1.0401,-1.157838 -0.53654,-0.170291 -0.51791,-0.239576 0.27845,-1.035943 2.52998,-2.529982 -0.94221,-5.845963 -4.5446,-4.340141 -1.33699,0.558873 -1.7688,1.19723 -1.7688,2.614856 0,0.935955 0.17125,1.377834 0.71537,1.845871 l 0.71538,0.615343 -0.82274,0.681375 c -0.68687,0.568844 -0.82275,0.910634 -0.82275,2.069538 0,2.403698 0.99411,3.240074 3.88959,3.272424 1.38269,0.01545 1.83194,-0.113247 2.57351,-0.737242 z m 10.6221,-0.04084 c 1.34235,-0.977062 2.1078,-2.888403 2.10045,-5.244858 -0.0115,-3.674215 -1.34352,-5.52284 -3.97958,-5.52284 -2.47384,0 -3.86825,1.641626 -3.61684,4.258086 0.23947,2.492243 2.37894,3.838648 4.7852,3.011414 l 1.09707,-0.377156 -0.19121,0.78594 c -0.44577,1.832314 -2.18299,2.636049 -4.38316,2.027892 -0.7794,-0.215435 -0.82659,-0.178292 -0.73816,0.580959 0.066,0.56702 0.3166,0.876967 0.83263,1.029962 1.16996,0.346878 3.24481,0.06842 4.0936,-0.549399 z"
     id="path5229" />
  <path
     style="fill:#d5e5ff;stroke-width:0.295264"
     d="m 262.21901,67.879171 c -0.80139,-0.336959 -0.91072,-0.524417 -0.91072,-1.561496 0,-1.945449 1.77326,-2.730637 3.35571,-1.485883 0.86984,0.684211 0.99464,1.604698 0.34359,2.534197 -0.55915,0.798306 -1.63819,0.996882 -2.78858,0.513182 z"
     id="path5268" />
  <path
     style="fill:#d5e5ff;stroke-width:0.295264"
     d="m 261.76793,62.087291 c -0.60747,-0.867281 -0.57979,-1.29047 0.13089,-2.001147 1.1534,-1.153406 3.2479,-0.437981 3.2479,1.109397 0,1.521902 -2.47912,2.176206 -3.37879,0.89175 z"
     id="path5307" />
</svg>
