<?xml version="1.0" encoding="UTF-8" standalone="no"?>
<svg
   version="1.1"
   width="500"
   height="500"
   id="svg292"
   sodipodi:docname="HiddenPair.svg"
   inkscape:export-filename="/home/karoli/Documents/Bakalarka/Bakalarka/Bakalarka/HiddenPair.png"
   inkscape:export-xdpi="96"
   inkscape:export-ydpi="96"
   inkscape:version="1.1.2 (1:1.1+202202050950+0a00cf5339)"
   xmlns:inkscape="http://www.inkscape.org/namespaces/inkscape"
   xmlns:sodipodi="http://sodipodi.sourceforge.net/DTD/sodipodi-0.dtd"
   xmlns="http://www.w3.org/2000/svg"
   xmlns:svg="http://www.w3.org/2000/svg">
  <defs
     id="defs296" />
  <sodipodi:namedview
     id="namedview294"
     pagecolor="#ffffff"
     bordercolor="#666666"
     borderopacity="1.0"
     inkscape:pageshadow="2"
     inkscape:pageopacity="0.0"
     inkscape:pagecheckerboard="0"
     showgrid="false"
     inkscape:zoom="1.8847266"
     inkscape:cx="250.1689"
     inkscape:cy="105.05502"
     inkscape:window-width="2488"
     inkscape:window-height="1403"
     inkscape:window-x="1992"
     inkscape:window-y="0"
     inkscape:window-maximized="1"
     inkscape:current-layer="svg292" />
  <polyline
     points="0,0 450,0 450,450 0,450 0,0"
     style="fill:none;stroke:black;stroke-width:5"
     id="polyline2" />
  <polyline
     points="0,50 450,50"
     style="fill:none;stroke:black;stroke-width:1"
     id="polyline4" />
  <polyline
     points="0,100 450,100"
     style="fill:none;stroke:black;stroke-width:1"
     id="polyline6" />
  <polyline
     points="0,150 450,150"
     style="fill:none;stroke:black;stroke-width:5"
     id="polyline8" />
  <polyline
     points="0,200 450,200"
     style="fill:none;stroke:black;stroke-width:1"
     id="polyline10" />
  <polyline
     points="0,250 450,250"
     style="fill:none;stroke:black;stroke-width:1"
     id="polyline12" />
  <polyline
     points="0,300 450,300"
     style="fill:none;stroke:black;stroke-width:5"
     id="polyline14" />
  <polyline
     points="0,350 450,350"
     style="fill:none;stroke:black;stroke-width:1"
     id="polyline16" />
  <polyline
     points="0,400 450,400"
     style="fill:none;stroke:black;stroke-width:1"
     id="polyline18" />
  <polyline
     points="50,0 50,450"
     style="fill:none;stroke:black;stroke-width:1"
     id="polyline20" />
  <polyline
     points="100,0 100,450"
     style="fill:none;stroke:black;stroke-width:1"
     id="polyline22" />
  <polyline
     points="150,0 150,450"
     style="fill:none;stroke:black;stroke-width:5"
     id="polyline24" />
  <polyline
     points="200,0 200,450"
     style="fill:none;stroke:black;stroke-width:1"
     id="polyline26" />
  <polyline
     points="250,0 250,450"
     style="fill:none;stroke:black;stroke-width:1"
     id="polyline28" />
  <polyline
     points="300,0 300,450"
     style="fill:none;stroke:black;stroke-width:5"
     id="polyline30" />
  <polyline
     points="350,0 350,450"
     style="fill:none;stroke:black;stroke-width:1"
     id="polyline32" />
  <polyline
     points="400,0 400,450"
     style="fill:none;stroke:black;stroke-width:1"
     id="polyline34" />
  <text
     x="16"
     y="35"
     style="font-wight:bold"
     font-size="30px"
     id="text36">8</text>
  <text
     x="58"
     y="20"
     style="font-wight:bold; fill:black"
     font-size="15px"
     id="text38">2</text>
  <text
     x="70"
     y="20"
     style="font-wight:bold; fill:black"
     font-size="15px"
     id="text40">5</text>
  <text
     x="116"
     y="35"
     style="font-wight:bold"
     font-size="30px"
     id="text42">1</text>
  <text
     x="158"
     y="20"
     style="font-wight:bold; fill:black"
     font-size="15px"
     id="text44">2</text>
  <text
     x="170"
     y="20"
     style="font-wight:bold; fill:black"
     font-size="15px"
     id="text46">7</text>
  <text
     x="208"
     y="20"
     style="font-wight:bold; fill:black"
     font-size="15px"
     id="text48">3</text>
  <text
     x="218.61909"
     y="20.540781"
     style="fill:#000000"
     font-size="15px"
     id="text50">5</text>
  <text
     x="266"
     y="35"
     style="font-wight:bold"
     font-size="30px"
     id="text52">6</text>
  <text
     x="308"
     y="20"
     style="font-wight:bold; fill:black"
     font-size="15px"
     id="text54">3</text>
  <text
     x="320"
     y="20"
     style="font-wight:bold; fill:black"
     font-size="15px"
     id="text56">7</text>
  <text
     x="366"
     y="35"
     style="font-wight:bold"
     font-size="30px"
     id="text58">9</text>
  <text
     x="416"
     y="35"
     style="font-wight:bold"
     font-size="30px"
     id="text60">4</text>
  <text
     x="16"
     y="85"
     style="font-wight:bold"
     font-size="30px"
     id="text62">3</text>
  <text
     x="58"
     y="70"
     style="font-wight:bold; fill:black"
     font-size="15px"
     id="text64">2</text>
  <text
     x="70"
     y="70"
     style="font-wight:bold; fill:black"
     font-size="15px"
     id="text66">5</text>
  <text
     x="108"
     y="70"
     style="font-wight:bold; fill:black"
     font-size="15px"
     id="text68">4</text>
  <text
     x="120"
     y="70"
     style="font-wight:bold; fill:black"
     font-size="15px"
     id="text70">6</text>
  <text
     x="158"
     y="70"
     style="font-wight:bold; fill:black"
     font-size="15px"
     id="text72">2</text>
  <text
     x="169.72234"
     y="70.218483"
     style="fill:#000000"
     font-size="15px"
     id="text74">4</text>
  <text
     x="281.41016"
     y="120.2049"
     style="fill:#000000"
     font-size="15px"
     id="text74-3">4</text>
  <text
     x="182"
     y="70"
     style="font-wight:bold; fill:black"
     font-size="15px"
     id="text76">7</text>
  <text
     x="208"
     y="70"
     style="font-wight:bold; fill:black"
     font-size="15px"
     id="text78">1</text>
  <text
     x="220"
     y="70"
     style="font-wight:bold; fill:black"
     font-size="15px"
     id="text80">4</text>
  <text
     x="232"
     y="70"
     style="font-wight:bold; fill:black"
     font-size="15px"
     id="text82">5</text>
  <text
     x="266"
     y="85"
     style="font-wight:bold"
     font-size="30px"
     id="text84">9</text>
  <text
     x="308"
     y="70"
     style="font-wight:bold; fill:black"
     font-size="15px"
     id="text86">1</text>
  <text
     x="320"
     y="70"
     style="font-wight:bold; fill:black"
     font-size="15px"
     id="text88">6</text>
  <text
     x="332"
     y="70"
     style="font-wight:bold; fill:black"
     font-size="15px"
     id="text90">7</text>
  <text
     x="366"
     y="85"
     style="font-wight:bold"
     font-size="30px"
     id="text92">8</text>
  <text
     x="408"
     y="70"
     style="font-wight:bold; fill:black"
     font-size="15px"
     id="text94">1</text>
  <text
     x="420"
     y="70"
     style="font-wight:bold; fill:black"
     font-size="15px"
     id="text96">2</text>
  <text
     x="432"
     y="70"
     style="font-wight:bold; fill:black"
     font-size="15px"
     id="text98">7</text>
  <text
     x="16"
     y="135"
     style="font-wight:bold"
     font-size="30px"
     id="text100">9</text>
  <text
     x="66"
     y="135"
     style="font-wight:bold"
     font-size="30px"
     id="text102">7</text>
  <text
     x="108"
     y="120"
     style="font-wight:bold; fill:black"
     font-size="15px"
     id="text104">4</text>
  <text
     x="120"
     y="120"
     style="font-wight:bold; fill:black"
     font-size="15px"
     id="text106">6</text>
  <text
     x="158"
     y="120"
     style="font-wight:bold; fill:black"
     font-size="15px"
     id="text108">2</text>
  <text
     x="170"
     y="120"
     style="font-wight:bold; fill:black"
     font-size="15px"
     id="text110">4</text>
  <text
     x="216"
     y="135"
     style="font-wight:bold"
     font-size="30px"
     id="text112">8</text>
  <text
     x="258"
     y="120"
     style="font-wight:bold; fill:black"
     font-size="15px"
     id="text114">1</text>
  <text
     x="270"
     y="120"
     style="font-wight:bold; fill:black"
     font-size="15px"
     id="text116">3</text>
  <text
     x="316"
     y="135"
     style="font-wight:bold"
     font-size="30px"
     id="text120">5</text>
  <text
     x="358"
     y="120"
     style="font-wight:bold; fill:black"
     font-size="15px"
     id="text122">2</text>
  <text
     x="370"
     y="120"
     style="font-wight:bold; fill:black"
     font-size="15px"
     id="text124">6</text>
  <text
     x="408"
     y="120"
     style="font-wight:bold; fill:black"
     font-size="15px"
     id="text126">1</text>
  <text
     x="432"
     y="120"
     style="font-wight:bold; fill:black"
     font-size="15px"
     id="text130">3</text>
  <text
     x="16"
     y="185"
     style="font-wight:bold"
     font-size="30px"
     id="text132">5</text>
  <text
     x="66"
     y="185"
     style="font-wight:bold"
     font-size="30px"
     id="text134">4</text>
  <text
     x="116"
     y="185"
     style="font-wight:bold"
     font-size="30px"
     id="text136">7</text>
  <text
     x="158"
     y="170"
     style="font-wight:bold; fill:black"
     font-size="15px"
     id="text138">8</text>
  <text
     x="170"
     y="170"
     style="font-wight:bold; fill:black"
     font-size="15px"
     id="text140">9</text>
  <text
     x="216"
     y="185"
     style="font-wight:bold"
     font-size="30px"
     id="text142">6</text>
  <text
     x="266"
     y="185"
     style="font-wight:bold"
     font-size="30px"
     id="text144">2</text>
  <text
     x="308"
     y="170"
     style="font-wight:bold; fill:black"
     font-size="15px"
     id="text146">1</text>
  <text
     x="320"
     y="170"
     style="font-wight:bold; fill:black"
     font-size="15px"
     id="text148">8</text>
  <text
     x="366"
     y="185"
     style="font-wight:bold"
     font-size="30px"
     id="text150">3</text>
  <text
     x="408"
     y="170"
     style="font-wight:bold; fill:black"
     font-size="15px"
     id="text152">1</text>
  <text
     x="420"
     y="170"
     style="font-wight:bold; fill:black"
     font-size="15px"
     id="text154">9</text>
  <text
     x="16"
     y="235"
     style="font-wight:bold"
     font-size="30px"
     id="text156">6</text>
  <text
     x="66"
     y="235"
     style="font-wight:bold"
     font-size="30px"
     id="text158">3</text>
  <text
     x="116"
     y="235"
     style="font-wight:bold"
     font-size="30px"
     id="text160">2</text>
  <text
     x="158"
     y="220"
     style="font-wight:bold; fill:black"
     font-size="15px"
     id="text162">4</text>
  <text
     x="170"
     y="220"
     style="font-wight:bold; fill:black"
     font-size="15px"
     id="text164">8</text>
  <text
     x="182"
     y="220"
     style="font-wight:bold; fill:black"
     font-size="15px"
     id="text166">9</text>
  <text
     x="208"
     y="220"
     style="font-wight:bold; fill:black"
     font-size="15px"
     id="text168">1</text>
  <text
     x="220"
     y="220"
     style="font-wight:bold; fill:black"
     font-size="15px"
     id="text170">4</text>
  <text
     x="258"
     y="220"
     style="font-wight:bold; fill:black"
     font-size="15px"
     id="text172">1</text>
  <text
     x="270"
     y="220"
     style="font-wight:bold; fill:black"
     font-size="15px"
     id="text174">4</text>
  <text
     x="308"
     y="220"
     style="font-wight:bold; fill:black"
     font-size="15px"
     id="text176">1</text>
  <text
     x="320"
     y="220"
     style="font-wight:bold; fill:black"
     font-size="15px"
     id="text178">7</text>
  <text
     x="332"
     y="220"
     style="font-wight:bold; fill:black"
     font-size="15px"
     id="text180">8</text>
  <text
     x="366"
     y="235"
     style="font-wight:bold"
     font-size="30px"
     id="text182">5</text>
  <text
     x="408"
     y="220"
     style="font-wight:bold; fill:black"
     font-size="15px"
     id="text184">1</text>
  <text
     x="420"
     y="220"
     style="font-wight:bold; fill:black"
     font-size="15px"
     id="text186">7</text>
  <text
     x="432"
     y="220"
     style="font-wight:bold; fill:black"
     font-size="15px"
     id="text188">9</text>
  <text
     x="16"
     y="285"
     style="font-wight:bold"
     font-size="30px"
     id="text190">1</text>
  <text
     x="66"
     y="285"
     style="font-wight:bold"
     font-size="30px"
     id="text192">9</text>
  <text
     x="116"
     y="285"
     style="font-wight:bold"
     font-size="30px"
     id="text194">8</text>
  <text
     x="166"
     y="285"
     style="font-wight:bold"
     font-size="30px"
     id="text196">3</text>
  <text
     x="216"
     y="285"
     style="font-wight:bold"
     font-size="30px"
     id="text198">7</text>
  <text
     x="266"
     y="285"
     style="font-wight:bold"
     font-size="30px"
     id="text200">5</text>
  <text
     x="316"
     y="285"
     style="font-wight:bold"
     font-size="30px"
     id="text202">2</text>
  <text
     x="366"
     y="285"
     style="font-wight:bold"
     font-size="30px"
     id="text204">4</text>
  <text
     x="416"
     y="285"
     style="font-wight:bold"
     font-size="30px"
     id="text206">6</text>
  <text
     x="8"
     y="320"
     style="font-wight:bold; fill:black"
     font-size="15px"
     id="text208">4</text>
  <text
     x="20"
     y="320"
     style="font-wight:bold; fill:black"
     font-size="15px"
     id="text210">7</text>
  <text
     x="66"
     y="335"
     style="font-wight:bold"
     font-size="30px"
     id="text212">8</text>
  <text
     x="116"
     y="335"
     style="font-wight:bold"
     font-size="30px"
     id="text214">3</text>
  <text
     x="166"
     y="335"
     style="font-wight:bold"
     font-size="30px"
     id="text216">6</text>
  <text
     x="216"
     y="335"
     style="font-wight:bold"
     font-size="30px"
     id="text218">2</text>
  <text
     x="258"
     y="320"
     style="font-wight:bold; fill:black"
     font-size="15px"
     id="text220">4</text>
  <text
     x="270"
     y="320"
     style="font-wight:bold; fill:black"
     font-size="15px"
     id="text222">7</text>
  <text
     x="316"
     y="335"
     style="font-wight:bold"
     font-size="30px"
     id="text224">9</text>
  <text
     x="366"
     y="335"
     style="font-wight:bold"
     font-size="30px"
     id="text226">1</text>
  <text
     x="416"
     y="335"
     style="font-wight:bold"
     font-size="30px"
     id="text228">5</text>
  <text
     x="8"
     y="370"
     style="font-wight:bold; fill:black"
     font-size="15px"
     id="text230">4</text>
  <text
     x="20"
     y="370"
     style="font-wight:bold; fill:black"
     font-size="15px"
     id="text232">7</text>
  <text
     x="66"
     y="385"
     style="font-wight:bold"
     font-size="30px"
     id="text234">6</text>
  <text
     x="116"
     y="385"
     style="font-wight:bold"
     font-size="30px"
     id="text236">5</text>
  <text
     x="166"
     y="385"
     style="font-wight:bold"
     font-size="30px"
     id="text238">1</text>
  <text
     x="216"
     y="385"
     style="font-wight:bold"
     font-size="30px"
     id="text240">9</text>
  <text
     x="266"
     y="385"
     style="font-wight:bold"
     font-size="30px"
     id="text242">8</text>
  <text
     x="308"
     y="370"
     style="font-wight:bold; fill:black"
     font-size="15px"
     id="text244">3</text>
  <text
     x="320"
     y="370"
     style="font-wight:bold; fill:black"
     font-size="15px"
     id="text246">4</text>
  <text
     x="332"
     y="370"
     style="font-wight:bold; fill:black"
     font-size="15px"
     id="text248">7</text>
  <text
     x="358"
     y="370"
     style="font-wight:bold; fill:black"
     font-size="15px"
     id="text250">2</text>
  <text
     x="370"
     y="370"
     style="font-wight:bold; fill:black"
     font-size="15px"
     id="text252">7</text>
  <text
     x="408"
     y="370"
     style="font-wight:bold; fill:black"
     font-size="15px"
     id="text254">2</text>
  <text
     x="420"
     y="370"
     style="font-wight:bold; fill:black"
     font-size="15px"
     id="text256">3</text>
  <text
     x="432"
     y="370"
     style="font-wight:bold; fill:black"
     font-size="15px"
     id="text258">7</text>
  <text
     x="16"
     y="435"
     style="font-wight:bold"
     font-size="30px"
     id="text260">2</text>
  <text
     x="66"
     y="435"
     style="font-wight:bold"
     font-size="30px"
     id="text262">1</text>
  <text
     x="116"
     y="435"
     style="font-wight:bold"
     font-size="30px"
     id="text264">9</text>
  <text
     x="166"
     y="435"
     style="font-wight:bold"
     font-size="30px"
     id="text266">5</text>
  <text
     x="208"
     y="420"
     style="font-wight:bold; fill:black"
     font-size="15px"
     id="text268">3</text>
  <text
     x="220"
     y="420"
     style="font-wight:bold; fill:black"
     font-size="15px"
     id="text270">4</text>
  <text
     x="258"
     y="420"
     style="font-wight:bold; fill:black"
     font-size="15px"
     id="text272">3</text>
  <text
     x="270"
     y="420"
     style="font-wight:bold; fill:black"
     font-size="15px"
     id="text274">4</text>
  <text
     x="282"
     y="420"
     style="font-wight:bold; fill:black"
     font-size="15px"
     id="text276">7</text>
  <text
     x="308"
     y="420"
     style="font-wight:bold; fill:black"
     font-size="15px"
     id="text278">3</text>
  <text
     x="320"
     y="420"
     style="font-wight:bold; fill:black"
     font-size="15px"
     id="text280">4</text>
  <text
     x="332"
     y="420"
     style="font-wight:bold; fill:black"
     font-size="15px"
     id="text282">6</text>
  <text
     x="308"
     y="433"
     style="font-wight:bold; fill:black"
     font-size="15px"
     id="text284">7</text>
  <text
     x="358"
     y="420"
     style="font-wight:bold; fill:black"
     font-size="15px"
     id="text286">6</text>
  <text
     x="370"
     y="420"
     style="font-wight:bold; fill:black"
     font-size="15px"
     id="text288">7</text>
  <text
     x="416"
     y="435"
     style="font-wight:bold"
     font-size="30px"
     id="text290">8</text>
  <path
     style="fill:#d5e5ff;stroke-width:0.592417"
     d="M 350.7109,124.11137 V 101.00711 H 375 399.2891 v 23.10426 23.10427 H 375 350.7109 Z m 15.40284,-4.73933 c 0,-0.96641 -0.39494,-1.18484 -2.14239,-1.18484 h -2.1424 l 2.1424,-2.37137 c 2.30726,-2.55386 2.72158,-4.66623 1.21145,-6.17636 -1.54945,-1.54945 -6.17806,-1.08458 -6.17806,0.62049 0,0.63387 0.54408,0.74524 2.28258,0.46724 1.81018,-0.28946 2.36146,-0.15942 2.66375,0.62833 0.48984,1.27652 -0.19332,2.49142 -2.82425,5.02253 -1.16714,1.12286 -2.12208,2.52245 -2.12208,3.11019 0,0.91115 0.52379,1.06862 3.5545,1.06862 3.15956,0 3.5545,-0.13165 3.5545,-1.18483 z m 11.28321,0.097 c 0.93824,-0.75974 1.32654,-1.68015 1.28753,-3.05196 -0.0701,-2.46454 -1.32924,-3.75913 -3.65627,-3.75913 -0.993,0 -1.80546,-0.18952 -1.80546,-0.42114 0,-0.95019 1.86733,-1.87196 3.25489,-1.60671 1.15427,0.22065 1.48445,0.0385 1.48445,-0.81892 0,-1.73544 -3.80446,-1.499 -5.6549,0.35144 -1.16303,1.16303 -1.45411,2.05783 -1.45411,4.47005 0,4.87752 3.39468,7.38643 6.54387,4.83637 z"
     id="path565" />
  <path
     style="fill:#d5e5ff;stroke-width:0.592417"
     d="m 152.8436,124.11137 v -23.10426 h 23.10427 23.10426 v 23.10426 23.10427 H 175.94787 152.8436 Z m 13.32939,-4.73933 c 0,-0.55514 -0.74809,-0.99979 -1.9934,-1.18484 l -1.99339,-0.2962 1.31352,-1.18344 c 1.36796,-1.23248 2.96947,-3.93317 2.96947,-5.00752 0,-0.34201 -0.53317,-1.15502 -1.18483,-1.80668 -1.74026,-1.74025 -6.51659,-1.50303 -6.51659,0.32365 0,0.55031 0.75573,0.75534 2.49584,0.67714 3.6464,-0.16387 3.69105,1.34862 0.14606,4.94773 -3.69903,3.7555 -3.37966,4.84312 1.34975,4.59667 2.56028,-0.13342 3.41357,-0.40002 3.41357,-1.06651 z m 10.95971,-0.29621 c 0,-0.92154 0.3357,-1.48104 0.88863,-1.48104 0.48874,0 0.88862,-0.39988 0.88862,-0.88863 0,-0.48874 -0.39988,-0.88862 -0.88862,-0.88862 -0.69116,0 -0.88863,-0.78989 -0.88863,-3.55451 0,-4.76529 -1.26862,-4.79351 -4.29502,-0.0955 -2.92671,4.54321 -2.90258,5.4273 0.1481,5.4273 1.90292,0 2.36967,0.21393 2.36967,1.08609 0,0.59736 0.17773,1.26383 0.39495,1.48105 0.80545,0.80545 1.3823,0.35221 1.3823,-1.0861 z"
     id="path643" />
  <path
     style="fill:#d5e5ff;stroke-width:0.592417"
     d="m 100.7109,124.11137 v -23.10426 h 23.40047 23.40048 v 23.10426 23.10427 H 124.11137 100.7109 Z m 14.70353,-5.23005 c 0.10412,-0.70759 0.43735,-1.28653 0.74052,-1.28653 0.30316,0 0.55121,-0.39988 0.55121,-0.88863 0,-0.48874 -0.26659,-0.88862 -0.59242,-0.88862 -0.32912,0 -0.59241,-1.57978 -0.59241,-3.55451 0,-3.13706 -0.13656,-3.5545 -1.16276,-3.5545 -0.75682,0 -1.99778,1.22962 -3.55451,3.522 -3.08581,4.54407 -3.08919,5.36426 -0.0221,5.36426 1.90292,0 2.36967,0.21393 2.36967,1.08609 0,2.25215 1.93564,2.42361 2.26277,0.20044 z m 11.98252,0.58775 c 0.93824,-0.75974 1.32654,-1.68015 1.28753,-3.05196 -0.0701,-2.46454 -1.32924,-3.75913 -3.65627,-3.75913 -0.993,0 -1.80546,-0.18952 -1.80546,-0.42114 0,-0.95019 1.86733,-1.87196 3.25489,-1.60671 1.15427,0.22065 1.48445,0.0385 1.48445,-0.81892 0,-1.73544 -3.80446,-1.499 -5.6549,0.35144 -1.16303,1.16303 -1.45411,2.05783 -1.45411,4.47005 0,4.87752 3.39468,7.38643 6.54387,4.83637 z"
     id="path682" />
  <path
     style="fill:#d5e5ff;stroke-width:0.592417"
     d="m 50.947867,124.11137 v -23.10426 h 23.992891 23.992891 v 23.10426 23.10427 H 74.940758 50.947867 Z m 27.941345,0.59242 c 2.201087,-5.70201 4.012597,-10.70053 4.025577,-11.10782 0.01766,-0.55418 -1.839801,-0.74052 -7.381614,-0.74052 h -7.405213 v 1.48104 c 0,1.46362 0.05924,1.48105 5.035545,1.48105 2.76955,0 5.035545,0.24025 5.035545,0.53389 0,0.29364 -1.227982,3.69264 -2.728849,7.55332 -1.500868,3.86068 -3.094369,8.03557 -3.541115,9.27752 l -0.812264,2.2581 1.885206,-0.18464 c 1.862748,-0.18244 1.93288,-0.30814 5.887182,-10.55194 z"
     id="path799" />
  <path
     style="fill:#d5e5ff;stroke-width:0.592417"
     d="M 2.9620853,124.11137 V 101.00711 H 26.066351 49.170616 v 23.10426 23.10427 H 26.066351 2.9620853 Z M 28.52693,134.42169 c 0.864574,-0.44161 2.197512,-1.80908 2.962085,-3.03884 1.189968,-1.91398 1.390132,-3.00365 1.390132,-7.56768 0,-6.31183 -1.108325,-8.84172 -4.633485,-10.5765 -3.028948,-1.4906 -5.928344,-0.89959 -8.576052,1.74812 -1.962151,1.96215 -2.028128,2.17285 -1.775218,5.6693 0.22949,3.17267 0.501494,3.8448 2.153202,5.3206 1.520407,1.35848 2.445413,1.68919 4.724786,1.68919 1.55884,0 3.149717,-0.31547 3.535282,-0.70103 1.175997,-1.176 1.431673,-0.1369 0.509423,2.07035 -1.171576,2.80398 -2.821583,3.58961 -6.698622,3.18946 -3.035259,-0.31327 -3.161117,-0.26944 -3.161117,1.1007 0,1.07462 0.402252,1.51567 1.629147,1.78626 0.896031,0.19763 1.895734,0.45109 2.221564,0.56326 0.907805,0.31251 3.9652,-0.35746 5.718873,-1.25319 z"
     id="path838" />
  <path
     style="fill:#d5e5ff;stroke-width:0.592417"
     d="m 200.82938,124.11137 v -23.10426 h 24.2891 24.2891 v 23.10426 23.10427 h -24.2891 -24.2891 z m 29.13498,10.5607 c 1.66737,-0.62902 3.44796,-3.62515 3.44796,-5.80173 0,-1.69024 -1.02441,-3.62806 -2.58711,-4.8939 -0.69498,-0.56295 -0.93721,-1.02948 -0.53829,-1.03673 0.97485,-0.0177 2.53299,-3.13329 2.53299,-5.06487 0,-2.10302 -2.75049,-4.73669 -5.48194,-5.24912 -2.99191,-0.56128 -6.74407,0.53608 -7.90827,2.31288 -1.44583,2.20661 -1.22825,5.64824 0.44589,7.05305 l 1.39218,1.1682 -1.62914,1.61503 c -1.29889,1.28762 -1.62915,2.158 -1.62915,4.29343 0,5.59534 5.34097,8.09887 11.95488,5.60376 z"
     id="path877" />
  <path
     style="fill:#d5e5ff;stroke-width:0.592417"
     d="m 223.34123,132.23452 c -1.15489,-0.58144 -1.52011,-1.27572 -1.65847,-3.15268 -0.19977,-2.71006 0.49613,-3.58278 3.30481,-4.14452 1.46439,-0.29288 2.13311,-0.0624 3.34994,1.15439 1.90897,1.90898 1.92937,3.58863 0.0662,5.45181 -1.62253,1.62252 -2.87317,1.79323 -5.06248,0.691 z"
     id="path916" />
  <path
     style="fill:#d5e5ff;stroke-width:0.592417"
     d="m 222.38223,120.2364 c -2.03021,-3.0985 1.6491,-6.25273 5.06487,-4.34205 1.71281,0.95809 2.2121,2.81977 1.24224,4.63196 -1.00913,1.88557 -5.00193,1.70204 -6.30711,-0.28991 z"
     id="path955" />
  <path
     style="fill:#d5e5ff;stroke-width:0.592417"
     d="m 22.307457,123.62041 c -0.576624,-0.63716 -0.980443,-2.08346 -0.980443,-3.5115 0,-1.91754 0.328237,-2.68632 1.560935,-3.65596 1.952846,-1.53611 2.626707,-1.53611 4.579552,0 1.251145,0.98415 1.560935,1.73016 1.560935,3.75889 0,1.69969 -0.355855,2.85311 -1.083377,3.51151 -1.437967,1.30134 -4.415957,1.24697 -5.637602,-0.10294 z"
     id="path994" />
  <path
     style="fill:#d5e5ff;stroke-width:0.592417"
     d="m 302.72512,124.11137 v -23.10426 h 23.10426 23.10427 v 23.10426 23.10427 h -23.10427 -23.10426 z m 23.99589,11.25593 c 2.02281,0 4.91973,-2.71272 5.60176,-5.24558 1.37561,-5.10863 -1.94681,-9.56485 -7.13126,-9.56485 h -2.91663 v -2.36967 -2.36966 h 4.44313 c 4.34439,0 4.44313,-0.0329 4.44313,-1.48105 v -1.48104 h -6.22038 -6.22038 v 5.60567 5.60567 l 3.70261,-0.34384 c 3.07597,-0.28565 3.92789,-0.15655 5.03376,0.76281 3.6789,3.05845 1.44751,7.91945 -3.63533,7.91945 -1.45983,0 -3.33806,-0.25999 -4.17385,-0.57775 -1.4188,-0.53943 -1.51961,-0.46157 -1.51961,1.17355 0,1.33536 0.31657,1.82011 1.33294,2.04105 2.61903,0.56931 4.30708,0.74804 5.084,0.53827 0.43393,-0.11717 1.41318,-0.21303 2.17611,-0.21303 z"
     id="path1033" />
  <path
     style="fill:#d5e5ff;stroke-width:0.592417"
     d="m 110.94137,115.99941 c 0.5764,-0.1502 1.37617,-0.14032 1.77725,0.022 0.40109,0.16228 -0.0705,0.28517 -1.048,0.2731 -0.97749,-0.0121 -1.30565,-0.14484 -0.72925,-0.29505 z"
     id="path1072" />
  <path
     style="fill:#d5e5ff;stroke-width:0.233248"
     d="m 123.90825,118.68389 c -0.44415,-0.1787 -0.9864,-1.36039 -0.9864,-2.1496 0,-1.1216 0.41159,-1.89219 1.18416,-2.21703 1.56892,-0.65968 2.78106,0.29496 2.78106,2.19026 0,1.51446 -0.65036,2.33928 -1.8246,2.31407 -0.47177,-0.0101 -0.99116,-0.0721 -1.15422,-0.1377 z"
     id="path1111" />
  <path
     style="fill:#d5e5ff;stroke-width:0.233248"
     d="m 110.32644,115.85735 c 0,-0.10861 2.81204,-4.51856 3.07319,-4.8195 0.10576,-0.12187 0.19229,0.93886 0.19229,2.35717 v 2.57876 l -1.63274,-0.0149 c -0.898,-0.008 -1.63274,-0.0539 -1.63274,-0.10148 z"
     id="path1150" />
  <path
     style="fill:#d5e5ff;stroke-width:0.233248"
     d="m 173.6898,113.65023 c 0.84632,-1.31494 1.63042,-2.49051 1.74246,-2.61238 0.11717,-0.12746 0.20371,0.88814 0.20371,2.3908 v 2.61238 h -1.74246 -1.74246 z"
     id="path1189" />
  <path
     style="fill:#d5e5ff;stroke-width:0.304913"
     d="m 373.38294,118.08584 c -0.60784,-0.86781 -0.60784,-2.35053 0,-3.21835 0.5984,-0.85432 2.25961,-0.92115 2.98458,-0.12006 0.69648,0.7696 0.66491,2.86177 -0.053,3.51146 -0.81767,0.73998 -2.35568,0.64919 -2.9316,-0.17305 z"
     id="path2047" />
  <path
     style="fill:#ff0000;stroke-width:0.304913"
     d="m 417.98426,120.71967 c -0.10751,-0.17397 1.73346,-2.40314 4.09105,-4.95372 3.52696,-3.81567 4.19923,-4.68628 3.79383,-4.91315 -0.5234,-0.29291 -2.93756,-0.1313 -3.88178,0.25987 -0.44587,0.18471 -0.54151,0.11436 -0.45503,-0.33468 0.0737,-0.38287 0.58787,-0.70366 1.57432,-0.98227 1.24309,-0.3511 1.65814,-0.34885 2.74187,0.0148 l 1.27706,0.42855 1.72163,-1.85385 c 2.28238,-2.45764 2.66383,-1.9655 0.43991,0.56757 -1.52228,1.73391 -1.6948,2.05744 -1.39539,2.61688 0.62652,1.17067 0.0208,2.40802 -2.51398,5.13587 l -2.44593,2.63217 2.63047,0.0881 c 2.06358,0.0691 2.63048,0.18411 2.63048,0.5336 0,0.36372 -0.61567,0.4455 -3.35404,0.4455 -2.91188,0 -3.35404,-0.0662 -3.35404,-0.50246 0,-0.27636 1.14456,-1.68977 2.54348,-3.14092 2.36679,-2.45517 3.32344,-4.06286 2.73314,-4.59317 -0.13506,-0.12134 -1.20604,0.82765 -2.37995,2.10885 -1.17391,1.28121 -3.04951,3.32605 -4.168,4.5441 -1.12602,1.22625 -2.12086,2.07347 -2.2291,1.89833 z"
     id="path400" />
  <path
     style="fill:#87aade;stroke-width:0.304913"
     d="m 400.65534,124.09949 v -23.32583 h 23.32583 23.32582 v 23.32583 23.32582 h -23.32582 -23.32583 z m 22.41073,-8.15642 c 3.01379,-3.28143 3.81378,-3.98556 3.81063,-3.35404 -0.003,0.5007 -1.23995,2.17674 -3.31041,4.48369 -1.19729,1.33405 -2.17688,2.60063 -2.17688,2.81464 0,0.214 0.34031,0.47451 0.75623,0.5789 1.00733,0.25282 5.83575,0.0399 6.14647,-0.27099 0.46974,-0.47008 -0.6662,-0.81263 -2.71015,-0.81726 -1.13199,-0.003 -2.05816,-0.0892 -2.05816,-0.19255 0,-0.10333 0.80178,-1.09811 1.78174,-2.21061 2.57658,-2.92509 2.89832,-3.50536 2.71235,-4.8919 -0.14312,-1.067 -0.0136,-1.35585 1.36103,-3.0343 2.07115,-2.529 1.71587,-3.12579 -0.51042,-0.8574 l -1.74373,1.77671 -1.42812,-0.3426 c -1.62828,-0.39062 -3.54863,0.0608 -4.11425,0.96711 -0.44782,0.71757 -0.12544,0.92829 0.85177,0.55676 1.17277,-0.44589 3.22579,-0.40268 3.21643,0.0677 -0.004,0.20963 -1.7193,2.29357 -3.81141,4.63099 -2.0921,2.33741 -3.80382,4.43982 -3.80382,4.67201 0,0.65741 1.3584,-0.57845 5.0307,-4.57685 z m -6.86018,3.58272 c 0,-0.68605 -0.12196,-0.76228 -1.21965,-0.76228 h -1.21965 v -4.8786 -4.8786 l -0.99097,0.003 c -0.54503,0.002 -1.5055,0.0884 -2.13438,0.19235 -1.0188,0.1684 -1.14343,0.28659 -1.14343,1.08439 0,0.70459 0.11371,0.86456 0.5336,0.75073 0.29348,-0.0796 0.91093,-0.22864 1.37211,-0.33127 l 0.83851,-0.18661 v 4.12213 4.12213 h -1.21965 c -1.09769,0 -1.21965,0.0762 -1.21965,0.76228 v 0.76229 h 3.20158 3.20158 z m 22.5683,0.19606 c 1.96687,-1.04824 2.25225,-3.95101 0.52073,-5.29656 -0.37287,-0.28975 -0.50995,-0.52987 -0.30463,-0.5336 0.45405,-0.008 1.30371,-1.57731 1.30371,-2.40755 0,-0.33086 -0.34889,-1.0162 -0.77531,-1.52297 -0.90765,-1.07868 -2.64247,-1.46305 -4.74139,-1.0505 -1.1765,0.23124 -1.35635,0.37277 -1.44437,1.13657 -0.0842,0.73046 -0.012,0.83846 0.44359,0.66364 2.32726,-0.89305 4.688,-0.30801 4.688,1.16179 0,0.98122 -0.53154,1.34322 -2.14037,1.45768 -1.12065,0.0797 -1.38266,0.21302 -1.45813,0.74181 -0.08,0.56075 0.0969,0.66592 1.36008,0.80829 2.29807,0.25903 3.26462,1.94213 1.89934,3.30741 -0.54636,0.54636 -0.90467,0.62213 -2.36308,0.49976 -0.94549,-0.0793 -1.95919,-0.2466 -2.25267,-0.37171 -0.43086,-0.18367 -0.5336,-0.0725 -0.5336,0.57726 0,1.00279 0.76933,1.34932 3.05389,1.37558 1.0858,0.0125 2.05827,-0.18133 2.74421,-0.5469 z"
     id="path913" />
  <path
     style="fill:none;stroke:#000000;stroke-width:1px;stroke-linecap:butt;stroke-linejoin:miter;stroke-opacity:1"
     d="m 293.95204,106.88609 -13.98437,15.28552"
     id="path341" />
  <path
     style="fill:#ff0000;stroke-width:0.304913"
     d="m 288.35713,118.76529 c 0,-0.75466 0.0595,-1.06338 0.13214,-0.68605 0.0727,0.37733 0.0727,0.99477 0,1.3721 -0.0727,0.37733 -0.13214,0.0686 -0.13214,-0.68605 z"
     id="path776" />
  <path
     style="fill:#ff0000;stroke-width:0.304913"
     d="m 280.04144,121.85852 c 0,-0.14345 0.83542,-1.17253 1.85649,-2.28685 1.74535,-1.90474 1.80924,-2.02603 1.06719,-2.02603 -1.2496,0 -0.99692,-0.77154 1.52692,-4.66212 1.89728,-2.92474 2.44876,-3.57052 3.04912,-3.57052 0.67991,0 0.73348,0.11578 0.74061,1.60079 l 0.008,1.60079 2.68232,-2.87903 c 1.47528,-1.58347 2.76391,-2.74703 2.86363,-2.58568 0.0997,0.16134 -1.11795,1.70582 -2.70592,3.43218 -2.87075,3.12092 -2.8867,3.14698 -2.79509,4.56761 0.0842,1.30522 0.16466,1.43713 0.93065,1.52527 1.17252,0.13491 1.10689,0.97071 -0.0762,0.97071 -0.86392,0 -0.91474,0.0678 -0.91474,1.21965 0,0.88086 -0.12704,1.21965 -0.45737,1.21965 -0.33032,0 -0.45736,-0.33879 -0.45736,-1.21965 v -1.21965 h -1.35253 c -1.29576,0 -1.43945,0.096 -3.42371,2.28684 -1.9587,2.16265 -2.54167,2.62735 -2.54167,2.02604 z m 5.90407,-6.73912 c 1.29511,-1.38457 1.41384,-1.64063 1.41384,-3.04913 0,-0.84569 -0.10291,-1.53711 -0.22869,-1.53649 -0.27531,0.001 -3.73518,5.37217 -3.73518,5.79818 0,0.76128 1.26749,0.15859 2.55003,-1.21256 z m 1.35881,0.67299 c 0.11578,-0.81515 -0.15266,-0.86856 -0.91193,-0.18143 -0.75506,0.68332 -0.70187,1.08284 0.12845,0.96492 0.44089,-0.0626 0.72087,-0.3426 0.78348,-0.78349 z"
     id="path815" />
  <path
     style="fill:#87aade;stroke-width:0.304913"
     d=""
     id="path1158" />
  <path
     style="fill:#87aade;stroke-width:0.0408508"
     d="m 259.76068,109.46174 c 0.11805,-0.0985 0.66515,-0.22467 1.31698,-0.30381 1.10969,-0.13471 1.09298,-0.10656 -0.0817,0.13762 -0.64033,0.1331 -1.20101,0.24228 -1.24595,0.24262 -0.0779,5.9e-4 -0.0774,-0.003 0.0107,-0.0764 z"
     id="path1197" />
  <path
     style="fill:#87aade;stroke-width:0.0408508"
     d="m 283.43407,116.31253 c 0.0109,-0.0281 0.77883,-1.23676 1.7066,-2.68594 0.92777,-1.44919 1.73889,-2.71661 1.80249,-2.81649 l 0.11563,-0.18162 v 1.51049 1.51048 l -1.16084,1.26516 c -0.63847,0.69583 -1.22646,1.30652 -1.30665,1.35707 -0.13129,0.0828 -0.19716,0.0919 -0.66139,0.0919 -0.39576,0 -0.51099,-0.0119 -0.49584,-0.0511 z"
     id="path1236" />
  <path
     style="fill:#87aade;stroke-width:0.0408508"
     d="m 286.32812,115.9922 c 0.18842,-0.20565 0.42943,-0.46818 0.53556,-0.58339 l 0.19297,-0.20947 -0.009,0.57192 -0.009,0.57191 -0.52642,0.0115 -0.52642,0.0115 z"
     id="path1275" />
  <path
     style="fill:#87aade;stroke-width:0.0408508"
     d="m 250.53815,124.0027 v -23.48923 h 23.4688 23.46881 v 23.48923 23.48923 h -23.46881 -23.4688 z m 32.06829,-3.94211 c 1.51059,-1.65621 2.05901,-2.23139 2.20068,-2.30807 0.18505,-0.10015 0.20868,-0.10236 1.22019,-0.1143 l 1.03148,-0.0122 v 1.28877 1.28876 h 0.75574 0.75574 v -1.2868 -1.2868 h 0.77617 0.77617 v -0.63319 -0.63319 h -0.75137 c -0.64747,0 -0.7548,-0.009 -0.77617,-0.0646 -0.0136,-0.0355 -0.0237,-0.67435 -0.0223,-1.41957 l 0.002,-1.35495 2.87896,-3.1411 c 1.58342,-1.72761 2.87369,-3.15503 2.86727,-3.17205 -0.006,-0.017 -0.17713,-0.18014 -0.37934,-0.3625 l -0.36766,-0.33155 -0.1634,0.18558 c -0.0899,0.10207 -1.21123,1.33007 -2.4919,2.7289 l -2.3285,2.54332 -0.0108,-1.35975 -0.0108,-1.35976 -0.94924,7.3e-4 -0.94924,7.2e-4 -2.27743,3.47264 -2.27744,3.47263 v 0.71281 0.71282 l 0.64186,0.0113 0.64185,0.0113 -1.89802,2.07414 c -1.04391,1.14078 -1.89801,2.08955 -1.89801,2.10837 0,0.0188 0.16449,0.18447 0.36554,0.36812 l 0.36554,0.33391 0.12993,-0.1342 c 0.0715,-0.0738 1.03532,-1.12688 2.14191,-2.34015 z m -7.33311,0.0755 c 1.5984,-0.24821 2.68774,-1.12746 2.9892,-2.41271 0.11515,-0.49095 0.10435,-1.36398 -0.0219,-1.76781 -0.12008,-0.38421 -0.19517,-0.53122 -0.43271,-0.84723 -0.30348,-0.40371 -0.83294,-0.76094 -1.38414,-0.93389 l -0.23844,-0.0748 0.2064,-0.0702 c 1.19672,-0.40677 1.84452,-1.43251 1.68789,-2.67261 -0.0998,-0.79035 -0.42642,-1.34683 -1.05627,-1.79974 -1.09698,-0.7888 -2.76779,-0.91322 -5.02834,-0.37444 l -0.54127,0.129 v 0.67945 0.67946 l 0.60255,-0.17261 c 1.1713,-0.33552 2.32823,-0.44326 3.07402,-0.28627 0.99258,0.20894 1.54569,0.89924 1.45313,1.81355 -0.0752,0.74306 -0.49162,1.18416 -1.32428,1.40282 -0.25355,0.0666 -0.49616,0.0865 -1.28289,0.10544 l -0.9702,0.0233 v 0.60196 0.60197 l 0.92935,0.0191 c 0.68372,0.0141 1.01034,0.038 1.23574,0.0905 0.88408,0.20586 1.47325,0.74282 1.62935,1.48498 0.10153,0.48271 0.0235,1.09934 -0.18849,1.48875 -0.14529,0.26695 -0.54345,0.62949 -0.8477,0.77186 -0.53094,0.24844 -0.81496,0.29633 -1.75741,0.29632 -0.72479,-1e-5 -0.91853,-0.0135 -1.24894,-0.0868 -0.49681,-0.11029 -0.82784,-0.22145 -1.25883,-0.42273 -0.18847,-0.088 -0.34974,-0.16003 -0.35838,-0.16003 -0.009,0 -0.0107,0.32566 -0.005,0.72368 l 0.0111,0.72367 0.42894,0.13554 c 0.53524,0.16914 1.28941,0.32425 1.82046,0.37442 0.50615,0.0478 1.33975,0.0194 1.87654,-0.0639 z m -9.08931,-0.76997 v -0.63319 h -1.2051 -1.2051 v -4.84427 -4.84428 l -0.88851,0.0158 c -0.48867,0.009 -0.92369,0.0317 -0.96669,0.0512 -0.0589,0.0267 -0.0702,0.0225 -0.0459,-0.0168 0.025,-0.0404 -0.004,-0.0468 -0.12606,-0.0284 -0.0871,0.0131 -0.34219,0.044 -0.56687,0.0686 -0.80533,0.0883 -1.3691,0.2333 -1.47061,0.37822 -0.0485,0.0693 -0.0613,0.22902 -0.0613,0.76704 v 0.67952 l 1.19488,-0.23893 c 0.65719,-0.1314 1.24544,-0.24972 1.30723,-0.26292 l 0.11234,-0.024 v 4.14961 4.1496 h -1.2051 -1.2051 v 0.63319 0.63319 h 3.16594 3.16594 z"
     id="path1749" />
</svg>
