<?xml version="1.0" encoding="UTF-8" standalone="no"?>
<svg
   version="1.1"
   width="500"
   height="500"
   id="svg88"
   sodipodi:docname="jednaPozicia.svg"
   inkscape:version="1.1.2 (1:1.1+202202050950+0a00cf5339)"
   inkscape:export-filename="/home/karoli/Documents/Bakalarka/Bakalarka/Bakalarka/jednaPozicia.png"
   inkscape:export-xdpi="96"
   inkscape:export-ydpi="96"
   xmlns:inkscape="http://www.inkscape.org/namespaces/inkscape"
   xmlns:sodipodi="http://sodipodi.sourceforge.net/DTD/sodipodi-0.dtd"
   xmlns="http://www.w3.org/2000/svg"
   xmlns:svg="http://www.w3.org/2000/svg">
  <defs
     id="defs92" />
  <sodipodi:namedview
     id="namedview90"
     pagecolor="#ffffff"
     bordercolor="#666666"
     borderopacity="1.0"
     inkscape:pageshadow="2"
     inkscape:pageopacity="0.0"
     inkscape:pagecheckerboard="0"
     showgrid="false"
     inkscape:zoom="1.688"
     inkscape:cx="383.59005"
     inkscape:cy="250"
     inkscape:window-width="2488"
     inkscape:window-height="1403"
     inkscape:window-x="1992"
     inkscape:window-y="0"
     inkscape:window-maximized="1"
     inkscape:current-layer="svg88" />
  <polyline
     points="0,0 450,0 450,450 0,450 0,0"
     style="fill:none;stroke:black;stroke-width:5"
     id="polyline2" />
  <polyline
     points="0,50 450,50"
     style="fill:none;stroke:black;stroke-width:1"
     id="polyline4" />
  <polyline
     points="0,100 450,100"
     style="fill:none;stroke:black;stroke-width:1"
     id="polyline6" />
  <polyline
     points="0,150 450,150"
     style="fill:none;stroke:black;stroke-width:5"
     id="polyline8" />
  <polyline
     points="0,200 450,200"
     style="fill:none;stroke:black;stroke-width:1"
     id="polyline10" />
  <polyline
     points="0,250 450,250"
     style="fill:none;stroke:black;stroke-width:1"
     id="polyline12" />
  <polyline
     points="0,300 450,300"
     style="fill:none;stroke:black;stroke-width:5"
     id="polyline14" />
  <polyline
     points="0,350 450,350"
     style="fill:none;stroke:black;stroke-width:1"
     id="polyline16" />
  <polyline
     points="0,400 450,400"
     style="fill:none;stroke:black;stroke-width:1"
     id="polyline18" />
  <polyline
     points="50,0 50,450"
     style="fill:none;stroke:black;stroke-width:1"
     id="polyline20" />
  <polyline
     points="100,0 100,450"
     style="fill:none;stroke:black;stroke-width:1"
     id="polyline22" />
  <polyline
     points="150,0 150,450"
     style="fill:none;stroke:black;stroke-width:5"
     id="polyline24" />
  <polyline
     points="200,0 200,450"
     style="fill:none;stroke:black;stroke-width:1"
     id="polyline26" />
  <polyline
     points="250,0 250,450"
     style="fill:none;stroke:black;stroke-width:1"
     id="polyline28" />
  <polyline
     points="300,0 300,450"
     style="fill:none;stroke:black;stroke-width:5"
     id="polyline30" />
  <polyline
     points="350,0 350,450"
     style="fill:none;stroke:black;stroke-width:1"
     id="polyline32" />
  <polyline
     points="400,0 400,450"
     style="fill:none;stroke:black;stroke-width:1"
     id="polyline34" />
  <text
     x="16"
     y="35"
     style="font-wight:bold"
     font-size="30px"
     id="text36">2</text>
  <text
     x="166"
     y="35"
     style="font-wight:bold"
     font-size="30px"
     id="text38">1</text>
  <text
     x="366"
     y="35"
     style="font-wight:bold"
     font-size="30px"
     id="text40">6</text>
  <text
     x="66"
     y="85"
     style="font-wight:bold"
     font-size="30px"
     id="text42">8</text>
  <text
     x="116"
     y="85"
     style="font-wight:bold"
     font-size="30px"
     id="text44">5</text>
  <text
     x="216"
     y="85"
     style="font-wight:bold"
     font-size="30px"
     id="text46">2</text>
  <text
     x="366"
     y="85"
     style="font-wight:bold"
     font-size="30px"
     id="text48">9</text>
  <text
     x="216"
     y="135"
     style="font-wight:bold"
     font-size="30px"
     id="text50">7</text>
  <text
     x="316"
     y="135"
     style="font-wight:bold"
     font-size="30px"
     id="text52">1</text>
  <text
     x="416"
     y="135"
     style="font-wight:bold"
     font-size="30px"
     id="text54">2</text>
  <text
     x="266"
     y="185"
     style="font-wight:bold"
     font-size="30px"
     id="text56">1</text>
  <text
     x="416"
     y="185"
     style="font-wight:bold"
     font-size="30px"
     id="text58">3</text>
  <text
     x="166"
     y="235"
     style="font-wight:bold"
     font-size="30px"
     id="text60">9</text>
  <text
     x="266"
     y="235"
     style="font-wight:bold"
     font-size="30px"
     id="text62">5</text>
  <text
     x="16"
     y="285"
     style="font-wight:bold"
     font-size="30px"
     id="text64">9</text>
  <text
     x="166"
     y="285"
     style="font-wight:bold"
     font-size="30px"
     id="text66">2</text>
  <text
     x="16"
     y="335"
     style="font-wight:bold"
     font-size="30px"
     id="text68">8</text>
  <text
     x="116"
     y="335"
     style="font-wight:bold"
     font-size="30px"
     id="text70">6</text>
  <text
     x="216"
     y="335"
     style="font-wight:bold"
     font-size="30px"
     id="text72">9</text>
  <text
     x="66"
     y="385"
     style="font-wight:bold"
     font-size="30px"
     id="text74">1</text>
  <text
     x="216"
     y="385"
     style="font-wight:bold"
     font-size="30px"
     id="text76">6</text>
  <text
     x="316"
     y="385"
     style="font-wight:bold"
     font-size="30px"
     id="text78">8</text>
  <text
     x="366"
     y="385"
     style="font-wight:bold"
     font-size="30px"
     id="text80">3</text>
  <text
     x="66"
     y="435"
     style="font-wight:bold"
     font-size="30px"
     id="text82">9</text>
  <text
     x="266"
     y="435"
     style="font-wight:bold"
     font-size="30px"
     id="text84">3</text>
  <text
     x="416"
     y="435"
     style="font-wight:bold"
     font-size="30px"
     id="text86">7</text>
  <path
     style="fill:#d5e5ff;stroke-width:0.592417"
     d="M 350.7109,375 V 351.00711 H 375 399.2891 V 375 398.99289 H 375 350.7109 Z m 28.55524,9.67016 c 2.225,-0.84468 3.43528,-2.95259 3.43528,-5.98311 0,-2.51993 -1.54654,-5.16809 -3.0182,-5.16809 -0.3313,0 0.0949,-0.59982 0.94716,-1.33294 2.65906,-2.28737 2.07727,-6.89367 -1.08113,-8.55989 -1.95042,-1.02894 -6.59697,-1.31342 -9.43669,-0.57774 -1.24492,0.32251 -1.62915,0.78096 -1.62915,1.94388 0,1.46287 0.0975,1.50517 2.51777,1.09197 4.0907,-0.69841 5.97465,-0.44696 7.10439,0.94822 1.32541,1.63681 1.30764,2.07328 -0.14348,3.52441 -0.78989,0.78989 -1.97473,1.18484 -3.55451,1.18484 -2.09802,0 -2.36967,0.16094 -2.36967,1.40399 0,1.2292 0.33952,1.44227 2.72694,1.71137 1.49981,0.16905 3.13266,0.71309 3.62855,1.20898 1.22805,1.22804 1.13457,3.75135 -0.19332,5.21865 -0.92492,1.02203 -1.64935,1.17489 -4.66528,0.98443 -1.96369,-0.12401 -4.03687,-0.43923 -4.60707,-0.70049 -0.86506,-0.39636 -1.03673,-0.17467 -1.03673,1.33876 0,1.63494 0.21906,1.85043 2.22156,2.18536 1.22186,0.20436 2.48815,0.46138 2.81398,0.57115 0.84795,0.28568 4.46146,-0.28075 6.3396,-0.99375 z"
     id="path168" />
  <path
     style="fill:#d5e5ff;stroke-width:0.592417"
     d="M 350.7109,423.87441 V 400.77014 H 375 399.2891 v 23.10427 23.10426 H 375 350.7109 Z"
     id="path207" />
  <path
     style="fill:#d5e5ff;stroke-width:0.592417"
     d="m 401.06635,375 v -23.99289 h 23.10427 23.10426 V 375 398.99289 h -23.10426 -23.10427 z"
     id="path246" />
  <path
     style="fill:#d5e5ff;stroke-width:0.592417"
     d="m 401.06635,423.87441 v -23.10427 h 23.10427 23.10426 v 23.10427 23.10426 h -23.10426 -23.10427 z m 27.96134,0.42677 c 2.24258,-5.79312 3.91754,-10.79164 3.72213,-11.10782 -0.19754,-0.31962 -3.49627,-0.57488 -7.42933,-0.57488 h -7.07404 v 1.77725 1.77726 h 5.09892 c 4.61576,0 5.06048,0.0982 4.69316,1.03673 -0.22318,0.5702 -1.69217,4.36907 -3.26443,8.44194 -1.57225,4.07287 -3.05373,7.89132 -3.29218,8.48545 -0.37456,0.93326 -0.16809,1.05416 1.5174,0.88862 1.94827,-0.19134 1.95655,-0.20608 6.02837,-10.72455 z"
     id="path285" />
  <path
     style="fill:#d5e5ff;stroke-width:0.592417"
     d="m 302.72512,423.87441 v -23.10427 h 23.10426 23.10427 v 23.10427 23.10426 h -23.10427 -23.10426 z"
     id="path324" />
  <path
     style="fill:#d5e5ff;stroke-width:0.592417"
     d="m 302.72512,375 v -23.99289 h 23.10426 23.10427 V 375 398.99289 h -23.10427 -23.10426 z m 28.22075,9.11589 c 1.50625,-1.24918 2.69662,-4.59288 2.29159,-6.43699 -0.19829,-0.90281 -1.00457,-2.24652 -1.79173,-2.98602 l -1.43119,-1.34453 1.52072,-1.80728 c 3.99676,-4.74988 -1.71296,-10.55841 -8.56511,-8.71332 -2.81122,0.75699 -4.19902,2.21802 -4.6301,4.87444 -0.26187,1.61369 -0.0169,2.40337 1.19104,3.83888 l 1.52072,1.80728 -1.43119,1.34453 c -0.78716,0.7395 -1.59344,2.08321 -1.79173,2.98602 -0.40722,1.85408 0.78764,5.18971 2.31181,6.45376 2.16779,1.79784 8.62921,1.7878 10.80517,-0.0168 z"
     id="path363" />
  <path
     style="fill:#d5e5ff;stroke-width:0.592417"
     d="m 323.60301,382.39773 c -3.16298,-1.30116 -3.04262,-5.88658 0.18675,-7.11438 2.8508,-1.08388 6.18654,0.8753 6.18654,3.63355 0,2.56434 -3.69521,4.58252 -6.37329,3.48083 z"
     id="path402" />
  <path
     style="fill:#d5e5ff;stroke-width:0.592417"
     d="m 322.61341,370.81076 c -1.98138,-1.98137 -0.0973,-5.58564 2.91977,-5.58564 3.01709,0 4.90114,3.60427 2.91976,5.58564 -1.19986,1.19987 -4.63967,1.19987 -5.83953,0 z"
     id="path441" />
  <path
     style="fill:#d5e5ff;stroke-width:0.592417"
     d="m 250.59242,375 v -23.99289 h 23.40047 23.40047 V 375 398.99289 h -23.40047 -23.40047 z"
     id="path480" />
  <path
     style="fill:#d5e5ff;stroke-width:0.592417"
     d="m 200.82938,375 v -23.99289 h 24.2891 24.2891 V 375 398.99289 h -24.2891 -24.2891 z m 29.46042,9.40091 c 3.72319,-2.31752 4.18453,-9.17316 0.81962,-12.17971 -1.46321,-1.30737 -2.44082,-1.66433 -4.55819,-1.66433 -1.48251,0 -3.24723,0.29529 -3.92159,0.6562 -1.13845,0.60928 -1.19661,0.53515 -0.81337,-1.03673 0.90544,-3.7137 3.83378,-5.12798 8.48586,-4.09837 1.77884,0.3937 1.92536,0.31157 1.92536,-1.07916 0,-2.93653 -7.04113,-3.46905 -10.44688,-0.79009 -4.70699,3.70252 -5.11153,16.17064 -0.6446,19.86675 2.25244,1.86374 6.44309,2.01273 9.15379,0.32544 z"
     id="path558" />
  <path
     style="fill:#d5e5ff;stroke-width:0.592417"
     d="m 152.8436,375 v -23.99289 h 23.10427 23.10426 V 375 398.99289 H 175.94787 152.8436 Z"
     id="path597" />
  <path
     style="fill:#d5e5ff;stroke-width:0.592417"
     d="m 152.8436,423.87441 v -23.10427 h 23.10427 23.10426 v 23.10427 23.10426 H 175.94787 152.8436 Z"
     id="path636" />
  <path
     style="fill:#d5e5ff;stroke-width:0.592417"
     d="m 200.82938,423.87441 v -23.10427 h 24.2891 24.2891 v 23.10427 23.10426 h -24.2891 -24.2891 z"
     id="path675" />
  <path
     style="fill:#d5e5ff;stroke-width:0.592417"
     d="m 224.52607,382.5865 c -1.56645,-0.55983 -2.36991,-2.12193 -2.3606,-4.58954 0.0103,-2.73905 0.35301,-3.43106 2.17355,-4.38932 1.84933,-0.97341 2.42839,-0.86328 4.06469,0.77301 3.3897,3.38971 0.39266,9.73202 -3.87764,8.20585 z"
     id="path714" />
  <path
     style="fill:#d5e5ff;stroke-width:0.592417"
     d="m 250.59242,423.87441 v -23.10427 h 23.40047 23.40047 v 23.10427 23.10426 h -23.40047 -23.40047 z m 27.78811,11.07438 c 4.47159,-1.56681 5.93362,-7.1291 2.74788,-10.45429 -0.95108,-0.99271 -1.41961,-1.80493 -1.04119,-1.80493 0.8752,0 2.49572,-3.09671 2.49572,-4.76916 0,-0.70042 -0.9064,-2.17989 -2.01422,-3.28771 -1.83451,-1.83451 -2.32343,-2.0135 -5.47986,-2.00613 -5.12742,0.012 -6.13151,0.40761 -6.13151,2.41601 0,1.57307 0.10806,1.65241 1.5196,1.11574 3.7247,-1.41612 8.55149,-0.0752 8.55149,2.37561 0,1.71984 -1.54196,2.86293 -4.45021,3.29905 -2.29599,0.3443 -2.6588,0.59162 -2.6588,1.81248 0,1.28065 0.25104,1.41378 2.66588,1.41378 4.40268,0 6.34802,2.98724 3.9078,6.00078 -0.90145,1.11324 -1.70385,1.39388 -3.99881,1.39857 -1.57909,0.003 -3.73749,-0.21526 -4.79643,-0.48552 -1.79743,-0.45873 -1.92536,-0.39097 -1.92536,1.01979 0,1.19594 0.40164,1.62715 1.92536,2.0671 2.67673,0.77288 6.29173,0.7266 8.68266,-0.11117 z"
     id="path753" />
  <path
     style="fill:#d5e5ff;stroke-width:0.592417"
     d="M 2.9620853,375 V 351.00711 H 26.066351 49.170616 V 375 398.99289 H 26.066351 2.9620853 Z"
     id="path792" />
  <path
     style="fill:#d5e5ff;stroke-width:0.592417"
     d="M 2.9620853,423.87441 V 400.77014 H 26.066351 49.170616 v 23.10427 23.10426 H 26.066351 2.9620853 Z"
     id="path831" />
  <path
     style="fill:#d5e5ff;stroke-width:0.592417"
     d="m 50.947867,423.87441 v -23.10427 h 23.992891 23.992891 v 23.10427 23.10426 H 74.940758 50.947867 Z m 27.260428,10.74171 c 3.194732,-1.7127 4.824852,-5.43012 4.7961,-10.9373 -0.03912,-7.49277 -2.493059,-11.06034 -7.607811,-11.06034 -6.062053,0 -9.411158,5.21436 -7.021896,10.93267 1.493078,3.57343 5.886877,5.33909 9.188073,3.69223 1.669667,-0.83294 1.820941,-0.82605 1.818911,0.0828 -0.0012,0.54523 -0.515004,1.83229 -1.141746,2.86015 -1.337129,2.19288 -3.731559,2.91954 -6.814891,2.06819 -2.063688,-0.56981 -2.112239,-0.54441 -2.112239,1.10508 0,1.27981 0.322506,1.75041 1.332939,1.94503 3.049036,0.58727 5.619266,0.35326 7.56256,-0.68854 z"
     id="path870" />
  <path
     style="fill:#d5e5ff;stroke-width:0.592417"
     d="M 50.947867,375 V 351.00711 H 74.940758 98.933649 V 375 398.99289 H 74.940758 50.947867 Z m 31.398105,8.88626 c 0,-1.33294 -0.236967,-1.48105 -2.369669,-1.48105 h -2.369668 v -9.85927 -9.85928 l -3.604899,0.37679 c -4.358357,0.45554 -4.68894,0.63496 -4.68894,2.54491 0,1.41963 0.124209,1.47717 2.369668,1.0978 l 2.369669,-0.40035 v 8.0497 8.0497 h -2.369669 c -2.132701,0 -2.369668,0.14811 -2.369668,1.48105 v 1.48104 h 6.516588 6.516588 z"
     id="path909" />
  <path
     style="fill:#d5e5ff;stroke-width:0.592417"
     d="M 50.947867,375 V 351.00711 H 74.940758 98.933649 V 375 398.99289 H 74.940758 50.947867 Z m 31.398105,8.88626 c 0,-1.33294 -0.236967,-1.48105 -2.369669,-1.48105 h -2.369668 v -9.85644 -9.85645 l -3.20789,0.37703 c -4.372419,0.51389 -5.085949,0.86776 -5.085949,2.52236 0,1.33031 0.156929,1.39957 2.369668,1.04574 l 2.369669,-0.37893 v 8.07335 8.07334 h -2.369669 c -2.132701,0 -2.369668,0.14811 -2.369668,1.48105 v 1.48104 h 6.516588 6.516588 z"
     id="path948" />
  <path
     style="fill:#d5e5ff;stroke-width:0.592417"
     d="m 100.7109,375 v -23.99289 h 23.40047 23.40048 V 375 398.99289 H 124.11137 100.7109 Z"
     id="path987" />
  <path
     style="fill:#d5e5ff;stroke-width:0.592417"
     d="m 100.7109,423.87441 v -23.10427 h 23.40047 23.40048 v 23.10427 23.10426 H 124.11137 100.7109 Z"
     id="path1026" />
  <path
     style="fill:#2a7fff;stroke-width:0.592417"
     d="M 350.7109,375 V 351.00711 H 375 399.2891 V 375 398.99289 H 375 350.7109 Z m 26.77116,10.08508 c 4.69139,-0.75223 6.85761,-6.56618 3.80028,-10.19961 -1.40308,-1.66747 -1.40642,-1.70212 -0.29621,-3.07317 0.66198,-0.81751 1.12287,-2.31078 1.12287,-3.63806 0,-1.78674 -0.37617,-2.56791 -1.8227,-3.78508 -1.59276,-1.34022 -2.36255,-1.53371 -6.1019,-1.53371 -4.4231,0 -5.70099,0.55888 -5.70099,2.49333 0,0.94839 0.36903,1.02815 3.21124,0.69411 4.01552,-0.47195 6.03764,0.0156 6.92251,1.66897 0.59543,1.11258 0.47228,1.47458 -0.90456,2.65889 -0.99881,0.85913 -2.35559,1.37096 -3.63426,1.37096 -1.78151,0 -2.04043,0.18793 -2.04043,1.48104 0,1.17427 0.29878,1.48104 1.44248,1.48104 1.83813,0 4.6209,1.04996 5.20109,1.96242 0.82172,1.29232 0.47818,3.35659 -0.76561,4.60038 -1.11424,1.11424 -1.65308,1.1915 -5.67891,0.81425 -4.4271,-0.41485 -4.44694,-0.4103 -4.24881,0.97388 0.14944,1.04401 0.78974,1.56445 2.56872,2.08782 1.30332,0.38344 2.90285,0.60623 3.5545,0.49509 0.65166,-0.11114 2.16847,-0.35979 3.37069,-0.55255 z"
     id="path1141" />
  <path
     style="fill:#5599ff;stroke-width:0.592417"
     d="m 250.59242,423.87441 v -23.10427 h 23.40047 23.40047 v 23.10427 23.10426 h -23.40047 -23.40047 z m 28.24011,10.70086 c 1.35849,-0.6168 2.75808,-1.65977 3.11019,-2.31771 1.05079,-1.96341 0.76651,-5.69315 -0.56272,-7.38299 l -1.20295,-1.5293 1.20295,-2.24443 c 1.6715,-3.11867 1.52045,-4.19229 -0.9127,-6.48705 -1.89375,-1.78604 -2.46849,-1.99446 -5.47986,-1.98722 -4.80345,0.0115 -6.03009,0.4468 -6.03009,2.13964 0,1.36351 0.11932,1.4031 3.15374,1.04647 7.75444,-0.91139 9.59407,4.62775 1.99812,6.01634 -1.86094,0.34019 -2.22202,0.63152 -2.07346,1.67297 0.14224,0.99708 0.71256,1.33213 2.72461,1.60066 1.42744,0.1905 3.09235,0.88724 3.79199,1.58688 1.11813,1.11813 1.16891,1.43642 0.49047,3.07432 -0.90519,2.18532 -2.32848,2.63653 -7.20425,2.28384 -2.63721,-0.19075 -3.6728,-0.0498 -3.8954,0.53032 -1.06655,2.77939 6.22232,4.11627 10.88936,1.99726 z"
     id="path1180" />
  <path
     style="fill:#5599ff;stroke-width:0.592417"
     d="M 350.7109,375 V 351.00711 H 375 399.2891 V 375 398.99289 H 375 350.7109 Z m 26.36256,10.38462 c 4.8963,-1.12989 7.13753,-6.30557 4.47773,-10.34039 -1.02925,-1.56132 -1.05821,-1.89589 -0.29231,-3.37698 1.46108,-2.82542 1.099,-5.53497 -0.97258,-7.27809 -1.59276,-1.34022 -2.36255,-1.53371 -6.1019,-1.53371 -4.41874,0 -5.70099,0.55919 -5.70099,2.48619 0,0.9291 0.52823,1.05635 4.15574,1.00113 4.10453,-0.0625 5.91535,0.58692 5.91535,2.12136 0,1.22599 -2.11411,2.71818 -4.36965,3.0842 -1.76194,0.28593 -2.14694,0.59883 -2.14694,1.74493 0,1.17971 0.3819,1.4576 2.4598,1.78987 3.06164,0.48957 4.86414,2.13954 4.3108,3.94599 -0.7647,2.49644 -1.41393,2.78368 -6.29192,2.78368 -4.54352,0 -4.70139,0.0466 -4.51869,1.33293 0.13008,0.91596 0.83794,1.55414 2.26276,2.04003 2.54137,0.86665 3.76429,0.90234 6.8128,0.19886 z"
     id="path1256" />
  <path
     style="fill:#d5e5ff;stroke-width:0.592417"
     d="m 72.544162,423.60513 c -1.539592,-1.53959 -1.821922,-3.42552 -0.882651,-5.89599 0.626701,-1.64835 2.756695,-2.46251 4.981505,-1.90412 2.941434,0.73825 3.479931,6.47718 0.784893,8.36486 -1.80897,1.26705 -3.214473,1.10452 -4.883747,-0.56475 z"
     id="path1568" />
  <path
     style="fill:#5599ff;stroke-width:0.592417"
     d="m 50.947867,326.12559 v -23.10426 h 23.992891 23.992891 v 23.10426 23.10427 H 74.940758 50.947867 Z"
     id="path1683" />
</svg>
