<?xml version="1.0" encoding="UTF-8" standalone="no"?>
<svg
   version="1.1"
   width="500"
   height="500"
   id="svg294"
   sodipodi:docname="x-wing.svg"
   inkscape:export-filename="/home/karoli/Documents/Bakalarka/Bakalarka/Bakalarka/x-wing.png"
   inkscape:export-xdpi="96"
   inkscape:export-ydpi="96"
   inkscape:version="1.1.2 (1:1.1+202202050950+0a00cf5339)"
   xmlns:inkscape="http://www.inkscape.org/namespaces/inkscape"
   xmlns:sodipodi="http://sodipodi.sourceforge.net/DTD/sodipodi-0.dtd"
   xmlns="http://www.w3.org/2000/svg"
   xmlns:svg="http://www.w3.org/2000/svg">
  <defs
     id="defs298" />
  <sodipodi:namedview
     id="namedview296"
     pagecolor="#ffffff"
     bordercolor="#666666"
     borderopacity="1.0"
     inkscape:pageshadow="2"
     inkscape:pageopacity="0.0"
     inkscape:pagecheckerboard="0"
     showgrid="false"
     inkscape:zoom="1.1942822"
     inkscape:cx="191.32831"
     inkscape:cy="174.16319"
     inkscape:window-width="2488"
     inkscape:window-height="1403"
     inkscape:window-x="1992"
     inkscape:window-y="0"
     inkscape:window-maximized="1"
     inkscape:current-layer="svg294" />
  <polyline
     points="0,0 450,0 450,450 0,450 0,0"
     style="fill:white;stroke:black;stroke-width:5"
     id="polyline2" />
  <polyline
     points="0,50 450,50"
     style="fill:none;stroke:black;stroke-width:1"
     id="polyline4" />
  <polyline
     points="0,100 450,100"
     style="fill:none;stroke:black;stroke-width:1"
     id="polyline6" />
  <polyline
     points="0,150 450,150"
     style="fill:none;stroke:black;stroke-width:5"
     id="polyline8" />
  <polyline
     points="0,200 450,200"
     style="fill:none;stroke:black;stroke-width:1"
     id="polyline10" />
  <polyline
     points="0,250 450,250"
     style="fill:none;stroke:black;stroke-width:1"
     id="polyline12" />
  <polyline
     points="0,300 450,300"
     style="fill:none;stroke:black;stroke-width:5"
     id="polyline14" />
  <polyline
     points="0,350 450,350"
     style="fill:none;stroke:black;stroke-width:1"
     id="polyline16" />
  <polyline
     points="0,400 450,400"
     style="fill:none;stroke:black;stroke-width:1"
     id="polyline18" />
  <polyline
     points="50,0 50,450"
     style="fill:none;stroke:black;stroke-width:1"
     id="polyline20" />
  <polyline
     points="100,0 100,450"
     style="fill:none;stroke:black;stroke-width:1"
     id="polyline22" />
  <polyline
     points="150,0 150,450"
     style="fill:none;stroke:black;stroke-width:5"
     id="polyline24" />
  <polyline
     points="200,0 200,450"
     style="fill:none;stroke:black;stroke-width:1"
     id="polyline26" />
  <polyline
     points="250,0 250,450"
     style="fill:none;stroke:black;stroke-width:1"
     id="polyline28" />
  <polyline
     points="300,0 300,450"
     style="fill:none;stroke:black;stroke-width:5"
     id="polyline30" />
  <polyline
     points="350,0 350,450"
     style="fill:none;stroke:black;stroke-width:1"
     id="polyline32" />
  <polyline
     points="400,0 400,450"
     style="fill:none;stroke:black;stroke-width:1"
     id="polyline34" />
  <text
     x="8"
     y="20"
     style="font-wight:bold; fill:black"
     font-size="15px"
     id="text36">2</text>
  <text
     x="20"
     y="20"
     style="font-wight:bold; fill:black"
     font-size="15px"
     id="text38">4</text>
  <text
     x="32"
     y="20"
     style="font-wight:bold; fill:black"
     font-size="15px"
     id="text40">6</text>
  <text
     x="8"
     y="33"
     style="font-wight:bold; fill:black"
     font-size="15px"
     id="text42">7</text>
  <text
     x="58"
     y="20"
     style="font-wight:bold; fill:black"
     font-size="15px"
     id="text44">2</text>
  <text
     x="82"
     y="20"
     style="font-wight:bold; fill:black"
     font-size="15px"
     id="text48">7</text>
  <text
     x="58"
     y="33"
     style="font-wight:bold; fill:black"
     font-size="15px"
     id="text50">9</text>
  <text
     x="116"
     y="35"
     font-size="30px"
     id="text52"
     style="font-wight:bold">3</text>
  <text
     x="166"
     y="35"
     style="font-wight:bold"
     font-size="30px"
     id="text54">8</text>
  <text
     x="220"
     y="20"
     style="font-wight:bold; fill:black"
     font-size="15px"
     id="text58">6</text>
  <text
     x="232"
     y="20"
     style="font-wight:bold; fill:black"
     font-size="15px"
     id="text60">9</text>
  <text
     x="258"
     y="20"
     style="font-wight:bold; fill:black"
     font-size="15px"
     id="text62">2</text>
  <text
     x="270"
     y="20"
     style="font-wight:bold; fill:black"
     font-size="15px"
     id="text64">4</text>
  <text
     x="206.53857"
     y="19.683805"
     style="fill:#ff0000"
     font-size="15px"
     id="text64-3">4</text>
  <text
     x="316"
     y="35"
     style="font-wight:bold"
     font-size="30px"
     id="text66">5</text>
  <text
     x="366"
     y="35"
     style="font-wight:bold"
     font-size="30px"
     id="text68">1</text>
  <text
     x="408"
     y="20"
     style="font-wight:bold; fill:black"
     font-size="15px"
     id="text70">4</text>
  <text
     x="420"
     y="20"
     style="font-wight:bold; fill:black"
     font-size="15px"
     id="text72">6</text>
  <text
     x="8"
     y="70"
     style="font-wight:bold; fill:black"
     font-size="15px"
     id="text74">2</text>
  <text
     x="20"
     y="70"
     style="font-wight:bold; fill:black"
     font-size="15px"
     id="text76">4</text>
  <text
     x="32"
     y="70"
     style="font-wight:bold; fill:black"
     font-size="15px"
     id="text78">5</text>
  <text
     x="8"
     y="83"
     style="font-wight:bold; fill:black"
     font-size="15px"
     id="text80">6</text>
  <text
     x="58"
     y="70"
     style="font-wight:bold; fill:black"
     font-size="15px"
     id="text82">2</text>
  <text
     x="82"
     y="70"
     style="font-wight:bold; fill:black"
     font-size="15px"
     id="text86">5</text>
  <text
     x="116"
     y="85"
     style="font-wight:bold"
     font-size="30px"
     id="text88">8</text>
  <text
     x="166"
     y="85"
     style="font-wight:bold"
     font-size="30px"
     id="text90">7</text>
  <text
     x="208"
     y="70"
     style="font-wight:bold; fill:black"
     font-size="15px"
     id="text92">1</text>
  <text
     x="232"
     y="70"
     style="font-wight:bold; fill:black"
     font-size="15px"
     id="text96">6</text>
  <text
     x="258"
     y="70"
     style="font-wight:bold; fill:black"
     font-size="15px"
     id="text98">1</text>
  <text
     x="270"
     y="70"
     style="font-wight:bold; fill:black"
     font-size="15px"
     id="text100">2</text>
  <text
     x="282"
     y="70"
     style="font-wight:bold; fill:black"
     font-size="15px"
     id="text102">4</text>
  <text
     x="316"
     y="85"
     style="font-wight:bold"
     font-size="30px"
     id="text104">9</text>
  <text
     x="366"
     y="85"
     style="font-wight:bold"
     font-size="30px"
     id="text106">3</text>
  <text
     x="408"
     y="70"
     style="font-wight:bold; fill:black"
     font-size="15px"
     id="text108">4</text>
  <text
     x="420"
     y="70"
     style="font-wight:bold; fill:black"
     font-size="15px"
     id="text110">6</text>
  <text
     x="16"
     y="135"
     style="font-wight:bold"
     font-size="30px"
     id="text112">1</text>
  <text
     x="58"
     y="120"
     style="font-wight:bold; fill:black"
     font-size="15px"
     id="text114">4</text>
  <text
     x="70"
     y="120"
     style="font-wight:bold; fill:black"
     font-size="15px"
     id="text116">9</text>
  <text
     x="108"
     y="120"
     style="font-wight:bold; fill:black"
     font-size="15px"
     id="text118">6</text>
  <text
     x="120"
     y="120"
     style="font-wight:bold; fill:black"
     font-size="15px"
     id="text120">9</text>
  <text
     x="166"
     y="135"
     style="font-wight:bold"
     font-size="30px"
     id="text122">3</text>
  <text
     x="208"
     y="120"
     style="font-wight:bold; fill:black"
     font-size="15px"
     id="text124">4</text>
  <text
     x="220"
     y="120"
     style="font-wight:bold; fill:black"
     font-size="15px"
     id="text126">6</text>
  <text
     x="232"
     y="120"
     style="font-wight:bold; fill:black"
     font-size="15px"
     id="text128">9</text>
  <text
     x="266"
     y="135"
     style="font-wight:bold"
     font-size="30px"
     id="text130">5</text>
  <text
     x="316"
     y="135"
     style="font-wight:bold"
     font-size="30px"
     id="text132">7</text>
  <text
     x="366"
     y="135"
     style="font-wight:bold"
     font-size="30px"
     id="text134">2</text>
  <text
     x="416"
     y="135"
     style="font-wight:bold"
     font-size="30px"
     id="text136">8</text>
  <text
     x="8"
     y="170"
     style="font-wight:bold; fill:black"
     font-size="15px"
     id="text138">5</text>
  <text
     x="20"
     y="170"
     style="font-wight:bold; fill:black"
     font-size="15px"
     id="text140">6</text>
  <text
     x="32"
     y="170"
     style="font-wight:bold; fill:black"
     font-size="15px"
     id="text142">7</text>
  <text
     x="58"
     y="170"
     style="font-wight:bold; fill:black"
     font-size="15px"
     id="text144">3</text>
  <text
     x="70"
     y="170"
     style="font-wight:bold; fill:black"
     font-size="15px"
     id="text146">5</text>
  <text
     x="82"
     y="170"
     style="font-wight:bold; fill:black"
     font-size="15px"
     id="text148">7</text>
  <text
     x="108"
     y="170"
     style="font-wight:bold; fill:black"
     font-size="15px"
     id="text150">5</text>
  <text
     x="120"
     y="170"
     style="font-wight:bold; fill:black"
     font-size="15px"
     id="text152">6</text>
  <text
     x="132"
     y="170"
     style="font-wight:bold; fill:black"
     font-size="15px"
     id="text154">7</text>
  <text
     x="166"
     y="185"
     style="font-wight:bold"
     font-size="30px"
     id="text156">2</text>
  <text
     x="208"
     y="170"
     style="font-wight:bold; fill:black"
     font-size="15px"
     id="text158">1</text>
  <text
     x="220"
     y="170"
     style="font-wight:bold; fill:black"
     font-size="15px"
     id="text160">3</text>
  <text
     x="232"
     y="170"
     style="font-wight:bold; fill:black"
     font-size="15px"
     id="text162">7</text>
  <text
     x="258"
     y="170"
     style="font-wight:bold; fill:black"
     font-size="15px"
     id="text164">1</text>
  <text
     x="270"
     y="170"
     style="font-wight:bold; fill:black"
     font-size="15px"
     id="text166">3</text>
  <text
     x="316"
     y="185"
     style="font-wight:bold"
     font-size="30px"
     id="text168">8</text>
  <text
     x="366"
     y="185"
     style="font-wight:bold"
     font-size="30px"
     id="text170">4</text>
  <text
     x="416"
     y="185"
     style="font-wight:bold"
     font-size="30px"
     id="text172">9</text>
  <text
     x="16"
     y="235"
     style="font-wight:bold"
     font-size="30px"
     id="text174">8</text>
  <text
     x="58"
     y="220"
     style="font-wight:bold; fill:black"
     font-size="15px"
     id="text176">3</text>
  <text
     x="70"
     y="220"
     style="font-wight:bold; fill:black"
     font-size="15px"
     id="text178">4</text>
  <text
     x="116"
     y="235"
     style="font-wight:bold"
     font-size="30px"
     id="text180">1</text>
  <text
     x="166"
     y="235"
     style="font-wight:bold"
     font-size="30px"
     id="text182">9</text>
  <text
     x="208"
     y="220"
     style="font-wight:bold; fill:black"
     font-size="15px"
     id="text184">3</text>
  <text
     x="220"
     y="220"
     style="font-wight:bold; fill:black"
     font-size="15px"
     id="text186">4</text>
  <text
     x="266"
     y="235"
     style="font-wight:bold"
     font-size="30px"
     id="text188">6</text>
  <text
     x="316"
     y="235"
     style="font-wight:bold"
     font-size="30px"
     id="text190">2</text>
  <text
     x="366"
     y="235"
     style="font-wight:bold"
     font-size="30px"
     id="text192">5</text>
  <text
     x="416"
     y="235"
     style="font-wight:bold"
     font-size="30px"
     id="text194">7</text>
  <text
     x="8"
     y="270"
     style="font-wight:bold; fill:black"
     font-size="15px"
     id="text196">2</text>
  <text
     x="20"
     y="270"
     style="font-wight:bold; fill:black"
     font-size="15px"
     id="text198">4</text>
  <text
     x="32"
     y="270"
     style="font-wight:bold; fill:black"
     font-size="15px"
     id="text200">7</text>
  <text
     x="58"
     y="270"
     style="font-wight:bold; fill:black"
     font-size="15px"
     id="text202">2</text>
  <text
     x="82"
     y="270"
     style="font-wight:bold; fill:black"
     font-size="15px"
     id="text206">7</text>
  <text
     x="58"
     y="283"
     style="font-wight:bold; fill:black"
     font-size="15px"
     id="text208">9</text>
  <text
     x="108"
     y="270"
     style="font-wight:bold; fill:black"
     font-size="15px"
     id="text210">7</text>
  <text
     x="120"
     y="270"
     style="font-wight:bold; fill:black"
     font-size="15px"
     id="text212">9</text>
  <text
     x="166"
     y="285"
     style="font-wight:bold"
     font-size="30px"
     id="text214">5</text>
  <text
     x="220"
     y="270"
     style="font-wight:bold; fill:black"
     font-size="15px"
     id="text218">7</text>
  <text
     x="232"
     y="270"
     style="font-wight:bold; fill:black"
     font-size="15px"
     id="text220">8</text>
  <text
     x="258"
     y="270"
     style="font-wight:bold; fill:black"
     font-size="15px"
     id="text222">4</text>
  <text
     x="270"
     y="270"
     style="font-wight:bold; fill:black"
     font-size="15px"
     id="text224">8</text>
  <text
     x="316"
     y="285"
     style="font-wight:bold"
     font-size="30px"
     id="text226">1</text>
  <text
     x="366"
     y="285"
     style="font-wight:bold"
     font-size="30px"
     id="text228">6</text>
  <text
     x="416"
     y="285"
     style="font-wight:bold"
     font-size="30px"
     id="text230">3</text>
  <text
     x="16"
     y="335"
     style="font-wight:bold"
     font-size="30px"
     id="text232">9</text>
  <text
     x="66"
     y="335"
     style="font-wight:bold"
     font-size="30px"
     id="text234">6</text>
  <text
     x="116"
     y="335"
     style="font-wight:bold"
     font-size="30px"
     id="text236">4</text>
  <text
     x="166"
     y="335"
     style="font-wight:bold"
     font-size="30px"
     id="text238">1</text>
  <text
     x="216"
     y="335"
     style="font-wight:bold"
     font-size="30px"
     id="text240">2</text>
  <text
     x="266"
     y="335"
     style="font-wight:bold"
     font-size="30px"
     id="text242">7</text>
  <text
     x="316"
     y="335"
     style="font-wight:bold"
     font-size="30px"
     id="text244">3</text>
  <text
     x="366"
     y="335"
     style="font-wight:bold"
     font-size="30px"
     id="text246">8</text>
  <text
     x="416"
     y="335"
     style="font-wight:bold"
     font-size="30px"
     id="text248">5</text>
  <text
     x="16"
     y="385"
     style="font-wight:bold"
     font-size="30px"
     id="text250">3</text>
  <text
     x="66"
     y="385"
     style="font-wight:bold"
     font-size="30px"
     id="text252">8</text>
  <text
     x="116"
     y="385"
     style="font-wight:bold"
     font-size="30px"
     id="text254">2</text>
  <text
     x="166"
     y="385"
     style="font-wight:bold"
     font-size="30px"
     id="text256">6</text>
  <text
     x="216"
     y="385"
     style="font-wight:bold"
     font-size="30px"
     id="text258">5</text>
  <text
     x="266"
     y="385"
     style="font-wight:bold"
     font-size="30px"
     id="text260">9</text>
  <text
     x="316"
     y="385"
     style="font-wight:bold"
     font-size="30px"
     id="text262">4</text>
  <text
     x="366"
     y="385"
     style="font-wight:bold"
     font-size="30px"
     id="text264">7</text>
  <text
     x="416"
     y="385"
     style="font-wight:bold"
     font-size="30px"
     id="text266">1</text>
  <text
     x="8"
     y="420"
     style="font-wight:bold; fill:black"
     font-size="15px"
     id="text268">5</text>
  <text
     x="20"
     y="420"
     style="font-wight:bold; fill:black"
     font-size="15px"
     id="text270">7</text>
  <text
     x="66"
     y="435"
     style="font-wight:bold"
     font-size="30px"
     id="text272">1</text>
  <text
     x="108"
     y="420"
     style="font-wight:bold; fill:black"
     font-size="15px"
     id="text274">5</text>
  <text
     x="120"
     y="420"
     style="font-wight:bold; fill:black"
     font-size="15px"
     id="text276">7</text>
  <text
     x="166"
     y="435"
     style="font-wight:bold"
     font-size="30px"
     id="text278">4</text>
  <text
     x="208"
     y="420"
     style="font-wight:bold; fill:black"
     font-size="15px"
     id="text280">3</text>
  <text
     x="220"
     y="420"
     style="font-wight:bold; fill:black"
     font-size="15px"
     id="text282">8</text>
  <text
     x="258"
     y="420"
     style="font-wight:bold; fill:black"
     font-size="15px"
     id="text284">3</text>
  <text
     x="270"
     y="420"
     style="font-wight:bold; fill:black"
     font-size="15px"
     id="text286">8</text>
  <text
     x="316"
     y="435"
     style="font-wight:bold"
     font-size="30px"
     id="text288">6</text>
  <text
     x="366"
     y="435"
     style="font-wight:bold"
     font-size="30px"
     id="text290">9</text>
  <text
     x="416"
     y="435"
     style="font-wight:bold"
     font-size="30px"
     id="text292">2</text>
  <path
     style="fill:#d5e5ff;stroke-width:0.240472"
     d="m 61.615998,27.85409 c -0.51088,-0.205551 -1.016948,-1.441296 -1.016948,-2.483238 0,-1.957287 2.097816,-2.914655 3.384814,-1.544709 0.456714,0.48615 0.582981,0.881285 0.582981,1.824364 0,1.020835 -0.102553,1.292023 -0.674709,1.78417 -0.629073,0.541106 -1.551316,0.711043 -2.276138,0.419413 z"
     id="path413" />
  <path
     style="fill:#d5e5ff;stroke-width:0.240472"
     d="M 50.499208,176.02581 V 152.57975 H 74.907159 99.31511 v 23.44606 23.44606 H 74.907159 50.499208 Z m 14.134354,-6.22461 c 1.086498,-0.56185 1.559118,-1.26873 1.678424,-2.51037 0.123955,-1.29003 -0.343714,-2.49965 -1.128888,-2.91986 -0.437458,-0.23412 -0.425102,-0.28246 0.242961,-0.95053 0.519384,-0.51938 0.703857,-0.93242 0.703857,-1.57595 0,-2.02304 -1.307293,-3.02894 -3.883901,-2.98849 -2.299535,0.0361 -2.714795,0.20776 -2.806869,1.16023 -0.06743,0.69749 -0.01941,0.78071 0.360708,0.6252 0.241168,-0.0987 1.155353,-0.23508 2.031522,-0.30314 1.398871,-0.10865 1.655329,-0.0614 2.104134,0.38737 0.682647,0.68265 0.671159,1.81455 -0.02335,2.30101 -0.319819,0.224 -1.044113,0.37434 -1.803544,0.37434 -1.249787,0 -1.269092,0.011 -1.269092,0.72142 0,0.69586 0.03875,0.72141 1.094068,0.72141 1.205638,0 2.372678,0.48979 2.604114,1.0929 0.303423,0.79071 0.139172,1.71843 -0.391686,2.21233 -0.939987,0.87453 -2.217229,0.91939 -4.706885,0.16529 -0.516684,-0.1565 -0.55288,-0.10796 -0.480944,0.64497 0.07074,0.74037 0.175918,0.84099 1.159916,1.10962 1.276868,0.34859 3.588683,0.21151 4.515457,-0.26775 z m 11.881552,-0.0714 c 1.064511,-0.62342 1.612945,-1.47138 1.787484,-2.7637 0.330251,-2.44527 -1.61275,-4.44799 -4.121757,-4.24844 l -1.077225,0.0857 v -1.14397 -1.14398 h 2.164252 2.164251 v -0.72142 -0.72141 h -3.005905 -3.005905 v 2.7915 2.7915 l 0.661299,-0.20249 c 0.363715,-0.11138 1.227002,-0.20427 1.918417,-0.20643 1.053695,-0.003 1.364111,0.10308 1.918313,0.65737 0.813001,0.81313 0.911751,2.26981 0.206686,3.04889 -0.920771,1.01745 -2.178073,1.11656 -4.644597,0.36613 -0.49083,-0.14933 -0.541063,-0.0849 -0.541063,0.69419 0,0.80527 0.05622,0.8682 0.901772,1.00963 0.495974,0.083 1.009984,0.19394 1.142244,0.24664 0.545271,0.21728 2.837245,-0.13296 3.531734,-0.53968 z m 11.902096,-4.88592 c 1.097124,-2.84358 1.996041,-5.30542 1.997595,-5.47074 0.0021,-0.22724 -0.8774,-0.30059 -3.604261,-0.30059 h -3.607087 v 0.72141 0.72142 h 2.550689 c 1.944886,0 2.521897,0.0714 2.429469,0.30059 -0.619111,1.53524 -3.537323,9.1586 -3.537323,9.2407 0,0.0587 0.399634,0.073 0.888074,0.032 l 0.888075,-0.0746 z"
     id="path686" />
  <path
     style="fill:#d5e5ff;stroke-width:0.240472"
     d="m 61.88726,277.87308 c -1.853255,-0.7665 -1.653159,-4.19102 0.273132,-4.67449 1.579807,-0.3965 2.898333,1.48996 2.302741,3.29462 -0.154879,0.46929 -0.411934,0.96142 -0.571233,1.09363 -0.456342,0.37873 -1.441062,0.51934 -2.00464,0.28624 z"
     id="path920" />
  <path
     style="fill:#d5e5ff;stroke-width:0.240472"
     d="M 50.499208,325.96037 V 302.63454 H 74.907159 99.31511 v 23.32583 23.32582 H 74.907159 50.499208 Z m 29.026007,8.76041 c 1.354719,-0.65918 2.206681,-1.53011 3.014171,-3.0813 0.784447,-1.50693 0.886958,-5.08685 0.198031,-6.91583 -1.550583,-4.11653 -6.955092,-5.64623 -10.469797,-2.9634 -0.598281,0.45668 -1.087784,0.71714 -1.087784,0.57879 0,-0.95489 0.86873,-3.73097 1.458627,-4.66115 1.359769,-2.14413 4.222022,-2.84097 7.477547,-1.82047 0.838408,0.26282 1.605536,0.47924 1.704731,0.48095 0.0992,0.002 0.180354,-0.59759 0.180354,-1.33177 0,-1.31086 -0.01621,-1.34209 -0.901771,-1.73615 -0.675528,-0.30061 -1.625755,-0.40311 -3.787441,-0.40856 -2.747912,-0.007 -2.946379,0.0264 -4.157383,0.69727 -2.388546,1.32328 -4.028525,3.66522 -4.767451,6.80807 -0.53377,2.27027 -0.346713,7.25819 0.354426,9.4509 1.294321,4.04777 3.907365,5.92372 7.848991,5.63491 1.107825,-0.0812 2.111146,-0.33151 2.934749,-0.73226 z"
     id="path959" />
  <path
     style="fill:#d5e5ff;stroke-width:0.240472"
     d="m 74.306101,332.66391 c -1.476424,-0.58873 -2.342393,-1.94187 -2.554892,-3.9922 -0.181212,-1.74844 0.202248,-3.2016 1.120947,-4.24794 0.946202,-1.07766 1.880986,-1.43137 3.440969,-1.30201 2.320054,0.1924 3.52787,1.6344 3.717266,4.43801 0.156916,2.32281 -0.71318,4.16312 -2.374501,5.02222 -0.771051,0.39873 -2.452187,0.43984 -3.349789,0.0819 z"
     id="path998" />
  <path
     style="fill:#d5e5ff;stroke-width:0.240472"
     d="m 73.733486,382.70358 c -1.563925,-0.46826 -2.55365,-1.98445 -2.55365,-3.91201 0,-2.30459 1.446756,-3.79508 3.852622,-3.96911 3.015664,-0.21813 4.831628,1.23586 4.855456,3.88764 0.01604,1.78503 -0.620672,2.97746 -1.971179,3.69163 -1.096013,0.57958 -2.836263,0.70515 -4.183249,0.30185 z"
     id="path1037" />
  <path
     style="fill:#d5e5ff;stroke-width:0.240472"
     d="m 73.945269,371.95486 c -0.818493,-0.20493 -1.726013,-0.97984 -2.042584,-1.74411 -0.488133,-1.17846 -0.195404,-3.02106 0.614195,-3.8661 1.245391,-1.2999 3.817057,-1.51613 5.51934,-0.46406 2.001096,1.23675 1.777321,4.74513 -0.371809,5.82928 -0.796197,0.40165 -2.614961,0.52146 -3.719142,0.24499 z"
     id="path1076" />
  <path
     style="fill:#d5e5ff;stroke-width:0.240472"
     d="M 50.499208,375.01674 V 350.72903 H 74.907159 99.31511 v 24.28771 24.28771 H 74.907159 50.499208 Z m 27.306625,10.26553 c 3.006273,-0.63031 4.617542,-2.20305 5.193088,-5.0689 0.40169,-2.00017 -0.0329,-3.74084 -1.268703,-5.08153 -0.518961,-0.563 -1.265486,-1.15699 -1.658943,-1.31996 -0.393458,-0.16298 -0.711957,-0.36435 -0.707775,-0.4475 0.0042,-0.0831 0.484802,-0.44066 1.068046,-0.79446 2.910327,-1.76545 2.897101,-6.60045 -0.02354,-8.6017 -1.30457,-0.89391 -2.699685,-1.24993 -4.898038,-1.24993 -4.468244,0 -6.975326,2.05663 -6.975326,5.72205 0,1.94541 0.713502,3.31572 2.211241,4.24676 l 1.174223,0.72994 -0.79096,0.33217 c -2.019071,0.84792 -3.125386,2.70854 -3.115459,5.23962 0.01353,3.44892 1.695394,5.52241 5.089931,6.27512 1.737536,0.38528 2.929827,0.38992 4.702217,0.0183 z"
     id="path1115" />
  <path
     style="fill:#d5e5ff;stroke-width:0.240472"
     d="M 50.499208,423.95288 V 400.50682 H 74.907159 99.31511 v 23.44606 23.44606 H 74.907159 50.499208 Z m 31.982832,9.85937 v -1.3226 h -2.404724 -2.404724 v -9.73913 -9.73914 h -1.486353 c -0.817493,0 -2.711214,0.23872 -4.208267,0.53048 l -2.721915,0.53047 v 1.39331 c 0,1.74796 -0.309536,1.71232 4.74933,0.54689 l 0.541063,-0.12464 v 8.30088 8.30088 h -2.52496 -2.52496 v 1.16228 c 0,0.63926 0.07214,1.23443 0.160315,1.3226 0.08817,0.0882 3.009913,0.16031 6.492756,0.16031 h 6.332439 z"
     id="path1154" />
  <path
     style="fill:#d5e5ff;stroke-width:0.240472"
     d="m 223.93488,18.716138 c -0.464,-0.18669 -1.01695,-1.406701 -1.01695,-2.243777 0,-0.899026 0.55774,-2.049985 1.0929,-2.255347 2.06267,-0.79152 3.7448,1.550951 2.64332,3.680982 -0.1935,0.374184 -0.52699,0.747555 -0.74108,0.829712 -0.45141,0.173222 -1.53465,0.166886 -1.97819,-0.01157 z"
     id="path1271" />
  <path
     style="fill:#d5e5ff;stroke-width:0.240472"
     d="m 235.49441,14.668072 c -0.65806,-0.460922 -1.10243,-1.795208 -0.89266,-2.680357 0.40906,-1.726152 2.18496,-2.3490696 3.35664,-1.177387 0.84511,0.845113 0.84511,2.783835 0,3.628948 -0.67532,0.675321 -1.69173,0.769701 -2.46398,0.228796 z"
     id="path1310" />
  <path
     style="fill:#d5e5ff;stroke-width:0.240472"
     d="m 235.9585,68.734402 c -0.464,-0.18669 -1.01695,-1.406701 -1.01695,-2.243778 0,-2.150581 2.03358,-3.222498 3.38482,-1.784169 0.82454,0.877685 0.82454,2.690654 0,3.568339 -0.55929,0.595335 -1.55174,0.787973 -2.36787,0.459608 z"
     id="path1427" />
  <path
     style="fill:#d5e5ff;stroke-width:0.240472"
     d="m 200.554,176.02581 v -23.44606 h 24.40795 24.40795 v 23.44606 23.44606 H 224.96195 200.554 Z m 26.31008,-6.32091 c 1.73513,-1.001 2.07648,-3.63227 0.63796,-4.91759 l -0.75357,-0.67331 0.62456,-0.53723 c 0.74565,-0.64138 1.014,-2.15739 0.54062,-3.05421 -0.55928,-1.05958 -1.78889,-1.69082 -3.28785,-1.68788 -0.74094,0.001 -1.75295,0.0697 -2.24893,0.1517 -0.84052,0.13893 -0.90177,0.20584 -0.90177,0.98497 0,0.70077 0.068,0.80835 0.42083,0.66538 0.23145,-0.0938 1.0701,-0.22514 1.86366,-0.29188 1.23049,-0.10348 1.54016,-0.0442 2.10413,0.40274 0.72246,0.57254 0.84789,1.34444 0.33291,2.04871 -0.2399,0.32808 -0.72592,0.47786 -1.80355,0.55581 -1.4239,0.103 -1.47515,0.12973 -1.47515,0.76944 0,0.63211 0.063,0.66796 1.36335,0.7758 1.10549,0.0917 1.46933,0.23628 1.92378,0.7646 1.04181,1.21118 0.51957,2.58719 -1.15283,3.03752 -0.92633,0.24943 -1.76469,0.1591 -3.51701,-0.37897 -0.48986,-0.15041 -0.54107,-0.0863 -0.54107,0.67755 0,0.81081 0.0445,0.85351 1.14225,1.09573 1.51056,0.33331 3.80264,0.14477 4.72768,-0.38888 z m -10.67937,-0.29208 c 0,-0.70539 -0.0267,-0.72142 -1.20237,-0.72142 h -1.20236 v -4.84415 -4.84416 l -1.74342,0.13539 c -2.28859,0.17772 -2.58508,0.31101 -2.58508,1.16212 0,0.77038 0.21659,0.82936 1.74342,0.4748 l 0.90177,-0.20941 v 4.06271 4.0627 h -1.20236 c -1.17564,0 -1.20236,0.016 -1.20236,0.72142 v 0.72142 h 3.24638 3.24638 z m 22.26373,-4.65912 c 1.11319,-2.89317 2.02398,-5.35501 2.02398,-5.47075 0,-0.11574 -1.68448,-0.21044 -3.74329,-0.21044 h -3.7433 l 0.0761,0.6613 0.0761,0.66129 2.55345,0.12024 2.55345,0.12024 -1.77,4.56897 c -0.9735,2.51294 -1.77086,4.65667 -1.77191,4.76385 -9.6e-4,0.10718 0.38584,0.16128 0.85977,0.12024 l 0.86168,-0.0746 z"
     id="path1622" />
  <path
     style="fill:#d5e5ff;stroke-width:0.240472"
     d="m 235.33953,262.99777 c -0.49518,-0.54716 -0.51713,-1.81145 -0.0397,-2.28884 0.94946,-0.94946 3.21641,-0.51324 3.27734,0.63065 0.0464,0.87044 -0.0503,1.23213 -0.44817,1.67713 -0.51959,0.58111 -2.25707,0.56931 -2.78943,-0.0189 z"
     id="path1817" />
  <path
     style="fill:#d5e5ff;stroke-width:0.240472"
     d="m 235.73881,268.73745 c -1.07758,-0.45714 -1.38946,-2.16706 -0.57803,-3.16914 0.62676,-0.77401 2.41511,-0.80567 3.16476,-0.056 0.66442,0.66442 0.69217,2.13204 0.0524,2.77179 -0.53856,0.53856 -1.89078,0.77086 -2.63915,0.45338 z"
     id="path1856" />
  <path
     style="fill:#d5e5ff;stroke-width:0.240472"
     d="m 200.554,325.96037 v -23.32583 h 24.40795 24.40795 v 23.32583 23.32582 H 224.96195 200.554 Z m 31.74236,7.82013 v -1.31781 l -5.09641,-0.0649 -5.0964,-0.0649 3.84592,-3.9678 c 4.03461,-4.16247 5.17547,-5.59795 5.75544,-7.24176 0.76694,-2.17373 0.23308,-4.81068 -1.28579,-6.35103 -1.37439,-1.39384 -2.67416,-1.87436 -5.38795,-1.99194 -2.04481,-0.0886 -2.60602,-0.0182 -4.50886,0.5655 l -2.17335,0.66669 v 1.64946 1.64945 l 1.14224,-0.57841 c 4.67555,-2.36762 8.81866,-1.52281 9.33238,1.90294 0.1403,0.93557 0.0524,1.31551 -0.62121,2.68371 -0.64647,1.31318 -1.60427,2.42762 -5.43926,6.32884 l -4.65462,4.73501 v 1.35738 1.35739 h 7.09393 7.09394 z"
     id="path1895" />
  <path
     style="fill:#d5e5ff;stroke-width:0.240472"
     d="m 200.554,375.01674 v -24.28771 h 24.40795 24.40795 v 24.28771 24.28771 H 224.96195 200.554 Z m 27.46734,9.86336 c 2.79192,-1.04533 4.27439,-3.13014 4.46323,-6.27671 0.20667,-3.44371 -1.13759,-5.96538 -3.90069,-7.31724 -1.49022,-0.7291 -4.28898,-1.04503 -5.72606,-0.64637 l -0.90178,0.25016 v -2.62581 -2.62581 h 4.44874 4.44874 v -1.3226 -1.3226 h -5.89157 -5.89157 v 5.63815 5.63815 l 1.38271,-0.49782 c 0.94508,-0.34025 2.02966,-0.5074 3.42673,-0.52811 1.82527,-0.0271 2.16402,0.0403 3.16533,0.62888 1.36512,0.80249 2.09777,1.92489 2.28425,3.49941 0.25173,2.12553 -0.79183,4.03303 -2.6742,4.88807 -1.47622,0.67056 -4.27407,0.6066 -6.52548,-0.14917 -0.98499,-0.33065 -1.84272,-0.60118 -1.90606,-0.60118 -0.0633,0 -0.11517,0.696 -0.11517,1.54666 v 1.54667 l 1.74342,0.36992 c 2.77223,0.5882 2.8451,0.5954 4.92305,0.48631 1.13528,-0.0596 2.5177,-0.30614 3.24638,-0.57896 z"
     id="path1934" />
  <path
     style="fill:#d5e5ff;stroke-width:0.240472"
     d="m 200.554,423.95288 v -23.44606 h 24.40795 24.40795 v 23.44606 23.44606 H 224.96195 200.554 Z m 14.08588,-4.18305 c 2.14948,-0.97625 2.40944,-4.35477 0.41547,-5.39952 -0.63313,-0.33173 -0.63478,-0.33897 -0.11458,-0.50408 1.09463,-0.34742 1.55781,-2.19555 0.87916,-3.50792 -0.69621,-1.34631 -2.90285,-1.89561 -5.46668,-1.3608 -0.83526,0.17423 -0.90177,0.25043 -0.90177,1.03306 0,0.46746 0.10121,0.78239 0.22656,0.70492 0.1246,-0.077 0.82129,-0.24996 1.5482,-0.38434 1.68633,-0.31173 2.93278,0.12645 3.18177,1.11853 0.29988,1.19479 -0.70974,2.01292 -2.49169,2.0191 -0.97446,0.003 -1.02201,0.0371 -1.02201,0.72496 0,0.71485 0.0122,0.72142 1.33353,0.72142 1.09522,0 1.43901,0.10548 1.92378,0.59025 0.57667,0.57668 0.74085,1.38268 0.44087,2.16441 -0.39212,1.02187 -3.11197,1.44476 -4.78803,0.74446 l -0.83393,-0.34844 v 0.80935 c 0,0.66405 0.11872,0.8527 0.6613,1.05087 1.13895,0.41598 3.91959,0.31813 5.00805,-0.17623 z m 12.77471,-0.17094 c 1.51612,-1.12175 1.56102,-3.84158 0.0815,-4.93545 l -0.693,-0.51236 0.67638,-0.56914 c 0.84346,-0.70972 1.05695,-1.51645 0.72628,-2.74446 -0.40456,-1.5024 -2.05791,-2.29449 -4.1996,-2.01195 -1.72752,0.2279 -2.7715,1.30435 -2.7715,2.8577 0,0.92387 0.12621,1.25089 0.70689,1.83157 l 0.70689,0.70689 -0.54959,0.36011 c -1.68837,1.10626 -1.41604,4.33196 0.44606,5.28349 1.08242,0.55312 3.97603,0.39483 4.86971,-0.2664 z"
     id="path1973" />
  <path
     style="fill:#d5e5ff;stroke-width:0.240472"
     d="m 223.39888,413.01138 c -0.47838,-0.47838 -0.63411,-1.56313 -0.29691,-2.06813 0.2776,-0.41575 1.17085,-0.81754 1.81753,-0.81754 0.76395,0 1.54421,0.6691 1.73853,1.49085 0.34981,1.47922 -2.11843,2.53554 -3.25915,1.39482 z"
     id="path2012" />
  <path
     style="fill:#d5e5ff;stroke-width:0.240472"
     d="m 223.73546,418.68269 c -0.8196,-0.35996 -1.058,-0.77779 -1.058,-1.85435 0,-2.05223 3.29165,-2.61345 4.08564,-0.69659 0.74696,1.80332 -1.12969,3.38451 -3.02764,2.55094 z"
     id="path2051" />
  <path
     style="fill:#87aade;stroke-width:0.317093"
     d="m 75.580626,213.40341 c -9.66e-4,-1.5696 0.05265,-2.2517 0.119156,-1.51575 0.0665,0.73594 0.06729,2.02016 0.0018,2.85383 -0.06554,0.83367 -0.119947,0.23153 -0.120913,-1.33808 z"
     id="path3163" />
  <path
     style="fill:#87aade;stroke-width:0.317093"
     d="m 200.7197,123.98326 v -23.30631 h 24.2576 24.25759 v 23.30631 23.30632 H 224.9773 200.7197 Z m 27.01333,-4.8792 c 0.69879,-0.78209 0.89084,-1.30694 0.89084,-2.43468 0,-1.61643 -0.65536,-3.12804 -1.5679,-3.61642 -0.78636,-0.42085 -2.73861,-0.41987 -3.52643,0.002 -1.01984,0.54579 -0.77009,-0.85448 0.35264,-1.97721 0.98006,-0.98006 1.85338,-1.07659 3.57786,-0.3955 0.49193,0.19429 0.56428,0.0911 0.47564,-0.67814 -0.0908,-0.78781 -0.28124,-0.94201 -1.44622,-1.17093 -1.05423,-0.20716 -1.63859,-0.1323 -2.72758,0.34942 -1.87565,0.8297 -2.74824,2.59408 -2.74824,5.55697 0,2.49636 0.52347,3.94551 1.78486,4.94114 1.35647,1.07067 3.70833,0.79596 4.93453,-0.5764 z m 10.39255,0.64867 c 3.71041,-1.98992 3.13665,-10.23392 -0.76317,-10.96553 -3.19639,-0.59965 -5.55747,2.65288 -4.12189,5.67814 0.86946,1.83224 2.90512,2.52191 4.6924,1.58977 0.9047,-0.47184 0.90577,-0.47122 0.68996,0.39831 -0.11888,0.47899 -0.52663,1.20691 -0.9061,1.61759 -0.61921,0.67014 -0.8769,0.72754 -2.51324,0.55978 -1.76795,-0.18126 -1.82328,-0.16369 -1.82328,0.57889 0,0.54207 0.20845,0.80596 0.71346,0.90323 1.62634,0.31325 3.006,0.19 4.03186,-0.36018 z m -22.81961,-1.0015 c 0,-1.15069 0.0756,-1.26837 0.81479,-1.26837 0.66359,0 0.79598,-0.13239 0.71346,-0.71346 -0.0651,-0.4585 -0.35629,-0.74967 -0.81479,-0.81478 -0.69019,-0.098 -0.71346,-0.21438 -0.71346,-3.5673 v -3.46596 h -1.07538 c -1.01885,0 -1.19389,0.18173 -3.32948,3.45691 -1.32862,2.0376 -2.25409,3.79516 -2.25409,4.28075 0,0.81383 0.0289,0.82384 2.3782,0.82384 h 2.37819 v 1.26837 c 0,1.19791 0.0528,1.26837 0.95128,1.26837 0.89843,0 0.95128,-0.0705 0.95128,-1.26837 z"
     id="path3319" />
  <path
     style="fill:#87aade;stroke-width:0.317093"
     d="m 223.40982,118.04649 c -0.72914,-1.04099 -0.61307,-2.37557 0.2847,-3.27333 0.93523,-0.93523 1.44799,-0.9728 2.42954,-0.17799 0.8554,0.69266 1.03438,2.77164 0.3134,3.64037 -0.64445,0.77652 -2.4294,0.66506 -3.02764,-0.18905 z"
     id="path3358" />
  <path
     style="fill:#87aade;stroke-width:0.317093"
     d="m 235.14225,114.24138 c -1.57132,-2.24337 0.99969,-5.44641 2.78671,-3.47177 0.72429,0.80034 0.69147,2.97609 -0.0551,3.65172 -0.82765,0.74902 -2.14157,0.66246 -2.73161,-0.17995 z"
     id="path3397" />
  <path
     style="fill:#87aade;stroke-width:0.112278"
     d="m 222.08655,216.122 c 0,-0.0574 2.81105,-4.49796 3.32988,-5.26019 0.12806,-0.18813 0.15075,0.19643 0.15075,2.55433 v 2.7758 h -1.74031 c -0.95718,0 -1.74032,-0.0315 -1.74032,-0.0699 z"
     id="path4029" />
  <path
     style="fill:#87aade;stroke-width:0.112278"
     d="m 210.17212,115.95154 c 0.11082,-0.20706 3.37705,-5.32095 3.45163,-5.40416 0.0231,-0.0257 0.0419,1.22477 0.0419,2.77889 v 2.82567 h -1.80041 c -1.69326,0 -1.79402,-0.0119 -1.69315,-0.2004 z"
     id="path4068" />
  <path
     style="fill:#87aade;stroke-width:0.112278"
     d="M 50.525252,124.01142 V 100.54525 H 75.00193 99.478608 v 23.46617 23.46618 H 75.00193 50.525252 Z m 25.149521,-4.07532 c 0.771191,-0.28483 1.745782,-1.22974 2.165955,-2.09998 0.493376,-1.02186 0.647655,-1.82827 0.644423,-3.36835 -0.0061,-2.89484 -0.725254,-4.54802 -2.303278,-5.29456 -0.55784,-0.2639 -0.823162,-0.3192 -1.531955,-0.31927 -1.261302,-1.4e-4 -1.929503,0.25068 -2.680058,1.00596 -0.769981,0.77484 -1.038271,1.46437 -1.043192,2.68109 -0.0049,1.20175 0.253344,1.99721 0.871443,2.68469 0.676692,0.75264 1.418088,1.06974 2.530149,1.08217 1.015948,0.0114 1.570732,-0.16628 2.147964,-0.68778 l 0.434438,-0.39249 -0.0013,0.32184 c -0.0034,0.82868 -0.533874,2.12437 -1.083099,2.64564 -0.862337,0.81845 -2.410024,0.91917 -3.996163,0.26007 -0.175476,-0.0729 -0.196488,-0.003 -0.196488,0.65585 v 0.73749 l 0.477183,0.13044 c 1.316014,0.35975 2.513001,0.34537 3.56401,-0.0428 z m -10.441058,-1.14049 v -1.28607 l 0.757878,-0.0332 0.757879,-0.0332 0.03367,-0.6456 0.03367,-0.6456 h -0.789975 -0.789975 l -0.02965,-3.56484 -0.02965,-3.56483 -0.954365,-0.0298 -0.954366,-0.0298 -2.273637,3.4697 -2.273636,3.4697 v 0.79861 0.79861 h 2.470123 2.470124 v 1.2912 1.2912 h 0.785948 0.785949 z"
     id="path4107" />
  <path
     style="fill:#87aade;stroke-width:0.112278"
     d="m 60.137478,116.01159 c 0.140504,-0.24101 3.437595,-5.41486 3.482125,-5.46421 0.02322,-0.0257 0.04221,1.22477 0.04221,2.77889 v 2.82567 h -1.80308 c -1.411249,0 -1.785299,-0.0305 -1.72126,-0.14035 z"
     id="path4146" />
  <path
     style="fill:#87aade;stroke-width:0.112278"
     d="m 73.588492,114.81685 c -0.798227,-0.48676 -1.105016,-1.22538 -1.040405,-2.50486 0.05251,-1.03982 0.413922,-1.67431 1.141999,-2.00487 1.569155,-0.71242 2.996019,0.39183 2.996019,2.31863 0,0.99086 -0.4504,1.88729 -1.123012,2.23511 -0.467621,0.24181 -1.545261,0.21779 -1.974601,-0.044 z"
     id="path4185" />
  <path
     style="fill:#87aade;stroke-width:0.112278"
     d="M 50.525252,225.00579 V 200.58525 H 75.00193 99.478608 v 24.42054 24.42054 H 75.00193 50.525252 Z m 13.740716,-5.10584 c 0.777445,-0.29966 1.453298,-0.87379 1.778649,-1.51092 0.293056,-0.5739 0.392121,-1.79018 0.201313,-2.47168 -0.185044,-0.66091 -0.777127,-1.33655 -1.39533,-1.59224 l -0.49778,-0.20588 0.520456,-0.28292 c 0.763714,-0.41514 1.15622,-1.03764 1.229443,-1.94983 0.05202,-0.64811 0.02134,-0.81704 -0.248669,-1.36891 -0.570739,-1.16655 -1.642832,-1.67784 -3.483433,-1.66126 -0.975825,0.009 -2.575067,0.2525 -2.875564,0.43822 -0.101853,0.063 -0.144752,1.39577 -0.04493,1.39577 0.03019,0 0.447021,-0.1085 0.926297,-0.2411 1.172815,-0.3245 2.607311,-0.34009 3.227773,-0.0351 0.863061,0.42427 1.182491,1.34198 0.759186,2.1811 -0.321932,0.63818 -0.779255,0.82307 -2.178389,0.88072 l -1.217856,0.0502 v 0.65925 0.65925 l 1.094714,0.002 c 1.2569,0.003 1.813196,0.19004 2.306383,0.77616 0.376722,0.44771 0.458904,0.76019 0.389605,1.48139 -0.06536,0.68024 -0.334434,1.07156 -0.993689,1.44517 -0.454076,0.25733 -0.607466,0.28028 -1.842647,0.27575 -1.358999,-0.005 -1.358957,-0.005 -2.666611,-0.5541 -0.175673,-0.0738 -0.196487,-0.004 -0.196487,0.66209 0,0.70883 0.01483,0.75027 0.308765,0.8626 1.312197,0.5015 3.733933,0.55282 4.898797,0.10383 z m 12.981529,-1.18175 v -1.2912 h 0.729809 0.729809 v -0.61753 -0.61753 h -0.728232 -0.728232 l -0.02965,-3.56484 -0.02965,-3.56483 -0.966611,-0.0322 -0.966611,-0.0322 -2.261392,3.442 -2.261391,3.44199 v 0.77258 0.77258 h 2.413984 2.413985 v 1.2912 1.2912 h 0.842087 0.842088 z"
     id="path4501" />
  <path
     style="fill:#87aade;stroke-width:0.112278"
     d="m 72.082693,216.12968 c 0,-0.0538 3.324213,-5.30347 3.438413,-5.43002 0.02322,-0.0257 0.04222,1.19951 0.04222,2.72275 v 2.76953 h -1.740315 c -0.957172,0 -1.740314,-0.028 -1.740314,-0.0623 z"
     id="path4540" />
  <path
     style="fill:#87aade;stroke-width:0.112278"
     d="m 200.52911,225.00579 v -24.42054 h 24.47668 24.47668 v 24.42054 24.42054 h -24.47668 -24.47668 z m 13.74072,-5.10584 c 0.77744,-0.29966 1.4533,-0.87379 1.77865,-1.51092 0.29305,-0.5739 0.39212,-1.79018 0.20131,-2.47168 -0.18504,-0.66091 -0.77713,-1.33655 -1.39533,-1.59224 l -0.49778,-0.20588 0.52046,-0.28292 c 0.28891,-0.15705 0.67217,-0.4995 0.86149,-0.76977 0.30784,-0.43947 0.34103,-0.5706 0.34103,-1.34734 0,-0.73162 -0.0452,-0.93732 -0.30166,-1.37361 -0.60795,-1.03411 -1.62152,-1.48282 -3.34738,-1.48188 -1.02844,5.5e-4 -2.61208,0.23327 -2.93171,0.43082 -0.10185,0.063 -0.14475,1.39577 -0.0449,1.39577 0.0302,0 0.44702,-0.1085 0.92629,-0.2411 1.17282,-0.3245 2.60732,-0.34009 3.22778,-0.0351 0.86306,0.42427 1.18249,1.34198 0.75918,2.1811 -0.32193,0.63818 -0.77925,0.82307 -2.17839,0.88072 l -1.21785,0.0502 v 0.65925 0.65925 l 1.09471,0.002 c 1.2569,0.003 1.8132,0.19004 2.30638,0.77616 0.37673,0.44771 0.45891,0.76019 0.38961,1.48139 -0.0654,0.68024 -0.33443,1.07156 -0.99369,1.44517 -0.45408,0.25733 -0.60746,0.28028 -1.84265,0.27575 -1.35899,-0.005 -1.35895,-0.005 -2.66661,-0.5541 -0.17567,-0.0738 -0.19648,-0.004 -0.19648,0.66209 0,0.70883 0.0148,0.75027 0.30876,0.8626 1.3122,0.5015 3.73393,0.55282 4.8988,0.10383 z m 12.86925,-1.18175 v -1.2912 h 0.78595 0.78595 v -0.61753 -0.61753 h -0.78595 -0.78595 v -3.59291 -3.5929 h -0.94102 -0.94102 l -2.31505,3.51783 -2.31506,3.51784 v 0.6926 0.6926 h 2.47013 2.47012 v 1.2912 1.2912 h 0.78595 0.78595 z"
     id="path4776" />
  <path
     style="fill:#ff0000;stroke-width:0.0558808"
     d="m 205.53569,21.055161 c -0.22469,-0.162832 -0.32143,-0.265844 -0.28764,-0.306294 0.0538,-0.06443 2.77327,-3.148543 3.70599,-4.202952 2.55832,-2.892089 4.68041,-5.288314 5.35463,-6.046341 0.44361,-0.498749 1.2457,-1.4025541 1.78244,-2.0084551 l 0.97587,-1.101639 0.33083,0.239151 c 0.18197,0.131533 0.33085,0.262071 0.33085,0.290086 0,0.02802 -0.91836,1.088244 -2.0408,2.3560671 -1.12243,1.267823 -2.40182,2.7132 -2.84307,3.211949 -5.00658,5.65893 -6.89959,7.7885 -6.9343,7.800863 -0.0199,0.0071 -0.18859,-0.09749 -0.3748,-0.232435 z"
     id="path5515" />
  <text
     x="219.83875"
     y="69.803642"
     style="fill:#ff0000"
     font-size="15px"
     id="text64-3-6">4</text>
  <path
     style="fill:#ff0000;stroke-width:0.0558808"
     d="m 218.83585,71.174994 c -0.22469,-0.162832 -0.32143,-0.265844 -0.28764,-0.306294 0.0538,-0.06443 2.77327,-3.148543 3.70599,-4.202952 2.55832,-2.892089 4.68041,-5.288314 5.35463,-6.046341 0.44361,-0.498749 1.2457,-1.402554 1.78244,-2.008455 l 0.97587,-1.101639 0.33083,0.239151 c 0.18197,0.131533 0.33085,0.262071 0.33085,0.290086 0,0.02802 -0.91836,1.088244 -2.0408,2.356067 -1.12243,1.267823 -2.40182,2.7132 -2.84307,3.211949 -5.00658,5.65893 -6.89959,7.7885 -6.9343,7.800863 -0.0199,0.0071 -0.18859,-0.09749 -0.3748,-0.232435 z"
     id="path5515-7" />
  <text
     x="70.111046"
     y="20.020918"
     style="fill:#ff0000"
     font-size="15px"
     id="text64-3-5">4</text>
  <path
     style="fill:#ff0000;stroke-width:0.0558808"
     d="m 69.108154,21.392272 c -0.22469,-0.162832 -0.32143,-0.265844 -0.28764,-0.306294 0.0538,-0.06443 2.77327,-3.148543 3.70599,-4.202952 2.55832,-2.892089 4.68041,-5.288314 5.35463,-6.046341 0.44361,-0.498749 1.2457,-1.4025536 1.78244,-2.0084546 l 0.97587,-1.101639 0.33083,0.239151 c 0.18197,0.131533 0.33085,0.262071 0.33085,0.290086 0,0.02802 -0.91836,1.088244 -2.0408,2.3560666 -1.12243,1.267823 -2.40182,2.7132 -2.84307,3.211949 -5.00658,5.65893 -6.89959,7.7885 -6.9343,7.800863 -0.0199,0.0071 -0.18859,-0.09749 -0.3748,-0.232435 z"
     id="path5515-3" />
  <text
     x="70.074287"
     y="69.831291"
     style="fill:#ff0000"
     font-size="15px"
     id="text64-3-56">4</text>
  <path
     style="fill:#ff0000;stroke-width:0.0558808"
     d="m 69.071398,71.202646 c -0.22469,-0.162832 -0.32143,-0.265844 -0.28764,-0.306294 0.0538,-0.06443 2.77327,-3.148543 3.70599,-4.202952 2.55832,-2.892089 4.68041,-5.288314 5.35463,-6.046341 0.44361,-0.498749 1.2457,-1.402554 1.78244,-2.008455 l 0.97587,-1.101639 0.33083,0.239151 c 0.18197,0.131533 0.33085,0.262071 0.33085,0.290086 0,0.02802 -0.91836,1.088244 -2.0408,2.356067 -1.12243,1.267823 -2.40182,2.7132 -2.84307,3.211949 -5.00658,5.65893 -6.89959,7.7885 -6.9343,7.800863 -0.0199,0.0071 -0.18859,-0.09749 -0.3748,-0.232435 z"
     id="path5515-2" />
  <text
     x="206.12819"
     y="270.65622"
     style="fill:#ff0000"
     font-size="15px"
     id="text64-3-9">4</text>
  <path
     style="fill:#ff0000;stroke-width:0.0558808"
     d="m 205.1253,272.02759 c -0.22469,-0.16283 -0.32143,-0.26584 -0.28764,-0.30629 0.0538,-0.0644 2.77327,-3.14855 3.70599,-4.20295 2.55832,-2.89209 4.68041,-5.28832 5.35463,-6.04635 0.44361,-0.49875 1.2457,-1.40255 1.78244,-2.00845 l 0.97587,-1.10164 0.33083,0.23915 c 0.18197,0.13153 0.33085,0.26207 0.33085,0.29009 0,0.028 -0.91836,1.08824 -2.0408,2.35606 -1.12243,1.26783 -2.40182,2.7132 -2.84307,3.21195 -5.00658,5.65893 -6.89959,7.7885 -6.9343,7.80087 -0.0199,0.007 -0.18859,-0.0975 -0.3748,-0.23244 z"
     id="path5515-36" />
  <text
     x="69.44545"
     y="270.16788"
     style="fill:#ff0000"
     font-size="15px"
     id="text64-3-0">4</text>
  <path
     style="fill:#ff0000;stroke-width:0.0558808"
     d="m 68.442556,271.53922 c -0.22469,-0.16283 -0.32143,-0.26584 -0.28764,-0.30629 0.0538,-0.0644 2.77327,-3.14855 3.70599,-4.20296 2.55832,-2.89208 4.68041,-5.28831 5.35463,-6.04634 0.44361,-0.49875 1.2457,-1.40255 1.78244,-2.00845 l 0.97587,-1.10164 0.33083,0.23915 c 0.18197,0.13153 0.33085,0.26207 0.33085,0.29009 0,0.028 -0.91836,1.08824 -2.0408,2.35606 -1.12243,1.26783 -2.40182,2.7132 -2.84307,3.21195 -5.00658,5.65893 -6.89959,7.7885 -6.9343,7.80087 -0.0199,0.007 -0.18859,-0.0975 -0.3748,-0.23244 z"
     id="path5515-6" />
  <path
     style="fill:#d5e5ff;stroke-width:0.0849757"
     d="M 50.560531,274.00409 V 250.5508 H 74.99104 99.421548 v 23.45329 23.45329 H 74.99104 50.560531 Z m 12.868046,9.0094 c 2.21632,-0.76252 3.400967,-3.36694 3.03509,-6.67257 -0.170502,-1.54045 -0.595968,-2.69041 -1.28001,-3.45964 -1.082082,-1.21684 -3.464971,-1.39374 -4.871688,-0.36168 -1.114962,0.81802 -1.642844,2.44326 -1.306816,4.02343 0.176889,0.83182 0.427152,1.32645 0.92152,1.82132 0.49955,0.50005 1.099511,0.78488 1.920995,0.912 1.085072,0.16789 2.011781,-0.085 2.751457,-0.75099 l 0.34985,-0.31498 -0.05288,0.5112 c -0.169385,1.6374 -0.911681,2.72861 -2.088955,3.07085 -0.616755,0.1793 -1.733973,0.11758 -2.431917,-0.13435 -0.280419,-0.10122 -0.578398,-0.20626 -0.662174,-0.23343 -0.139508,-0.0452 -0.150228,0.0105 -0.127463,0.66238 l 0.02486,0.71178 0.339903,0.1147 c 1.119714,0.37786 2.550994,0.419 3.478233,0.1 z m 7.271191,-13.29466 1.826977,-2.07362 1.295879,-0.007 1.295879,-0.007 v 1.27464 1.27463 h 0.764781 0.764781 v -1.27463 -1.27464 h 0.764782 0.764781 v -0.63732 -0.63731 h -0.764781 -0.764782 v -1.66578 -1.66578 l 1.465831,-1.66098 c 2.079051,-2.35584 2.528026,-2.88441 2.528026,-2.97623 0,-0.0444 -0.157381,-0.18988 -0.349736,-0.32318 l -0.349737,-0.24237 -0.156433,0.19319 c -0.08604,0.10626 -0.817716,0.93909 -1.625949,1.85076 l -1.469514,1.65756 -0.02366,-1.15525 -0.02366,-1.15525 -0.992113,0.0239 -0.992112,0.0239 -2.277036,3.47224 -2.277036,3.47224 v 0.71281 0.71281 h 0.552342 c 0.303788,0 0.552342,0.0195 0.552342,0.0433 0,0.0238 -0.678744,0.81099 -1.508319,1.74926 -0.829575,0.93827 -1.523545,1.74836 -1.542155,1.8002 -0.03643,0.10148 0.479714,0.57177 0.625457,0.56989 0.0485,-6.2e-4 0.910325,-0.93426 1.915163,-2.07475 z m -4.588687,-0.34467 v -0.63607 l -2.545539,-0.0225 -2.54554,-0.0225 1.947078,-2.01749 c 2.649526,-2.74534 2.998336,-3.28457 3.00992,-4.6531 0.0076,-0.89774 -0.173149,-1.45696 -0.643691,-1.99152 -1.084923,-1.23254 -3.009451,-1.51734 -5.291107,-0.78301 l -0.856639,0.27571 -0.02443,0.78204 c -0.01344,0.43012 -0.0093,0.78204 0.0093,0.78204 0.01854,0 0.329155,-0.1365 0.690253,-0.30334 1.773837,-0.81956 3.243038,-0.8215 4.059179,-0.005 0.354154,0.35415 0.505782,0.75335 0.503051,1.32439 -0.0049,1.01787 -0.44919,1.62842 -3.247463,4.46234 l -2.117327,2.1443 v 0.65006 0.65006 h 3.526491 3.526491 z m 22.22824,-4.57078 c 1.22412,-3.17705 1.989829,-5.278 1.989829,-5.45969 v -0.29532 h -3.568978 -3.568979 v 0.63732 0.63731 h 2.591758 c 1.477085,0 2.591759,0.0329 2.591759,0.0764 0,0.042 -0.82214,2.2086 -1.826978,4.81463 -1.004837,2.60603 -1.826977,4.75266 -1.826977,4.7703 0,0.0176 0.366466,0.0211 0.814368,0.008 l 0.814368,-0.0243 1.98983,-5.16436 z"
     id="path7363" />
  <path
     style="fill:#d5e5ff;stroke-width:0.0849757"
     d="m 71.543837,266.19695 c 0.10364,-0.19365 3.478259,-5.46596 3.534687,-5.52239 0.02199,-0.022 0.03998,0.55813 0.03998,1.28914 v 1.32913 l -1.338367,1.52508 -1.338367,1.52508 -0.4916,0.007 c -0.455252,0.006 -0.485295,-0.005 -0.406332,-0.15268 z"
     id="path7402" />
  <path
     style="fill:#d5e5ff;stroke-width:0.0849757"
     d="m 73.839371,266.20757 c 0.04755,-0.0818 0.353497,-0.4355 0.679879,-0.78603 l 0.59342,-0.63731 0.0029,0.78602 0.0029,0.78603 h -0.682795 c -0.626567,0 -0.675675,-0.0123 -0.596337,-0.14871 z"
     id="path7441" />
  <path
     style="fill:#d5e5ff;stroke-width:0.0849757"
     d="M 200.54261,274.00409 V 250.5508 h 24.473 24.47299 v 23.45329 23.45329 h -24.47299 -24.473 z m 6.83623,-3.78142 1.84829,-2.0819 h 1.26614 1.26613 v 1.27463 1.27464 h 0.76478 0.76478 v -1.27145 -1.27145 l 0.78603,-0.0244 0.78602,-0.0244 v -0.63732 -0.63732 l -0.78602,-0.0244 -0.78603,-0.0244 v -1.6124 -1.6124 l 1.63578,-1.84834 c 1.85469,-2.09567 2.44306,-2.78014 2.44306,-2.84207 0,-0.0981 -0.67683,-0.50288 -0.75745,-0.45306 -0.0482,0.0298 -0.80565,0.86167 -1.68326,1.84864 l -1.59564,1.79448 -0.0425,-1.18197 -0.0425,-1.18197 h -0.92959 -0.9296 l -2.27823,3.46754 -2.27824,3.46755 v 0.75999 0.76 h 0.55635 0.55636 l -1.58899,1.80139 -1.58899,1.8014 0.3245,0.28051 c 0.17847,0.15428 0.3506,0.2805 0.3825,0.2805 0.0319,0 0.88974,-0.93685 1.9063,-2.0819 z m 30.34063,-0.0465 c 1.52539,-0.21957 2.50968,-1.11056 2.77098,-2.50832 0.28037,-1.49984 -0.39631,-2.86976 -1.64823,-3.33677 l -0.4312,-0.16085 0.30985,-0.10225 c 0.43028,-0.14201 1.11356,-0.78085 1.34905,-1.26131 0.15859,-0.32358 0.1971,-0.54233 0.19787,-1.12406 8.5e-4,-0.62059 -0.0326,-0.79066 -0.2375,-1.20788 -0.58994,-1.20134 -2.11057,-1.82641 -3.89333,-1.60037 -1.01343,0.12849 -1.57111,0.37349 -2.12124,0.93191 -0.56179,0.57025 -0.75747,1.05499 -0.75747,1.87634 0,1.0843 0.44402,1.82341 1.37483,2.28854 0.28698,0.1434 0.44875,0.26109 0.3595,0.26153 -0.27388,10e-4 -1.01318,0.4785 -1.3707,0.88466 -0.47462,0.5392 -0.64844,1.13728 -0.60285,2.07431 0.0726,1.4915 0.81901,2.46038 2.19474,2.84878 0.81714,0.2307 1.56468,0.27119 2.5057,0.13574 z m -11.38026,-5.37299 c 1.22385,-3.17549 1.99045,-5.27822 1.99045,-5.45969 v -0.29512 h -3.56898 -3.56898 v 0.63732 0.63731 h 2.59176 c 1.48667,0 2.59176,0.0327 2.59176,0.0768 0,0.0422 -0.82214,2.20775 -1.82698,4.81228 -1.00484,2.60452 -1.82698,4.75099 -1.82698,4.76991 0,0.0189 0.36619,0.0235 0.81375,0.0101 l 0.81375,-0.0243 z"
     id="path7480" />
  <path
     style="fill:#d5e5ff;stroke-width:0.0849757"
     d="m 208.19042,266.75259 c 0,-0.0202 0.80302,-1.28923 1.78449,-2.82013 l 1.78449,-2.78347 -0.003,1.35025 -0.003,1.35025 -1.28485,1.44459 -1.28485,1.44459 -0.49653,0.0253 c -0.2731,0.0139 -0.49654,0.009 -0.49654,-0.0114 z"
     id="path7519" />
  <path
     style="fill:#d5e5ff;stroke-width:0.0849757"
     d="m 210.64809,266.54747 c 0.0962,-0.12852 0.38466,-0.46312 0.64104,-0.74354 l 0.46615,-0.50985 0.002,0.74354 0.002,0.74353 h -0.6431 -0.64311 z"
     id="path7558" />
  <path
     style="fill:#d5e5ff;stroke-width:0.0849757"
     d="M 200.54261,74.99104 V 50.518043 h 24.473 24.47299 V 74.99104 99.464036 h -24.47299 -24.473 z m 20.56412,-5.647877 1.82697,-2.072457 1.25339,-0.0062 1.2534,-0.0062 v 1.274635 1.274635 h 0.80726 0.80727 v -1.274635 -1.274635 h 0.76478 0.76479 V 66.620988 65.98367 h -0.76479 -0.76478 l 0.003,-1.678269 0.003,-1.67827 1.99189,-2.251856 c 1.09554,-1.23852 1.99195,-2.290094 1.99202,-2.336831 7e-5,-0.04674 -0.15832,-0.197151 -0.35199,-0.334254 l -0.35212,-0.249279 -0.21965,0.261236 c -0.12081,0.14368 -0.8506,0.973259 -1.62175,1.84351 l -1.4021,1.582272 -0.0237,-1.150784 -0.0237,-1.150784 -0.99396,0.02392 -0.99397,0.02392 -2.26909,3.441515 -2.2691,3.441515 -0.006,0.739655 -0.006,0.739654 0.56642,0.02513 0.56642,0.02513 -1.58403,1.78449 -1.58404,1.784489 0.30948,0.276171 c 0.17021,0.151894 0.35091,0.274722 0.40154,0.272951 0.0506,-0.0018 0.9142,-0.935826 1.91904,-2.075678 z m 17.09569,0.721419 c 1.72272,-0.532096 2.6643,-2.221029 2.37796,-4.265433 -0.13147,-0.938709 -0.47209,-1.627747 -1.07875,-2.182198 -0.69126,-0.631769 -1.22262,-0.814518 -2.37699,-0.817504 -0.84644,-0.0022 -0.9789,0.01928 -1.40234,0.227242 -0.25719,0.126312 -0.6109,0.360903 -0.78603,0.521315 l -0.31841,0.291655 0.001,-0.308876 c 6.8e-4,-0.169882 0.0577,-0.548262 0.12668,-0.840846 0.28041,-1.189344 0.97224,-2.072526 1.8545,-2.367432 0.78914,-0.26378 2.26659,-0.130201 3.05197,0.275934 l 0.24081,0.124531 -0.0246,-0.74746 -0.0246,-0.747459 -0.72229,-0.186045 c -0.80985,-0.208598 -1.86004,-0.250188 -2.56633,-0.101633 -1.56756,0.329706 -2.82615,1.680494 -3.30555,3.547714 -0.31916,1.243063 -0.29693,3.285696 0.0505,4.642702 0.19159,0.748266 0.67369,1.675857 1.09782,2.112256 0.39482,0.406232 1.03202,0.773172 1.55785,0.897101 0.59291,0.139738 1.66637,0.103632 2.24654,-0.07556 z m -22.02428,-0.681937 v -0.679806 h -1.18966 -1.18966 v -4.843614 -4.843614 l -0.74354,-5.7e-5 c -0.49352,-3.9e-5 -1.19357,0.08978 -2.0819,0.267128 l -1.33837,0.267186 v 0.710092 c 0,0.39055 0.0131,0.710092 0.0292,0.710092 0.0161,0 0.59563,-0.114717 1.28789,-0.254927 0.69227,-0.14021 1.27182,-0.254927 1.28789,-0.254927 0.0161,0 0.0292,1.854594 0.0292,4.121321 v 4.12132 h -1.23214 -1.23215 v 0.679806 0.679805 h 3.18659 3.18659 z"
     id="path7597" />
  <path
     style="fill:#d5e5ff;stroke-width:0.0849757"
     d="m 221.88567,65.912598 c 0.0156,-0.03906 0.81222,-1.295517 1.77033,-2.792127 l 1.742,-2.721108 0.0234,1.307648 0.0234,1.307648 -1.32258,1.484479 -1.32258,1.484479 h -0.47116 c -0.25914,0 -0.45842,-0.03196 -0.44284,-0.07102 z"
     id="path7636" />
  <path
     style="fill:#d5e5ff;stroke-width:0.0849757"
     d="m 224.16922,65.919886 c 0.002,-0.03505 0.28755,-0.369645 0.63487,-0.743538 l 0.6315,-0.679805 0.002,0.743537 0.002,0.743537 h -0.63732 c -0.35053,0 -0.6358,-0.02868 -0.63395,-0.06373 z"
     id="path7675" />
  <path
     style="fill:#d5e5ff;stroke-width:0.0849757"
     d="M 200.54261,26.002559 V 2.5067826 h 24.473 24.47299 V 26.002559 49.498335 h -24.47299 -24.473 z m 7.28513,-6.797412 1.84976,-2.081262 1.25339,-6.43e-4 1.25339,-6.42e-4 v 1.317123 1.317123 h 0.76478 0.76478 V 18.439723 17.1226 h 0.76478 0.76478 v -0.637318 -0.637317 h -0.76478 -0.76478 V 14.20542 12.562875 l 0.4516,-0.503091 c 0.24839,-0.2767 1.17053,-1.323407 2.04921,-2.326014 l 1.5976,-1.8229229 -0.24347,-0.1994506 c -0.51533,-0.422151 -0.39263,-0.5069925 -2.16841,1.4993785 l -1.64404,1.857519 -0.0236,-1.1791433 -0.0236,-1.1791433 h -0.95529 -0.95529 l -2.27145,3.4601126 -2.27145,3.460113 v 0.742301 0.742301 l 0.54911,0.02513 0.54911,0.02513 -1.56882,1.782999 c -0.86285,0.980649 -1.56882,1.809577 -1.56882,1.842062 0,0.08921 0.53727,0.494239 0.65703,0.495317 0.0576,5.1e-4 0.93708,-0.935626 1.95444,-2.080319 z m 18.04986,0.938938 c 1.09995,-0.233141 1.84765,-0.80419 2.3223,-1.773644 0.7145,-1.45933 0.52176,-3.408625 -0.44315,-4.481837 -0.72784,-0.809543 -1.49159,-1.134107 -2.65617,-1.128781 -0.90793,0.0042 -1.52183,0.225698 -2.12292,0.766129 l -0.43164,0.388075 0.0539,-0.371398 c 0.25054,-1.727299 0.75167,-2.632704 1.72047,-3.108458 0.43769,-0.214939 0.56616,-0.236715 1.37504,-0.233089 0.85873,0.0038 1.10315,0.05415 2.06066,0.424095 0.13447,0.05195 0.14871,-0.01168 0.14871,-0.6644211 V 9.2388807 l -0.78603,-0.1949551 c -1.95469,-0.4848157 -3.66805,-0.057152 -4.74091,1.1833554 -0.46699,0.539956 -0.97175,1.571462 -1.1584,2.36723 -0.22017,0.938666 -0.21854,3.273279 0.003,4.230674 0.31613,1.366523 1.01705,2.472178 1.89242,2.985179 0.39867,0.233635 1.23526,0.440089 1.81582,0.448105 0.21032,0.0029 0.63645,-0.04857 0.94697,-0.114384 z m 11.04574,2.54e-4 c 1.81091,-0.383841 3.04862,-1.822984 3.47577,-4.041422 0.11756,-0.610595 0.11719,-2.600791 -6e-4,-3.35699 -0.35694,-2.290889 -1.46167,-3.6149571 -3.22476,-3.8650082 -1.9974,-0.2832824 -3.64568,0.7531247 -4.12511,2.5937942 -0.26557,1.019573 -0.12043,2.327911 0.35518,3.201763 0.96709,1.776851 3.75641,2.22216 5.21687,0.832861 0.38491,-0.366155 0.39304,-0.340646 0.20488,0.642746 -0.23761,1.241892 -0.80492,2.107262 -1.64992,2.516775 -0.60642,0.293887 -1.7167,0.312932 -2.60025,0.0446 -0.37389,-0.113549 -0.74672,-0.235238 -0.82851,-0.270419 -0.13498,-0.05806 -0.14871,0.0027 -0.14871,0.658111 v 0.722076 l 0.65857,0.174539 c 1.10219,0.292116 1.79921,0.330427 2.66662,0.146571 z"
     id="path7714" />
  <path
     style="fill:#d5e5ff;stroke-width:0.0849757"
     d="m 210.07524,13.447402 c 0.84617,-1.32031 1.65102,-2.582199 1.78856,-2.804198 0.13755,-0.221999 0.26592,-0.403634 0.28528,-0.403634 0.0194,0 0.0352,0.583841 0.0352,1.297425 v 1.297426 l -1.32959,1.506772 -1.32958,1.506772 h -0.49418 -0.49418 z"
     id="path7753" />
  <path
     style="fill:#d5e5ff;stroke-width:0.0849757"
     d="m 211.09095,15.527143 c 0.15733,-0.176452 0.4677,-0.524739 0.68969,-0.773972 l 0.40364,-0.453149 v 0.773971 0.773972 h -0.68969 -0.6897 z"
     id="path7792" />
  <path
     style="fill:#d5e5ff;stroke-width:0.0849757"
     d="M 50.560531,26.002559 V 2.5067826 H 74.99104 99.421548 V 26.002559 49.498335 H 74.99104 50.560531 Z m 12.868046,7.012479 c 2.21632,-0.762526 3.400967,-3.366945 3.03509,-6.672576 -0.303587,-2.74284 -1.376178,-4.191904 -3.300762,-4.459304 -1.442852,-0.20047 -2.795868,0.3091 -3.549825,1.336926 -0.929768,1.267497 -0.92171,3.59184 0.01669,4.814789 0.661518,0.862106 1.575273,1.27172 2.827353,1.267435 0.890056,-0.003 1.505622,-0.218479 2.087324,-0.730514 l 0.405298,-0.356757 -0.05327,0.509638 c -0.1712,1.637945 -0.912708,2.727243 -2.089341,3.069299 -0.616755,0.179296 -1.733973,0.117574 -2.431917,-0.134351 -0.280419,-0.101219 -0.578398,-0.206261 -0.662174,-0.233427 -0.139477,-0.04523 -0.150223,0.01035 -0.127463,0.659262 l 0.02486,0.708654 0.509854,0.155362 c 1.17322,0.357503 2.389676,0.38161 3.308282,0.06556 z m 7.974412,-13.4709 1.850394,-2.081635 h 1.227762 1.227762 l 0.02346,1.295879 0.02346,1.295879 h 0.764781 0.764781 l 0.02346,-1.295879 0.02346,-1.295879 h 0.762569 0.762567 v -0.637318 -0.637318 h -0.764781 -0.764781 l 0.0045,-1.678269 0.0045,-1.67827 1.660306,-1.869465 C 79.910437,9.9336573 80.815213,8.9052171 81.007883,8.6764406 L 81.358192,8.2604832 81.026417,7.9736865 C 80.84394,7.8159484 80.669112,7.6972167 80.637908,7.7098385 c -0.0312,0.012622 -0.779166,0.8375466 -1.662139,1.8331665 l -1.60541,1.810218 -0.02366,-1.154332 -0.02366,-1.1543325 -0.99112,0.02392 -0.99112,0.02392 -2.278028,3.4691505 -2.278029,3.469149 v 0.715902 0.715903 h 0.552342 c 0.303788,0 0.552342,0.02102 0.552342,0.04672 0,0.02569 -0.678743,0.813422 -1.508318,1.750503 -0.829575,0.93708 -1.518258,1.766876 -1.530406,1.84399 -0.02126,0.134932 0.436065,0.522889 0.615721,0.522329 0.04739,-1.7e-4 0.918849,-0.937005 1.936565,-2.081905 z M 66.111081,19.375701 V 18.73963 l -2.547419,-0.02249 -2.547419,-0.02249 1.94874,-2.017167 C 65.615533,13.933863 65.96541,13.393321 65.977,12.024059 65.9847,11.108602 65.800155,10.554644 65.303141,10.001846 64.211336,8.787495 62.319281,8.5182346 60.03532,9.2521758 l -0.849757,0.2730656 -0.02443,0.7820426 c -0.01344,0.430123 -0.0093,0.782043 0.0093,0.782043 0.01854,0 0.327859,-0.135905 0.687374,-0.302012 1.737082,-0.8025812 3.214974,-0.8274396 3.997724,-0.06724 0.411967,0.400096 0.570248,0.786448 0.567385,1.38494 -0.0049,1.014089 -0.444788,1.617558 -3.261429,4.473747 l -2.103361,2.132894 v 0.650059 0.65006 h 3.526491 3.526491 z m 22.22762,-4.570978 C 89.562553,11.629228 90.32915,9.526498 90.32915,9.3450361 V 9.0499102 h -3.568978 -3.568979 v 0.6373176 0.6373172 h 2.591758 c 1.486669,0 2.591759,0.03274 2.591759,0.07678 0,0.04223 -0.82214,2.207753 -1.826978,4.812279 -1.004837,2.604527 -1.826977,4.750988 -1.826977,4.769914 0,0.01893 0.366187,0.02347 0.813749,0.01009 l 0.813747,-0.02432 z"
     id="path7831" />
  <path
     style="fill:#d5e5ff;stroke-width:0.0849757"
     d="m 72.223643,16.028543 c 0.0469,-0.08763 0.851262,-1.355257 1.787479,-2.816952 l 1.702211,-2.657627 v 1.336829 1.33683 l -1.295879,1.474435 -1.295879,1.474436 -0.4916,0.0057 c -0.45512,0.0053 -0.485273,-0.0061 -0.406332,-0.153637 z"
     id="path7870" />
  <path
     style="fill:#d5e5ff;stroke-width:0.0849757"
     d="m 74.519688,16.03916 c 0.04783,-0.08179 0.334945,-0.416381 0.638025,-0.743537 l 0.551055,-0.59483 0.0023,0.743537 0.0023,0.743537 h -0.640307 c -0.586298,0 -0.632972,-0.01254 -0.553338,-0.148707 z"
     id="path7909" />
  <path
     style="fill:#d5e5ff;stroke-width:0.0849757"
     d="M 50.560531,74.99104 V 50.518043 H 74.99104 99.421548 V 74.99104 99.464036 H 74.99104 50.560531 Z M 70.03325,70.839813 c 0.296479,-0.320236 1.13176,-1.25618 1.856177,-2.079874 l 1.317123,-1.497627 1.253392,-0.002 1.253391,-0.002 v 1.317123 1.317123 h 0.764781 0.764781 v -1.317123 -1.317123 h 0.764781 0.764781 v -0.637318 -0.637318 h -0.764781 -0.764781 l 0.0019,-1.635782 0.0019,-1.635781 1.282188,-1.444587 c 0.705204,-0.794523 1.627519,-1.843454 2.04959,-2.330958 l 0.767401,-0.886371 -0.245753,-0.20127 c -0.509849,-0.417563 -0.390569,-0.500839 -2.166679,1.512677 l -1.648049,1.868341 -0.02358,-1.192113 -0.02358,-1.192113 -0.953644,0.0016 -0.953643,0.0016 -2.273099,3.469874 -2.2731,3.469874 v 0.730931 0.730931 l 0.561311,0.02513 0.561312,0.02513 -1.09241,1.235971 c -0.600824,0.679784 -1.321145,1.497139 -1.600711,1.816343 l -0.508302,0.580372 0.292653,0.244317 c 0.160959,0.134375 0.338316,0.244318 0.394126,0.244318 0.05581,0 0.344048,-0.262012 0.640528,-0.582248 z m 17.386356,-0.735348 c 1.203774,-0.283818 2.185377,-1.066791 2.583189,-2.060471 0.167542,-0.418498 0.195497,-0.640216 0.195497,-1.550523 0,-0.912132 -0.02779,-1.13164 -0.196703,-1.553744 -0.400963,-1.001985 -1.478802,-1.866599 -2.623051,-2.104144 -0.480607,-0.09977 -1.83865,-0.07025 -2.21166,0.04808 l -0.191196,0.06065 v -1.284546 -1.284546 h 2.251856 2.251855 V 59.695416 59.01561 h -2.931661 -2.931661 v 2.801178 2.801178 l 0.361147,-0.154042 c 0.632392,-0.269738 1.273834,-0.387996 2.07696,-0.382914 0.702165,0.0044 0.837079,0.03251 1.335341,0.277804 0.313349,0.154262 0.667444,0.409703 0.814655,0.587686 0.654905,0.791802 0.668339,2.207899 0.029,3.056619 -0.745912,0.990189 -2.653299,1.203214 -4.425904,0.494305 l -0.70105,-0.280367 v 0.789115 0.789117 l 0.786025,0.174379 c 1.060595,0.235292 1.08444,0.238126 2.103148,0.249904 0.526896,0.0061 1.110072,-0.04104 1.424216,-0.115108 z m -21.308525,-0.72182 v -0.679806 h -2.556664 -2.556665 l 1.845495,-1.890709 c 2.000596,-2.04961 2.470943,-2.615895 2.876111,-3.462759 0.23871,-0.498939 0.264174,-0.630393 0.263382,-1.359611 -7.64e-4,-0.693253 -0.03253,-0.875054 -0.225012,-1.287208 -0.841715,-1.802357 -3.112279,-2.329527 -5.955366,-1.382693 l -0.659287,0.219563 v 0.794778 0.794779 l 0.711328,-0.33334 c 0.926524,-0.434184 1.646148,-0.616552 2.432772,-0.616519 0.700552,3.1e-5 1.07285,0.121007 1.512045,0.491329 0.625829,0.527691 0.813063,1.478369 0.451943,2.29474 -0.2996,0.677295 -0.736743,1.190717 -3.002737,3.526701 l -2.18592,2.253437 -0.0022,0.658562 -0.0022,0.658561 h 3.526491 3.526491 z"
     id="path7948" />
  <path
     style="fill:#d5e5ff;stroke-width:0.0849757"
     d="m 72.144354,65.931651 c 0,-0.04805 2.645091,-4.211615 3.28632,-5.172904 l 0.282659,-0.423744 v 1.333116 1.333116 l -1.326642,1.491191 -1.326643,1.491191 h -0.457847 c -0.251816,0 -0.457847,-0.02338 -0.457847,-0.05197 z"
     id="path7987" />
  <path
     style="fill:#d5e5ff;stroke-width:0.0849757"
     d="m 74.993496,65.261324 c 0.360661,-0.397261 0.670168,-0.722293 0.687792,-0.722293 0.01763,0 0.03205,0.325032 0.03205,0.722293 v 0.722293 h -0.687792 -0.687793 z"
     id="path8026" />
  <path
     style="fill:#cccccc;stroke-width:0.515276"
     d=""
     id="path8256" />
  <path
     style="fill:#cccccc;stroke-width:0.364466"
     d=""
     id="path8443" />
  <path
     style="fill:#cccccc;stroke-width:0.364466"
     d=""
     id="path8482" />
  <path
     style="fill:#cccccc;stroke-width:0.163417"
     d="m 92.034169,225.76135 c -0.21608,-0.2405 -1.164433,0.6201 40.406401,-36.66724 9.46861,-8.49294 17.21566,-15.49278 17.21566,-15.55519 0,-0.0624 -12.55614,-11.197 -27.9025,-24.74355 -25.442167,-22.45831 -27.87878,-24.65198 -27.633571,-24.8785 0.245208,-0.2265 0.385424,-0.14464 1.590175,0.9284 7.081176,6.30698 54.546306,48.1228 54.624196,48.1228 0.0564,0 11.80562,-10.49235 26.10942,-23.31633 14.30381,-12.82397 26.63958,-23.88119 27.41285,-24.57159 1.26276,-1.12744 1.43245,-1.23077 1.66641,-1.01465 0.23396,0.21611 -2.52801,2.74103 -27.12313,24.79516 -15.06098,13.505 -27.38362,24.60904 -27.38362,24.67566 0,0.0667 12.15777,10.85038 27.01726,23.96392 25.01199,22.07317 26.99786,23.863 26.75609,24.11503 -0.24231,0.25263 -0.51362,0.048 -3.76548,-2.84042 -12.65697,-11.24217 -50.57385,-44.62882 -50.68453,-44.62882 -0.0742,0 -13.11856,11.64416 -28.9876,25.87589 -15.86906,14.23175 -28.911923,25.89593 -28.984146,25.9204 -0.07215,0.0245 -0.22246,-0.057 -0.333885,-0.18097 z"
     id="path8562" />
</svg>
