<?xml version="1.0" encoding="UTF-8" standalone="no"?>
<svg
   version="1.1"
   width="500"
   height="500"
   id="svg36"
   sodipodi:docname="xy-wings.svg"
   inkscape:version="1.1.2 (1:1.1+202202050950+0a00cf5339)"
   xmlns:inkscape="http://www.inkscape.org/namespaces/inkscape"
   xmlns:sodipodi="http://sodipodi.sourceforge.net/DTD/sodipodi-0.dtd"
   xmlns="http://www.w3.org/2000/svg"
   xmlns:svg="http://www.w3.org/2000/svg">
  <defs
     id="defs40" />
  <sodipodi:namedview
     id="namedview38"
     pagecolor="#ffffff"
     bordercolor="#666666"
     borderopacity="1.0"
     inkscape:pageshadow="2"
     inkscape:pageopacity="0.0"
     inkscape:pagecheckerboard="0"
     showgrid="false"
     inkscape:zoom="1.9407086"
     inkscape:cx="98.160021"
     inkscape:cy="101.50931"
     inkscape:window-width="2488"
     inkscape:window-height="1403"
     inkscape:window-x="1992"
     inkscape:window-y="0"
     inkscape:window-maximized="1"
     inkscape:current-layer="svg36" />
  <polyline
     points="0,0 450,0 450,450 0,450 0,0"
     style="fill:none;stroke:black;stroke-width:5"
     id="polyline2" />
  <polyline
     points="0,50 450,50"
     style="fill:none;stroke:black;stroke-width:1"
     id="polyline4" />
  <polyline
     points="0,100 450,100"
     style="fill:none;stroke:black;stroke-width:1"
     id="polyline6" />
  <polyline
     points="0,150 450,150"
     style="fill:none;stroke:black;stroke-width:5"
     id="polyline8" />
  <polyline
     points="0,200 450,200"
     style="fill:none;stroke:black;stroke-width:1"
     id="polyline10" />
  <polyline
     points="0,250 450,250"
     style="fill:none;stroke:black;stroke-width:1"
     id="polyline12" />
  <polyline
     points="0,300 450,300"
     style="fill:none;stroke:black;stroke-width:5"
     id="polyline14" />
  <polyline
     points="0,350 450,350"
     style="fill:none;stroke:black;stroke-width:1"
     id="polyline16" />
  <polyline
     points="0,400 450,400"
     style="fill:none;stroke:black;stroke-width:1"
     id="polyline18" />
  <polyline
     points="50,0 50,450"
     style="fill:none;stroke:black;stroke-width:1"
     id="polyline20" />
  <polyline
     points="100,0 100,450"
     style="fill:none;stroke:black;stroke-width:1"
     id="polyline22" />
  <polyline
     points="150,0 150,450"
     style="fill:none;stroke:black;stroke-width:5"
     id="polyline24" />
  <polyline
     points="200,0 200,450"
     style="fill:none;stroke:black;stroke-width:1"
     id="polyline26" />
  <polyline
     points="250,0 250,450"
     style="fill:none;stroke:black;stroke-width:1"
     id="polyline28" />
  <polyline
     points="300,0 300,450"
     style="fill:none;stroke:black;stroke-width:5"
     id="polyline30" />
  <polyline
     points="350,0 350,450"
     style="fill:none;stroke:black;stroke-width:1"
     id="polyline32" />
  <polyline
     points="400,0 400,450"
     style="fill:none;stroke:black;stroke-width:1"
     id="polyline34" />
  <text
     x="264.80576"
     y="135.02051"
     font-size="30px"
     id="text60">4</text>
  <text
     x="64.090637"
     y="35.849808"
     font-size="30px"
     id="text60-3">4</text>
  <text
     x="15.567662"
     y="87.084511"
     font-size="30px"
     id="text132">5</text>
  <text
     x="166.45653"
     y="36.683693"
     font-size="30px"
     id="text132-6">5</text>
  <text
     x="114.73911"
     y="134.48611"
     font-size="30px"
     id="text36">8</text>
  <text
     x="215.4639"
     y="85.982254"
     font-size="30px"
     id="text36-7">8</text>
  <text
     x="113.75573"
     y="85.412956"
     font-size="30px"
     id="text136">7</text>
  <text
     x="215.10136"
     y="135.50882"
     font-size="30px"
     id="text158">3</text>
  <text
     x="65.8853"
     y="134.96637"
     font-size="30px"
     id="text234">6</text>
  <text
     x="64.543472"
     y="87.082344"
     font-size="30px"
     id="text192">9</text>
  <text
     x="216.51898"
     y="36.824348"
     font-size="30px"
     id="text192-5">9</text>
  <text
     x="7.0518084"
     y="119.81236"
     style="fill:#000000"
     font-size="15px"
     id="text168">1</text>
  <text
     x="255.98759"
     y="18.259607"
     style="fill:#000000"
     font-size="15px"
     id="text168-6">1</text>
  <text
     x="254.81549"
     y="68.153694"
     style="fill:#000000"
     font-size="15px"
     id="text168-2">1</text>
  <text
     x="20.040739"
     y="20.03583"
     style="fill:#000000"
     font-size="15px"
     id="text250">2</text>
  <text
     x="19.66976"
     y="120.07176"
     style="fill:#000000"
     font-size="15px"
     id="text250-9">2</text>
  <text
     x="157.53487"
     y="119.38551"
     style="fill:#000000"
     font-size="15px"
     id="text250-1">2</text>
  <text
     x="155.57784"
     y="68.427612"
     style="fill:#000000"
     font-size="15px"
     id="text250-2">2</text>
  <text
     x="33.618992"
     y="19.766823"
     style="fill:#000000"
     font-size="15px"
     id="text268">3</text>
  <text
     x="118.07129"
     y="18.335703"
     style="fill:#000000"
     font-size="15px"
     id="text268-7">3</text>
  <text
     x="167.39275"
     y="68.388824"
     style="fill:#000000"
     font-size="15px"
     id="text282">6</text>
  <text
     x="267.37399"
     y="68.367264"
     style="fill:#000000"
     font-size="15px"
     id="text282-0">6</text>
  <text
     x="267.37048"
     y="18.786974"
     style="fill:#000000"
     font-size="15px"
     id="text222">7</text>
  <text
     x="169.89069"
     y="118.968"
     style="fill:#000000"
     font-size="15px"
     id="text222-9">7</text>
  <path
     style="fill:#ff0000;stroke-width:0.158679"
     d="m 8.8759068,20.052411 v -0.469363 l 1.2297632,-0.04634 1.229763,-0.04635 0.04226,-4.244665 c 0.02324,-2.334566 -0.01246,-4.242157 -0.07934,-4.239091 -0.06688,0.0031 -0.585737,0.107666 -1.153015,0.232444 -1.4683222,0.322973 -1.4546572,0.326405 -1.3980212,-0.351169 l 0.04925,-0.589187 1.3487722,-0.27629 c 0.741825,-0.1519599 1.616543,-0.2795559 1.943819,-0.2835479 l 0.595046,-0.0073 v 4.9190509 4.919052 h 1.190097 1.19009 v 0.476037 0.476037 H 11.970148 8.8759058 Z"
     id="path2036" />
  <path
     style="fill:#ff0000;stroke-width:0.0849757"
     d="m 6.4469028,21.344289 c -0.239782,-0.201437 -0.312026,-0.313286 -0.258616,-0.400392 0.09331,-0.15218 4.4185352,-5.413376 10.3475512,-12.5867429 l 0.833759,-1.008745 0.334657,0.265053 c 0.18406,0.145779 0.334656,0.28399 0.334656,0.307136 0,0.02314 -1.043586,1.3105 -2.31908,2.8607889 -1.275494,1.550288 -2.604302,3.166346 -2.952905,3.59124 -1.499977,1.82824 -5.8090272,7.054095 -5.8941492,7.148205 -0.07148,0.07902 -0.170547,0.03795 -0.425873,-0.176543 z"
     id="path2309" />
  <path
     style="fill:#ff0000;stroke-width:0.158679"
     d="m 106.92891,18.203766 v -0.469363 l 1.22976,-0.04634 1.22976,-0.04635 0.0423,-4.244665 c 0.0232,-2.334566 -0.0125,-4.2421571 -0.0793,-4.2390911 -0.0669,0.0031 -0.58573,0.107666 -1.15301,0.232444 -1.46832,0.322973 -1.45466,0.326405 -1.39802,-0.351169 l 0.0493,-0.589187 1.34877,-0.27629 c 0.74182,-0.15196 1.61654,-0.279556 1.94382,-0.283548 l 0.59504,-0.0073 v 4.9190511 4.919052 h 1.1901 1.19009 v 0.476037 0.476037 h -3.09424 -3.09424 z"
     id="path2036-9" />
  <path
     style="fill:#ff0000;stroke-width:0.0849757"
     d="m 104.4999,19.495644 c -0.23978,-0.201437 -0.31202,-0.313286 -0.25861,-0.400392 0.0933,-0.15218 4.41853,-5.413376 10.34755,-12.5867431 l 0.83376,-1.008745 0.33465,0.265053 c 0.18406,0.145779 0.33466,0.28399 0.33466,0.307136 0,0.02314 -1.04359,1.3105 -2.31908,2.860789 -1.27549,1.5502881 -2.6043,3.1663461 -2.95291,3.5912401 -1.49997,1.82824 -5.80902,7.054095 -5.89414,7.148205 -0.0715,0.07902 -0.17055,0.03795 -0.42588,-0.176543 z"
     id="path2309-4" />
  <path
     style="fill:#87aade;stroke-width:0.0849757"
     d="M 2.5492705,124.02201 V 100.56872 H 26.002559 49.455847 v 23.45329 23.45329 H 26.002559 2.5492705 Z m 25.2201075,-4.56744 -0.02482,-0.65857 -2.53643,-0.0225 -2.53643,-0.0225 1.83287,-1.87138 c 2.041345,-2.08423 2.487623,-2.61977 2.877591,-3.45311 0.232378,-0.49658 0.268196,-0.66714 0.272486,-1.29754 0.0065,-0.95641 -0.17649,-1.47745 -0.732598,-2.08592 -1.134654,-1.24149 -2.942015,-1.46388 -5.401957,-0.66468 l -0.70105,0.22777 v 0.79229 c 0,0.43576 0.01693,0.79229 0.03763,0.79229 0.0207,0 0.168739,-0.0774 0.328982,-0.1719 1.080437,-0.63747 2.864021,-0.94759 3.67301,-0.63863 0.826499,0.31564 1.223763,0.89694 1.227003,1.79542 0.0015,0.40669 -0.05212,0.62508 -0.250226,1.01971 -0.344902,0.68707 -0.64325,1.03088 -3.02802,3.4895 l -2.073356,2.13756 v 0.64539 0.6454 h 3.530065 3.530066 z m -12.558731,-0.27618 v -0.6798 h -1.189659 -1.18966 v -4.84361 -4.84362 h -0.696852 c -0.441348,0 -1.204686,0.1003 -2.081904,0.27356 l -1.3850524,0.27356 v 0.70366 c 0,0.38701 0.03298,0.70366 0.07329,0.70366 0.072069,0 1.9959794,-0.37999 2.3697604,-0.46805 l 0.191196,-0.045 v 4.12061 4.1206 l -1.210904,0.0236 -1.2109032,0.0236 -0.024818,0.65856 -0.024818,0.65856 h 3.1901632 3.190162 z"
     id="path3037" />
  <path
     style="fill:#87aade;stroke-width:0.0849757"
     d="M 250.50831,26.002559 V 2.5067826 h 23.49578 23.49577 V 26.002559 49.498335 h -23.49577 -23.49578 z m 23.17858,-12.34452 c 1.47525,-3.8504964 1.97677,-5.2523838 1.97568,-5.5225498 l -0.001,-0.3620789 -3.54773,0.022176 -3.54774,0.022176 -0.0248,0.6573459 -0.0248,0.657346 2.63137,0.02246 2.63137,0.02246 -1.73579,4.5037118 c -0.95468,2.477041 -1.79274,4.647106 -1.86235,4.822369 l -0.12656,0.31866 0.82783,-0.0018 0.82782,-0.0018 1.97715,-5.160472 z m -9.49749,3.974415 v -0.679805 h -1.18896 -1.18896 l -0.0219,-4.82237 -0.022,-4.8223703 -0.76478,-0.02 c -0.59413,-0.015537 -1.05869,0.041784 -2.08191,0.2568759 l -1.31712,0.2768757 -0.0247,0.6991006 c -0.0221,0.6254676 -0.009,0.6987149 0.12746,0.6954397 0.0837,-0.00201 0.67793,-0.1114404 1.32056,-0.2431709 l 1.16842,-0.2395102 v 4.1095645 4.109565 h -1.18966 -1.18966 v 0.679805 0.679806 h 3.18659 3.18659 z"
     id="path3273" />
  <path
     style="fill:#d5e5ff;stroke-width:0.0849757"
     d="m 152.53135,124.02201 v -23.45329 h 23.45329 23.45329 v 23.45329 23.45329 h -23.45329 -23.45329 z m 13.08625,-5.26723 v -0.67854 l -2.5116,-0.0225 -2.51161,-0.0225 1.93217,-1.99663 c 2.67282,-2.76199 3.06713,-3.40673 2.9894,-4.88783 -0.0633,-1.20616 -0.59958,-1.99102 -1.71799,-2.51439 -0.70569,-0.33023 -1.38298,-0.44468 -2.30169,-0.38893 -0.71518,0.0434 -1.85226,0.3137 -2.55527,0.60744 l -0.29141,0.12176 v 0.76912 c 0,0.42301 0.0155,0.76911 0.0343,0.76911 0.0189,0 0.35347,-0.15196 0.74353,-0.3377 0.92098,-0.43854 1.56325,-0.59746 2.40534,-0.59516 0.82364,0.002 1.22744,0.16112 1.67708,0.65984 0.52721,0.58475 0.61635,1.35583 0.25104,2.17143 -0.2872,0.64122 -0.96491,1.4279 -3.09315,3.59053 l -2.10315,2.13714 v 0.64818 0.64819 h 3.52649 3.52649 z m 10.59256,-4.92985 c 1.46448,-3.79835 1.98238,-5.2356 1.983,-5.50311 l 8.5e-4,-0.36208 -3.54774,0.0222 -3.54773,0.0222 -0.0248,0.65735 -0.0248,0.65734 2.62349,0.0225 2.62349,0.0225 -1.85302,4.80113 c -1.01916,2.64062 -1.85398,4.81207 -1.85515,4.82545 -0.001,0.0134 0.3674,0.0134 0.81906,0 l 0.82119,-0.0243 z"
     id="path3548" />
  <path
     style="fill:#d5e5ff;stroke-width:0.0849757"
     d="M 2.5492705,26.002559 V 2.5067826 H 26.002559 49.455847 V 26.002559 49.498335 H 26.002559 2.5492705 Z m 6.501129,-7.057831 2.2088785,-2.681581 0.02321,1.546609 c 0.01276,0.850634 1.7e-4,1.569799 -0.02798,1.598142 -0.02815,0.02834 -0.573944,0.07065 -1.212868,0.09402 l -1.1616792,0.04249 -0.025485,0.48861 -0.025485,0.48861 h 3.1525812 3.152582 l -0.02548,-0.48861 -0.02548,-0.48861 -1.168416,-0.02364 -1.168416,-0.02364 0.0024,-2.525628 0.0024,-2.525629 1.752003,-2.124392 C 15.46676,11.153063 16.671452,9.6808596 17.180253,9.0499152 L 18.10543,7.9027385 17.783966,7.6278317 C 17.607161,7.4766329 17.424264,7.3542665 17.377527,7.3559062 c -0.04674,0.00164 -1.098311,1.2365641 -2.336831,2.7442768 l -2.251856,2.741295 -0.02316,-1.56715 -0.02316,-1.5671498 -0.826596,0.04501 C 11.461296,9.7769432 10.56862,9.9002531 9.9321993,10.026209 l -1.1571281,0.229011 -0.054319,0.519694 c -0.082578,0.790064 -0.045127,0.806227 1.2425988,0.536289 0.582146,-0.122032 1.115898,-0.221876 1.186114,-0.221876 0.106987,0 0.13487,0.239915 0.172139,1.48118 0.02446,0.814649 0.01761,1.628076 -0.01522,1.807615 -0.04798,0.262409 -0.539442,0.909395 -2.5057291,3.298701 -1.3453201,1.634747 -2.5067571,3.063097 -2.5809711,3.174111 -0.1298857,0.19429 -0.123226,0.212573 0.1779823,0.488611 0.1721044,0.157721 0.3423779,0.286766 0.3783859,0.286766 0.036008,0 1.0594642,-1.206712 2.2743475,-2.681583 z m 19.0765515,0.47348 v -0.678541 l -2.528027,-0.02251 -2.528026,-0.02251 1.927544,-1.976424 c 2.699812,-2.768275 3.104709,-3.424815 3.026859,-4.908041 C 27.890972,9.250877 25.199934,8.1891803 21.817506,9.3610211 l -0.658561,0.2281584 v 0.7870325 0.787031 l 0.616074,-0.282902 c 1.586519,-0.728535 2.849537,-0.877269 3.702775,-0.436043 0.377223,0.19507 0.846128,0.770456 0.95383,1.170431 0.198951,0.738846 -0.08163,1.535282 -0.892124,2.532318 -0.247578,0.30456 -1.353605,1.477457 -2.457837,2.606437 l -2.007694,2.052692 v 0.645286 0.645287 h 3.526491 3.526491 z m 11.447431,0.356149 c 0.707432,-0.224729 1.192454,-0.52032 1.626592,-0.991302 0.586784,-0.636586 0.72376,-1.03609 0.72956,-2.127821 0.0046,-0.856846 -0.01417,-0.971009 -0.224696,-1.370093 -0.277386,-0.525832 -0.880332,-1.075982 -1.394404,-1.272309 l -0.377861,-0.144306 0.342941,-0.153539 c 0.545875,-0.244396 0.890789,-0.552132 1.156669,-1.031998 0.224509,-0.405195 0.247389,-0.521155 0.247389,-1.25376 0,-0.737415 -0.02199,-0.846966 -0.254065,-1.266027 -0.30503,-0.5507815 -0.924146,-1.0453127 -1.627282,-1.2998208 -0.772986,-0.2797917 -2.268199,-0.3106111 -3.513213,-0.072414 -0.532644,0.1019056 -1.037651,0.2223214 -1.122238,0.2675907 -0.127321,0.068141 -0.153793,0.1914911 -0.153793,0.7166357 0,0.7163094 0.02672,0.7372844 0.656316,0.5151514 0.646418,-0.228069 1.990366,-0.4112208 2.607083,-0.3552898 1.077193,0.097692 1.766647,0.5969988 1.881449,1.3625578 0.125623,0.837719 -0.157315,1.395838 -0.873942,1.72392 -0.418069,0.191399 -0.629863,0.226542 -1.569819,0.260484 l -1.086549,0.03923 v 0.616196 0.616196 l 1.125928,0.03723 c 1.244598,0.04116 1.529648,0.122448 2.058936,0.587169 0.576421,0.506104 0.771076,1.246014 0.545107,2.072019 -0.142154,0.519627 -0.767125,1.080261 -1.403173,1.258727 -1.062175,0.298031 -2.892009,0.125493 -3.849484,-0.362975 l -0.346779,-0.176913 v 0.760478 0.760478 l 0.48861,0.143652 c 1.419497,0.41733 3.270832,0.47754 4.330718,0.140846 z"
     id="path3624" />
  <path
     style="fill:#d5e5ff;stroke-width:0.0849757"
     d="M 100.52623,26.002559 V 2.5067826 h 23.45329 23.45329 V 26.002559 49.498335 h -23.45329 -23.45329 z m 6.43204,-8.731252 c 1.12703,-1.367046 2.12804,-2.581136 2.22447,-2.697977 l 0.17531,-0.21244 0.003,1.635782 0.003,1.635782 -0.78602,7.65e-4 c -0.43232,4.25e-4 -0.98678,0.02485 -1.23215,0.05432 l -0.44612,0.05359 v 0.499064 0.499065 l 3.12285,-0.02229 3.12286,-0.02229 0.0255,-0.48861 0.0255,-0.48861 h -1.1939 -1.1939 v -2.556851 -2.556851 l 1.29588,-1.574231 c 2.81843,-3.4238529 3.97261,-4.8584991 3.97261,-4.9379928 0,-0.093878 -0.56782,-0.6134602 -0.66152,-0.6053158 -0.0334,0.00291 -1.07411,1.2410765 -2.31263,2.7514911 l -2.25185,2.7462075 -0.0232,-1.5735081 -0.0232,-1.5735087 -0.74162,0.043371 c -0.40789,0.023854 -1.30141,0.1501118 -1.98561,0.2805734 l -1.244,0.2372026 -0.0545,0.4820254 c -0.0629,0.5559929 -0.007,0.7646717 0.2031,0.7646717 0.082,0 0.61856,-0.095598 1.19225,-0.2124392 0.5737,-0.1168415 1.07606,-0.2124392 1.11637,-0.2124392 0.0403,0 0.0733,0.8018821 0.0733,1.7819601 v 1.78196 l -2.25552,2.739897 c -1.24053,1.506942 -2.41484,2.946402 -2.60956,3.198799 l -0.35404,0.458903 0.31397,0.287732 c 0.17268,0.158253 0.3447,0.287733 0.38227,0.287733 0.0376,0 0.99041,-1.118492 2.11745,-2.485539 z m 16.63886,1.167488 c 0.86506,-0.182428 1.56856,-0.558254 2.0681,-1.104824 0.56541,-0.61865 0.7359,-1.120352 0.73601,-2.165812 8e-5,-0.711556 -0.028,-0.864511 -0.237,-1.290067 -0.27856,-0.567243 -0.68454,-0.949323 -1.31576,-1.238306 l -0.45592,-0.208727 0.41134,-0.190573 c 0.82218,-0.380923 1.29916,-1.082046 1.36559,-2.007286 0.0566,-0.7877339 -0.13568,-1.3937547 -0.60912,-1.9203372 -1.05944,-1.1783533 -2.8862,-1.4321945 -5.63844,-0.7835002 l -0.44612,0.1051498 v 0.7167903 c 0,0.6486941 0.0141,0.7111327 0.14871,0.6572368 0.0818,-0.032754 0.51198,-0.1548535 0.95597,-0.2713312 1.12417,-0.2949111 2.40956,-0.3117009 3.01558,-0.039389 0.54893,0.2466582 0.77164,0.4627833 0.9452,0.9172475 0.30413,0.7963412 -0.0305,1.6110982 -0.80915,1.9701072 -0.41216,0.190035 -0.61801,0.223586 -1.55833,0.253994 l -1.08344,0.03504 v 0.617221 0.617222 l 1.08344,0.03709 c 0.89115,0.03051 1.16249,0.0718 1.52885,0.232647 0.92812,0.40749 1.35481,1.267874 1.12991,2.278386 -0.1501,0.674444 -0.68215,1.215545 -1.40615,1.430087 -1.03401,0.306403 -2.80947,0.145484 -3.77105,-0.341787 -0.22757,-0.115319 -0.43755,-0.185896 -0.46661,-0.156835 -0.0291,0.02906 -0.0528,0.354328 -0.0528,0.722816 v 0.669979 l 0.31866,0.133939 c 0.98189,0.412709 2.98031,0.568928 4.14256,0.323827 z"
     id="path3663" />
</svg>
